/* XPM */
static char * small_eight_xpm[] = {
"8 8 2 1",
" 	c #FFFFFE",
".	c #FFFFFF",
"   ...  ",
" ..   ..",
" ..   ..",
"   ...  ",
"   ...  ",
" ..   ..",
" ..   ..",
"   ...  "};






