/* XPM */
static char * small_three_xpm[] = {
"8 8 2 1",
" 	c #FFFFFE",
".	c #FFFFFF",
"   ...  ",
" ..   ..",
" ..   ..",
"    ..  ",
" ..   ..",
" ..   ..",
"   ...  ",
"   ...  "};


