/* XPM */
static char * small_seven_xpm[] = {
"8 8 2 1",
" 	c #FFFFFE",
".	c #FFFFFF",
" .....  ",
" .....  ",
"      ..",
"      ..",
"      ..",
"    ..  ",
"    ..  ",
"    ..  "};





