/* XPM */
static char * small_nine_xpm[] = {
"8 8 2 1",
" 	c #FFFFFE",
".	c #FFFFFF",
"   ...  ",
"..    ..",
"..    ..",
"  ......",
"      ..",
"      ..",
"    ..  ",
"    ..  "};






