/* XPM */
static char * four_red_xpm[] = {
"15 15 2 1",
" 	c #FFFFFE",
".	c #FF0000",
"       ...     ",
"       ...     ",
"       ...     ",
"    ......     ",
"    ......     ",
"    ......     ",
" ...   ...     ",
" ...   ...     ",
" ...   ...     ",
" ............  ",
" ............  ",
" ............  ",
"       ...     ",
"       ...     ",
"       ...     "};
