/* XPM */
static char * shoot2_xpm[] = {
"6 16 5 1",
" 	c None",
".	c #606957",
"+	c #A3BF88",
"@	c #ECFFA8",
"#	c #FEFEFF",
"  ..  ",
" .... ",
" .... ",
"......",
"..++..",
".++++.",
"++++++",
"++++++",
"++@@++",
"+@@@@+",
"@@@@@@",
"@@@@@@",
"@@##@@",
"@@##@@",
"+@##@+",
" +##+ "};
