/* XPM */
static char * shoot_xpm[] = {
"13 14 3 1",
" 	c None",
".	c #FCFCFC",
"+	c #7BE1F6",
"......+      ",
"  +.....+    ",
"   .......   ",
"    +......  ",
"...+++...... ",
" +..++.......",
"  ...++......",
"  ...++......",
" +..++.......",
"...+++...... ",
"    +......  ",
"   .......   ",
"  +.....+    ",
"......+      "};
