/* XPM */
static char * back_xpm[] = {
"14 18 9 1",
" 	c None",
".	c #15110F",
"+	c #F2EFEC",
"@	c #2850A6",
"#	c #1399D3",
"$	c #B09F8C",
"%	c #443434",
"&	c #705E5C",
"*	c #55E3D3",
"   ........   ",
" ...++++++... ",
".@##########@.",
".############.",
".#@@@@@@@@@@#.",
".#$$%$$$$%$$#.",
".@++&&&&&&++@.",
".$++++++++++$.",
".************.",
".############.",
".#@#@@@@@@#@#.",
".###@####@###.",
".@##@####@##@.",
" ..%%%%%%%%.. ",
" .+%%&&&&%%+. ",
".+##@@..@@##+.",
".+++$$..$$+++.",
" .....  ..... "};
