/* XPM */
static char * enemyShoot_xpm[] = {
"9 6 3 1",
" 	c None",
".	c #FFE3AE",
"+	c #FFB482",
".......+ ",
" +......+",
"  .......",
"  .......",
" +......+",
".......+ "};
