/* XPM */
static char * idle2_xpm[] = {
"34 24 10 1",
" 	c #FFFFFE",
".	c #15110F",
"+	c #B09F8C",
"@	c #F2EFEC",
"#	c #2850A6",
"$	c #1399D3",
"%	c #443434",
"&	c #1D6648",
"*	c #705E5C",
"=	c #55E3D3",
"                                  ",
"                                  ",
"                                  ",
"             ........             ",
"          ....++@@@@....          ",
"         .#$$$$#$#$$$#$#.         ",
"         .$$..$$$#$$$#$$.         ",
"         .$$$$$$.......$.         ",
"         .$####$.......$.         ",
"         .#+%%+#.&...&.#.         ",
"         .+@**@+.&...&.+.         ",
"         .=@**@=.&...&.=.         ",
"         .$====$.......$.         ",
"         .$$$$$$.......$.         ",
"         .$$##$$$$$$$$$$.         ",
"         .#$$$$#$$###$$#.         ",
"          ..%%%%%%%%%%..          ",
"           .@@@@%%***%+.          ",
"          .$@@@@@.##++++.         ",
"          .@@@@@@.++++++.         ",
"           ...... ......          ",
"                                  ",
"                                  ",
"                                  "};
