/* XPM */
static char * right4_xpm[] = {
"28 37 10 1",
" 	c #FFFFFE",
".	c #15110F",
"+	c #B09F8C",
"@	c #F2EFEC",
"#	c #2850A6",
"$	c #1399D3",
"%	c #443434",
"&	c #58AF31",
"*	c #705E5C",
"=	c #55E3D3",
"                            ",
"                            ",
"                            ",
"                            ",
"                            ",
"                            ",
"                            ",
"                            ",
"                            ",
"           ........         ",
"        ....++@@@@....      ",
"       .#$$$$#$#$$$#$#.     ",
"       .$$..$$$#$$$#$$.     ",
"       .$$$$$$.......$.     ",
"       .$####$.......$.     ",
"       .#+%%+#.&...&.#.     ",
"       .+@**@+.&...&.+.     ",
"       .=@**@=.&...&.=.     ",
"       .$====$.......$.     ",
"       .$$$$$$.......$.     ",
"       .$$##$$$$$$$$$$.     ",
"       .#$$$$#$$###$$#.     ",
"        ..%%%%%%%%%%+++.    ",
"         .%%%%%%***%+**.    ",
"        .@@@@.....#+**.     ",
"       .$@@@@@.  .+**.      ",
"       .@@@@@@.   ...       ",
"        ......              ",
"                            ",
"                            ",
"                            ",
"                            ",
"                            ",
"                            ",
"                            ",
"                            ",
"                            "};
