/* XPM */
static char * right3_xpm[] = {
"25 30 10 1",
" 	c #FFFFFF",
".	c #15110F",
"+	c #B09F8C",
"@	c #F2EFEC",
"#	c #2850A6",
"$	c #1399D3",
"%	c #443434",
"&	c #58AF31",
"*	c #705E5C",
"=	c #55E3D3",
"                         ",
"                         ",
"                         ",
"                         ",
"                         ",
"                         ",
"                         ",
"                         ",
"       ........          ",
"    ....++@@@@....       ",
"   .#$$$$#$#$$$#$#.      ",
"   .$$..$$$#$$$#$$.      ",
"   .$$$$$$.......$.      ",
"   .$####$.......$.      ",
"   .#+%%+#.&...&.#.      ",
"   .+@**@+.&...&.+.      ",
"   .=@**@=.&...&.=.      ",
"   .$====$.......$.      ",
"   .$$$$$$.......$.      ",
"   .$$##$$$$$$$$$$.      ",
"   .#$$$$#$$###$$#.      ",
"    ..%%%%%%%%%%..       ",
"    .#%%%@@@@**%.        ",
"    .+#+$@@@@@..         ",
"     .++@@@@@@.          ",
"      ........           ",
"                         ",
"                         ",
"                         ",
"                         "};
