/* XPM */
static char * mcLeft7_xpm[] = {
"35 31 11 1",
" 	c #FFFFFE",
".	c #161516",
"+	c #312B35",
"@	c #838B7B",
"#	c #B6B6B6",
"$	c #D4D7D8",
"%	c #606957",
"&	c #5B5560",
"*	c #A3A79F",
"=	c #C8DFE4",
"-	c #161318",
"                  ......           ",
"                 .+@#$$#.          ",
"               ..+%@#$$$@.         ",
"           ....+++%@##$$#.         ",
"     ......&&&&&&+%@#####.         ",
"    .&##@#####@&&+%##+++..         ",
".....&&++#####@&++%@+@##@.         ",
".$$$$*$*+.........%%++&&+...       ",
".................%++@####@......   ",
"     .###&%%%&&+.+&@%%%%@##@.@$$.  ",
"     .###%%%%&+.+==&#@%%%%@##.@$$. ",
"     .##@++&&+.+@==+&#%@%@@##@.#$$.",
"      .....+++.=@@--&#@%@@@@@#&&##.",
"           ...%=+---@#@@@@####&&#$.",
"             .@+&-%-#@@@@######.#$.",
"             .=+----#%#%#@#####.@$.",
"             .=+----#%#%#@#####.@$.",
"             .@+%-&-#@@@@######.@$.",
"             .+++---@#@@@@####&&$. ",
"              .+-+--&#@%@@@@@#&&$. ",
"              .++-++&#%@%@@##@.@$. ",
"               .+++&#%%%%%@##.@##. ",
"               ..+&@%%%%@##@.@$##. ",
"               .%%++@####@..%$$$$. ",
"               .%%%@++&&+.&%%$$$.  ",
"              .%%%@@+@##@.&%%$$.   ",
"              .%%@###++........    ",
"              .%%@##$$#.           ",
"              .%@#$$$@.            ",
"               .@##$#.             ",
"                .....              "};
