/* XPM */
static char * alien3Left_xpm[] = {
"13 13 8 1",
" 	c None",
".	c #1B1D34",
"+	c #FCFCFC",
"@	c #7BE1F6",
"#	c #52B5AB",
"$	c #E49057",
"%	c #F6C65E",
"&	c #C46833",
"     ..      ",
"..  .+@.     ",
".@..+++.   . ",
".++++.+.  .@.",
".+.+++@. .++.",
" .@++@#..+ +.",
"  .#@$$+.@ +.",
"  ..$%+$#.@@.",
"  .@$%%$+##. ",
"  .#@&$++@.  ",
" .#..@@@#.   ",
" ...#....#.  ",
"   ..   ...  "};
