/* XPM */
static char * alien1_xpm[] = {
"16 16 31 1",
" 	c #FFFFFE",
".	c #000000",
"+	c #1B1D34",
"@	c #2A8379",
"#	c #B0D07E",
"$	c #E687C5",
"%	c #FCFCFC",
"&	c #A759B9",
"*	c #C4C7EE",
"=	c #66AA5D",
"-	c #7BE1F6",
";	c #FFBAE1",
">	c #292F65",
",	c #635D96",
"'	c #589FFC",
")	c #9A8FE0",
"!	c #8056D4",
"~	c #E49057",
"{	c #964968",
"]	c #B2696F",
"^	c #DD867D",
"/	c #1C5659",
"(	c #F6C65E",
"_	c #FFE3AE",
":	c #FFB482",
"<	c #52B5AB",
"[	c #CF5D8B",
"}	c #C46833",
"|	c #5A3B96",
"1	c #5069E4",
"2	c #2E44AE",
"   ++     +++   ",
"  +%*+++++*%*+  ",
" +%>,*%%%*,>,%+ ",
"+%,>>)*)),>>>)%+",
"+*>>)>),>>,>>)*+",
" +*,>),>>>>,>,)+",
" +%)),*%%*>,)*+ ",
" +%*,,%>>%>>*%+ ",
" +**>>%>>*>>)%+ ",
" +*)>>)%*)>>,*+ ",
"+*)>)>>>>>>),*+ ",
"+*,>>)>>>>)>>,)+",
"+)>>>>,>>,)>>,*+",
" +*>>)*****,,)+ ",
"  +))*+++++)*+  ",
"   +++     ++   "};
