/* XPM */
static char * seven_selected_xpm[] = {
"15 15 2 1",
" 	c #FFFFFE",
".	c #08F26E",
" .........     ",
" .........     ",
" .........     ",
"          ...  ",
"          ...  ",
"          ...  ",
"          ...  ",
"          ...  ",
"          ...  ",
"       ...     ",
"       ...     ",
"       ...     ",
"       ...     ",
"       ...     ",
"       ...     "};
