/* XPM */
static char * enemyUp4_xpm[] = {
"45 38 12 1",
" 	c #FFFFFE",
".	c #161319",
"+	c #6B646E",
"@	c #4F4C50",
"#	c #3B353D",
"$	c #A79CA9",
"%	c #FEFEFF",
"&	c #91755C",
"*	c #CDB28B",
"=	c #F1F1BC",
"-	c #EAE0AC",
";	c #654F3D",
"      ...                                    ",
"     .+@...                                  ",
"    .+@.+#.                                  ",
"   .+@..+.                                   ",
"   .++#+#.                                   ",
"   .@+++#...                                 ",
"   .@+++#.+.                                 ",
"   .+++@#@+.                                 ",
"   .+@+##+#.                         .. ..   ",
"   .+@+##@#.   .....                 .#..@.  ",
"   .++@@##.   .#@@@#.                .#+.@+. ",
"   .#+#+#.   .#@@@@....            ...++.@+. ",
"   .@+#@#.   .#@@#.@##@.          .+..#+#@+. ",
"   .@@##.   .####.#@@@@#.         .++.#++++. ",
"  .@+@##.   .###.#@+@@+@#.        .+@.@+++@. ",
"  .+@###.   .##.@+++##+++@.       .####++@@. ",
"  ...@##.....##.+$%+##+%$+.       .####+++.  ",
"    .@##..@##..#$%+#&&#+%$#.      .#@#+@+@.  ",
"   .@+..#@####.#++******++#..     .##+@@+.   ",
"   .#..#@+#@##.#=*&=**=&*=#.#.....##@+#++.   ",
"   .#.@@++@+@.#-*&=*&&*=&*-#.##@...###++.    ",
"    ..+++++@@.*&#-*&&&&*-#&*.@##@#..##+@.    ",
"     .++++++.#@#&*;&--&;*&#@#.+#+@#.##+@.    ",
"    ..@+@+++.+@#-;&-**-&;-#@+.++++@@.#@@.    ",
"     .@+@++.+@#=*&&*;;*&&*=#@+.++++##@...    ",
"    .+@@##.+@#-*&&-;&&;-&&*-#@+.+++.@. ..    ",
"    . .@##...#*@@-*&**&*-@@*#...+@....       ",
"      .+@.. .+@+#*&&&&&&*#+@+.#@+@+@..       ",
"      ..   .+##@;&*&**&*&;@##+.###@@..       ",
"           ...#+#-&&;;&&-#+#...###@...       ",
"             .+@*&&;&&;&&*@+.. #.@@. .       ",
"             .+@&@;&&&&;@&@+.. . @.          ",
"             . .+@@;&&;@@+.#.    .           ",
"                ..@;;;;@..##.                ",
"                  ......###.                 ",
"                     .###@#.                 ",
"                      .#@##.                 ",
"                       ....                  "};
