/* XPM */
static char * enemyLeft6_xpm[] = {
"38 42 12 1",
" 	c #FFFFFE",
".	c #161319",
"+	c #4F4C50",
"@	c #6B646E",
"#	c #3B353D",
"$	c #CDB28B",
"%	c #EAE0AC",
"&	c #91755C",
"*	c #F1F1BC",
"=	c #A79CA9",
"-	c #654F3D",
";	c #FEFEFF",
"              ...                     ",
"   ...........+@. ...                 ",
"  .@@++@@@@#++@+..+##. . ..           ",
" .@+@@@@++@@@++#++@......@            ",
".@+.#@@@@@+#######..+@@+++...         ",
".+..@@@+##+@+#####.#+@@@@++@.         ",
"..@@#########.....#+@@@++##+          ",
" .#....+@+#..   ..+@@@@@@##.          ",
" ..  .@@##.     .+##+@@@@...          ",
"     .....      .##+@+@@.@. ..        ",
"             ....###++..@+..@.        ",
"           ..####.##..#@+##@#....     ",
"          .######...#$++#%$+##@@      ",
"         .#++##..###%&##*$+@+@++.     ",
"         .+++#.+@=@*$#&%$&+#-#$&@.    ",
"         .++#.#@=;@$&%$-&&%$&%&++.    ",
"         .++.#+@;@$&*$-&&%$&$&&-++.   ",
"         .#.++@@@#$*$&&%$-&&&&-&--.   ",
"          ..#++##&$$&&%$-&$&$-&&&-.   ",
"           .#++##&$$&&%$-&$&$-&&&-..  ",
"           .++@@@#$*$&&%$-&&&&-&--.#. ",
"            .#+@;@$&*$-&&%$&$&&-++.##.",
"             .#@=;@$&%$-&&%$&%&++.##+.",
"              .+@=@*$#&%$&+#-#$&@.#+#.",
"               ..###%&##*$+@+@++.####.",
"                 ...#$++#%$+##@@##... ",
"                  .#..#@+##@#.....    ",
"                   .#+..@+..@...      ",
"                   .##@@.@.#..        ",
"                   .+##@@..+###.      ",
"                   ..+@@@@@@##.       ",
"                   ..#+@@@++##++.     ",
"            .......#..#+@@.@+++.      ",
"           .@@@######..+#..++..       ",
"           ..@+##+#+###.#+....        ",
"        .......###@@####+......       ",
"        .##@##+##@+#@@@+.             ",
"         .@@@@@@@++@@+++..            ",
"        ....#@@@@@@@......            ",
"        .++++@@+@+..                  ",
"         .@@@@++..                    ",
"          ......                      "};
