/* XPM */
static char * enemyUp7_xpm[] = {
"43 42 12 1",
" 	c #FFFFFE",
".	c #161319",
"+	c #6B646E",
"@	c #3B353D",
"#	c #4F4C50",
"$	c #A79CA9",
"%	c #FEFEFF",
"&	c #91755C",
"*	c #CDB28B",
"=	c #F1F1BC",
"-	c #EAE0AC",
";	c #654F3D",
"                      .. ..       ...      ",
"                      .+.+@.    ...#+.     ",
"                      .#@+#@.   .@+.#+.    ",
"                      .####@.    .+..#+.   ",
"                      .@#@@#@.   .@+@++.   ",
"                       .@@@@@.   .@+++#.   ",
"                       .@@@@@.  .+.@++#+.  ",
"                       .@@@@@.  .+#@#+++.  ",
"                        .@##@@. .@+@@+#+.  ",
"     ..                 .+###@. .@#@@+#+.  ",
" .. .@.                 .#+##@.  .@@##+@.  ",
" .#..@.                 .@##+#@.  .@+@+@.  ",
".+#.++...             ....@##+@.  .@#@+#.  ",
".+#.+@..+.           .#@@#.###@.   .@@###. ",
".+#@+@.++.          .@####@.@##@.  .@@#+#+.",
".++++#.#+.         .@#+##+#@.@#@.   .@@+...",
" .+++@@@@.        .#+++@@+++#.@@.....@@+.  ",
" .#+++@@@.        .+$%+@@+%$+...@@#..@@#@. ",
"  .+++#@#@.      .@$%+@&&@+%$@.@@@@#@..#@. ",
"  .#+#+#@@.     ..@++******++@.@@@@+#@..@. ",
"   .+#@+#@@.....@.@=*&=**=&*=@.@@##+++#.@. ",
"   .++#@@@...#@@.@-*&=*&&*=&*-@.#++++++.@. ",
"    .++@@..@#@@#.*&@-*&&&&*-@&*.##+++++#.. ",
"    .#+@@.@#+@+.@#@&*;&--&;*&@#@.++++++#.  ",
"    .##@.##++++.+#@-;&-**-&;-@#+.++++#+#+. ",
"    .#..@@++++.+#@=*&&*;;*&&*=@#+.++@@###. ",
"     ...@@+++.+#@-*&&-;&&;-&&*-@#+....#.   ",
"     . .#.+++...@*##-*&**&*-##*@...   ..   ",
"       ....#++@.+#+@*&&&&&&*@+#+. .        ",
"       ..#+#+#.+@@#;&*&**&*&;#@@+.         ",
"        .##@@@...@+@-&&;;&&-@+@...         ",
"        ..#@.@@@.+#*&&;&&;&&*#+.           ",
"        . .##..@.+#&#;&&&&;#&#+.           ",
"           ..  ..@.+##;&&;##+. .           ",
"                .@@..#;;;;#..              ",
"                .@##@......                ",
"                 .###@@.                   ",
"                 .@####@.                  ",
"                  .####@.                  ",
"                  .####@.                  ",
"                  .@##@.                   ",
"                   ....                    "};
