/* XPM */
static char * enemy5_xpm[] = {
"42 29 12 1",
" 	c #FFFFFE",
".	c #161319",
"+	c #4F4C50",
"@	c #654F3D",
"#	c #6B646E",
"$	c #91755C",
"%	c #CDB28B",
"&	c #3B353D",
"*	c #EAE0AC",
"=	c #F1F1BC",
"-	c #A79CA9",
";	c #FEFEFF",
"                  ......                  ",
"                ..+@@@@+..                ",
"             . .#++@$$@++#. .             ",
"        .    .#+$+@$$$$@+$+#.    .        ",
"       .+ .  .#+%$$@$$@$$%+#.  . +.       ",
"    . .++.&...&#&*$$@@$$*&#&...&.++. .    ",
"    .+.+&&&.#&&+@$%$%%$%$@+&&#.&&&+.+.    ",
"    .#++&&+&.#+#&%$$$$$$%&#+#.&+&&++#.    ",
" .   .+#+#...&%++*%$%%$%*++%&...#+#+.   . ",
" .. ..+#+#.#+&*%$$*@$$@*$$%*&+#.#+#+.. .. ",
" .#...#####.#+&=%$$%@@%$$%=&+#.#####...#. ",
" .++&.######.#+&*@$*%%*$@*&+#.######.&++. ",
"  .+&.++####.&+&$%@$**$@%$&+&.####++.&+.  ",
"...&&&.&+#&++.%$&*%$$$$%*&$%.++&#+&.&&&...",
".#++&&..&+&&+.&*%$=%$$%=$%*&.+&&+&..&&++#.",
" .+#+&&...+&&&.&=%$=%%=$%=&.&&&+...&&+#+. ",
"  .+#&+&.......&##%%%%%%##&.......&+&#+.  ",
"  .&#&#&&..   .&-;#&$$&#;-&.   ..&&#&#&.  ",
"  .##++&+&.    .#-;#&&#;-#.    .&+&++##.  ",
"  .##+#&&#&.   .+###&&###+.   .&#&&#+##.  ",
"   .#+#&&+#.    .&+#++#+&.    .#+&&#+#.   ",
"   .###+&.#.     .&++++&.     .#.&+###.   ",
"   .+###&...      .+&&+.      ...&###+.   ",
"   .+####&.        ....        .&####+.   ",
"    .##&##.                    .##&##.    ",
"    .#+..#&.                  .&#..+#.    ",
"     .#+....                  ....+#.     ",
"      .#+.                      .+#.      ",
"       ...                      ...       "};
