/* XPM */
static char * enemyAttack56_xpm[] = {
"41 40 12 1",
" 	c None",
".	c #161318",
"+	c #4F4C50",
"@	c #654F3D",
"#	c #6B646E",
"$	c #91755C",
"%	c #3B353D",
"&	c #CDB28B",
"*	c #EAE0AC",
"=	c #F1F1BC",
"-	c #A79CA9",
";	c #FEFEFF",
"               ......         .          ",
"             ..+@@@@+..     . +.         ",
"          . .#++@$$@++#. . %%.++. .      ",
"          .#+$+@$$$$@+$+#.%%%%%+.+.      ",
"       .  .#+&$$@$$@$$&+#.%%%%%++#...    ",
"      .%...%#%*$$@@$$*%#%...+#+#++..#.   ",
"      %%.#%%+@$&$&&$&$@+%%#.%####%.++. . ",
"      .+%.#+#%&$$$$$$&%#+#.%#####.%++%.. ",
"     .+...%&++*&$&&$&*++&%...###+.%%+%#. ",
"  . .++.#+%*&$$*@$$@*$$&*%+#.##++.%%+++. ",
"  .+.+%#.#+%=&$$&@@&$$&=%+#.#+++.%%%+#.. ",
"  .#++%##.#+%*@$*&&*$@*%+#.+++%%..%%%+%. ",
"   .+#+#+.%+%$&@$**$@&$%+%.++%%. .%+%##. ",
"   .+#+#++.&$%*&$$$$&*%$&.+%+%.  .%#%###.",
"   .######.%*&$=&$$&=$&*%.%%%.  .+%++###.",
"   .######%.%=&$=&&=$&=%.%%..   .%%%#+##.",
".. .++####+.%##&&&&&&##%...     .%+%%###.",
".#..%%+#%+%.%-;#%$$%#;-%.       .#.%+##+.",
".##.%%%++%%+.#-;#%%#;-#.        .#.%####.",
" .#.%%%%++%%.+###%%###+.        .#.#####.",
"  .#.%%%%%.. .%+#++#+%.          . .##%+.",
"  .+#%%+%%.   .%++++%.             .#+.#.",
"   .++%+%%.    .+%%+.             .%+.+. ",
"    .++#+%%.    ....              ...+#. ",
"     .+##+%.                         ..  ",
"      .+#+%%.                            ",
"       .+#+%%.                           ",
"  ...  .++#++%.                          ",
"  .##...%#+##+%.                         ",
"   .###+%+#++##+..                       ",
"    .+##+%+#++##+%.....                  ",
"     ..+#+%+#+++#++####...               ",
"       .+++%+++%+#++#####.               ",
"        ..++###++%+##++..                ",
"          ..++##+++%+###+.               ",
"            .++%###+%.+###.              ",
"             ..+%+###+..+##.             ",
"               ..+++###.....             ",
"                 ....+##.                ",
"                     ....                "};
