/* XPM */
static char * enemyProjectile_xpm[] = {
"45 21 2 1",
" 	c None",
".	c #FF2828",
"  .                                          ",
"  .                                          ",
"   .                                         ",
"   .                                         ",
"    .                                        ",
"    ..                                       ",
"     ..                                      ",
".    ...                               .     ",
" .    ...                            ..      ",
"  .    ...                          ..       ",
"  ..   ....                                  ",
"   ..   ....                                 ",
"   ...   .....                          .    ",
"    ...   ......                      ..     ",
"     ...   .......                 ....      ",
"      ...   .........        . .....         ",
"       ....   ..........                     ",
"        ....    ..............               ",
"          ....    ...........................",
"             ...     ....................    ",
"                ..       ..........          "};
