/* XPM */
static char * shootRight2_xpm[] = {
"16 6 5 1",
" 	c None",
".	c #606957",
"+	c #A3BF88",
"@	c #ECFFA8",
"#	c #FEFEFF",
"   ...++++@@@@+ ",
" ....++++@@@@@@+",
"....++++@@@@####",
"....++++@@@@####",
" ....++++@@@@@@+",
"   ...++++@@@@+ "};
