/* XPM */
static char * mcUp6_xpm[] = {
"32 36 11 1",
" 	c #FFFFFE",
".	c #161516",
"+	c #D4D7D8",
"@	c #A3A79F",
"#	c #5B5560",
"$	c #B6B6B6",
"%	c #312B35",
"&	c #838B7B",
"*	c #606957",
"=	c #C8DFE4",
"-	c #161318",
"                      ...       ",
"                      .+.       ",
"                      .+.       ",
"                      .+.       ",
"                      .+..      ",
"                      .@##.     ",
"                      .+#$.     ",
"                      .@%$.     ",
"                      .%%&.     ",
"                    ....$$#.    ",
"                   .&&#.$$&.    ",
"                  .#&&*..$$.    ",
"                  .#&&*..$$#.   ",
"                 ..%**#..$$#.   ",
"             ......%%##..&&#.   ",
"  ....     ..%&==&*..%#..###%.  ",
" .****..  .%%%%%%%==%.%..%##%.  ",
".&&&****..%%-%*--#%&&%...%%%%%. ",
".$$$&****%%-%------&==%*******%.",
".$+$$&**%#%%--#--*--==#%***&&&&.",
".+++$$&*%&#%--------%#&%*&$$$$$.",
".$+++$%%&*$##&$$$$&##$*&%%$$$++.",
" .&++%&%$**$$$&**&$$$&*$%&%$+++.",
"  .$$%$#$***&&&$$&&&***$#$%$++$.",
"   ..%$#$**&*&&**&&*&**$#$%$$&. ",
"     .&%$&**&&&$$&&&**&$%&....  ",
"      ..&$*&&&$&&$&&&*$&..      ",
"     .##.$&&&$$$$$$&&&$..       ",
"     .**.&$$&$$$$$$&$$&..       ",
"     .***.$$&$$$$$$&$$.*.       ",
"     .&&&&.&$$$$$$$$&.&&.       ",
"     .+++&&.##$$$$##.&++.       ",
"     .++++$&##....##$+++.       ",
"      .++$$$$&&&&$$$$++.        ",
"       .+$$++++++++$$+.         ",
"        ..............          "};
