/* XPM */
static char * shootLeft2_xpm[] = {
"16 6 5 1",
" 	c None",
".	c #A3BF88",
"+	c #ECFFA8",
"@	c #606957",
"#	c #FEFEFF",
" .++++....@@@   ",
".++++++....@@@@ ",
"####++++....@@@@",
"####++++....@@@@",
".++++++....@@@@ ",
" .++++....@@@   "};
