/* XPM */
static char * mcDownPistol8_xpm[] = {
"32 36 11 1",
" 	c #FFFFFE",
".	c #161516",
"+	c #D4D7D8",
"@	c #B6B6B6",
"#	c #838B7B",
"$	c #5B5560",
"%	c #606957",
"&	c #312B35",
"*	c #161318",
"=	c #C8DFE4",
"-	c #A3A79F",
"          ..............        ",
"         .+@@++++++++@@+.       ",
"        .++@@@@####@@@@++.      ",
"       .+++@$$....$$#@++++.     ",
"       .++#.$$@@@@$$.##+++.     ",
"       .##.#@@@@@@@@#.####.     ",
"       .%.@@#@@@@@@#@@.%%%.     ",
"       ..#@@#@@@@@@#@@#.%%.     ",
"       ..@###@@@@@@###@.$$.     ",
"      ..#@%###@##@###%@#..      ",
"  ....#&@#%%###@@###%%#@&#.     ",
" .#@@&@$@%%#%##%%##%#%%@$@&..   ",
".@++@&@$@%%%###@@###%%%@$@&@@.  ",
".+++@&#&@%#@@@#%%#@@@%%@&#&++#. ",
".++@@@&&#%@$$#@@@@#$$@%#&&@+++@.",
".@@@@@#%&#$&********&$#&%#@@+++.",
".####%%%&$==**%**$**&&$&%%#@@+@.",
".&%%%%%%%&==#******&*&&%%%%#@@@.",
" .&&&&&...&##&$**%&*&&..%%%%###.",
"  .&$$&..&.&==&&&&&&&.  ..%%%%. ",
"        .$&..%#==#&..     ....  ",
"        .$$&&......             ",
"        .$%%&..                 ",
"        .%##$.                  ",
"        .%##$.                  ",
"        .$##.                   ",
"        ....                    ",
"                                ",
"                                ",
"                                ",
"                                ",
"                                ",
"                                ",
"                                ",
"                                ",
"                                "};
