/* XPM */
static char * wolfBack1_xpm[] = {
"22 42 390 2",
"  	c #FFFFFD",
". 	c #DDDCE3",
"+ 	c #E7E7ED",
"@ 	c #E8E8ED",
"# 	c #DBDAE1",
"$ 	c #BFBFCC",
"% 	c #EEEDF0",
"& 	c #FAF9FA",
"* 	c #B8B8C7",
"= 	c #B7B7C7",
"- 	c #EEECEF",
"; 	c #BEBECB",
"> 	c #CBCBD6",
", 	c #F9F7F7",
"' 	c #F8F6F6",
") 	c #EEEEF1",
"! 	c #C1C1CE",
"~ 	c #C2C2D0",
"{ 	c #AFAFC0",
"] 	c #D3D3DD",
"^ 	c #AEAEBF",
"/ 	c #C3C3D0",
"( 	c #C1C1CF",
"_ 	c #EFEFF2",
": 	c #F7F6F6",
"< 	c #C9C9D4",
"[ 	c #6F6F7E",
"} 	c #E4E3EA",
"| 	c #F5F3F4",
"1 	c #FAF8F8",
"2 	c #C6C6D2",
"3 	c #B3B3C4",
"4 	c #B1B1C1",
"5 	c #D8D7DF",
"6 	c #D6D6DE",
"7 	c #B0B0C1",
"8 	c #B3B3C3",
"9 	c #C9C8D4",
"0 	c #F5F3F3",
"a 	c #E0E0E6",
"b 	c #6F6F7F",
"c 	c #848494",
"d 	c #828293",
"e 	c #ECEAEE",
"f 	c #DCDCE4",
"g 	c #E5E4EA",
"h 	c #C0BFCD",
"i 	c #CCCCD7",
"j 	c #E0DFE5",
"k 	c #F5F4F5",
"l 	c #F5F4F4",
"m 	c #DFDEE4",
"n 	c #C1C0CE",
"o 	c #E5E4E9",
"p 	c #DDDCE4",
"q 	c #E9E8EB",
"r 	c #838394",
"s 	c #9797A9",
"t 	c #DBDBE4",
"u 	c #C5C5D2",
"v 	c #CECED9",
"w 	c #DFDFE6",
"x 	c #C0C0CE",
"y 	c #DDDDE4",
"z 	c #E9E8EC",
"A 	c #DCDCE3",
"B 	c #CDCDD9",
"C 	c #C6C6D3",
"D 	c #E3E2E8",
"E 	c #9696A7",
"F 	c #C9C8D1",
"G 	c #EBE9ED",
"H 	c #E0DFE6",
"I 	c #BCBCCA",
"J 	c #C7C7D3",
"K 	c #D9D9E1",
"L 	c #F2F1F3",
"M 	c #F2F1F2",
"N 	c #E2E2E8",
"O 	c #E2E1E8",
"P 	c #F3F2F3",
"Q 	c #D8D7E0",
"R 	c #C8C8D4",
"S 	c #EAE9EC",
"T 	c #C7C6CF",
"U 	c #818192",
"V 	c #8B8B9C",
"W 	c #A3A3B3",
"X 	c #B5B5C5",
"Y 	c #EBEAED",
"Z 	c #C5C5D1",
"` 	c #C2C1CE",
" .	c #F4F2F4",
"..	c #E6E5EB",
"+.	c #EDECF0",
"@.	c #E7E6EB",
"#.	c #F4F3F4",
"$.	c #BFBFCD",
"%.	c #EAE8EB",
"&.	c #B6B6C6",
"*.	c #A2A2B2",
"=.	c #858596",
"-.	c #C3C2CA",
";.	c #CAC9D1",
">.	c #E2E2E7",
",.	c #D9D9E2",
"'.	c #CBCAD5",
").	c #F8F7F7",
"!.	c #CACAD5",
"~.	c #D8D8E2",
"{.	c #CAC9D0",
"].	c #C2C1C9",
"^.	c #848495",
"/.	c #8D8D9E",
"(.	c #B7B7C6",
"_.	c #ECEBEE",
":.	c #D3D3DE",
"<.	c #CBCBD7",
"[.	c #B9B9C8",
"}.	c #D9D8E0",
"|.	c #B8B8C8",
"1.	c #CCCCD8",
"2.	c #D4D4DE",
"3.	c #B7B6C5",
"4.	c #C2C2CF",
"5.	c #8C8C9C",
"6.	c #9897A2",
"7.	c #9F9FAD",
"8.	c #B9B9C7",
"9.	c #E2E1E7",
"0.	c #DAD9E1",
"a.	c #DDDDE5",
"b.	c #C3C3D1",
"c.	c #C4C4D1",
"d.	c #DEDEE6",
"e.	c #E1E1E7",
"f.	c #A1A0AE",
"g.	c #9695A0",
"h.	c #7A7A89",
"i.	c #CBCAD2",
"j.	c #A09FAC",
"k.	c #F3F1F3",
"l.	c #C8C8D3",
"m.	c #E5E3E8",
"n.	c #D6D6E0",
"o.	c #F0EFF3",
"p.	c #DEDDE6",
"q.	c #F0EFF2",
"r.	c #D6D6DF",
"s.	c #E4E3E8",
"t.	c #AEAEC0",
"u.	c #CAC9D4",
"v.	c #EFEEF1",
"w.	c #A2A2AE",
"x.	c #CAC9D2",
"y.	c #767686",
"z.	c #7F7F8F",
"A.	c #B2B2C0",
"B.	c #DCDBE3",
"C.	c #CDCCD7",
"D.	c #F0EEF1",
"E.	c #E5E5EA",
"F.	c #F1F0F2",
"G.	c #CECEDA",
"H.	c #B0B0BF",
"I.	c #7E7E8F",
"J.	c #767687",
"K.	c #B8B8C4",
"L.	c #C7C7D4",
"M.	c #D1D0D9",
"N.	c #DCDCE5",
"O.	c #E3E3E9",
"P.	c #CFCED7",
"Q.	c #CDCDD8",
"R.	c #B1B1C2",
"S.	c #B5B5C1",
"T.	c #9191A2",
"U.	c #A2A2B4",
"V.	c #BEBECC",
"W.	c #ACACBD",
"X.	c #DDDCE2",
"Y.	c #F2F0F1",
"Z.	c #F1F0F1",
"`.	c #DCDBE2",
" +	c #CCCBD7",
".+	c #ADADBE",
"++	c #A1A1B3",
"@+	c #A4A4B6",
"#+	c #BCBCCB",
"$+	c #ABABBC",
"%+	c #B4B3C3",
"&+	c #DBDAE2",
"*+	c #ADADBF",
"=+	c #BDBDCC",
"-+	c #D8D8E1",
";+	c #A4A4B5",
">+	c #7E7E8E",
",+	c #7B7B8C",
"'+	c #9E9EAF",
")+	c #BABAC9",
"!+	c #D1D1DB",
"~+	c #D5D5DF",
"{+	c #C7C6D3",
"]+	c #9C9CAE",
"^+	c #7B7B8B",
"/+	c #AAAABC",
"(+	c #BBBBCA",
"_+	c #E4E3E9",
":+	c #E0DFE7",
"<+	c #BBBBC9",
"[+	c #838393",
"}+	c #A5A5B7",
"|+	c #D2D2DD",
"1+	c #DEDEE5",
"2+	c #F0EEF0",
"3+	c #ECEAED",
"4+	c #E0DFE4",
"5+	c #E1E0E5",
"6+	c #F0EFF0",
"7+	c #DEDDE5",
"8+	c #A5A5B6",
"9+	c #828292",
"0+	c #808091",
"a+	c #B2B2C2",
"b+	c #ECEBED",
"c+	c #D3D3DC",
"d+	c #E6E6EB",
"e+	c #E6E5EA",
"f+	c #DFDEE5",
"g+	c #D4D4DD",
"h+	c #EBE9EC",
"i+	c #D2D2DC",
"j+	c #A1A1B2",
"k+	c #7F7F90",
"l+	c #A7A7B8",
"m+	c #E1E0E7",
"n+	c #A6A6B8",
"o+	c #EFEEF0",
"p+	c #CFCFDA",
"q+	c #D0D0DA",
"r+	c #D0D0DB",
"s+	c #E9E7EB",
"t+	c #A9A9BB",
"u+	c #A1A0AB",
"v+	c #A9A9B6",
"w+	c #E5E4E8",
"x+	c #D8D8E0",
"y+	c #E0E0E7",
"z+	c #E1E1E8",
"A+	c #D7D6DF",
"B+	c #E6E5E9",
"C+	c #ABAAB7",
"D+	c #9E9EA9",
"E+	c #797989",
"F+	c #A5A5B3",
"G+	c #89899A",
"H+	c #F6F4F5",
"I+	c #C3C3CF",
"J+	c #E8E7EB",
"K+	c #F1F0F3",
"L+	c #E3E3EA",
"M+	c #C5C4D0",
"N+	c #8A8A9B",
"O+	c #A6A6B4",
"P+	c #AFAFBC",
"Q+	c #AAAABB",
"R+	c #C2C2CE",
"S+	c #F4F2F3",
"T+	c #C0C0CD",
"U+	c #CECED8",
"V+	c #ACACBA",
"W+	c #B5B5C2",
"X+	c #D1D0DA",
"Y+	c #D2D1D9",
"Z+	c #D0CFD8",
"`+	c #B0B0C0",
" @	c #B3B3C0",
".@	c #7D7D8D",
"+@	c #9F9FB0",
"@@	c #D2D2DB",
"#@	c #C3C2CF",
"$@	c #D7D7DF",
"%@	c #E4E3E7",
"&@	c #7C7C8C",
"*@	c #757586",
"=@	c #A3A3B2",
"-@	c #BAB9C8",
";@	c #C0C0CC",
">@	c #FBFAFA",
",@	c #C2C1CD",
"'@	c #A2A2B1",
")@	c #747484",
"!@	c #565664",
"~@	c #BFBFCE",
"{@	c #CDCCD6",
"]@	c #B2B1BB",
"^@	c #ABABB9",
"/@	c #B5B5BE",
"(@	c #CCCBD5",
"_@	c #A4A4B7",
":@	c #A2A2B5",
"<@	c #BDBDCB",
"[@	c #555564",
"}@	c #C6C5CB",
"|@	c #9C9CAD",
"1@	c #B7B6C6",
"2@	c #C5C4CF",
"3@	c #7D7D8C",
"4@	c #A4A4B4",
"5@	c #9F9FAF",
"6@	c #9696A6",
"7@	c #BEBECD",
"8@	c #C6C5CC",
"9@	c #616170",
"0@	c #868696",
"a@	c #A2A2B3",
"b@	c #A7A7B7",
"c@	c #BBBBC7",
"d@	c #8C8C9E",
"e@	c #FBF9F9",
"f@	c #E6E6EC",
"g@	c #BCBCC7",
"h@	c #A0A0B2",
"i@	c #BDBDC9",
"j@	c #A5A5B5",
"k@	c #A3A3B4",
"l@	c #626271",
"m@	c #565663",
"n@	c #A6A6B7",
"o@	c #9D9DAF",
"p@	c #808090",
"q@	c #CECDD5",
"r@	c #F5F3F5",
"s@	c #FEFDFD",
"t@	c #BBBBC6",
"u@	c #9898AB",
"v@	c #9E9EB0",
"w@	c #B6B6C5",
"x@	c #82828D",
"y@	c #C1C1CD",
"z@	c #9B9BA9",
"A@	c #9998A5",
"B@	c #FDFBFB",
"C@	c #EBEBEE",
"D@	c #9B9BAC",
"E@	c #8B8B9D",
"F@	c #C9C8D2",
"G@	c #555563",
"H@	c #8A8A9A",
"I@	c #B4B4C1",
"J@	c #D2D1DB",
"K@	c #ECEBEF",
"L@	c #EAE9ED",
"M@	c #6D6D7D",
"N@	c #9F9FB1",
"O@	c #9191A4",
"P@	c #676777",
"Q@	c #9A9AA8",
"R@	c #9090A1",
"S@	c #C4C3CF",
"T@	c #CFCED6",
"U@	c #9B9BAD",
"V@	c #8C8C9D",
"W@	c #6B6B7B",
"X@	c #9898AA",
"Y@	c #858594",
"Z@	c #9696A3",
"`@	c #D7D6DD",
" #	c #757583",
".#	c #9494A7",
"+#	c #C6C6D4",
"@#	c #646473",
"##	c #89899B",
"$#	c #BEBDC9",
"%#	c #DAD9DF",
"&#	c #848493",
"*#	c #6E6E7D",
"=#	c #8F8FA0",
"-#	c #9090A2",
";#	c #777788",
">#	c #8E8E9C",
",#	c #91919F",
"'#	c #8F8F9C",
")#	c #7E7E90",
"!#	c #AFAEBC",
"~#	c #9696A8",
"{#	c #737383",
"]#	c #686877",
"^#	c #696979",
"/#	c #696978",
"                                            ",
"        . +                     @ #         ",
"      $ % & +       * =       @ & - ;       ",
"      > , ' ) ! ~ { ] ] ^ / ( _ : , <       ",
"    [ } % | 1 2 3 4 5 6 7 8 9 1 0 % a b     ",
"  c d e f f g h i j k l m i n o p f q r d   ",
"    s o t u v w x y z z A x a B C t D E     ",
"  d F G H I J K L M N O P L Q R I a S T U   ",
"    V W X Y Z `  ...% +.@.#.$.J %.&.*.V     ",
"  =.-.;.&.>.m ,.w '.).' !.H ~.j H = {.].^.  ",
"    /.~ (._.:.G <.[.}.Q |.1.S 2.e 3.4.5.    ",
"  6.7.8.9.S 8 0.O a.b.c.d.e.}.3 Y e.(.f.g.  ",
"h.i.j.k.l.v { m.n.o.a.p.q.r.s.t.v u.v.w.x.y.",
"  z.A.B.~ v C.D.B E.P  .g 1.F.> G.~ B.H.I.  ",
"  J.K.7 L.i M.D N.a.O O a.N.O.P.Q.C R.S.J.  ",
"  T.U.V./ W.b.<.X.Y.% v.Z.`. +~ .+/ V.++T.  ",
"  z.@+,.#+$+4 .+%+&+& & }.8 *+7 $+=+-+;+>+  ",
"  ,+'+)+)+!+)+~+1.R % % {+Q.2.)+!+)+)+]+^+  ",
"b =./+(+G.t _+:+_+(.C 2 * o :+O.t B <+/+^.b ",
"  [+}+x |+1+g 2+_+3+4+5+3+O.6+o 7+|+$.8+9+  ",
"  0+++|+a+b+c+a D d+).' e+O.f+g+h+8 i+j+k+  ",
"  ^.l+^ /+m+9.a.,.$ k | V.,.p >.f+/+^ n+d   ",
"    ^./+$ o+G.q p+! !+q+! r+s+p+% ; t+r     ",
"  u+v+` O w+{ x+D y+L.R z+N A+{ B+N $ C+D+  ",
"E+F+G+H+I+$.3 J+r+K+L+L+K+r+@.8 $.M+P N+O+  ",
"  b P+r.{ Q+q+F./ R+S+#.T+c.L U+/+7 A+V+b   ",
"  0+W+^ { X+Y+-+/+c.:+y+/ /+&+Z+X+`+{  @0+  ",
"  .@+@@@#@m.$@! Q+~ v.q.x /+/ r.%@M+q+'+&@  ",
"  *@=@o -@J x (.;@Q.>@>@!.,@(.$.J <+s.'@)@  ",
"    !@~@#+U.}+{@]@P+% - ^@/@(@_@:@#+<@[@    ",
"    }@|@~@8+1@2@3@4@@._+5@6@> = 8+7@]+8@    ",
"    9@0@a@b@c@d@G+5 e@f@g@T.h@i@j@k@[+l@    ",
"    m@j+n@&.o@p@q@r@s@f@t@T.u@v@w@@+3@m@    ",
"    !@x@y@p z@A@J+H+B@C@D@/.E@4 F@,+G@      ",
"      [ $.u H@I@J@J+K@L@p@M@=.N@O@P@        ",
"        k+V.Q@R@W.C S@T@d U@V.`+V@          ",
"        W@X@Y@Z@`@`+j@ #.#w@+#a@@#          ",
"        G@##)@$#%#&#E+  *#=#-#;#            ",
"          l@*@>#,#'#)#    !@G@              ",
"            ;#!#T@+#)#                      ",
"            b ~#(.]+{#                      ",
"              ]#^#/#                        "};
