/* XPM */
static char * wolfAngryLeft2_xpm[] = {
"50 32 487 2",
"  	c #FFFFFD",
". 	c #AAAABB",
"+ 	c #E7E6EB",
"@ 	c #B7B6C5",
"# 	c #A9A9BC",
"$ 	c #C2C2CF",
"% 	c #ECECF0",
"& 	c #E3E2E9",
"* 	c #D0CFDA",
"= 	c #AAAABC",
"- 	c #A1A1B2",
"; 	c #D1D1DB",
"> 	c #D7D6DD",
", 	c #E2E1E8",
"' 	c #EFEDEF",
") 	c #A7A7B6",
"! 	c #EAE9ED",
"~ 	c #ABABBA",
"{ 	c #DCDBE3",
"] 	c #9797A9",
"^ 	c #BDBDCB",
"/ 	c #D7D7E0",
"( 	c #DCDCE4",
"_ 	c #ABABBC",
": 	c #AFAFBE",
"< 	c #A5A5B6",
"[ 	c #9D9DAD",
"} 	c #737383",
"| 	c #7B7B8C",
"1 	c #B9B9C8",
"2 	c #B5B5C5",
"3 	c #D0D0DA",
"4 	c #E8E7EC",
"5 	c #D4D4DE",
"6 	c #D0D0DB",
"7 	c #CCCCD6",
"8 	c #A0A0B3",
"9 	c #9F9FB1",
"0 	c #C6C6D3",
"a 	c #808090",
"b 	c #9494A3",
"c 	c #9797A7",
"d 	c #6F6F7E",
"e 	c #C1C1CF",
"f 	c #E7E6EA",
"g 	c #E5E5EA",
"h 	c #F4F3F3",
"i 	c #DCDBE4",
"j 	c #D7D7E1",
"k 	c #EFEEF1",
"l 	c #E2E2E8",
"m 	c #BDBDCA",
"n 	c #C9C9D5",
"o 	c #878797",
"p 	c #858595",
"q 	c #C2C2D0",
"r 	c #9F9FAE",
"s 	c #9191A1",
"t 	c #747484",
"u 	c #7C7C8B",
"v 	c #80808F",
"w 	c #7F7F8E",
"x 	c #858592",
"y 	c #757484",
"z 	c #D9D9E1",
"A 	c #FCFBFB",
"B 	c #F3F1F3",
"C 	c #F4F2F4",
"D 	c #E9E8ED",
"E 	c #EDECF0",
"F 	c #F9F8F8",
"G 	c #F7F6F7",
"H 	c #EAEAEF",
"I 	c #D3D2DB",
"J 	c #A2A2B1",
"K 	c #9999AA",
"L 	c #ABAAB4",
"M 	c #89899A",
"N 	c #9999A7",
"O 	c #B0AFBC",
"P 	c #AEAEB9",
"Q 	c #C9C8D3",
"R 	c #9B9BAB",
"S 	c #ACACB8",
"T 	c #DEDDE3",
"U 	c #9898AA",
"V 	c #AFAEB7",
"W 	c #F0EFF0",
"X 	c #A1A1AE",
"Y 	c #9898A6",
"Z 	c #79798A",
"` 	c #6E6E7E",
" .	c #E6E5EA",
"..	c #BFBECC",
"+.	c #F5F3F4",
"@.	c #E6E5EB",
"#.	c #E5E4EB",
"$.	c #D5D5DE",
"%.	c #BEBDCB",
"&.	c #A2A2B2",
"*.	c #9393A4",
"=.	c #C0C0CE",
"-.	c #91919F",
";.	c #9A9AA8",
">.	c #E0DFE5",
",.	c #BABAC5",
"'.	c #9D9DAF",
").	c #D9D9E2",
"!.	c #8D8D9E",
"~.	c #BABAC9",
"{.	c #DBDBE3",
"].	c #CECDD8",
"^.	c #ACACBE",
"/.	c #9C9CAD",
"(.	c #C1C0C9",
"_.	c #C9C9D4",
":.	c #6F6F7F",
"<.	c #6E6E7F",
"[.	c #9292A3",
"}.	c #C5C5CF",
"|.	c #CDCDD9",
"1.	c #C9C8D2",
"2.	c #C4C3C9",
"3.	c #C6C5CD",
"4.	c #D3D3DE",
"5.	c #DEDEE5",
"6.	c #F1EFF1",
"7.	c #F4F2F2",
"8.	c #E0E0E7",
"9.	c #B6B6C4",
"0.	c #C6C6D2",
"a.	c #DFDEE4",
"b.	c #BBBAC7",
"c.	c #9191A2",
"d.	c #9494A6",
"e.	c #9E9EB0",
"f.	c #8E8E9D",
"g.	c #ACACBB",
"h.	c #9898A9",
"i.	c #B8B8C7",
"j.	c #B2B2C3",
"k.	c #C1C0CA",
"l.	c #9090A0",
"m.	c #B9B9C7",
"n.	c #C3C2CF",
"o.	c #9494A4",
"p.	c #B8B8C5",
"q.	c #D4D3DC",
"r.	c #878793",
"s.	c #83743A",
"t.	c #A4A4B0",
"u.	c #DFDFE6",
"v.	c #E0DFE6",
"w.	c #BFBFCC",
"x.	c #AEAEBF",
"y.	c #C7C7D3",
"z.	c #E1E0E5",
"A.	c #9090A1",
"B.	c #A0A0AF",
"C.	c #8E8E9F",
"D.	c #C7C7D4",
"E.	c #BBBBCA",
"F.	c #CECED8",
"G.	c #9D9DAC",
"H.	c #C3C3D0",
"I.	c #9C9CAE",
"J.	c #A9A9BB",
"K.	c #CBCBD6",
"L.	c #D2D2DD",
"M.	c #818190",
"N.	c #9393A1",
"O.	c #BCBCC8",
"P.	c #7E7E89",
"Q.	c #76623C",
"R.	c #B89E5B",
"S.	c #9E9DA8",
"T.	c #EEEDF0",
"U.	c #F0EFF1",
"V.	c #E4E3E9",
"W.	c #F2F2F4",
"X.	c #F9F7F8",
"Y.	c #F4F2F3",
"Z.	c #D3D3DB",
"`.	c #AEAEBE",
" +	c #A2A2B3",
".+	c #CECDD7",
"++	c #A7A7B7",
"@+	c #9696A7",
"#+	c #B9B9C6",
"$+	c #898999",
"%+	c #B7B7C6",
"&+	c #DADAE3",
"*+	c #C1C1CE",
"=+	c #CDCDD8",
"-+	c #C1C1CC",
";+	c #8E8E9E",
">+	c #B8B8C8",
",+	c #A9A9BA",
"'+	c #878798",
")+	c #B6B5C2",
"!+	c #7B7B8B",
"~+	c #ADADBC",
"{+	c #D5D5DF",
"]+	c #A3A2AA",
"^+	c #AC9B72",
"/+	c #989095",
"(+	c #D3D2DC",
"_+	c #FAF9F9",
":+	c #DBDAE2",
"<+	c #CCCCD8",
"[+	c #DAD9E1",
"}+	c #A09FAB",
"|+	c #B3B3C1",
"1+	c #B3B3BF",
"2+	c #B3B3C3",
"3+	c #9999AB",
"4+	c #7E7E8E",
"5+	c #9C9CA9",
"6+	c #A1A1B3",
"7+	c #BEBECC",
"8+	c #9090A3",
"9+	c #B8B7C4",
"0+	c #DDDCE3",
"a+	c #D1D0D8",
"b+	c #777787",
"c+	c #AAAABA",
"d+	c #CBCBD7",
"e+	c #E0E0E8",
"f+	c #F9F8F9",
"g+	c #F1F0F2",
"h+	c #EDEBED",
"i+	c #F3F1F4",
"j+	c #DBDBE2",
"k+	c #B0B0C1",
"l+	c #BCBCCA",
"m+	c #8D8D9D",
"n+	c #7E7E8F",
"o+	c #BFBFCD",
"p+	c #B6B6C5",
"q+	c #D1D1D9",
"r+	c #DDDCE0",
"s+	c #B4B4BE",
"t+	c #9A9AAC",
"u+	c #A6A6B6",
"v+	c #AFAFC0",
"w+	c #A3A3B4",
"x+	c #A0A0B2",
"y+	c #ADADBE",
"z+	c #9A9AAA",
"A+	c #7C7C8D",
"B+	c #A3A3B5",
"C+	c #B2B2C2",
"D+	c #B1B0BF",
"E+	c #ADADBD",
"F+	c #CACAD5",
"G+	c #B4B4C3",
"H+	c #CECDD5",
"I+	c #828292",
"J+	c #575765",
"K+	c #E2E1E7",
"L+	c #E4E4EA",
"M+	c #FDFBFB",
"N+	c #BFBEC4",
"O+	c #AAA9B0",
"P+	c #A8A7AE",
"Q+	c #9393A0",
"R+	c #A4A4B3",
"S+	c #CECED9",
"T+	c #E5E3E9",
"U+	c #F9F7F7",
"V+	c #D3D2D9",
"W+	c #9494A5",
"X+	c #ADADBA",
"Y+	c #B6B6C6",
"Z+	c #A7A7B5",
"`+	c #AEADB7",
" @	c #9696A9",
".@	c #89899B",
"+@	c #88889A",
"@@	c #8F8FA0",
"#@	c #CACAD6",
"$@	c #A2A2B4",
"%@	c #D8D8E1",
"&@	c #CFCFD9",
"*@	c #C8C8D3",
"=@	c #737381",
"-@	c #F6F6F7",
";@	c #EDECEE",
">@	c #B5B1B8",
",@	c #958C9B",
"'@	c #4B1C32",
")@	c #5A4C5C",
"!@	c #7D7D89",
"~@	c #CFCED6",
"{@	c #DCDAE1",
"]@	c #B7B6C4",
"^@	c #BDBDC9",
"/@	c #888894",
"(@	c #9191A3",
"_@	c #7F7F90",
":@	c #8D8C9B",
"<@	c #9595A6",
"[@	c #8D8D9F",
"}@	c #8E8EA0",
"|@	c #9797AA",
"1@	c #9B9BAD",
"2@	c #9191A4",
"3@	c #8F8FA1",
"4@	c #A6A6B8",
"5@	c #9E9EAF",
"6@	c #AFAFBF",
"7@	c #B1B1BE",
"8@	c #888899",
"9@	c #9999A8",
"0@	c #C0C0CD",
"a@	c #9F9FB0",
"b@	c #727282",
"c@	c #B2B2C1",
"d@	c #9797A8",
"e@	c #747481",
"f@	c #AEAEB7",
"g@	c #B5A3AC",
"h@	c #B6B4BA",
"i@	c #928E97",
"j@	c #4F3044",
"k@	c #512C40",
"l@	c #927A86",
"m@	c #BBBBC6",
"n@	c #D8D7DC",
"o@	c #B6B5C1",
"p@	c #BBBBC9",
"q@	c #90909F",
"r@	c #8C8C9E",
"s@	c #9898A8",
"t@	c #878796",
"u@	c #A8A8B5",
"v@	c #A0A0B1",
"w@	c #767687",
"x@	c #B7B7C5",
"y@	c #9C9CAF",
"z@	c #C4C4D2",
"A@	c #C7C6D0",
"B@	c #A8A8B9",
"C@	c #9A9AAD",
"D@	c #8B8B9C",
"E@	c #9595A7",
"F@	c #565663",
"G@	c #7F7F8F",
"H@	c #767686",
"I@	c #705567",
"J@	c #AA8895",
"K@	c #7B2C48",
"L@	c #7D6D7B",
"M@	c #877C87",
"N@	c #9695A3",
"O@	c #C3C2D0",
"P@	c #7D7D8C",
"Q@	c #8D8DA0",
"R@	c #717181",
"S@	c #A2A2AF",
"T@	c #8B8B9D",
"U@	c #747482",
"V@	c #A9A9B6",
"W@	c #868695",
"X@	c #9999A9",
"Y@	c #B2B2BF",
"Z@	c #818192",
"`@	c #B7B6C3",
" #	c #CBCAD6",
".#	c #B7B7C2",
"+#	c #787889",
"@#	c #C7C6D3",
"##	c #A8A7AF",
"$#	c #868698",
"%#	c #A4A4B6",
"&#	c #9B9BAC",
"*#	c #9393A6",
"=#	c #868697",
"-#	c #828294",
";#	c #555563",
">#	c #AFABB3",
",#	c #7C7C89",
"'#	c #B2B1BF",
")#	c #9D9CA4",
"!#	c #565664",
"~#	c #7A7A88",
"{#	c #787885",
"]#	c #797987",
"^#	c #9796A6",
"/#	c #9494A0",
"(#	c #B5B5C3",
"_#	c #5D5D6C",
":#	c #A7A7B8",
"<#	c #7E7E90",
"[#	c #7A7A89",
"}#	c #CDCCD7",
"|#	c #D1D1DD",
"1#	c #B8B8C6",
"2#	c #C6C5D1",
"3#	c #9292A4",
"4#	c #D0CFD9",
"5#	c #A5A5B2",
"6#	c #6B6B7A",
"7#	c #D3D2D7",
"8#	c #797989",
"9#	c #A6A6B7",
"0#	c #727283",
"a#	c #A4A4B5",
"b#	c #6B6B7B",
"c#	c #6D6D7D",
"d#	c #757586",
"e#	c #8A8A98",
"f#	c #D8D7E1",
"g#	c #DBDAE3",
"h#	c #E5E3E8",
"i#	c #B2B2C0",
"j#	c #717180",
"k#	c #7D7D88",
"l#	c #C9C9D2",
"m#	c #686877",
"n#	c #AEAEBD",
"o#	c #ABABB8",
"p#	c #8B8B99",
"q#	c #757585",
"r#	c #676776",
"s#	c #5B5B6A",
"t#	c #707080",
"u#	c #7A7A8B",
"v#	c #AEAEBC",
"w#	c #D4D4DF",
"x#	c #BDBDCC",
"y#	c #8F8F9D",
"z#	c #6A6A7A",
"A#	c #5F5F6E",
"B#	c #ACACBA",
"C#	c #A9A9B9",
"D#	c #656574",
"E#	c #888896",
"F#	c #DFDEE3",
"G#	c #7C7C8C",
"H#	c #7B7B89",
"I#	c #575766",
"J#	c #7D7D8E",
"K#	c #60606F",
"L#	c #9292A5",
"M#	c #636371",
"N#	c #595967",
"O#	c #6D6D7C",
"P#	c #B1B1C0",
"Q#	c #AAAAB8",
"R#	c #777786",
"S#	c #C3C3D1",
"T#	c #E1E0E6",
"U#	c #B5B4C1",
"V#	c #555564",
"W#	c #898997",
"X#	c #848496",
"Y#	c #B7B7C4",
"Z#	c #D2D2DB",
"`#	c #595968",
" $	c #D1D0DA",
".$	c #A6A6B5",
"+$	c #8A8A9A",
"@$	c #6C6C7B",
"#$	c #EEEDEF",
"$$	c #ECEBEF",
"%$	c #8C8C9D",
"&$	c #B1B1BF",
"*$	c #626271",
"=$	c #6C6C7C",
"-$	c #646473",
";$	c #C3C2CA",
">$	c #EFEEF2",
",$	c #5C5C6B",
"'$	c #74747F",
")$	c #585866",
"!$	c #A1A1AF",
"~$	c #ACACBD",
"{$	c #B4B4C4",
"]$	c #C4C4D0",
"^$	c #B1B0BA",
"/$	c #9494A2",
"($	c #8A8A95",
"_$	c #8A8995",
":$	c #B7B6BF",
"<$	c #656575",
"[$	c #838394",
"                                                                                                    ",
"                  .     + @                                                                         ",
"                  # $ % & *                                                                         ",
"                = - ; > , ' =                                                                       ",
"                = ) ! ~ , { ]                                                                       ",
"              ^ $ / ( _ : < [ } |                                                                   ",
"          1 2 3 4 5 6 7 8 9 0 a b c       d                                                         ",
"          e f g h i j k l m n o p q r     s t u     v w     x y                                     ",
"          z A B B C D E F G H I J K L M N O P Q R S T $ U V W X     Y Z `                           ",
"        n  .h ; ..4 +.@.#.#.$.%.&.*.9 =.-.;.>.,.'.).$ !.~.{.].^./.(._.M } } :.                      ",
"      <.[.}.|.1.2.3.4.5.6.7.8.2 | 9.0.a.b.S c.d.d.e.f.g.h.i.e j.0.k.l.m.n.j.|                       ",
"      :.o.p.q.r.s.t.5 + u.v.w.x.M | m.y.z...A.J B.C.D.1 E.F.G.H.n I.J.K., L.M.                  ~.  ",
"      | N.O.P.Q.R.S.T.U.V.W.X.Y.Z.`. +.+++@+ +#+$+%+&+).*+C.i.=+=+-+;+j.>+>+,+'+              )+>.  ",
"    !+~+{+,.]+^+/+(+_+:+<+( [+1.}+|+1+2+U 3+'+4+a f.5+{+6 ,+'+6+. K 9 ++7+7+_ c.c.M <.` <.8+9+0+a+  ",
"  b+c+d+e+D f+g+h+u.i+j+k+l+l+m+n+,+o+^ p+q+r+s+c.9 t+u+v+J.w+x+y+y+a R 2+z+A+B+e C+D+E+D+F+G+H+I+  ",
"J+;.K+L+X.M+N+O+P+Q+R+x+S+T+U+V+| W+X+$ { Y+Z+`+m+ @.@+@@+@@x+n+E.#@$@g.%@q C.'+= &@4 *@0+>.1 ;+    ",
"=@n +.-@;@>@,@'@)@!@~@{@K+]@^@/@(@_@:@$ F.<@[@}@`.|@1@t+2@3@4@5@B+6@7@8@9@0@a@b@3+,+n <+7+c@d@      ",
"e@f@g@h@i@j@k@l@m@n@o@p@).q@b+r@s@t@u@0.v@w@x@e.y@9 z@A@.@B@@+u+C@_@D@r@E@5@b+F@  G@[.[.[.H@        ",
"  I@J@K@L@M@N@7@O@P@Q@R@S@A.T@: U@V@W@X@Y@Z@- `@ #+@m+.#+#@###$#%#&#}@ @*#=#-#;#                    ",
"    >#,#'#)#!#~#{#!#} ] $+]#^#w +@1 /#S@d@Z@B+) (#W+_#U :#<#[#}#|#1#2#x+&#) 3#!#                    ",
"      c b+            v 4#~+5#w.6#w+7#@@G.8#9#K 0#a#` b#c#d#e#f#i g#h#q.i#v j#                      ",
"                      k#l#m#` n#6#Y+o#p#Y@q#r#s#J+s#    t#3#u#v#E+w#*+1@x#y#                        ",
"                            !#z#A#B#+.v.C#D#              H@+@E#9 F#D.$@G#H#                        ",
"                              I#J#Z@F#~.~+!#              K#8+:.L#l+=.v+M#                          ",
"                              N#9#O#P#j Q#!#                P@U R#v@S#x+t                           ",
"                              N#- O#0 T#U#V#                W# +G#X#Y#Z#c.`#                        ",
"                              c#~.O# $1 .$!#                +$a# @6#;.f#q H@                        ",
"                            @$b@ +O##$$$7@!#              8#%$&$$#*$O#x#q H@                        ",
"                            =$-$a ;$>$K+<@V#              ,$:.8#} '$`.V.0 d#                        ",
"                              )$!$~${$]$[#                      !#^$/$_.E+H@                        ",
"                              !#($_$:$b+                        V#G#<$!.[$                          ",
"                                6#O#!#                            !#!#!#                            "};
