/* XPM */
static char * wolfAngryLeft3_xpm[] = {
"51 32 495 2",
"  	c #FFFFFD",
". 	c #E0E0E6",
"+ 	c #A9A9BB",
"@ 	c #EAE9EE",
"# 	c #D7D6DF",
"$ 	c #AAAABC",
"% 	c #DEDDE5",
"& 	c #E2E2E9",
"* 	c #EEECEF",
"= 	c #CAC9D5",
"- 	c #9E9EB0",
"; 	c #AEAEBC",
"> 	c #DDDCE2",
", 	c #C4C4D0",
"' 	c #F0EFF1",
") 	c #D5D4DC",
"! 	c #B4B4C4",
"~ 	c #ABABBD",
"{ 	c #CACAD6",
"] 	c #DBDAE0",
"^ 	c #AEAEBF",
"/ 	c #E0DFE5",
"( 	c #B8B8C7",
"_ 	c #7F7F8F",
": 	c #D5D5DD",
"< 	c #CBCBD6",
"[ 	c #DBDBE4",
"} 	c #D0D0DB",
"| 	c #9F9FB1",
"1 	c #A7A7B8",
"2 	c #AAAABA",
"3 	c #9A9AAA",
"4 	c #7A7A8A",
"5 	c #7E7E8E",
"6 	c #C8C8D5",
"7 	c #C2C2CF",
"8 	c #EAE9ED",
"9 	c #C6C6D3",
"0 	c #DCDCE4",
"a 	c #CFCED8",
"b 	c #ABABBC",
"c 	c #B6B6C4",
"d 	c #B2B2C2",
"e 	c #727282",
"f 	c #A9A9B6",
"g 	c #9C9CAC",
"h 	c #717181",
"i 	c #DDDDE4",
"j 	c #F2F1F2",
"k 	c #F3F2F4",
"l 	c #F1EFF1",
"m 	c #DFDFE6",
"n 	c #DEDEE5",
"o 	c #F2F1F3",
"p 	c #E6E5EA",
"q 	c #D2D2DB",
"r 	c #C3C3D0",
"s 	c #7F7F90",
"t 	c #9696A7",
"u 	c #C6C6D2",
"v 	c #9595A2",
"w 	c #6F6F7F",
"x 	c #9797A9",
"y 	c #A4A3AF",
"z 	c #79798A",
"A 	c #9898A6",
"B 	c #838394",
"C 	c #A6A5AF",
"D 	c #9292A2",
"E 	c #757586",
"F 	c #9796A1",
"G 	c #A6A5AE",
"H 	c #6E6E7F",
"I 	c #BFBFCD",
"J 	c #EFEDF0",
"K 	c #FAF8F8",
"L 	c #E7E6EB",
"M 	c #F4F2F3",
"N 	c #F3F2F3",
"O 	c #F4F3F5",
"P 	c #F6F5F7",
"Q 	c #FAF8F9",
"R 	c #F7F6F7",
"S 	c #F0EFF2",
"T 	c #D2D1D9",
"U 	c #AEAEBD",
"V 	c #878796",
"W 	c #9898A7",
"X 	c #A3A3B3",
"Y 	c #9B9BA9",
"Z 	c #B3B2C0",
"` 	c #CECED6",
" .	c #BFBECB",
"..	c #A7A7B6",
"+.	c #D5D4DB",
"@.	c #D4D3DC",
"#.	c #AEAEBE",
"$.	c #A8A8B7",
"%.	c #E2E1E3",
"&.	c #DEDDE4",
"*.	c #8E8E9F",
"=.	c #737383",
"-.	c #9393A0",
";.	c #A9A9B8",
">.	c #9E9EAF",
",.	c #D1D1DC",
"'.	c #E8E7EB",
").	c #C8C8D4",
"!.	c #D0D0DA",
"~.	c #E9E8EC",
"{.	c #E0DFE7",
"].	c #E4E3E9",
"^.	c #A2A2B4",
"/.	c #89899A",
"(.	c #B5B5C4",
"_.	c #CDCCD5",
":.	c #797989",
"<.	c #B7B7C3",
"[.	c #C7C6CE",
"}.	c #BBBBC7",
"|.	c #9292A3",
"1.	c #8D8D9E",
"2.	c #C9C9D5",
"3.	c #BDBDCB",
"4.	c #BCBCC9",
"5.	c #ADADBD",
"6.	c #878798",
"7.	c #848494",
"8.	c #818191",
"9.	c #8A8A99",
"0.	c #C8C8D2",
"a.	c #C9C9D4",
"b.	c #B3B2BC",
"c.	c #92929B",
"d.	c #AEAEBB",
"e.	c #D8D8E1",
"f.	c #F3F1F2",
"g.	c #F1F0F1",
"h.	c #9494A5",
"i.	c #7C7C8C",
"j.	c #C9C8D3",
"k.	c #C9C8D1",
"l.	c #C4C4CF",
"m.	c #828293",
"n.	c #8F8FA0",
"o.	c #9D9DAE",
"p.	c #B9B9C5",
"q.	c #ADADBC",
"r.	c #ACACBD",
"s.	c #BCBCCB",
"t.	c #B6B6C6",
"u.	c #C5C5D1",
"v.	c #9494A2",
"w.	c #D8D7DE",
"x.	c #D3D2DB",
"y.	c #A7A7B7",
"z.	c #6F6F7E",
"A.	c #767687",
"B.	c #AFAFBE",
"C.	c #BFBECC",
"D.	c #ABABB4",
"E.	c #625C5F",
"F.	c #B8A34C",
"G.	c #C0C0CC",
"H.	c #E5E5EA",
"I.	c #E2E1E8",
"J.	c #D6D5DE",
"K.	c #C2C2CE",
"L.	c #BBBBC9",
"M.	c #9A9AA8",
"N.	c #8D8D9D",
"O.	c #ACABBD",
"P.	c #DADAE1",
"Q.	c #C6C5D0",
"R.	c #9B9BAC",
"S.	c #C3C3CF",
"T.	c #9090A1",
"U.	c #A1A1AF",
"V.	c #DADAE3",
"W.	c #A3A3B5",
"X.	c #CBCBD7",
"Y.	c #CDCDD9",
"Z.	c #C1C1CE",
"`.	c #9393A3",
" +	c #C2C2CC",
".+	c #9B9BA6",
"++	c #726A54",
"@+	c #8D6825",
"#+	c #A39B88",
"$+	c #C7C7D0",
"%+	c #F8F6F7",
"&+	c #E4E4EA",
"*+	c #F9F7F7",
"=+	c #B6B6C0",
"-+	c #A0A0B1",
";+	c #ACACBA",
">+	c #BCBCC8",
",+	c #9898AA",
"'+	c #B2B2C3",
")+	c #9797A7",
"!+	c #9999AA",
"~+	c #9C9CAE",
"{+	c #BABAC9",
"]+	c #BEBECC",
"^+	c #9999A7",
"/+	c #C3C3D1",
"(+	c #9797A8",
"_+	c #888899",
":+	c #CFCFDA",
"<+	c #CCCCD8",
"[+	c #CDCDD6",
"}+	c #C9C7CA",
"|+	c #B8B2B4",
"1+	c #ECECF0",
"2+	c #F3F1F3",
"3+	c #C4C4D1",
"4+	c #CCCCD7",
"5+	c #D3D3DD",
"6+	c #BABAC8",
"7+	c #9998A7",
"8+	c #BEBECB",
"9+	c #AAAABB",
"0+	c #9695A3",
"a+	c #8D8C9A",
"b+	c #777786",
"c+	c #808091",
"d+	c #C7C7D3",
"e+	c #848495",
"f+	c #A1A1B3",
"g+	c #858596",
"h+	c #AFAFC0",
"i+	c #A5A5B6",
"j+	c #CFCED9",
"k+	c #A0A0B2",
"l+	c #9898A8",
"m+	c #E6E5EB",
"n+	c #ECEBF0",
"o+	c #FAF9FA",
"p+	c #FEFDFD",
"q+	c #ECEAEE",
"r+	c #DDDCE4",
"s+	c #E0DFE6",
"t+	c #B9B9C7",
"u+	c #BBBBCA",
"v+	c #D0CFD8",
"w+	c #CECDD7",
"x+	c #7B7B8C",
"y+	c #C2C2D0",
"z+	c #D0CFD9",
"A+	c #E8E7EC",
"B+	c #9393A4",
"C+	c #A7A7B9",
"D+	c #9898A9",
"E+	c #8C8C9D",
"F+	c #9191A1",
"G+	c #BCBBC7",
"H+	c #9F9FB0",
"I+	c #C6C5CE",
"J+	c #E8E6E9",
"K+	c #B1B1C1",
"L+	c #626270",
"M+	c #D2D1DA",
"N+	c #E8E7ED",
"O+	c #FBFAFA",
"P+	c #E5E3E5",
"Q+	c #7F7C88",
"R+	c #756F7B",
"S+	c #74737F",
"T+	c #757583",
"U+	c #A4A4B4",
"V+	c #B3B3C3",
"W+	c #E4E2E8",
"X+	c #DFDEE5",
"Y+	c #EEEDEF",
"Z+	c #BAB9C3",
"`+	c #A3A3B2",
" @	c #DCDCE3",
".@	c #A8A8B9",
"+@	c #8B8B99",
"@@	c #9494A6",
"#@	c #9595A9",
"$@	c #8E8EA0",
"%@	c #9494A7",
"&@	c #8B8B9D",
"*@	c #9A9AAC",
"=@	c #C7C7D4",
"-@	c #8F8F9F",
";@	c #B4B4C2",
">@	c #D5D5DF",
",@	c #B0B0C0",
"'@	c #ADADBE",
")@	c #CECED8",
"!@	c #DADAE2",
"~@	c #D7D6DE",
"{@	c #DDDCE1",
"]@	c #C0C0CD",
"^@	c #ABAABA",
"/@	c #EEECEE",
"(@	c #B8B7C2",
"_@	c #A2A2AF",
":@	c #F1EFF0",
"<@	c #B8B7BD",
"[@	c #6C5868",
"}@	c #785065",
"|@	c #4B1F35",
"1@	c #8B8B97",
"2@	c #C2C2CA",
"3@	c #E5E4EA",
"4@	c #D9D8E1",
"5@	c #E3E1E6",
"6@	c #A4A4B5",
"7@	c #7D7D8E",
"8@	c #848496",
"9@	c #767686",
"0@	c #BEBDC8",
"a@	c #B6B6C5",
"b@	c #ACACBB",
"c@	c #A3A3B4",
"d@	c #9696A9",
"e@	c #ACACBC",
"f@	c #9595A8",
"g@	c #A3A3B6",
"h@	c #A2A2B2",
"i@	c #91919F",
"j@	c #8D8D9F",
"k@	c #A4A4B3",
"l@	c #6E6E7D",
"m@	c #BDBDCC",
"n@	c #CCCBD7",
"o@	c #CCCBD5",
"p@	c #B8B8C8",
"q@	c #8F8FA1",
"r@	c #656574",
"s@	c #757582",
"t@	c #847884",
"u@	c #826E7B",
"v@	c #908E97",
"w@	c #8C7784",
"x@	c #523A4D",
"y@	c #7E6C79",
"z@	c #C6BFC4",
"A@	c #A5A5AE",
"B@	c #A3A2B3",
"C@	c #B9B9C8",
"D@	c #C7C7D1",
"E@	c #696979",
"F@	c #7E7E8F",
"G@	c #9595A5",
"H@	c #A2A2B1",
"I@	c #B9B8C3",
"J@	c #B5B5C5",
"K@	c #A2A1AC",
"L@	c #80808F",
"M@	c #9A9AAD",
"N@	c #747485",
"O@	c #868698",
"P@	c #9595A7",
"Q@	c #8A8A9C",
"R@	c #9A9AAB",
"S@	c #646473",
"T@	c #808090",
"U@	c #B7B7C6",
"V@	c #BBBAC8",
"W@	c #8B8B9B",
"X@	c #787889",
"Y@	c #7A4E60",
"Z@	c #B38796",
"`@	c #7A3A53",
" #	c #82828E",
".#	c #B1B0B7",
"+#	c #818192",
"@#	c #9B9BAD",
"##	c #8E8E9B",
"$#	c #707080",
"%#	c #6A6A7A",
"&#	c #9797A5",
"*#	c #B0B0BE",
"=#	c #868697",
"-#	c #9D9DAB",
";#	c #6D6D7C",
">#	c #BFBEC8",
",#	c #838390",
"'#	c #C1C1CF",
")#	c #9C9CAF",
"!#	c #6D4E5F",
"~#	c #A2A2B0",
"{#	c #9F9EAB",
"]#	c #706F7B",
"^#	c #7C7C89",
"/#	c #8C8C9C",
"(#	c #898998",
"_#	c #B5B4BE",
":#	c #787888",
"<#	c #88889A",
"[#	c #CACAD5",
"}#	c #9494A0",
"|#	c #9292A4",
"1#	c #9292A0",
"2#	c #AFAFBF",
"3#	c #686877",
"4#	c #626271",
"5#	c #A6A6B4",
"6#	c #DFDEE6",
"7#	c #B5B5C2",
"8#	c #565664",
"9#	c #9C9CA8",
"0#	c #CECDD5",
"a#	c #B3B3C1",
"b#	c #90909E",
"c#	c #C6C5CF",
"d#	c #8D8D9C",
"e#	c #838392",
"f#	c #9191A3",
"g#	c #5A5A69",
"h#	c #5B5B6A",
"i#	c #828290",
"j#	c #D2D1DB",
"k#	c #D8D7E1",
"l#	c #D1D0D9",
"m#	c #C4C4D2",
"n#	c #B8B7C0",
"o#	c #A5A4B3",
"p#	c #565663",
"q#	c #6A6A79",
"r#	c #C7C6CF",
"s#	c #ADACB7",
"t#	c #BBBBC8",
"u#	c #636372",
"v#	c #ADADBB",
"w#	c #A5A5B5",
"x#	c #6F6F7D",
"y#	c #9999AB",
"z#	c #575765",
"A#	c #5F5F6E",
"B#	c #9A9AA9",
"C#	c #DBDAE2",
"D#	c #5C5C6A",
"E#	c #5E5E6C",
"F#	c #BCBBC8",
"G#	c #D5D4DD",
"H#	c #5F5F6D",
"I#	c #555564",
"J#	c #858597",
"K#	c #A1A1B2",
"L#	c #7A7A8B",
"M#	c #9E9EB1",
"N#	c #C2C1CC",
"O#	c #747484",
"P#	c #A9A9BA",
"Q#	c #B4B4C3",
"R#	c #686878",
"S#	c #9D9DAF",
"T#	c #8E8E9E",
"U#	c #656575",
"V#	c #B2B2C0",
"W#	c #DBDBE3",
"X#	c #5D5D6B",
"Y#	c #9393A6",
"Z#	c #646474",
"`#	c #B1B1C0",
" $	c #696978",
".$	c #8A8A9A",
"+$	c #A5A5B7",
"@$	c #9191A2",
"#$	c #70707D",
"$$	c #CDCDDA",
"%$	c #9B9BA8",
"&$	c #A6A6B6",
"*$	c #DBDAE1",
"=$	c #6B6B7A",
"-$	c #B1B1BF",
";$	c #B5B5BE",
">$	c #DEDDE3",
",$	c #D0CFD7",
"'$	c #737381",
")$	c #CDCCD9",
"!$	c #676775",
"~$	c #5C5C6B",
"{$	c #777787",
"]$	c #B4B3BC",
"^$	c #F0EFF3",
"/$	c #7B7B87",
"($	c #7B7B86",
"_$	c #A6A6B5",
":$	c #D1D1DB",
"<$	c #737380",
"[$	c #A2A1AB",
"}$	c #9999A6",
"|$	c #797985",
"1$	c #9B9AA5",
"2$	c #B0AFB7",
"3$	c #757585",
"4$	c #666675",
"5$	c #8C8C9E",
"6$	c #878799",
"                                                                                                      ",
"                          .                                                                           ",
"                    +   @ # $                                                                         ",
"                  $ $ % & * =                                                                         ",
"                  - ; > , ' )                                                                         ",
"                ! ~ { ] ^ / ( _                                                                       ",
"                : < [ } | 1 2 3 4 5                                                                   ",
"            6 7 % 8 9 0 a b c d e f g       h                                                         ",
"            i j k l m n o p q r s t u v w x y z A   B C D E F G H                                     ",
"          I J K L M N O P Q R S T U V W X Y Z `  ...+.@.#.$.%.&.*.=.-.;.=.                            ",
"        >.,.'.&.).!.~.'.{.].{.7 ^./.(.! _.:.<.[.W ! }.|.1.7 2.3.+ 4.] 5.6.7.8.w                       ",
"        e 9.0.a.b.c.d.e.m f.g.0 h.i.3.&.j.k.l.*.m.n.o.p.q.r.{ s.t.u.v.^.w.x.y.z.                      ",
"        A.B.C.D.E.F.G.H.L I.J.K.L.M.N.O.P.Q.R.t S.T.X } ( u U.U V.7 5.W.X.Y.Z._                       ",
"        `. +.+++@+#+$+%+L &+S *+g.=+-+;+>+,+,+'+)+!+2.[ V.r.~+{+]+]+^+-+/+9 7 $ (+_+                  ",
"      |.:+<+[+}+|+4.1+2+3+4+5+6+7+t a.8+9+b 0+a+b+c+7.^+,.d+t e+$ $ f+g+9+h+i+W.$ $ N.4           j+k+",
"    l+7 m+n+o+p+*+q+r+s+t+u+v+w+x+m.h+} ! y+z+A+=+B+k+*.o.$ $ C+D+{+k+E+3.7 F+i.^.u+x.G+E+_+  H+I+J+K+",
"  L+M+m+N+O+P+Q+R+S+T+U+V+W+X+Y+Z+x+3 `+!. @.@+@9.@@#@$@%@m.&@*@6.=@r -@;@>@,@/.(+'@)@!@~@{@]@^@/@(@  ",
"  _@m+O+:@<@[@}@|@1@2@3@4@5@6@/.7@8@9@0@a@b@i.c@d@b 6@e@| f@d@#.W.g@h@i@j@k@b 7@l@*@$ ,.m@n@o@p@q@r@  ",
"  s@t@u@v@w@x@y@z@} A@B@C@D@E@F@W.G@H@I@h+E+E+J@K+d@| ,.K@t m@L@| M@N@O@P@Q@R@S@  4 T@J@U@^ V@W@X@    ",
"    Y@Z@`@ #.#+#@###$#Q@%#&#Q@d@i@%#*#=#-#-#$@#@T {+;#1.A ,+>#,#1 '#@#)#d@| =#z       w w H z.        ",
"    !#.+~#{#]#  ^#    A..@/#(#_#:#<#[#}#;.4 |#( 1#2#`.3#f+|#4#5#r+6#u 7#'@W@2 z 8#                    ",
"        s               9#0#6.a#=@b#n.c#d#k@e#f#/._+<#g#h#g#i#3+j#k#&.l#m#4 z.@@$#                    ",
"                        n#o#p#w 2#2#q#a@r#s#t#9@u#            v#b r+s.d@w#x#q@V+y#8#                  ",
"                              z#E@E@A#B#l C#6@D#            E#T.F#G#s.N@H#I#J#2#K#L#                  ",
"                              h M#- e+%#N#m@t+8#            O#P#Q#| h@R#    A#K#S#T#                  ",
"                              /.m#.@U#8#V#W#v#X#            9@'#2#Y#Z#        c+t.`# $                ",
"                            .$+$p@@$    #$$$l#%$          4#&$*$U@E@          .$6@d@=$                ",
"                          :.E+-$d@=$      ;$>$,$'$        4#c )$K#E@        !$U.-$d@=$                ",
"                          ~$w :.{$        ]$^$]./$      ($_$s+:$7@          ~$$#:.{$                  ",
"                                        M.r.,@u <$    8#[$}$, (.7@                                    ",
"                                        |$1$2$7@      8#3$4$5$6$E#                                    ",
"                                          E 8#          8#8#8#                                        "};
