/* XPM */
static char * wolfNormalBack1_xpm[] = {
"22 42 436 2",
"  	c #FFFFFD",
". 	c #B9A384",
"+ 	c #B9A082",
"@ 	c #BBA284",
"# 	c #B6A081",
"$ 	c #917B5D",
"% 	c #CCB294",
"& 	c #DFC8A7",
"* 	c #BAA082",
"= 	c #80694C",
"- 	c #7F684C",
"; 	c #E0C8A7",
"> 	c #CCB293",
", 	c #8F795B",
"' 	c #9E8769",
") 	c #D7BB9D",
"! 	c #D4B799",
"~ 	c #C7AD8F",
"{ 	c #897154",
"] 	c #897155",
"^ 	c #776245",
"/ 	c #9B8064",
"( 	c #9A8064",
"_ 	c #776144",
": 	c #8A7255",
"< 	c #C9AF90",
"[ 	c #D3B698",
"} 	c #D8BC9E",
"| 	c #9B8466",
"1 	c #3F3220",
"2 	c #B19679",
"3 	c #C3A689",
"4 	c #CEAF93",
"5 	c #DABFA0",
"6 	c #927A5D",
"7 	c #7C6549",
"8 	c #796346",
"9 	c #A88F71",
"0 	c #A68D6F",
"a 	c #7B6548",
"b 	c #957D60",
"c 	c #DABEA0",
"d 	c #CDAE92",
"e 	c #C4A78A",
"f 	c #AD9276",
"g 	c #3E3220",
"h 	c #51412C",
"i 	c #50402B",
"j 	c #BD9F83",
"k 	c #A2876B",
"l 	c #A4896D",
"m 	c #B6997D",
"n 	c #8A7356",
"o 	c #92795C",
"p 	c #B09377",
"q 	c #D1B496",
"r 	c #D0B396",
"s 	c #AE9276",
"t 	c #8C7457",
"u 	c #B5987C",
"v 	c #BA9C81",
"w 	c #635037",
"x 	c #B19478",
"y 	c #9F8468",
"z 	c #8C7357",
"A 	c #947B5E",
"B 	c #AB8F73",
"C 	c #876F53",
"D 	c #AA8E71",
"E 	c #B89B7F",
"F 	c #A88C70",
"G 	c #AC8F73",
"H 	c #937A5E",
"I 	c #8C7458",
"J 	c #A08569",
"K 	c #AF9377",
"L 	c #614F36",
"M 	c #9A8065",
"N 	c #AA8E72",
"O 	c #846D50",
"P 	c #8D7558",
"Q 	c #CBB092",
"R 	c #CAAD90",
"S 	c #AD9175",
"T 	c #AC9074",
"U 	c #CCAE91",
"V 	c #CBAF91",
"W 	c #8E7659",
"X 	c #977E63",
"Y 	c #4F3F2A",
"Z 	c #584730",
"` 	c #6E5940",
" .	c #7D674A",
"..	c #C0A185",
"+.	c #90775B",
"@.	c #8D7659",
"#.	c #CFB295",
"$.	c #B4967A",
"%.	c #C4A98C",
"&.	c #C3A88A",
"*.	c #B4977B",
"=.	c #CFB396",
"-.	c #BEA084",
";.	c #7E684B",
">.	c #6C583F",
",.	c #574630",
"'.	c #53432D",
").	c #957D63",
"!.	c #9B8268",
"~.	c #AE9175",
"{.	c #977D61",
"].	c #D7BA9C",
"^.	c #D6B99B",
"/.	c #967C60",
"(.	c #9E8467",
"_.	c #7F694C",
":.	c #9C8268",
"<.	c #947C62",
"[.	c #594831",
"}.	c #836C4F",
"|.	c #997F63",
"1.	c #92785C",
"2.	c #816A4D",
"3.	c #A4886C",
"4.	c #80694D",
"5.	c #92795D",
"6.	c #BC9E82",
"7.	c #C2A689",
"8.	c #826B4E",
"9.	c #584731",
"0.	c #6A5843",
"a.	c #6E5A42",
"b.	c #887254",
"c.	c #B49A7D",
"d.	c #C2A789",
"e.	c #A58A6D",
"f.	c #A58A6E",
"g.	c #8A7256",
"h.	c #A78B6F",
"i.	c #857052",
"j.	c #6F5B44",
"k.	c #685541",
"l.	c #483A28",
"m.	c #987F65",
"n.	c #705C45",
"o.	c #D1B798",
"p.	c #967D60",
"q.	c #957C60",
"r.	c #B89D80",
"s.	c #9C8266",
"t.	c #CAB092",
"u.	c #A78D70",
"v.	c #A88D71",
"w.	c #9C8265",
"x.	c #B89C7F",
"y.	c #776145",
"z.	c #987F62",
"A.	c #CEB495",
"B.	c #735E47",
"C.	c #977D63",
"D.	c #453726",
"E.	c #4D3E29",
"F.	c #7A644A",
"G.	c #947A5E",
"H.	c #9D8668",
"I.	c #B2967A",
"J.	c #CDB193",
"K.	c #CEB294",
"L.	c #93795D",
"M.	c #CDB294",
"N.	c #947B5F",
"O.	c #796349",
"P.	c #4C3D29",
"Q.	c #453725",
"R.	c #806A50",
"S.	c #786346",
"T.	c #8E7559",
"U.	c #A2896C",
"V.	c #AE9275",
"W.	c #A3876B",
"X.	c #AF9376",
"Y.	c #A08669",
"Z.	c #937A5D",
"`.	c #8D7458",
" +	c #796447",
".+	c #7E684F",
"++	c #5D4B33",
"@+	c #6C583C",
"#+	c #856E51",
"$+	c #755F42",
"%+	c #C7A88C",
"&+	c #C4A88B",
"*+	c #C5A98C",
"=+	c #C6A78B",
"-+	c #756043",
";+	c #856D51",
">+	c #6B573C",
",+	c #6E593E",
"'+	c #9E8367",
")+	c #836C50",
"!+	c #735E41",
"~+	c #766043",
"{+	c #A78C70",
"]+	c #DFC7A7",
"^+	c #E0C8A8",
"/+	c #7E674A",
"(+	c #766144",
"_+	c #9D8266",
":+	c #6D593D",
"<+	c #4A3B28",
"[+	c #68553A",
"}+	c #8F765A",
"|+	c #9A7F63",
"1+	c #816A4E",
"2+	c #675439",
"3+	c #493B27",
"4+	c #3F3221",
"5+	c #725D40",
"6+	c #AF9276",
"7+	c #A98D71",
"8+	c #7F684B",
"9+	c #9F8569",
"0+	c #3E3221",
"a+	c #50412C",
"b+	c #6F5A3E",
"c+	c #877053",
"d+	c #987E62",
"e+	c #B29579",
"f+	c #C4A589",
"g+	c #B5997C",
"h+	c #B69A7D",
"i+	c #C5A68A",
"j+	c #A68B6F",
"k+	c #866F52",
"l+	c #6E5A3E",
"m+	c #4F402B",
"n+	c #4E3F2A",
"o+	c #6B583C",
"p+	c #7A6447",
"q+	c #C1A387",
"r+	c #9E8468",
"s+	c #BFA185",
"t+	c #705B3F",
"u+	c #A5896D",
"v+	c #897255",
"w+	c #887054",
"x+	c #AC9073",
"y+	c #52422C",
"z+	c #735D41",
"A+	c #C7AC8E",
"B+	c #957B5F",
"C+	c #887053",
"D+	c #9B8164",
"E+	c #9A8063",
"F+	c #BB9D81",
"G+	c #8B7357",
"H+	c #735F49",
"I+	c #776249",
"J+	c #947E60",
"K+	c #BA9E81",
"L+	c #AD9074",
"M+	c #786245",
"N+	c #BB9F82",
"O+	c #B59C7E",
"P+	c #79644A",
"Q+	c #705C47",
"R+	c #705B43",
"S+	c #56452F",
"T+	c #D3B799",
"U+	c #8F775A",
"V+	c #866E52",
"W+	c #BFA486",
"X+	c #CCB193",
"Y+	c #B1977A",
"Z+	c #B2987A",
"`+	c #91785C",
" @	c #D0B597",
".@	c #56462F",
"+@	c #705C44",
"@@	c #78634A",
"#@	c #A48D6F",
"$@	c #CBAF92",
"%@	c #CDB093",
"&@	c #CEB093",
"*@	c #A18B6D",
"=@	c #766148",
"-@	c #3F3121",
";@	c #7D674D",
">@	c #9B8165",
",@	c #A3886B",
"'@	c #A1866A",
")@	c #7B654C",
"!@	c #55493A",
"~@	c #69553B",
"{@	c #9C8165",
"]@	c #B89A7E",
"^@	c #C6AC8E",
"/@	c #C8AD8F",
"(@	c #887154",
"_@	c #B79A7D",
":@	c #91785B",
"<@	c #554A3A",
"[@	c #5B5A59",
"}@	c #82807E",
"|@	c #E1C8A8",
"1@	c #8B7358",
"2@	c #B4977C",
"3@	c #817F7D",
"4@	c #5A5958",
"5@	c #434343",
"6@	c #8A765E",
"7@	c #8E8476",
"8@	c #776D5F",
"9@	c #74644E",
"0@	c #816B54",
"a@	c #786349",
"b@	c #C2A588",
"c@	c #756047",
"d@	c #846E56",
"e@	c #74644F",
"f@	c #786E60",
"g@	c #88755D",
"h@	c #ABA9A5",
"i@	c #766F65",
"j@	c #969089",
"k@	c #868585",
"l@	c #8B8174",
"m@	c #8F775C",
"n@	c #4B3C29",
"o@	c #6E5A3F",
"p@	c #B09477",
"q@	c #69563C",
"r@	c #624F37",
"s@	c #8D8376",
"t@	c #858585",
"u@	c #958F87",
"v@	c #777067",
"w@	c #ABA8A5",
"x@	c #4C4C4C",
"y@	c #6B6B6B",
"z@	c #828282",
"A@	c #898988",
"B@	c #9D9C9A",
"C@	c #5D4F3C",
"D@	c #DDC3A4",
"E@	c #B79E80",
"F@	c #856D55",
"G@	c #756A5C",
"H@	c #9F9E9C",
"I@	c #878686",
"J@	c #838383",
"K@	c #696969",
"L@	c #4D4D4D",
"M@	c #424242",
"N@	c #868686",
"O@	c #959595",
"P@	c #7D7D7D",
"Q@	c #524536",
"R@	c #9B8167",
"S@	c #D5BA9C",
"T@	c #E6CFAE",
"U@	c #836C53",
"V@	c #777571",
"W@	c #7F7F7F",
"X@	c #646464",
"Y@	c #6C6B6A",
"Z@	c #A3A1A0",
"`@	c #BEBCB9",
" #	c #716A61",
".#	c #65533E",
"+#	c #B6987C",
"@#	c #D1B497",
"##	c #E3CBAB",
"$#	c #BFA386",
"%#	c #665339",
"&#	c #5E503E",
"*#	c #6E6C6A",
"=#	c #909090",
"-#	c #ADAAA7",
";#	c #616161",
">#	c #585858",
",#	c #9C9C9C",
"'#	c #A1A1A1",
")#	c #625B52",
"!#	c #7D674C",
"~#	c #C0A487",
"{#	c #BA9C80",
"]#	c #4E3F2B",
"^#	c #4C463F",
"/#	c #6A6A6A",
"(#	c #808080",
"_#	c #747474",
":#	c #515151",
"<#	c #656565",
"[#	c #9B9B9B",
"}#	c #6F6960",
"|#	c #62533E",
"1#	c #7B6B55",
"2#	c #8F785D",
"3#	c #90785B",
"4#	c #9A8066",
"5#	c #5A5249",
"6#	c #7C7C7C",
"7#	c #8F8F8F",
"8#	c #707070",
"9#	c #555555",
"0#	c #7A7A7A",
"a#	c #65625E",
"b#	c #797876",
"c#	c #BBB8B4",
"d#	c #8A8176",
"e#	c #6F5B40",
"f#	c #4E4438",
"g#	c #767676",
"h#	c #949494",
"i#	c #A3A3A3",
"j#	c #4E4E4E",
"k#	c #6D6D6D",
"l#	c #5C5C5C",
"m#	c #9E9D9C",
"n#	c #BDBAB7",
"o#	c #5D564D",
"p#	c #4D4234",
"q#	c #565656",
"r#	c #727272",
"s#	c #5E5E5E",
"t#	c #5D5D5D",
"u#	c #737373",
"v#	c #90908F",
"w#	c #B1AFAC",
"x#	c #575757",
"y#	c #787878",
"z#	c #7E7E7E",
"A#	c #5B5B5B",
"B#	c #525252",
"C#	c #535353",
"                                            ",
"        . +                     @ #         ",
"      $ % & *       = -       @ ; > ,       ",
"      ' ) ! ~ { ] ^ / ( _ : ] < [ } |       ",
"    1 2 3 4 5 6 7 8 9 0 8 a b c d e f g     ",
"  h i j k l m n o p q r s o t u l k v h i   ",
"    w x y z A B C D E E F C G H I J K L     ",
"  i M j N O P l Q R S T U V k W O B j X Y   ",
"    Z `  ...+.@.#.$.%.&.*.=.n o -.;.>.,.    ",
"  '.).!.;.p ~.y F {.].^./.F (.K ~._.:.<.h   ",
"    [.] }.3 |.j 1.2.3.k 4.5.6.|.7.8.] 9.    ",
"  0.a.b.c.d.a e.G f.g.g.h.B 3.7 &.c.i.j.k.  ",
"l.m.n.o.p.q.^ r.s.t.u.v.t.w.x.y./.z.A.B.C.D.",
"  E.F.F ] G.H.Q H I.J.K.x L.M.| N.] F O.P.  ",
"  Q.R.S.T.o U.V.k l G G 3.W.X.Y.Z.`. +.+Q.  ",
"  ++@+#+: $+g.H T %+&+*+=+T H { -+: ;+>+++  ",
"  E.,+'+)+!+8 ~+;.{+]+^+e./+(+8 !+;+_+:+P.  ",
"  <+[+8.8.p.8./ 5.}+&+e T.Z.|+8.p.8.1+2+3+  ",
"4+'.5+}.N.y 6+7+p 8+P t _.x 7+s 9+H 8.5+h 0+",
"  a+b+c+d+h.e+f+6+-.g+h+-.s i+x j+d+k+l+m+  ",
"  n+o+d+p+q+r+S ~.*.].^.e+s G J s+a {.>+E.  ",
"  h t+_ 5+V.s u+J v+r #.w+J l p x+!+_ t+i   ",
"    y+z+`.A+N.6.B+C+D+E+C+/.F+B+A+G+5+h     ",
"  H+I+J+c.K+^ k ~.B T.W T L+Y.M+N+O+$ P+Q+  ",
"l.R+S+T+U+V+7 W+/.X+Y+Z+Q q.W+a V+`+ @.@+@  ",
"  4+@@J M+!+#@$@: U+%@&@P g.J.*@!+S.Y.=@-@  ",
"  n+;@_ M+>@,@'@!+z 7+7+: !+3.Y.>@M+^ )@n+  ",
"  !@~@{@}+]@'@: !+G+^@/@(@!+G+J _@:@|.[+<@  ",
"  [@}@*.8.}+C _.g.q.|@|@5.1@- k+}+}.2@3@4@  ",
"    5@6@7@8@9@s.0@a@3 b@c@d@D+e@f@7@g@5@    ",
"    h@i@j@k@l@m@n@o@u p@q@r@q.s@t@u@v@w@    ",
"    x@y@z@A@B@C@S+f.D@E@F@++G@H@I@J@K@L@    ",
"    M@z@N@O@P@Q@R@S@T@E@U@++V@W@O@t@X@M@    ",
"    5@Y@Z@`@ #.#+#@###$#%#&#*#=#-#;#M@      ",
"      >#,#'#)#!#{@~#~#{#]#^#/#(#_#:#        ",
"        <#[#}#|#1#2#3#4#5#6#,#7#8#          ",
"        9#0#a#b#c#d#e#f#g#h#i#z@j#          ",
"        5@k#l#m#n#o#p#  q#r#_#s#            ",
"          L@t#u#g#u#X@    5@5@              ",
"            s#v#w#i#X@                      ",
"            x#y#O@z#A#                      ",
"              B#C#B#                        "};
