/* XPM */
static char * wolfAngryRight2_xpm[] = {
"50 32 480 2",
"  	c #FFFFFD",
". 	c #E1E1E8",
"+ 	c #B4B4C4",
"@ 	c #E6E5EB",
"# 	c #AAAABB",
"$ 	c #AAAABC",
"% 	c #DEDDE4",
"& 	c #E2E1E8",
"* 	c #EEEDF1",
"= 	c #C6C6D2",
"- 	c #EFEDEF",
"; 	c #E2E1E7",
"> 	c #C7C6D0",
", 	c #DADAE1",
"' 	c #9A9AAA",
") 	c #9393A4",
"! 	c #CDCCD7",
"~ 	c #DAD9E1",
"{ 	c #ABABBB",
"] 	c #E8E7EB",
"^ 	c #B8B8C6",
"/ 	c #ACACBE",
"( 	c #858596",
"_ 	c #777787",
": 	c #AAAAB9",
"< 	c #A0A0B2",
"[ 	c #A4A4B5",
"} 	c #ABABBC",
"| 	c #DBDBE4",
"1 	c #DADAE3",
"2 	c #CECDD8",
"3 	c #C0BFCD",
"4 	c #727282",
"5 	c #797989",
"6 	c #ACACBA",
"7 	c #9292A1",
"8 	c #7F7F90",
"9 	c #C6C6D3",
"0 	c #A2A2B4",
"a 	c #DDDCE3",
"b 	c #CCCCD8",
"c 	c #D2D2DC",
"d 	c #EBEAED",
"e 	c #D7D6E0",
"f 	c #BDBCCB",
"g 	c #BDBDCB",
"h 	c #7C7C8B",
"i 	c #A3A2AC",
"j 	c #7F7F8F",
"k 	c #9595A3",
"l 	c #9897A4",
"m 	c #7B7B8B",
"n 	c #858593",
"o 	c #8D8D9C",
"p 	c #A7A6B4",
"q 	c #6F6F7F",
"r 	c #B1B0BD",
"s 	c #828293",
"t 	c #9494A4",
"u 	c #CECED9",
"v 	c #CFCED8",
"w 	c #F0EFF1",
"x 	c #ECEBEE",
"y 	c #E3E2E8",
"z 	c #F7F5F5",
"A 	c #ECEBEF",
"B 	c #F3F2F4",
"C 	c #C5C5D2",
"D 	c #808090",
"E 	c #AFAFBC",
"F 	c #A9A9B7",
"G 	c #EDECEF",
"H 	c #C9C8CE",
"I 	c #B9B9C8",
"J 	c #E1E0E6",
"K 	c #C5C4CE",
"L 	c #A2A2B2",
"M 	c #D0CFD8",
"N 	c #BEBEC9",
"O 	c #9F9EAD",
"P 	c #ABABB8",
"Q 	c #9898A9",
"R 	c #9696A3",
"S 	c #8F8FA0",
"T 	c #B4B4C2",
"U 	c #E3E2E7",
"V 	c #F3F2F5",
"W 	c #FAF9F9",
"X 	c #FBFAFA",
"Y 	c #F4F4F6",
"Z 	c #F1F0F2",
"` 	c #F7F6F6",
" .	c #F0EEF0",
"..	c #FCFAFA",
"+.	c #DFDFE5",
"@.	c #B1B1C2",
"#.	c #808091",
"$.	c #9292A3",
"%.	c #B7B7C3",
"&.	c #DEDDE3",
"*.	c #B2B2C2",
"=.	c #ADADBF",
"-.	c #C3C3D0",
";.	c #CCCCD7",
">.	c #B3B3C1",
",.	c #888898",
"'.	c #A5A5B4",
").	c #9D9DAF",
"!.	c #AEAEBC",
"~.	c #CCCBD2",
"{.	c #9A9AA8",
"].	c #8B8B9A",
"^.	c #D0D0DA",
"/.	c #AEAEBF",
"(.	c #A4A4B4",
"_.	c #9090A1",
":.	c #ADADBE",
"<.	c #DEDEE6",
"[.	c #E5E4E9",
"}.	c #C3C3CF",
"|.	c #C9C8D4",
"1.	c #C5C5D1",
"2.	c #7B7B8C",
"3.	c #B8B8C8",
"4.	c #D5D4DC",
"5.	c #C5C4CF",
"6.	c #9999AA",
"7.	c #A8A8B4",
"8.	c #C7C7D3",
"9.	c #B0B0C1",
"0.	c #C2C2D0",
"a.	c #9F9FB0",
"b.	c #BABAC7",
"c.	c #A5A5B3",
"d.	c #868696",
"e.	c #9D9DAD",
"f.	c #C4C3CC",
"g.	c #C6C6D1",
"h.	c #D7D6DE",
"i.	c #D0CFDA",
"j.	c #A9A9B8",
"k.	c #767686",
"l.	c #B5B5C5",
"m.	c #E4E3E9",
"n.	c #F4F2F3",
"o.	c #DDDCE5",
"p.	c #AAA9B4",
"q.	c #9C9CA5",
"r.	c #C9C9D1",
"s.	c #B6B6C1",
"t.	c #848495",
"u.	c #6F6F7E",
"v.	c #D1D0DB",
"w.	c #8B8B9B",
"x.	c #C1C1CF",
"y.	c #A1A1B2",
"z.	c #B1B1C1",
"A.	c #CDCDD8",
"B.	c #BCBCC7",
"C.	c #C1C1CE",
"D.	c #BABAC9",
"E.	c #A6A6B5",
"F.	c #8C8C9C",
"G.	c #A9A9B9",
"H.	c #D9D8DF",
"I.	c #ACACBD",
"J.	c #838392",
"K.	c #A1A1B1",
"L.	c #BBBBC9",
"M.	c #E0E0E7",
"N.	c #DFDEE6",
"O.	c #DCDCE4",
"P.	c #AAA9B5",
"Q.	c #9D8834",
"R.	c #6D6A73",
"S.	c #CAC9D2",
"T.	c #C0C0CD",
"U.	c #9797A8",
"V.	c #DCDAE1",
"W.	c #C6C5CF",
"X.	c #9696A7",
"Y.	c #ACACB9",
"Z.	c #8D8D9E",
"`.	c #ACACBB",
" +	c #A5A5B7",
".+	c #9C9CAE",
"++	c #9999A9",
"@+	c #9A9AAB",
"#+	c #A7A7B7",
"$+	c #D1D0D7",
"%+	c #F6F4F4",
"&+	c #F9F8F8",
"*+	c #ECEBF0",
"=+	c #E1E0E7",
"-+	c #F1EFF1",
";+	c #F3F1F3",
">+	c #A8A7B3",
",+	c #A68F5E",
"'+	c #896E2B",
")+	c #706F79",
"!+	c #B9B8C2",
"~+	c #A9A9B6",
"{+	c #848494",
"]+	c #C6C5CE",
"^+	c #DBDAE2",
"/+	c #BDBCC8",
"(+	c #9B9BAC",
"_+	c #787888",
":+	c #9494A5",
"<+	c #9F9FB1",
"[+	c #A3A3B4",
"}+	c #AEAEBE",
"|+	c #9696A8",
"1+	c #A3A3B5",
"2+	c #A9A9BA",
"3+	c #D0D0DB",
"4+	c #CECED8",
"5+	c #898998",
"6+	c #838393",
"7+	c #7D7D8D",
"8+	c #8A8A98",
"9+	c #9E9EAE",
"0+	c #C0C0CC",
"a+	c #BCBCC9",
"b+	c #8E8E9D",
"c+	c #B0AFBE",
"d+	c #CACAD5",
"e+	c #D5D4DE",
"f+	c #D6D5DF",
"g+	c #ACA9B3",
"h+	c #B5AEA6",
"i+	c #C7C7CE",
"j+	c #C3C3CE",
"k+	c #D5D5DF",
"l+	c #BABAC8",
"m+	c #707080",
"n+	c #BFBEC9",
"o+	c #CBCAD4",
"p+	c #C3C2CF",
"q+	c #BDBDCC",
"r+	c #9A9AAC",
"s+	c #777788",
"t+	c #A4A4B3",
"u+	c #BFBFCD",
"v+	c #A8A8B7",
"w+	c #89899A",
"x+	c #9595A7",
"y+	c #A1A1B3",
"z+	c #CACAD2",
"A+	c #E5E4E8",
"B+	c #CCCCD6",
"C+	c #7A7A8A",
"D+	c #9595A4",
"E+	c #CDCCD6",
"F+	c #C8C7D2",
"G+	c #CCCBD5",
"H+	c #E7E6EC",
"I+	c #DAD9E3",
"J+	c #FEFDFD",
"K+	c #EAE9EE",
"L+	c #BCBCCA",
"M+	c #D1D1DA",
"N+	c #C4C4D0",
"O+	c #A9A9BB",
"P+	c #868697",
"Q+	c #9898AA",
"R+	c #C2C2CF",
"S+	c #D3D3DD",
"T+	c #A0A0B1",
"U+	c #838394",
"V+	c #8C8C9E",
"W+	c #8F8FA1",
"X+	c #8F8FA2",
"Y+	c #9696A9",
"Z+	c #90909D",
"`+	c #9393A2",
" @	c #9797A6",
".@	c #828294",
"+@	c #DDDBE0",
"@@	c #F5F3F4",
"#@	c #DDDCE4",
"$@	c #D8D7E0",
"%@	c #767684",
"&@	c #7F7E88",
"*@	c #807D87",
"=@	c #A1A0A8",
"-@	c #F8F7F7",
";@	c #F7F5F6",
">@	c #A4A4B1",
",@	c #5A5A68",
"'@	c #878798",
")@	c #B8B8C7",
"!@	c #C9C9D5",
"~@	c #BEBECC",
"{@	c #9C9CAD",
"]@	c #686878",
"^@	c #8E8E9E",
"/@	c #858597",
"(@	c #ACACBC",
"_@	c #9595A8",
":@	c #A5A5B6",
"<@	c #9B9BAE",
"[@	c #747485",
"}@	c #8E8EA0",
"|@	c #727283",
"1@	c #ADACBB",
"2@	c #A3A3AC",
"3@	c #6E6171",
"4@	c #49132B",
"5@	c #866E7F",
"6@	c #8E838E",
"7@	c #CCCBCF",
"8@	c #FCFBFB",
"9@	c #D7D7E1",
"0@	c #7A7A88",
"a@	c #555564",
"b@	c #9292A4",
"c@	c #9090A2",
"d@	c #7E7E8F",
"e@	c #9898AB",
"f@	c #B4B4C3",
"g@	c #CBCAD1",
"h@	c #BEBECD",
"i@	c #B9B9C7",
"j@	c #9D9DAB",
"k@	c #9C9CAB",
"l@	c #A6A6B6",
"m@	c #9090A3",
"n@	c #747484",
"o@	c #81818F",
"p@	c #D4D4DE",
"q@	c #AFAFC0",
"r@	c #9D9DAA",
"s@	c #C5C5CD",
"t@	c #C8C8D2",
"u@	c #BDAEB5",
"v@	c #574152",
"w@	c #4E2E42",
"x@	c #A7A1A8",
"y@	c #8D8D96",
"z@	c #896C7A",
"A@	c #898994",
"B@	c #6C6C7A",
"C@	c #88889A",
"D@	c #A6A6B7",
"E@	c #9595A6",
"F@	c #9E9DA7",
"G@	c #757585",
"H@	c #B7B6C3",
"I@	c #9797AA",
"J@	c #818192",
"K@	c #B3B3C0",
"L@	c #9494A3",
"M@	c #6A6A7A",
"N@	c #A3A3B2",
"O@	c #9494A7",
"P@	c #8C8C9D",
"Q@	c #8C8C9A",
"R@	c #6E6E7E",
"S@	c #8D8DA0",
"T@	c #686876",
"U@	c #ABABBA",
"V@	c #9393A1",
"W@	c #9F9DA5",
"X@	c #7C6E7E",
"Y@	c #7B2C48",
"Z@	c #CAB0B9",
"`@	c #70485D",
" #	c #565664",
".#	c #9494A6",
"+#	c #9F9FAD",
"@#	c #A8A8B9",
"##	c #CECDD6",
"$#	c #D8D7DF",
"%#	c #80808F",
"&#	c #737384",
"*#	c #646473",
"=#	c #A3A3B3",
"-#	c #A4A4B2",
";#	c #8B8B9C",
">#	c #9B9BAA",
",#	c #ADACB6",
"'#	c #7D7D8E",
")#	c #91919F",
"!#	c #9797A4",
"~#	c #8F8F9D",
"{#	c #6B6B7A",
"]#	c #71717F",
"^#	c #737380",
"/#	c #898992",
"(#	c #A7A7B6",
"_#	c #9999A7",
":#	c #9A97A1",
"<#	c #60606F",
"[#	c #7E7E8D",
"}#	c #D1D0DA",
"|#	c #E0DFE5",
"1#	c #D8D8E1",
"2#	c #D3D2DC",
"3#	c #CACAD6",
"4#	c #878795",
"5#	c #818193",
"6#	c #5E5E6D",
"7#	c #6C6C7C",
"8#	c #696978",
"9#	c #757586",
"0#	c #ABABB9",
"a#	c #C5C4CB",
"b#	c #9F9FAE",
"c#	c #9D9DAC",
"d#	c #777785",
"e#	c #6A6A79",
"f#	c #91919E",
"g#	c #79798A",
"h#	c #616170",
"i#	c #B7B7C5",
"j#	c #A5A5B1",
"k#	c #C0BFC9",
"l#	c #9F9FAF",
"m#	c #636372",
"n#	c #878792",
"o#	c #6C6C7B",
"p#	c #C9C9D6",
"q#	c #D8D7DE",
"r#	c #777786",
"s#	c #5D5D6C",
"t#	c #A0A0B0",
"u#	c #A3A3B1",
"v#	c #5F5F6E",
"w#	c #636371",
"x#	c #B3B3C3",
"y#	c #878799",
"z#	c #CBCAD3",
"A#	c #89899B",
"B#	c #585866",
"C#	c #C6C6D4",
"D#	c #9B9BAD",
"E#	c #737382",
"F#	c #838391",
"G#	c #555563",
"H#	c #A2A2B1",
"I#	c #DDDDE4",
"J#	c #6D6D7C",
"K#	c #AFAFBF",
"L#	c #595967",
"M#	c #656574",
"N#	c #DEDEE5",
"O#	c #B0B0BD",
"P#	c #BABAC6",
"Q#	c #D3D3DC",
"R#	c #D3D3DE",
"S#	c #9B9BAB",
"T#	c #C3C3D1",
"U#	c #808092",
"V#	c #7E7E8E",
"W#	c #B2B2BF",
"X#	c #F1F0F3",
"Y#	c #F4F3F4",
"Z#	c #80808D",
"`#	c #6B6B7B",
" $	c #C7C6D3",
".$	c #E6E4EA",
"+$	c #8F8E97",
"@$	c #666675",
"#$	c #9695A6",
"$$	c #E3E3E9",
"%$	c #C7C7D0",
"&$	c #7F7F8E",
"*$	c #5F5F6D",
"=$	c #686877",
"-$	c #737383",
";$	c #7B7B8A",
">$	c #AEAEBD",
",$	c #B1B1C0",
"'$	c #AAAAB7",
")$	c #6D6D7D",
"!$	c #565663",
"~$	c #9D9CA5",
"{$	c #80808C",
"]$	c #7D7D89",
"                                                                          .                         ",
"                                                                        + @ .   #                   ",
"                                                                      $ % & * = $ #                 ",
"                                                                      $ - ; > , ' $                 ",
"                                                                      ) ! ~ { ] ^ /                 ",
"                                                                  ( _ : < [ } | 1 2 3               ",
"                                                        4     5 6 7 8 9 0 } a b c d e f g           ",
"                                    h i   j k l m n o h p   q r g s t u v w x 1 y z A B C           ",
"                            D E q q F G H < I J K L M N O P Q R S T U V W X Y Z ` w  ...+.@.        ",
"                      4 #.#.$.%.&.*.=.-.;.>.,.'.= ).!.~.{.].^./.(._.:.b & y <.G [.}.|.d y 1.Q       ",
"                      2.3.4.5.6.7.8.9.-.0.a.b.c.0 d.d.e.f.g.h.i.j.k.l.m.n.G o.u p.q.r.9 s.t.u.      ",
"  v.                m w.u c x.y.z.A.u ' B.C.D.;._.E.^ F.G.H.|.I.J.K.L.C.M.N.x O.P.Q.R.S.T.U.u.      ",
"  V.W.            q j } -.-.3.X.Y.x.x.+ X.C.| | 3.Z.`. +.+++|.@+#+$+%+&+*+=+-+;+>+,+'+)+!+~+{+      ",
"  ]+^+/+(+_+_+_+:+[ <+[+}+*.' |+1+$ <+#.2+3+4+5+6+m 7+8+9+[ 9.0+a+b+c+d+e+-.f+W O.g+h+i+j+k+l+6+    ",
"  m+n+z.c o+p+o+}.q+r+s+t+u+v+w+z.@.Q $ $ $ x+|+y+t z+A+B+g u+C < C+D+E+F+@.G+H+I+%+X J+V K+f+D.7+  ",
"    d.L+U M+L+=+N+O+P+Q+R+S+9+T+3+D.8 .+U+V+W+X+Y+Z.Z+`+D.y -. @) .@+@@@#@$@[ D+%@&@*@=@-@;@. ] >@,@",
"      '@Q )@!@~@{@Z.]@:+I ^@/@E {@).(@ +_@Y+:@2+<@/.Y+@+6+L+-.{.[@}@|@K.1@& y y 2@3@4@5@6@7@8@-@9@0@",
"          6+6+6+m   a@_ X.b@c@t.d@e@Q  @f@s g@h@<@y.[ i@2.T+-.j@k@l@m@n@o@p@q@r@s@t@u@v@w@x@y@z@A@B@",
"                    a@C@S e@|+a.D@*.E@F@i@P+: G@U+p@H@I@J@K@L@j ~+M@N@O@P@Q@R@S@T@U@t V@W@X@Y@Z@`@  ",
"                     #.#+#|+@###1.k+$#%#&#y.x+*#=#L -#}+J@;#>#,#I '#)#!#~#U.Q+{#  ]#^#  /#(#_#:#    ",
"                      <#[#3 }#|#1#2#3#4#5#*#6#7#S 8#;#b@9#0#w+a#< {#-.b#c#h.d#            e#j       ",
"                        f#+ _@~@1 2+Y.g#m@7#     # # #h#9#i#j#k#I {#l#m#h#t@n#                      ",
"                        B@o#@#p#q#r+r#X+{#              s#t#^+n.u#6#v# #                            ",
"                          w#2+g x#Z.g#y#v#               #T D.z#s+A#B#                              ",
"                          d@D@C#D#E#{@F#                G#H#I#L.J#K#L#                              ",
"                        M#l#N#O#C+P+<+F#                 #P#Q#9 J#y+L#                              ",
"                        k.0.R#Q@{#Y+:.S#Q               a@9+x.$#J#D._+                              ",
"                        9#T#R+r#L#U#t+V#M@               #W#X#Y#Z#.#`#q                             ",
"                        k. $.$l++$8#7#@$,@               ##$& $$%$&$*$=$                            ",
"                        -$T+i@;$>@ #                      o#>$,$9+'$B#                              ",
"                          G@g#<#)$!$                        M@~${$]$                                ",
"                                                                                                    "};
