/* XPM */
static char * wolfnormal1_xpm[] = {
"24 41 410 2",
"  	c #FFFFFD",
". 	c #868686",
"+ 	c #858585",
"@ 	c #8E8D8C",
"# 	c #BDBAB7",
"$ 	c #989694",
"% 	c #C3C0BB",
"& 	c #CECAC5",
"* 	c #9A9896",
"= 	c #695844",
"- 	c #A8A097",
"; 	c #8F8D8B",
"> 	c #9D8E7E",
", 	c #433524",
"' 	c #4C3D29",
") 	c #6E5A43",
"! 	c #5B4A35",
"~ 	c #6D5940",
"{ 	c #403221",
"] 	c #5A4932",
"^ 	c #3F3221",
"/ 	c #5B4A32",
"( 	c #756045",
"_ 	c #735E44",
": 	c #4B3C28",
"< 	c #8C7459",
"[ 	c #735E41",
"} 	c #9D8266",
"| 	c #9A8064",
"1 	c #9C8266",
"2 	c #725E40",
"3 	c #8B7358",
"4 	c #56452F",
"5 	c #786348",
"6 	c #AA8E72",
"7 	c #7F684C",
"8 	c #A78C6F",
"9 	c #A68A6E",
"0 	c #A58A6E",
"a 	c #A78B6F",
"b 	c #7E684B",
"c 	c #AB8F73",
"d 	c #776147",
"e 	c #55452E",
"f 	c #423523",
"g 	c #635037",
"h 	c #8D7559",
"i 	c #856D51",
"j 	c #826B4F",
"k 	c #B6987C",
"l 	c #B5987C",
"m 	c #846C50",
"n 	c #624F36",
"o 	c #594831",
"p 	c #68543A",
"q 	c #816A4D",
"r 	c #7F694C",
"s 	c #796447",
"t 	c #897154",
"u 	c #AD9074",
"v 	c #B5977B",
"w 	c #AC8F73",
"x 	c #7A6447",
"y 	c #7F684B",
"z 	c #675439",
"A 	c #3F3121",
"B 	c #5D4B33",
"C 	c #7A644C",
"D 	c #735E43",
"E 	c #614F37",
"F 	c #786245",
"G 	c #776145",
"H 	c #A88C70",
"I 	c #A98D71",
"J 	c #604E36",
"K 	c #77624A",
"L 	c #645137",
"M 	c #5C4A32",
"N 	c #958472",
"O 	c #B39B7E",
"P 	c #8B7356",
"Q 	c #776245",
"R 	c #796346",
"S 	c #5F4D35",
"T 	c #6E5A41",
"U 	c #B49C80",
"V 	c #92816F",
"W 	c #614F36",
"X 	c #604E35",
"Y 	c #5C4C37",
"Z 	c #BBB0A2",
"` 	c #C0B6A9",
" .	c #B2997C",
"..	c #6B573D",
"+.	c #4E3F2B",
"@.	c #4F3F2B",
"#.	c #786247",
"$.	c #766146",
"%.	c #4E3F2A",
"&.	c #6D593F",
"*.	c #B49B7D",
"=.	c #C0B7AB",
"-.	c #BAAD9F",
";.	c #5B4A36",
">.	c #5F4D34",
",.	c #3E3221",
"'.	c #94836D",
").	c #DFD9D3",
"!.	c #AEA9A5",
"~.	c #AF967F",
"{.	c #8C7457",
"].	c #7B654C",
"^.	c #705B41",
"/.	c #856E51",
"(.	c #6F5A40",
"_.	c #7C664D",
":.	c #8D7558",
"<.	c #AF9780",
"[.	c #B0ABA7",
"}.	c #DFDAD3",
"|.	c #8F7F68",
"1.	c #887964",
"2.	c #D0CDC8",
"3.	c #A2A2A1",
"4.	c #A59485",
"5.	c #766144",
"6.	c #7D674A",
"7.	c #7D6649",
"8.	c #776144",
"9.	c #8E7659",
"0.	c #A39385",
"a.	c #A5A4A4",
"b.	c #CFCCC7",
"c.	c #857660",
"d.	c #4D3E29",
"e.	c #54432E",
"f.	c #7D6D59",
"g.	c #8E8E8E",
"h.	c #7A766F",
"i.	c #8B7357",
"j.	c #7C6649",
"k.	c #A3886C",
"l.	c #7D664A",
"m.	c #8A7256",
"n.	c #7B7772",
"o.	c #8D8D8D",
"p.	c #7C6C57",
"q.	c #54442E",
"r.	c #93816D",
"s.	c #766E64",
"t.	c #80705D",
"u.	c #93795D",
"v.	c #C7AA8D",
"w.	c #C6A98C",
"x.	c #A4886C",
"y.	c #7F6F5C",
"z.	c #766F65",
"A.	c #93806C",
"B.	c #57462F",
"C.	c #715C3F",
"D.	c #957C61",
"E.	c #8F775C",
"F.	c #B3967A",
"G.	c #A78C70",
"H.	c #CDAF92",
"I.	c #B4977B",
"J.	c #DABEA0",
"K.	c #D9BD9F",
"L.	c #A68B6F",
"M.	c #8E765B",
"N.	c #947B60",
"O.	c #826B4E",
"P.	c #A5896D",
"Q.	c #C9AD8F",
"R.	c #C3A78A",
"S.	c #E1C8A8",
"T.	c #D2B497",
"U.	c #E6CFAE",
"V.	c #E7D0AF",
"W.	c #D2B396",
"X.	c #C3A689",
"Y.	c #C8AC8F",
"Z.	c #816A4E",
"`.	c #483A28",
" +	c #CFB395",
".+	c #D2B698",
"++	c #B19478",
"@+	c #DEC4A5",
"#+	c #DABFA0",
"$+	c #E2CAAA",
"%+	c #E5CDAC",
"&+	c #DEC5A5",
"*+	c #D9BD9E",
"=+	c #B09478",
"-+	c #CEB194",
";+	c #937A60",
">+	c #453726",
",+	c #4A3C28",
"'+	c #91785D",
")+	c #BCA586",
"!+	c #D5BB9C",
"~+	c #D6B99B",
"{+	c #CEAE92",
"]+	c #D7BA9C",
"^+	c #DBBFA1",
"/+	c #D2B397",
"(+	c #D6B99C",
"_+	c #D4BA9B",
":+	c #BBA485",
"<+	c #4A3B27",
"[+	c #6D593D",
"}+	c #A08669",
"|+	c #9F8569",
"1+	c #967F62",
"2+	c #C4A98B",
"3+	c #D8BC9E",
"4+	c #E0C7A7",
"5+	c #D0B194",
"6+	c #D7BB9D",
"7+	c #B59A7D",
"8+	c #9E8467",
"9+	c #4D3E2A",
"0+	c #7E684D",
"a+	c #6F5B43",
"b+	c #3D3611",
"c+	c #584B1C",
"d+	c #594B0F",
"e+	c #9F8669",
"f+	c #D0B295",
"g+	c #D0B195",
"h+	c #9C8467",
"i+	c #58490D",
"j+	c #594C1D",
"k+	c #3C3511",
"l+	c #715D45",
"m+	c #80694E",
"n+	c #756049",
"o+	c #9D8368",
"p+	c #B7997D",
"q+	c #574726",
"r+	c #B08F31",
"s+	c #B69917",
"t+	c #4B4024",
"u+	c #B89B81",
"v+	c #B5987E",
"w+	c #493E22",
"x+	c #BA9C18",
"y+	c #AF8E32",
"z+	c #564726",
"A+	c #8A7255",
"B+	c #B89A7E",
"C+	c #9C8267",
"D+	c #766145",
"E+	c #4F402B",
"F+	c #645139",
"G+	c #80694D",
"H+	c #A38C73",
"I+	c #776248",
"J+	c #705B3E",
"K+	c #7E6845",
"L+	c #4F4229",
"M+	c #967E61",
"N+	c #D5B89B",
"O+	c #D5B89A",
"P+	c #927B5E",
"Q+	c #7F6946",
"R+	c #6F5A3D",
"S+	c #7A644A",
"T+	c #A38C72",
"U+	c #635038",
"V+	c #463825",
"W+	c #7C6A52",
"X+	c #CBC4BC",
"Y+	c #BEAD9B",
"Z+	c #B99B7F",
"`+	c #C9AA8E",
" @	c #C8A98D",
".@	c #AC9074",
"+@	c #C0B09F",
"@@	c #C8C1B9",
"#@	c #79684F",
"$@	c #443624",
"%@	c #635A4E",
"&@	c #DFD9D5",
"*@	c #E1D8D0",
"=@	c #D9C0AB",
"-@	c #D7BCA0",
";@	c #DFC6A6",
">@	c #E4CCAB",
",@	c #E1C9A9",
"'@	c #E2C9A9",
")@	c #D6BBA0",
"!@	c #DAC2AD",
"~@	c #DFD7CF",
"{@	c #DFDAD6",
"]@	c #BBB8B5",
"^@	c #61584C",
"/@	c #715D44",
"(@	c #6F6A63",
"_@	c #A2A09F",
":@	c #8C8C8C",
"<@	c #A2A09E",
"[@	c #E8E3DF",
"}@	c #E3D7CC",
"|@	c #D1BEAB",
"1@	c #8B7B5B",
"2@	c #826F51",
"3@	c #DCCCB8",
"4@	c #E3D8CE",
"5@	c #E7E2DE",
"6@	c #A09E9C",
"7@	c #A1A09E",
"8@	c #6E6961",
"9@	c #6F5B42",
"0@	c #7E6850",
"a@	c #504639",
"b@	c #626161",
"c@	c #B0AEAB",
"d@	c #747474",
"e@	c #A9A7A5",
"f@	c #E1DCD6",
"g@	c #D5D0C8",
"h@	c #52472A",
"i@	c #54482B",
"j@	c #D8D3CC",
"k@	c #A5A4A2",
"l@	c #767676",
"m@	c #AFADA9",
"n@	c #514639",
"o@	c #7C664E",
"p@	c #3F3220",
"q@	c #826B52",
"r@	c #615C56",
"s@	c #595959",
"t@	c #6E6E6E",
"u@	c #717171",
"v@	c #9A9997",
"w@	c #ABABA9",
"x@	c #848484",
"y@	c #ACABAA",
"z@	c #999795",
"A@	c #6C6C6C",
"B@	c #5A5A5A",
"C@	c #605A53",
"D@	c #3E3220",
"E@	c #787878",
"F@	c #6F6F6F",
"G@	c #696969",
"H@	c #5E5E5E",
"I@	c #727272",
"J@	c #686868",
"K@	c #777777",
"L@	c #514A42",
"M@	c #808080",
"N@	c #9A9A9A",
"O@	c #5B5B5B",
"P@	c #7E7E7E",
"Q@	c #C1BEBB",
"R@	c #E3DFDE",
"S@	c #BFBCB9",
"T@	c #7D7D7D",
"U@	c #5C5C5C",
"V@	c #999999",
"W@	c #504940",
"X@	c #4E4E4E",
"Y@	c #9D9B98",
"Z@	c #A0A0A0",
"`@	c #878787",
" #	c #757575",
".#	c #4C4C4C",
"+#	c #676767",
"@#	c #666666",
"##	c #4B4B4B",
"$#	c #6A6A6A",
"%#	c #4D4D4D",
"&#	c #7C7C7B",
"*#	c #A2A1A1",
"=#	c #B1B0AF",
"-#	c #434343",
";#	c #494949",
">#	c #7C7C7C",
",#	c #A6A6A6",
"'#	c #909090",
")#	c #848383",
"!#	c #D2CEC8",
"~#	c #AEADAC",
"{#	c #6D6D6D",
"]#	c #535353",
"^#	c #929292",
"/#	c #8E8D8D",
"(#	c #636363",
"_#	c #7B7B7B",
":#	c #656565",
"<#	c #C5C2BF",
"[#	c #C4C2BE",
"}#	c #888785",
"|#	c #424242",
"1#	c #898989",
"2#	c #626262",
"3#	c #7B7B7A",
"4#	c #B3B1AF",
"5#	c #B7B4B1",
"6#	c #6C6B69",
"7#	c #575757",
"8#	c #BDBAB6",
"9#	c #CFCBC5",
"0#	c #CDC9C3",
"a#	c #727171",
"b#	c #9C9A99",
"c#	c #545454",
"                      . +                       ",
"                    @ # $                       ",
"                    % & *                       ",
"                  = - ; > ,                     ",
"                  ' ) ! ~ {                     ",
"                ] ^ / ( _ ] ^ /                 ",
"              : < [ } } | 1 2 3 :               ",
"          4 ' 5 6 7 8 9 0 a b c d ' e           ",
"        f g h i j 8 0 k l 9 a j m h n f         ",
"      ^ o p q r s t u v v w t x y q z o A       ",
"      B g C D E F 6 9 G G H I G J ( K L M       ",
"      g o N O ~ E P Q o o R P S T U V ] W       ",
"      X Y Z `  ...+.@.#.$.%.@.&.*.=.-.;.>.      ",
"      ,.'.).!.~.{.].^.i /.(._.:.<.[.}.|.^       ",
"      ^ 1.2.3.4.{.R 5.6.7.8.R 9.0.a.b.c.^       ",
"    d.e.f.g.h.i.j.:.t k.k.t {.l.m.n.o.p.q.'     ",
"    ^ g r.s.t.k.u.c H v.w.H c u.x.y.z.A.W ^     ",
"  B B.C.D.E.F.a G.H.I.J.K.I.H.L.a F.M.N.C.4 B   ",
"    g O.a H P.Q.R.S.T.U.V.W.S.X.Y.x.I 0 Z.n     ",
"  `.D.I  +.+++K.@+#+$+%+%+$+J.&+*+=+.+-+I ;+>+  ",
"    ,+'+)+!+~+{+{+T.#+]+~+^+/+{+{+(+_+:+E.<+    ",
"    %.[+}+|+1+2+H.3+4+5+5+S.6+H..+7+F.8+[+9+    ",
"  K 0+e 6 a+b+c+d+e+K.f+g+K.h+i+j+k+l+H 4 m+n+  ",
"    $.o+p+m.q+r+s+t+u+S.4+v+w+x+y+z+A+B+C+D+    ",
"    E+F+G+H+I+J+K+L+M+N+O+P+L+Q+R+S+T+7 U+E+    ",
"    n V+W+X+Y+u Z+Z+`+(+]+ @Z+Z+.@+@@@#@V+g     ",
"      $@%@# &@*@=@-@;@>@,@'@)@!@~@{@]@^@$@      ",
"      /@(@_@:@<@[@}@|@1@2@3@4@5@6@o.7@8@9@      ",
"      0@a@b@c@d@e@f@g@h@i@j@f@k@l@m@b@n@o@      ",
"      p@q@r@s@t@u@v@w@x@+ y@z@u@A@B@C@q@D@      ",
"      p@~ r@E@F@G@u@H@B@B@H@I@J@F@K@C@~ ,.      ",
"        L@M@N@E@O@P@Q@R@R@S@T@U@E@V@K@W@        ",
"        X@Y@Z@`@ #.#+#A@A@@###K@. N@$#%#        ",
"          &#*#=#x@X@-#-#-#-#;#>#,#'#;#          ",
"          -#)#!#~#{#      X@{#>#'#]#            ",
"          -#^#=#/#(#    -#_#N@'#:#              ",
"            O@<#[#}#    |#1#P@2#l@              ",
"              3#4#5#6#    I@G@7#K@              ",
"              E@8#9#0#-#                        ",
"              E@a#@ b#-#                        ",
"                c#2#A@                          "};
