/* XPM */
static char * wolfNormalBack2_xpm[] = {
"21 43 449 2",
"  	c #FFFFFD",
". 	c #C5AC8D",
"+ 	c #BBA284",
"@ 	c #937D5F",
"# 	c #DCC3A4",
"$ 	c #CCB494",
"% 	c #7F694C",
"& 	c #BDA385",
"* 	c #E3CBAA",
"= 	c #AA9375",
"- 	c #BDA687",
"; 	c #D1B396",
"> 	c #DFC6A6",
", 	c #A58B6E",
"' 	c #836C4F",
") 	c #7B6548",
"! 	c #816A4D",
"~ 	c #9A8064",
"{ 	c #897154",
"] 	c #735E41",
"^ 	c #8F765A",
"/ 	c #D8C0A0",
"( 	c #D3B497",
"_ 	c #DAC1A1",
": 	c #5F4E39",
"< 	c #C8AE90",
"[ 	c #C7A88C",
"} 	c #D8BC9E",
"| 	c #C8AC8F",
"1 	c #846D50",
"2 	c #786245",
"3 	c #B89D80",
"4 	c #7C6649",
"5 	c #866E51",
"6 	c #7E674B",
"7 	c #B3987B",
"8 	c #DBC0A2",
"9 	c #C9A98D",
"0 	c #D5BA9C",
"a 	c #7C664E",
"b 	c #624F36",
"c 	c #675540",
"d 	c #B6987C",
"e 	c #A68A6E",
"f 	c #B4977B",
"g 	c #C3A88A",
"h 	c #7E684B",
"i 	c #8D7558",
"j 	c #AC9074",
"k 	c #D8BFA0",
"l 	c #B29679",
"m 	c #957C5F",
"n 	c #866E52",
"o 	c #A99072",
"p 	c #BA9D81",
"q 	c #AB8F73",
"r 	c #AF9377",
"s 	c #8D755D",
"t 	c #5A4831",
"u 	c #473926",
"v 	c #897256",
"w 	c #AE9175",
"x 	c #9E8367",
"y 	c #8B7356",
"z 	c #A08569",
"A 	c #91785C",
"B 	c #B79A7E",
"C 	c #C9AB8E",
"D 	c #BFA084",
"E 	c #92795C",
"F 	c #877053",
"G 	c #A3886C",
"H 	c #8A7255",
"I 	c #9C8165",
"J 	c #A2866A",
"K 	c #A58A6E",
"L 	c #52422D",
"M 	c #55452F",
"N 	c #A5896D",
"O 	c #B5977B",
"P 	c #957C60",
"Q 	c #8B7357",
"R 	c #B7997D",
"S 	c #BFA487",
"T 	c #BC9E82",
"U 	c #AE9276",
"V 	c #C5AA8C",
"W 	c #B6997D",
"X 	c #967C60",
"Y 	c #876F52",
"Z 	c #6E5A41",
"` 	c #4D3D29",
" .	c #846D51",
"..	c #8E7659",
"+.	c #AD9577",
"@.	c #D1B496",
"#.	c #A98D71",
"$.	c #CEB495",
"%.	c #C3A689",
"&.	c #C9AF91",
"*.	c #796346",
"=.	c #9E8467",
"-.	c #9B8164",
";.	c #5F4E37",
">.	c #74604B",
",.	c #7E684E",
"'.	c #C6A78B",
").	c #92795D",
"!.	c #AD9175",
"~.	c #A78B6F",
"{.	c #B99B7F",
"].	c #DFC5A6",
"^.	c #C3A488",
"/.	c #A4896D",
"(.	c #B3967A",
"_.	c #91785B",
":.	c #9B8165",
"<.	c #735F46",
"[.	c #50402B",
"}.	c #866F52",
"|.	c #B09377",
"1.	c #CAAD8F",
"2.	c #9C8265",
"3.	c #A4886C",
"4.	c #9D8366",
"5.	c #80694C",
"6.	c #65523B",
"7.	c #63513D",
"8.	c #5B4932",
"9.	c #887355",
"0.	c #C4A88B",
"a.	c #B49B7D",
"b.	c #B19478",
"c.	c #A88C70",
"d.	c #937A5D",
"e.	c #8A7155",
"f.	c #987E61",
"g.	c #987F62",
"h.	c #D1B597",
"i.	c #9D8568",
"j.	c #665339",
"k.	c #5F4E3A",
"l.	c #5E4C38",
"m.	c #B2967B",
"n.	c #75634A",
"o.	c #CCB293",
"p.	c #7F684B",
"q.	c #B09478",
"r.	c #B9A082",
"s.	c #93795D",
"t.	c #AC9275",
"u.	c #BBA083",
"v.	c #957B5F",
"w.	c #C1A689",
"x.	c #937F63",
"y.	c #A58A70",
"z.	c #705C46",
"A.	c #68553D",
"B.	c #91795D",
"C.	c #AB9274",
"D.	c #B29A7C",
"E.	c #CEB294",
"F.	c #D4BA9B",
"G.	c #AF9376",
"H.	c #988063",
"I.	c #C3A98B",
"J.	c #826B4E",
"K.	c #90775A",
"L.	c #AA8F73",
"M.	c #735E43",
"N.	c #4C3D2A",
"O.	c #423423",
"P.	c #987E62",
"Q.	c #7A6448",
"R.	c #9D8266",
"S.	c #C6AB8D",
"T.	c #A08568",
"U.	c #A08468",
"V.	c #C9AD8F",
"W.	c #8A7356",
"X.	c #7F684C",
"Y.	c #5F4D39",
"Z.	c #51412C",
"`.	c #635137",
" +	c #7A6447",
".+	c #90775B",
"++	c #766144",
"@+	c #9E8468",
"#+	c #C7A98C",
"$+	c #B19578",
"%+	c #7D6649",
"&+	c #806A4D",
"*+	c #6B573D",
"=+	c #5B4A32",
"-+	c #4F402B",
";+	c #756043",
">+	c #856D51",
",+	c #CBB092",
"'+	c #CAB192",
")+	c #D9C0A0",
"!+	c #776144",
"~+	c #80694D",
"{+	c #725D40",
"]+	c #947B5F",
"^+	c #5E4D34",
"/+	c #3F3221",
"(+	c #4E3F2A",
"_+	c #776145",
":+	c #937A5E",
"<+	c #B3977A",
"[+	c #786246",
"}+	c #856E51",
"|+	c #7D674A",
"1+	c #5A4932",
"2+	c #645138",
"3+	c #9F8468",
"4+	c #AA8E72",
"5+	c #9B8064",
"6+	c #876F53",
"7+	c #8E7559",
"8+	c #A2876B",
"9+	c #947B5E",
"0+	c #403322",
"a+	c #9F8569",
"b+	c #C4A589",
"c+	c #AD9174",
"d+	c #735D40",
"e+	c #977E61",
"f+	c #8C7457",
"g+	c #A1866A",
"h+	c #BA9C80",
"i+	c #A68B6F",
"j+	c #A58A6D",
"k+	c #8D7458",
"l+	c #C2A387",
"m+	c #AF9276",
"n+	c #BEA084",
"o+	c #BFA185",
"p+	c #977D61",
"q+	c #745E41",
"r+	c #413322",
"s+	c #473826",
"t+	c #6D593D",
"u+	c #937B5E",
"v+	c #B69A7D",
"w+	c #887054",
"x+	c #BC9F83",
"y+	c #AA9073",
"z+	c #6F5B3F",
"A+	c #52422C",
"B+	c #76624C",
"C+	c #604E35",
"D+	c #958061",
"E+	c #C0A386",
"F+	c #AE9577",
"G+	c #816B4E",
"H+	c #AD9074",
"I+	c #927A5D",
"J+	c #CBAF92",
"K+	c #AA9274",
"L+	c #69553A",
"M+	c #735F49",
"N+	c #614F3A",
"O+	c #816B50",
"P+	c #78664D",
"Q+	c #B29579",
"R+	c #C2A98A",
"S+	c #B4997C",
"T+	c #BAA082",
"U+	c #9B8265",
"V+	c #BB9F82",
"W+	c #9E896D",
"X+	c #715D44",
"Y+	c #745F48",
"Z+	c #967D60",
"`+	c #745F42",
" @	c #B69D7F",
".@	c #B39A7C",
"+@	c #BEA386",
"@@	c #BEA285",
"#@	c #CEB394",
"$@	c #997F63",
"%@	c #CBB192",
"&@	c #725D41",
"*@	c #564530",
"=@	c #413423",
"-@	c #C1A588",
";@	c #9C8266",
">@	c #897155",
",@	c #846C50",
"'@	c #8C7357",
")@	c #514431",
"!@	c #63523A",
"~@	c #776245",
"{@	c #8C7458",
"]@	c #745E42",
"^@	c #A1886B",
"/@	c #68553A",
"(@	c #5C4D3A",
"_@	c #5E5A54",
":@	c #A09180",
"<@	c #B5987C",
"[@	c #997F62",
"}@	c #D3BB9B",
"|@	c #D1B999",
"1@	c #8A7256",
"2@	c #A3876B",
"3@	c #AD9680",
"4@	c #726B63",
"5@	c #474747",
"6@	c #665D54",
"7@	c #8B765E",
"8@	c #7D6C55",
"9@	c #75654E",
"0@	c #796448",
"a@	c #66533E",
"b@	c #D9BEA0",
"c@	c #B79B7E",
"d@	c #64513B",
"e@	c #A88D71",
"f@	c #75634B",
"g@	c #7A6A53",
"h@	c #82715A",
"i@	c #7E6D5B",
"j@	c #4A4A4A",
"k@	c #434343",
"l@	c #89847D",
"m@	c #847A6B",
"n@	c #9B9A99",
"o@	c #868686",
"p@	c #826E56",
"q@	c #53432F",
"r@	c #53432D",
"s@	c #8C7459",
"t@	c #888580",
"u@	c #8D8D8D",
"v@	c #928A7F",
"w@	c #80786E",
"x@	c #9E9D9B",
"y@	c #797979",
"z@	c #5B5A59",
"A@	c #7F7D7A",
"B@	c #7F7F7F",
"C@	c #A8A6A3",
"D@	c #847D75",
"E@	c #63523C",
"F@	c #C3A589",
"G@	c #7B654A",
"H@	c #564631",
"I@	c #796E5F",
"J@	c #B3B0AC",
"K@	c #7B7B7B",
"L@	c #8F8C88",
"M@	c #575756",
"N@	c #717070",
"O@	c #545454",
"P@	c #858585",
"Q@	c #7E7E7E",
"R@	c #909090",
"S@	c #5D564E",
"T@	c #6C583E",
"U@	c #C2A588",
"V@	c #E2CAA9",
"W@	c #CDB193",
"X@	c #504537",
"Y@	c #787878",
"Z@	c #8E8E8E",
"`@	c #838383",
" #	c #646464",
".#	c #AFADA9",
"+#	c #939291",
"@#	c #B2B0AE",
"##	c #7D7D7D",
"$#	c #5B554D",
"%#	c #856E55",
"&#	c #CFB094",
"*#	c #E0C6A7",
"=#	c #524738",
"-#	c #9D9C9C",
";#	c #A8A7A4",
">#	c #B4B2AE",
",#	c #525252",
"'#	c #A3A3A3",
")#	c #A1A1A1",
"!#	c #A7A6A5",
"~#	c #4A443C",
"{#	c #8C745B",
"]#	c #4C4032",
"^#	c #8B8A89",
"/#	c #A9A9A9",
"(#	c #9F9F9F",
"_#	c #999999",
":#	c #5C5C5C",
"<#	c #818181",
"[#	c #A9A8A6",
"}#	c #735E44",
"|#	c #826B4F",
"1#	c #514638",
"2#	c #8F8F8E",
"3#	c #5E5E5E",
"4#	c #808080",
"5#	c #848484",
"6#	c #443A2B",
"7#	c #72685A",
"8#	c #A5A3A1",
"9#	c #7B756E",
"0#	c #4F412E",
"a#	c #4E4C4A",
"b#	c #6F6F6F",
"c#	c #8A8A8A",
"d#	c #B0AEAC",
"e#	c #A5A4A4",
"f#	c #413A32",
"g#	c #6A6A6A",
"h#	c #CECBC6",
"i#	c #898989",
"j#	c #413C35",
"k#	c #4F4E4E",
"l#	c #919191",
"m#	c #BBB9B6",
"n#	c #565656",
"o#	c #606060",
"p#	c #A4A4A3",
"q#	c #A8A7A6",
"r#	c #4F4F4F",
"s#	c #8A8A89",
"t#	c #717171",
"u#	c #9A9A99",
"v#	c #A8A7A7",
"w#	c #7A7A7A",
"x#	c #505050",
"y#	c #B9B7B4",
"z#	c #B7B6B4",
"A#	c #959494",
"B#	c #424242",
"C#	c #757575",
"D#	c #B7B5B2",
"E#	c #ADADAC",
"F#	c #8F8F8F",
"G#	c #A7A7A7",
"H#	c #C0BEBB",
"I#	c #4D4D4D",
"J#	c #676767",
"K#	c #888888",
"L#	c #6E6E6E",
"M#	c #4E4E4E",
"N#	c #666666",
"O#	c #878787",
"P#	c #535353",
"                                          ",
"        .                       + @       ",
"      @ # $         %         & * =       ",
"      - ; > , ' ) ! ~ { ] { ^ / ( _ ]     ",
"    : < [ } | 1 { 2 3 4 5 6 7 8 9 0 a     ",
"  b c d e f g h i j k l m n o p q r s t   ",
"  u v w x y z A 1 B C D E F G H I J K L   ",
"  M N O P Q m R S T U w V W z X Y r j Z   ",
"  `  .~ ..j ) +.@.#.$.e %.&.*.x =.-. .;.  ",
"    >.,.n '.).!.~.{.].^./.(._.D :.h >.<.  ",
"  [.~ A }.d ~.|.Y H 1.2.) 3.U w 4.5.G 6.  ",
"  7.8.9.0.a.1 b.c.d.i e.~.c.f.g.h.i.j.k.  ",
"l.m.n.o.m ^ p.w q.r.s.t.u.~.v.) x w.x.y.z.",
"  A.B.q }.Y C.D.I E.3 F.G.H.I.J.K.X L.M.N.",
"  O.P.Q.R.Y S.q T.c.W r U.N V.W.z X.A Y.  ",
"Z.`. +2 .+++@+#.j '.j #+b.$+J %+{ &+*.*+=+",
"  -+J.z ;+] >+] 4.,+'+)+U !+~+!+{+]+^ ^+/+",
"  (+_+~+4 J.*.:+h <+> %.1 _.' [+}+|+) 1+  ",
"/+2+4 .+3+z 4+~.3+h 5+6+7+4+c.8+z 9+5 ] 0+",
"/+2+{+>+3+a+b+R {.c+K.c+R f '.~.T.E d+d+0+",
"  (+! e+f+{.g+B N h+_ b+i+r q j j+k+7+1+  ",
"  2+*. +' l+P.#.3.m+].n+x w v.o+p+q+% ] r+",
"  s+t+{+u+v+8+f Y w+x+:+6 e U #.y+++z+A+  ",
"  B+C+D+E+F+G+j U X e.^ H+~.:+I+J+K+L+M+  ",
"N+O+P+E.f+H ' Q+L.R+~ S+T+i+U+ +9+V+W+X+Y+",
"  r+Z+3+`+{+ @.@..+@@@#@$@H.%@% &@H c.*@  ",
"  =@m 2  +~+-@g.[+;@w K p.>@%.F ,@] '@Y./+",
")@!@~@R.{@8+r ' ]@^@q.V+2  +4+m j+I ) /@(@",
"  _@:@<@n [@9+% 4 + }@|@1 }+1@^ X 2@3@4@  ",
"  5@6@7@8@9@0@g+a@#.b@c@d@e@6 f@g@h@i@j@k@",
"    l@m@n@o@p@z q@1 o+E r@s@).t@u@v@w@x@  ",
"  y@z@A@B@C@D@E@j.R.F@g+G@H@I@J@K@L@M@N@  ",
"    O@P@Q@R@K@S@T@U@V@W@f+X@Y@Z@`@o@ #k@  ",
"    O@.#+#@###$#%#&#*#; 4+=#Y@-#;#># #    ",
"    ,#P@'#)#!#~#{#j |.x q ]#^#/#(#_#:#    ",
"       #`@<#[#S@}#4 |+~@|#1#n@2#B@y@k@    ",
"      3#4#B@5#3#6#7#8#9#0#a#B@`@##b#      ",
"      k@c#d#e#3#f#g#h#i#j#k#l#m#R@n#      ",
"        o#p#q#y@r#  s#,#k@t#u#v#w#        ",
"        x#5#y#l#r#      k@Q@z#A#o#k@      ",
"      B#C#D#E#F#r#      k@##G#H#P@I#      ",
"        J#K#R@L#M#        N#O#l#L#M#      ",
"          P#P#r#            P#P#r#        "};
