/* XPM */
static char * wolfAngryLeft1_xpm[] = {
"49 31 482 2",
"  	c #FFFFFD",
". 	c #D6D5DE",
"+ 	c #A9A9BB",
"@ 	c #AAAABC",
"# 	c #ECEBF0",
"$ 	c #C3C2D0",
"% 	c #B6B6C5",
"& 	c #EDECF0",
"* 	c #DADAE3",
"= 	c #EEEDF0",
"- 	c #B8B7C7",
"; 	c #9292A3",
"> 	c #CDCDD7",
", 	c #D0CFD7",
"' 	c #D1D1DB",
") 	c #F8F6F6",
"! 	c #BCBCCA",
"~ 	c #B1B1C2",
"{ 	c #AEAEBE",
"] 	c #DDDDE5",
"^ 	c #C0BFCB",
"/ 	c #C2C2CF",
"( 	c #DAD9E1",
"_ 	c #ABABBB",
": 	c #6F6F7F",
"< 	c #ACACBD",
"[ 	c #DCDCE3",
"} 	c #D2D2DD",
"| 	c #DBDBE4",
"1 	c #BFBFCD",
"2 	c #9D9DAF",
"3 	c #A3A3B5",
"4 	c #B5B5C4",
"5 	c #828292",
"6 	c #848495",
"7 	c #6F6F7E",
"8 	c #B0B0C1",
"9 	c #C8C8D4",
"0 	c #CCCCD7",
"a 	c #E8E7EB",
"b 	c #E3E2E8",
"c 	c #C3C3D0",
"d 	c #E6E5EB",
"e 	c #BAB9C7",
"f 	c #9393A4",
"g 	c #757585",
"h 	c #BABAC7",
"i 	c #8C8C9D",
"j 	c #777787",
"k 	c #6E6E7E",
"l 	c #B2B2C3",
"m 	c #F0EFF2",
"n 	c #ECEBEF",
"o 	c #ECEBEE",
"p 	c #F4F3F4",
"q 	c #DAD9E0",
"r 	c #D5D5DE",
"s 	c #AAAAB9",
"t 	c #B2B2C2",
"u 	c #C9C8D3",
"v 	c #A5A5B5",
"w 	c #908F9B",
"x 	c #838394",
"y 	c #9595A2",
"z 	c #9292A0",
"A 	c #A4A3AE",
"B 	c #898999",
"C 	c #A5A4AE",
"D 	c #92919D",
"E 	c #CECED9",
"F 	c #FAF8F8",
"G 	c #F6F4F5",
"H 	c #F7F5F6",
"I 	c #F1EFF2",
"J 	c #F3F3F5",
"K 	c #F9F8F8",
"L 	c #FAF8F9",
"M 	c #F4F3F6",
"N 	c #E9E8EC",
"O 	c #C7C7D0",
"P 	c #9B9BAC",
"Q 	c #8C8C9A",
"R 	c #ACACBA",
"S 	c #9090A0",
"T 	c #C0C0CB",
"U 	c #D6D5DC",
"V 	c #AAAABA",
"W 	c #B3B3C0",
"X 	c #DFDEE4",
"Y 	c #C5C5D1",
"Z 	c #A8A8BA",
"` 	c #B8B7C2",
" .	c #EBE9EB",
"..	c #C2C2CE",
"+.	c #808091",
"@.	c #757584",
"#.	c #AAAAB6",
"$.	c #9292A2",
"%.	c #9696A9",
"&.	c #AFAFBD",
"*.	c #D9D9E2",
"=.	c #D3D2DC",
"-.	c #C8C7D3",
";.	c #EBEAED",
">.	c #E2E2E8",
",.	c #E4E3E9",
"'.	c #B4B4C4",
").	c #9595A5",
"!.	c #B1B1BC",
"~.	c #7F7F8E",
"{.	c #C4C4CF",
"].	c #9191A3",
"^.	c #BEBECD",
"/.	c #ACACB9",
"(.	c #8B8B9C",
"_.	c #9D9DAD",
":.	c #C9C9D5",
"<.	c #C7C7D4",
"[.	c #D2D1DA",
"}.	c #C8C7D0",
"|.	c #A1A1B2",
"1.	c #848494",
"2.	c #7A7A8A",
"3.	c #D9D8E1",
"4.	c #787889",
"5.	c #9898A5",
"6.	c #CDCDD8",
"7.	c #D5D4DD",
"8.	c #9999A3",
"9.	c #9796A0",
"0.	c #C0C0CE",
"a.	c #E5E4EA",
"b.	c #F6F4F4",
"c.	c #EDECEE",
"d.	c #818191",
"e.	c #9393A3",
"f.	c #C4C4D1",
"g.	c #E0DFE5",
"h.	c #C7C6D2",
"i.	c #C9C8CF",
"j.	c #B3B3C1",
"k.	c #878798",
"l.	c #828293",
"m.	c #9C9CAE",
"n.	c #9F9FAF",
"o.	c #9F9FB0",
"p.	c #BABAC9",
"q.	c #C8C8D5",
"r.	c #B3B3C3",
"s.	c #C1C1CE",
"t.	c #B3B3BF",
"u.	c #DCDBE1",
"v.	c #C7C7D3",
"w.	c #8E8E9F",
"x.	c #D4D3D9",
"y.	c #D4D3DB",
"z.	c #BEBECB",
"A.	c #C4C4CE",
"B.	c #898894",
"C.	c #817043",
"D.	c #A89E79",
"E.	c #D8D7E0",
"F.	c #E0DFE6",
"G.	c #E4E3EA",
"H.	c #CACAD5",
"I.	c #C1C0CD",
"J.	c #B8B8C6",
"K.	c #898997",
"L.	c #9A9AAC",
"M.	c #B7B7C6",
"N.	c #B2B2C1",
"O.	c #8F8FA0",
"P.	c #A9A9B9",
"Q.	c #B8B8C5",
"R.	c #888899",
"S.	c #BBBBCA",
"T.	c #C4C4D0",
"U.	c #C5C5D2",
"V.	c #B6B6C6",
"W.	c #A3A3B4",
"X.	c #A7A7B5",
"Y.	c #7F7F8F",
"Z.	c #C2C1CC",
"`.	c #CECDD8",
" +	c #CCCBD3",
".+	c #9F9FAD",
"++	c #C9C8D1",
"@+	c #7B7B88",
"#+	c #81723D",
"$+	c #987641",
"%+	c #9A9694",
"&+	c #E0E0E7",
"*+	c #E7E7EC",
"=+	c #F5F4F5",
"-+	c #EEECEF",
";+	c #A0A0AF",
">+	c #9595A6",
",+	c #A7A6B4",
"'+	c #A0A0B2",
")+	c #9C9CAD",
"!+	c #A1A1B3",
"~+	c #D1D1DC",
"{+	c #A7A7B8",
"]+	c #BEBECC",
"^+	c #9595A4",
"/+	c #AFAFC0",
"(+	c #C6C6D3",
"_+	c #B8B8C8",
":+	c #8D8D9E",
"<+	c #6E6E7F",
"[+	c #9B9BAB",
"}+	c #9C9CA9",
"|+	c #79798A",
"1+	c #D8D8E1",
"2+	c #D1D1D9",
"3+	c #C1BEBD",
"4+	c #B5B0B8",
"5+	c #C8C8D3",
"6+	c #F9F7F8",
"7+	c #E8E7EC",
"8+	c #8B8B99",
"9+	c #AFAFBF",
"0+	c #A6A6B8",
"a+	c #8F8E9C",
"b+	c #898998",
"c+	c #868696",
"d+	c #B2B2BF",
"e+	c #D0D0DB",
"f+	c #BBBBC9",
"g+	c #AAAABB",
"h+	c #A7A7B9",
"i+	c #868697",
"j+	c #ADADBE",
"k+	c #A2A2B3",
"l+	c #A6A6B7",
"m+	c #A5A5B7",
"n+	c #B1B0BF",
"o+	c #CDCCD5",
"p+	c #E5E4E9",
"q+	c #C3C3CF",
"r+	c #A5A5B6",
"s+	c #717181",
"t+	c #6D6D7D",
"u+	c #ABABBA",
"v+	c #CACAD6",
"w+	c #EEEDF1",
"x+	c #FEFDFD",
"y+	c #D7D6DE",
"z+	c #B1B1C1",
"A+	c #C5C4D1",
"B+	c #D0CFD8",
"C+	c #B4B3C0",
"D+	c #747485",
"E+	c #9595A7",
"F+	c #DBDAE1",
"G+	c #E4E3E8",
"H+	c #9B9BA9",
"I+	c #9999AB",
"J+	c #A2A2B4",
"K+	c #9696A8",
"L+	c #9999A9",
"M+	c #B9B9C7",
"N+	c #7E7E8E",
"O+	c #C2C1CE",
"P+	c #D4D4DE",
"Q+	c #C9C8D4",
"R+	c #9494A4",
"S+	c #565664",
"T+	c #858593",
"U+	c #E2E2E7",
"V+	c #E2E1E8",
"W+	c #EFEEF1",
"X+	c #FAF9F9",
"Y+	c #BFBEC3",
"Z+	c #7A7581",
"`+	c #75717D",
" @	c #71717E",
".@	c #A4A4B5",
"+@	c #EBE9ED",
"@@	c #E4E3E6",
"#@	c #A3A2B1",
"$@	c #818192",
"%@	c #9191A0",
"&@	c #B8B8C7",
"*@	c #DDDDE4",
"=@	c #CCCBD6",
"-@	c #9797A8",
";@	c #8C8C9C",
">@	c #9393A6",
",@	c #8E8EA0",
"'@	c #9393A5",
")@	c #7E7E8F",
"!@	c #9A9AAB",
"~@	c #B9B9C8",
"{@	c #A4A4B6",
"]@	c #7D7D8E",
"^@	c #CFCFDA",
"/@	c #9090A1",
"(@	c #FCFAFA",
"_@	c #DBDADD",
":@	c #ABA7AF",
"<@	c #6D5466",
"[@	c #5E2B41",
"}@	c #60485A",
"|@	c #91909B",
"1@	c #DCDBE2",
"2@	c #E6E5EA",
"3@	c #D7D7E0",
"4@	c #8A8A9C",
"5@	c #787888",
"6@	c #D0D0D9",
"7@	c #9696A6",
"8@	c #8A8A9A",
"9@	c #9B9BAD",
"0@	c #ABABBC",
"a@	c #ACACBC",
"b@	c #9898AB",
"c@	c #9999AC",
"d@	c #9C9CAF",
"e@	c #B3B3C2",
"f@	c #89899B",
"g@	c #9E9EB0",
"h@	c #737383",
"i@	c #7D7D89",
"j@	c #826877",
"k@	c #857E89",
"l@	c #A6A4AB",
"m@	c #644456",
"n@	c #534152",
"o@	c #A4919C",
"p@	c #D3D3DD",
"q@	c #A4A4B0",
"r@	c #6B6B7B",
"s@	c #8B8B9D",
"t@	c #B0B0C0",
"u@	c #9393A2",
"v@	c #CDCCD6",
"w@	c #7C7C8D",
"x@	c #A7A7B7",
"y@	c #DEDDE5",
"z@	c #A9A9BA",
"A@	c #B4B4C2",
"B@	c #9A9AAD",
"C@	c #8D8D9F",
"D@	c #8C8C9F",
"E@	c #8A8A9B",
"F@	c #5C5C6A",
"G@	c #9B8496",
"H@	c #AF959F",
"I@	c #88445C",
"J@	c #7B5569",
"K@	c #8D8D96",
"L@	c #A8A7B1",
"M@	c #737380",
"N@	c #747483",
"O@	c #9191A4",
"P@	c #7C7C8B",
"Q@	c #888897",
"R@	c #B0B0BC",
"S@	c #838393",
"T@	c #9595A9",
"U@	c #DFDEE6",
"V@	c #A8A8B9",
"W@	c #636372",
"X@	c #A3A3B3",
"Y@	c #B8B7BF",
"Z@	c #656574",
"`@	c #857783",
" #	c #9F9FAB",
".#	c #A5A5B4",
"+#	c #95949F",
"@#	c #7B7B89",
"##	c #616170",
"$#	c #8E8E9D",
"%#	c #818190",
"&#	c #B2B1BC",
"*#	c #727283",
"=#	c #CACAD2",
"-#	c #878796",
";#	c #9F9FAE",
">#	c #91919F",
",#	c #747484",
"'#	c #7B7B8C",
")#	c #818193",
"!#	c #D5D4DF",
"~#	c #D8D7DF",
"{#	c #8E8E9C",
"]#	c #6B6B7A",
"^#	c #767686",
"/#	c #5A5A68",
"(#	c #C6C5CF",
"_#	c #B4B3BF",
":#	c #89899A",
"<#	c #797987",
"[#	c #CAC9D3",
"}#	c #828291",
"|#	c #727281",
"1#	c #7A7A8B",
"2#	c #585867",
"3#	c #676777",
"4#	c #9696A7",
"5#	c #8A8A98",
"6#	c #D0CFDA",
"7#	c #CECDD7",
"8#	c #575765",
"9#	c #CFCED7",
"0#	c #A5A5B2",
"a#	c #A8A8B8",
"b#	c #6D6D7C",
"c#	c #797989",
"d#	c #C1C1D0",
"e#	c #888896",
"f#	c #C2C2D0",
"g#	c #D6D6DE",
"h#	c #A3A3B2",
"i#	c #6D6D7B",
"j#	c #5D5D6B",
"k#	c #D4D3DD",
"l#	c #F4F2F3",
"m#	c #C1C1CF",
"n#	c #676776",
"o#	c #9292A4",
"p#	c #9898AA",
"q#	c #DEDCE3",
"r#	c #ADADBC",
"s#	c #D6D5DF",
"t#	c #ACACBB",
"u#	c #848492",
"v#	c #9090A2",
"w#	c #666676",
"x#	c #848493",
"y#	c #BDBDCC",
"z#	c #707080",
"A#	c #ADADBD",
"B#	c #555564",
"C#	c #C3C3D1",
"D#	c #9A9AA9",
"E#	c #757586",
"F#	c #6A6A7A",
"G#	c #595968",
"H#	c #AFAFBE",
"I#	c #D2D1D9",
"J#	c #A6A6B6",
"K#	c #686878",
"L#	c #898892",
"M#	c #CDCDDA",
"N#	c #D1D0D9",
"O#	c #9A9AA7",
"P#	c #A0A0B1",
"Q#	c #808092",
"R#	c #858596",
"S#	c #6C6C7C",
"T#	c #D4D4DB",
"U#	c #CDCDD9",
"V#	c #555563",
"W#	c #C9C8CD",
"X#	c #EBEAEE",
"Y#	c #CFCED9",
"Z#	c #5F5F6D",
"`#	c #9292A5",
" $	c #777788",
".$	c #9494A6",
"+$	c #9F9FB1",
"@$	c #646473",
"#$	c #565663",
"$$	c #A2A2B2",
"%$	c #A6A6AF",
"&$	c #EFEFF2",
"*$	c #B1B1C0",
"=$	c #5B5B6A",
"-$	c #828294",
";$	c #626271",
">$	c #696978",
",$	c #7E7E90",
"'$	c #9695A4",
")$	c #9393A1",
"!$	c #797885",
"~$	c #AEADB8",
"{$	c #6A6A78",
"]$	c #A9A8B1",
"^$	c #ABAAB2",
"/$	c #8C8C9E",
"                          .                                                                       ",
"                  + @   # $                                                                       ",
"                  @ % & * = -                                                                     ",
"                @ ; > , ' ) !                                                                     ",
"                ~ { ] ^ / ( _ :                                                                   ",
"              < [ } | 1 2 3 4 5 6 7                                                               ",
"          8 9 0 a b c d e 3 9 f g h i     j k                                                     ",
"          l m n ) o | b p q r s j t u j   v w x y   z A B   C D                                   ",
"          E F G d H I J K L M N O P Q P R S T U V W X Y Z `  ...+.@.#.$.7                   %.    ",
"        &.*.o =.-.( ;.>.b ,.* '.P ).8 c !.~.O {.].^./.(._.:.<.'.@ [.}.|.1.1.2.7             |.3.  ",
"        4.5.6.7.8.9.0.| a.b.c.<.d.e.f.g.h.i.j.k.l.m.n...o.p.q.r.s.t.).4 u.v.w.              x.y.  ",
"        x z.A.B.C.D.E.o F.G.H.I.J.K.L.M.g.N.O.P.Q.R.1 v.S.T.e.U.*.V.W.t E 6.X.Y.          Z.`. +  ",
"      2..+++@+#+$+%+N ) &+*+=+) -+;+>+s.,+'+)+% (.!+*.| ~+2 {+]+]+j.^+/+(+(+_+:+: <+<+k.[+U.p.}+  ",
"    |+P.1+Y 2+3+4+5+6+7+S.~+' { 8+9+v.V.0+_ a+b+g +.c+d+e+f+R.; g+h+'+i+/+j+!+k+l+m+n+o+p+q+r+s+  ",
"  t+u+v+# w+x+x+b.F.>.y+z+A+B+C+D+E+_+E V.f.F+G+H+I+L.i 0+@ g+2 J+p.K+L+/ M+N+R.r./ 7+O+P+Q+R+    ",
"S+T+U+V+W+X+Y+Z+`+ @T+.@v.F.+@@@#@$@%@&@*@=@-@Q ;@E+>@,@'@)@E+:+!@} ~@(./ ' {@]@0+8 ]+^@{ /@      ",
"S+^@m (@_@:@<@[@}@|@1@2@3@++V j 4@5@]@6@~@7@8@9@!+'+0@a@b@%.c@t d@k+e@]@f@J.g@: d.; ; ; h@        ",
"  i@j@k@l@m@n@o@i.p@D r+q.q@r@s@t@/@u@v@+ w@x@m+9+%.9+y@~.z@A@5 B@C@2.D@%.E@C@F@                  ",
"  G@H@I@J@K@L@l.x@M@6 ]@N@^+O@)+P@Q@u@$.R@S@T@L.U@V@W@X@Q@V@Y@x V@p.!+%.%.2 R.Z@                  ",
"    `@ #.#+#    @#  ##6 P.$#%#&#*#l+=#-#;#5@r+4 >#r.,#'#.@)#Z@=@!#~#. W.r+{#V@Z@                  ",
"      ]#^#            /#(#_#:#U.<#9@[#}#N.|#].E@,#1#'#2#3#]@4#5#U.6#*.1@7#/ 5 8#                  ",
"                        9#  F@; N+..y.0#a#b#|+S+        c#{@d#f@e#t f#g#W.0@h#i#                  ",
"                              j#j#k#l#m#d.n#]@          Z@g@&@o#n#j p#q#q.4#i#                    ",
"                                S+r#s#t#u#v#%.w#        x#y#B@'#    z#A#d#J+-#                    ",
"                                B#C#F.D#E#9@{ F#      G#H#r+'@W@      P@9@I#J#K#                  ",
"                                L#M#N#O#S+/@d#P#S+  Q#R#_+z++.          S#T#U#m.V#                ",
"                                W#X#Y#Z#z#`#g@%.S+   $w@.$+$@$          #$$$M#m.V#                ",
"                              %$&$2@*$=$S+-$]#l.    ;$>$,$s+            '$6.b m.B#                ",
"                            )$< < 9 {#                                !$~$H#h.E+V#                ",
"                            {$]$^$l.                                S+@$: x /$F#                  ",
"                              ]@S+                                      S+S+S+                    "};
