/* XPM */
static char * wolfBack3_xpm[] = {
"21 42 387 2",
"  	c #FFFFFD",
". 	c #DBDBE4",
"+ 	c #C2C1CE",
"@ 	c #F0EFF3",
"# 	c #E3E3EA",
"$ 	c #F1F1F3",
"% 	c #A9A9BB",
"& 	c #E5E4E9",
"* 	c #FBFAFA",
"= 	c #EFEFF2",
"- 	c #C1C1CF",
"; 	c #E1E0E8",
"> 	c #F7F6F8",
", 	c #F7F6F7",
"' 	c #CFCFD9",
") 	c #AEAEBE",
"! 	c #F9F8F8",
"~ 	c #F6F4F4",
"{ 	c #CCCCD7",
"] 	c #C5C5D2",
"^ 	c #B1B1C2",
"/ 	c #C3C3D0",
"( 	c #DADAE2",
"_ 	c #B6B6C6",
": 	c #BBBBCA",
"< 	c #C0C0CE",
"[ 	c #E0E0E7",
"} 	c #FAF9F9",
"| 	c #E1E1E7",
"1 	c #B7B7C2",
"2 	c #F3F2F3",
"3 	c #EFEEF0",
"4 	c #F9F7F7",
"5 	c #DDDCE3",
"6 	c #B0B0C1",
"7 	c #BEBECC",
"8 	c #E8E7EB",
"9 	c #B3B3C3",
"0 	c #B9B9C8",
"a 	c #F2F0F2",
"b 	c #F7F6F6",
"c 	c #ECEAEE",
"d 	c #EDECF0",
"e 	c #8F8F9D",
"f 	c #737383",
"g 	c #8F8FA0",
"h 	c #C9C8CE",
"i 	c #DEDEE6",
"j 	c #DDDDE5",
"k 	c #DDDDE4",
"l 	c #D2D1DA",
"m 	c #C6C6D3",
"n 	c #D7D6DF",
"o 	c #EFEDEF",
"p 	c #F9F7F8",
"q 	c #EAE9EC",
"r 	c #CDCDD8",
"s 	c #BDBDCB",
"t 	c #E5E4E8",
"u 	c #DADAE3",
"v 	c #DCDCE4",
"w 	c #E6E5EA",
"x 	c #9D9CA8",
"y 	c #9292A3",
"z 	c #848495",
"A 	c #D4D3DC",
"B 	c #CDCDD9",
"C 	c #C6C6D2",
"D 	c #E1E0E7",
"E 	c #C8C7D4",
"F 	c #D0D0DA",
"G 	c #E8E7EC",
"H 	c #E9E8EC",
"I 	c #C2C2D0",
"J 	c #D6D5DE",
"K 	c #D8D8E1",
"L 	c #C2C2CF",
"M 	c #D5D5DF",
"N 	c #BDBDCA",
"O 	c #6E6E7E",
"P 	c #B1B1BE",
"Q 	c #E6E5E9",
"R 	c #E7E6EB",
"S 	c #C0C0CD",
"T 	c #CECEDA",
"U 	c #C9C9D5",
"V 	c #EDECEF",
"W 	c #F4F3F4",
"X 	c #E2E2E8",
"Y 	c #EBE9ED",
"Z 	c #F3F2F4",
"` 	c #C1C1CE",
" .	c #ECEBEE",
"..	c #E2E0E5",
"+.	c #8E8E9F",
"@.	c #808091",
"#.	c #9393A5",
"$.	c #D6D5DC",
"%.	c #DBDAE2",
"&.	c #E5E5EA",
"*.	c #F5F4F6",
"=.	c #E5E4EA",
"-.	c #D8D7DF",
";.	c #B6B6C5",
">.	c #EDEBEE",
",.	c #BDBCCA",
"'.	c #B4B4C2",
").	c #B8B8C4",
"!.	c #CAC9CE",
"~.	c #CBCBD6",
"{.	c #EBEAED",
"].	c #D3D3DD",
"^.	c #E7E6E9",
"/.	c #D4D3DB",
"(.	c #D4D4DD",
"_.	c #CBCAD3",
":.	c #9797A9",
"<.	c #7F7F8F",
"[.	c #BCBCC9",
"}.	c #B1B1C1",
"|.	c #E0DFE4",
"1.	c #DBDBE3",
"2.	c #E1E0E6",
"3.	c #DCDBE3",
"4.	c #B8B8C7",
"5.	c #C8C8D4",
"6.	c #E3E2E7",
"7.	c #BFBFCD",
"8.	c #D4D4DE",
"9.	c #E8E8EC",
"0.	c #CAC9D4",
"a.	c #A9A9B9",
"b.	c #6F6F7F",
"c.	c #AEAEB8",
"d.	c #A2A2B3",
"e.	c #F1EFF2",
"f.	c #C7C7D3",
"g.	c #E4E3E9",
"h.	c #CCCCD8",
"i.	c #D3D3DE",
"j.	c #B5B5C5",
"k.	c #D9D9E0",
"l.	c #C8C8D3",
"m.	c #9999AA",
"n.	c #AEADB6",
"o.	c #AEAEBA",
"p.	c #C1C0C9",
"q.	c #CDCCD3",
"r.	c #DEDDE3",
"s.	c #CACAD5",
"t.	c #D9D9E1",
"u.	c #E9E8ED",
"v.	c #E8E7ED",
"w.	c #DAD9E2",
"x.	c #DCDBE4",
"y.	c #E4E4E9",
"z.	c #BBBBC9",
"A.	c #A4A3AF",
"B.	c #D8D7DD",
"C.	c #9292A0",
"D.	c #9F9FAF",
"E.	c #DBDBE2",
"F.	c #D0D0DB",
"G.	c #BCBCCA",
"H.	c #D0CFDA",
"I.	c #EEEDF0",
"J.	c #E3E2E8",
"K.	c #CECED8",
"L.	c #868697",
"M.	c #767687",
"N.	c #9898A6",
"O.	c #B7B7C7",
"P.	c #D7D7E1",
"Q.	c #EAE9ED",
"R.	c #DEDDE5",
"S.	c #DFDFE6",
"T.	c #DFDEE6",
"U.	c #E5E3E8",
"V.	c #ADADBE",
"W.	c #CACAD6",
"X.	c #767686",
"Y.	c #8B8B9C",
"Z.	c #9A9AAB",
"`.	c #F7F5F6",
" +	c #F7F5F5",
".+	c #CDCCD7",
"++	c #CFCFDA",
"@+	c #AAAABC",
"#+	c #9191A2",
"$+	c #727282",
"%+	c #9E9EB0",
"&+	c #ACACBE",
"*+	c #CDCDD7",
"=+	c #F5F5F6",
"-+	c #ECEBEF",
";+	c #ABABBD",
">+	c #AEAEBF",
",+	c #D9D9E2",
"'+	c #9090A2",
")+	c #B4B4C4",
"!+	c #BABAC9",
"~+	c #F0EFF2",
"{+	c #D6D6DF",
"]+	c #BEBECD",
"^+	c #AFAFC0",
"/+	c #808090",
"(+	c #A9A9BC",
"_+	c #C4C4D1",
":+	c #DEDEE5",
"<+	c #E3E3E9",
"[+	c #A0A0B2",
"}+	c #B2B2C2",
"|+	c #F1F0F1",
"1+	c #EEECEE",
"2+	c #D1D0D9",
"3+	c #ADADBF",
"4+	c #9090A1",
"5+	c #D3D2DC",
"6+	c #F2F1F2",
"7+	c #EEECEF",
"8+	c #CCCBD7",
"9+	c #B8B8C8",
"0+	c #89899A",
"a+	c #A3A3B5",
"b+	c #E0DFE5",
"c+	c #F8F7F8",
"d+	c #ACACBD",
"e+	c #9393A4",
"f+	c #7A7A8A",
"g+	c #E7E6EA",
"h+	c #DDDCE2",
"i+	c #DDDCE4",
"j+	c #DCDCE3",
"k+	c #C7C7D4",
"l+	c #EAE8EC",
"m+	c #CECED9",
"n+	c #9696A8",
"o+	c #81818F",
"p+	c #BCBBC5",
"q+	c #A8A8B9",
"r+	c #EBEAEE",
"s+	c #BAB9C8",
"t+	c #D3D2DB",
"u+	c #E3E3E8",
"v+	c #D3D3DC",
"w+	c #9F9FB0",
"x+	c #BBBAC1",
"y+	c #A4A4B1",
"z+	c #D3D2D8",
"A+	c #D9D8E0",
"B+	c #DADAE1",
"C+	c #DFDFE7",
"D+	c #F4F3F5",
"E+	c #F1F0F2",
"F+	c #A9A9B4",
"G+	c #9C9CAC",
"H+	c #90909E",
"I+	c #D2D2DB",
"J+	c #F1EFF1",
"K+	c #D5D4DC",
"L+	c #E4E3E8",
"M+	c #D2D2DC",
"N+	c #6E6E7F",
"O+	c #9B9BAA",
"P+	c #CBCAD5",
"Q+	c #BFBECB",
"R+	c #B3B3C4",
"S+	c #C4C4D0",
"T+	c #B7B7C6",
"U+	c #7B7B8B",
"V+	c #777787",
"W+	c #BDBDCC",
"X+	c #D1D1DB",
"Y+	c #E5E5EB",
"Z+	c #DAD9E1",
"`+	c #C0BFCC",
" @	c #818192",
".@	c #747483",
"+@	c #9494A4",
"@@	c #D9D8DE",
"#@	c #C2C1CF",
"$@	c #B7B7C5",
"%@	c #E7E6EC",
"&@	c #B0B0BF",
"*@	c #C3C2CD",
"=@	c #7F7F90",
"-@	c #565664",
";@	c #9D9DAB",
">@	c #BCBCCB",
",@	c #ABABBC",
"'@	c #A1A1B4",
")@	c #D6D5DB",
"!@	c #9191A0",
"~@	c #91919E",
"{@	c #DBDAE1",
"]@	c #9F9FB2",
"^@	c #767684",
"/@	c #C5C4CE",
"(@	c #A3A2B0",
"_@	c #AAAABA",
":@	c #B2B2C1",
"<@	c #8A8A9A",
"[@	c #7C7C8C",
"}@	c #B2B2BD",
"|@	c #B0B0C0",
"1@	c #B9B9C9",
"2@	c #A7A7B8",
"3@	c #B6B5BD",
"4@	c #C4C4D2",
"5@	c #6D6D7D",
"6@	c #686877",
"7@	c #AAAABB",
"8@	c #9696A9",
"9@	c #CDCCD6",
"0@	c #9B9BAE",
"a@	c #A1A1B3",
"b@	c #9C9CA9",
"c@	c #FCFBFB",
"d@	c #9E9EAF",
"e@	c #A2A2B2",
"f@	c #BFBFCB",
"g@	c #9898AB",
"h@	c #9A9AAA",
"i@	c #5E5E6D",
"j@	c #7A7A8B",
"k@	c #616170",
"l@	c #ADADBD",
"m@	c #A6A6B7",
"n@	c #9F9FB1",
"o@	c #9B9BA8",
"p@	c #FDFCFC",
"q@	c #DAD9DF",
"r@	c #92929F",
"s@	c #9292A4",
"t@	c #A2A2B4",
"u@	c #686878",
"v@	c #555564",
"w@	c #676777",
"x@	c #BBBAC6",
"y@	c #9494A5",
"z@	c #878798",
"A@	c #FCFAFA",
"B@	c #B7B7C1",
"C@	c #838392",
"D@	c #AFAFB7",
"E@	c #848496",
"F@	c #9999AC",
"G@	c #707080",
"H@	c #CAC9D2",
"I@	c #F2F1F3",
"J@	c #838393",
"K@	c #CACAD7",
"L@	c #888898",
"M@	c #757585",
"N@	c #88889A",
"O@	c #ADACB9",
"P@	c #9C9CAE",
"Q@	c #9B9BAD",
"R@	c #585867",
"S@	c #C6C6D4",
"T@	c #717181",
"U@	c #A2A2B0",
"V@	c #A2A2B5",
"W@	c #B0AFBA",
"X@	c #757584",
"Y@	c #79798A",
"Z@	c #6A6A7A",
"`@	c #8E8EA0",
" #	c #7B7B8C",
".#	c #747485",
"+#	c #C6C5CF",
"@#	c #71717F",
"##	c #9090A3",
"$#	c #646473",
"%#	c #565663",
"&#	c #6B6B7B",
"*#	c #90909D",
"=#	c #9494A1",
"-#	c #797989",
";#	c #6C6C7C",
">#	c #BDBDC6",
",#	c #676776",
"'#	c #8C8C9F",
")#	c #A4A4B6",
"!#	c #7C7C8D",
"~#	c #666675",
"{#	c #696979",
"                                .         ",
"      + @                     # $ %       ",
"      & * =         -       ; > , '       ",
"    ) ! ~ , { ] ^ / ( _ : < [ } ~ |       ",
"    1 2 3 4 5 6 _ 7 8 9 0 _ a b c d e     ",
"f g h i j k l m n o p q r s t u v w x y   ",
"  z A . B C D E F G H 8 I J K L M [ N O   ",
"f P Q R S T U V W X H Y Z w ` C F  ...+.  ",
"  @.#.7 $.%.9 V H &.*.=.3 -.;.>.,.'.#.    ",
"f ).!.L ~.{.].D F ^.* /.. i (.>.0 _.!.:.  ",
"  <.[.}.|.1.2.3.4.5.6.7.- H 8.9.0.4.a.b.  ",
"  c.d.5 e.S f.i g.h.< i.w D j.k.H l.m.n.  ",
"o.p.q.r.s.^ A t.u.v.w.@ x.y.z.L 7 a A.B.C.",
"  D.E./ F.G.Z H.[ W I.I.M 2.J.` 5.F K.L.  ",
"M.N.7 O.P.,.Q.R.v | D S.. T.U.7 M V.W.X.  ",
"Y.Z.O.< j.9 F.A  .`.=. +6..+++@+7.7 6 #+@.",
"$+%+U { @+&+^ V.*+=+> -+z.;+9 @+>+,+4.Y.  ",
"  '+)+!+r 7 W.P.` J.~+{+/ u ]+U - !+^+/+  ",
"$+(+j._+. :+<+R m O.F.6 v X R u K : ^+:.O ",
"f [+}+8.,+S.|+J. .1+2+>.H H  .R.].~.3+4+  ",
"  m.W.!+$.6.5+R D 6+* 7+S.8 8+3 [.W.9+0+  ",
"f a+>+@+~.q ,+j C b+c+0.8.T.( Q.;.&+d+e+  ",
"  f+[+9 g+,+h+i+< _+j+L k+l+m+u./.@+n+O   ",
"o+p+q+& r+s+C i R ].< K 8 S.9 t+u+v+w+x+  ",
"y++.z+A+: }.B+].G d C+D+K 6.+ 4.;.E+F+G+H+",
"  H+1.;.@+4.*.I+G.8 J+K+7 L+R @+;+U M+N+  ",
"<.O+j.)+P+Q+G R+4.v j (.;+] t S+T+9 L @.U+",
"V+e+W+-.$.I+X+3+_ r+Y+Z+;+)+%.5 `+5 9  @.@",
"  +@@@5.#@0 s ~.$@Z * %@&@S ] 7._ i+*@=@  ",
"  -@;@>@,@'@N )@!@k Z ' ~@{@V.]@j.7 ^@    ",
"  /@(@9+_@G.S :@<@++I.< [@}@9 |@1@2@3@4@  ",
"  5@6@7@8@9@0@a@b@. c@V d@ @e@f@g@h@i@j@  ",
"  -@k@l@) m@8@n@o@. p@c@q@r@s@}+t@) u@    ",
"    v@w@x@0 y@n+z@(.A@} {.B@C@w.[.D@-@    ",
"      k@E@F@y@G@V+H@J+I@5.r J@!+K@L@-@    ",
"        M@}.T+2@N@O@-.I ^ P@J@4@Q@R@      ",
"        v@#.W+S@8@T@U@V@{@W@X@t@Y@        ",
"          Z@`@#+ #  $+.#+#v @###$#        ",
"            %#%#    &#!@*#=#-#;#          ",
"                    &#;.r >#`@v@          ",
"                    ,#'#j.)#!#            ",
"                      ~#{#{#              "};
