/* XPM */
static char * wolfAngry1_xpm[] = {
"24 41 386 2",
"  	c #FFFFFD",
". 	c #A5A5B7",
"+ 	c #A4A4B6",
"@ 	c #ACABBA",
"# 	c #DBDAE2",
"$ 	c #B4B4C1",
"% 	c #DEDCE1",
"& 	c #EAE9ED",
"* 	c #B6B5C2",
"= 	c #9B9BA9",
"- 	c #D0CFDA",
"; 	c #B2B1C0",
"> 	c #CDCCD8",
", 	c #737383",
"' 	c #7E7E8F",
") 	c #A4A4B1",
"! 	c #8E8E9D",
"~ 	c #A3A3B3",
"{ 	c #707080",
"] 	c #8E8E9F",
"^ 	c #6F6F7F",
"/ 	c #8F8FA0",
"( 	c #ABABBB",
"_ 	c #AAAAB9",
": 	c #7D7D8E",
"< 	c #C5C5D0",
"[ 	c #AAAABC",
"} 	c #D2D2DC",
"| 	c #CFCED8",
"1 	c #CDCDD7",
"2 	c #D2D2DB",
"3 	c #C4C4CF",
"4 	c #7D7D8D",
"5 	c #89899A",
"6 	c #7E7E8E",
"7 	c #AFAFBE",
"8 	c #DCDBE2",
"9 	c #B7B7C7",
"0 	c #DDDCE4",
"a 	c #DEDEE6",
"b 	c #DEDEE5",
"c 	c #DCDCE3",
"d 	c #B6B6C6",
"e 	c #DDDCE3",
"f 	c #AEAEBD",
"g 	c #888899",
"h 	c #9898A9",
"i 	c #C6C6D2",
"j 	c #BDBDCC",
"k 	c #BABAC9",
"l 	c #DCDBE3",
"m 	c #E8E7EB",
"n 	c #E7E6EB",
"o 	c #BAB9C8",
"p 	c #BCBCCB",
"q 	c #9797A8",
"r 	c #6F6F7E",
"s 	c #8D8D9E",
"t 	c #9D9DAF",
"u 	c #B9B9C8",
"v 	c #B1B1C2",
"w 	c #C2C2CF",
"x 	c #E0DFE5",
"y 	c #DFDEE5",
"z 	c #B7B7C6",
"A 	c #9C9CAE",
"B 	c #6E6E7F",
"C 	c #9191A2",
"D 	c #9797A9",
"E 	c #AEAEBA",
"F 	c #A9A9B9",
"G 	c #9696A6",
"H 	c #AFAFC0",
"I 	c #AEAEBE",
"J 	c #AEAEBF",
"K 	c #DEDDE4",
"L 	c #9494A5",
"M 	c #ACACBB",
"N 	c #ABABB7",
"O 	c #9999AA",
"P 	c #9090A1",
"Q 	c #C0BFCA",
"R 	c #E0E0E7",
"S 	c #A3A3B2",
"T 	c #9595A6",
"U 	c #C4C4D1",
"V 	c #AFAFBF",
"W 	c #B0B0C1",
"X 	c #9494A4",
"Y 	c #A4A4B4",
"Z 	c #E1E1E8",
"` 	c #BEBDC7",
" .	c #9696A7",
"..	c #8F8F9D",
"+.	c #E2E1E7",
"@.	c #E1E0E7",
"#.	c #A0A0B1",
"$.	c #818191",
"%.	c #818192",
"&.	c #ADADBD",
"*.	c #808091",
"=.	c #E2E1E8",
"-.	c #E1E0E6",
";.	c #8E8E9C",
">.	c #9393A5",
",.	c #C1C1CD",
"'.	c #F8F6F6",
").	c #D1D1DB",
"!.	c #DCDBE1",
"~.	c #B2B2BF",
"{.	c #A6A6B7",
"].	c #BEBECC",
"^.	c #A5A5B6",
"/.	c #B4B4C0",
"(.	c #C5C5D1",
"_.	c #DBDAE1",
":.	c #BEBDCA",
"<.	c #B9B8C7",
"[.	c #ECEBEE",
"}.	c #C8C7D0",
"|.	c #C1C1CE",
"1.	c #B1B1C1",
"2.	c #B5B5C5",
"3.	c #B4B4C4",
"4.	c #C3C3D0",
"5.	c #C6C5CE",
"6.	c #C7C6D3",
"7.	c #EBEAEE",
"8.	c #B6B5C5",
"9.	c #7F7F8F",
"0.	c #878797",
"a.	c #ADADBE",
"b.	c #9E9EB0",
"c.	c #C3C3D1",
"d.	c #C6C6D3",
"e.	c #DDDCE5",
"f.	c #DCDCE4",
"g.	c #C5C5D2",
"h.	c #9F9FB1",
"i.	c #878798",
"j.	c #D8D8E0",
"k.	c #CCCCD8",
"l.	c #DFDFE6",
"m.	c #F0EFF1",
"n.	c #F0EEF1",
"o.	c #E1E1E7",
"p.	c #ABABBC",
"q.	c #9C9CAF",
"r.	c #8A8A9B",
"s.	c #A8A8B9",
"t.	c #CECED9",
"u.	c #C7C7D4",
"v.	c #E4E3E8",
"w.	c #DFDEE6",
"x.	c #F5F3F4",
"y.	c #E6E6EB",
"z.	c #F9F8F8",
"A.	c #A7A7B9",
"B.	c #BBBBC9",
"C.	c #E0DFE7",
"D.	c #DEDDE5",
"E.	c #F1F0F2",
"F.	c #EEEDF0",
"G.	c #FCFAFA",
"H.	c #F7F5F5",
"I.	c #FEFDFD",
"J.	c #FCFBFB",
"K.	c #DDDDE5",
"L.	c #7A7A89",
"M.	c #F4F3F4",
"N.	c #F5F4F5",
"O.	c #E4E4E9",
"P.	c #FAF8F8",
"Q.	c #FBF9F9",
"R.	c #F8F7F7",
"S.	c #FDFCFC",
"T.	c #F8F6F7",
"U.	c #FBF9FA",
"V.	c #F6F4F5",
"W.	c #F4F2F4",
"X.	c #C7C6CF",
"Y.	c #767686",
"Z.	c #7C7C8C",
"`.	c #C1C0CB",
" +	c #F6F5F6",
".+	c #F1F0F1",
"++	c #D9D8DF",
"@+	c #E6E5EA",
"#+	c #D8D7DF",
"$+	c #F2F1F2",
"%+	c #F6F4F6",
"&+	c #E0E0E6",
"*+	c #BFBEC9",
"=+	c #7B7B8B",
"-+	c #A3A3B5",
";+	c #D7D6DF",
">+	c #E5E4E9",
",+	c #E0DFE6",
"'+	c #E0DFE4",
")+	c #C5C4D1",
"!+	c #DADAE3",
"~+	c #C1C0CD",
"{+	c #DFDEE4",
"]+	c #D5D4DE",
"^+	c #7F7F90",
"/+	c #ADADB9",
"(+	c #B6B6C4",
"_+	c #A4A4B2",
":+	c #605E60",
"<+	c #6D685E",
"[+	c #BCBBC3",
"}+	c #D3D2DB",
"|+	c #D1D0DB",
"1+	c #D0D0DB",
"2+	c #D2D1DB",
"3+	c #B9B9C1",
"4+	c #6E685C",
"5+	c #615E62",
"6+	c #A7A7B4",
"7+	c #B8B8C5",
"8+	c #CECDD5",
"9+	c #E4E2E7",
"0+	c #8A8374",
"a+	c #A28942",
"b+	c #68646B",
"c+	c #B7B7BE",
"d+	c #DDDBE2",
"e+	c #D3D3DC",
"f+	c #DDDCE2",
"g+	c #B5B5BC",
"h+	c #666268",
"i+	c #A68C43",
"j+	c #898377",
"k+	c #E5E3E7",
"l+	c #CDCCD4",
"m+	c #828292",
"n+	c #9797A7",
"o+	c #D9D9E1",
"p+	c #ACACB9",
"q+	c #947F69",
"r+	c #B9A356",
"s+	c #7C7C8B",
"t+	c #C5C5CE",
"u+	c #E4E3E7",
"v+	c #C2C2CC",
"w+	c #BAA354",
"x+	c #937F6B",
"y+	c #AEAEBB",
"z+	c #D8D8E1",
"A+	c #B6B6C5",
"B+	c #777787",
"C+	c #AFAFC1",
"D+	c #E3E2E8",
"E+	c #D1D0D9",
"F+	c #ECECF0",
"G+	c #D7D7DF",
"H+	c #EDECF1",
"I+	c #D0CFD8",
"J+	c #777788",
"K+	c #757585",
"L+	c #8C8C9C",
"M+	c #D7D6DD",
"N+	c #E9E8EB",
"O+	c #DCDBDF",
"P+	c #F3F1F2",
"Q+	c #F7F5F6",
"R+	c #EAE9EC",
"S+	c #D5D4DC",
"T+	c #A7A7B6",
"U+	c #90909E",
"V+	c #C0C0CA",
"W+	c #9D9DAD",
"X+	c #727280",
"Y+	c #B3B2BA",
"Z+	c #F2F1F3",
"`+	c #EDECF0",
" @	c #B0B0B6",
".@	c #EFEEF1",
"+@	c #F1F0F3",
"@@	c #B0B0B7",
"#@	c #71717F",
"$@	c #A1A1B0",
"%@	c #BFBFC9",
"&@	c #91909F",
"*@	c #A5A5B3",
"=@	c #B6B6C1",
"-@	c #7A7A8A",
";@	c #CCCBD2",
">@	c #90909D",
",@	c #5C3E51",
"'@	c #B5B4B9",
")@	c #616170",
"!@	c #626270",
"~@	c #B2B1B7",
"{@	c #5B3D50",
"]@	c #91919F",
"^@	c #CBCAD1",
"/@	c #B3B3BF",
"(@	c #B9B9C5",
"_@	c #868698",
":@	c #717181",
"<@	c #888897",
"[@	c #81808E",
"}@	c #978390",
"|@	c #A89BA5",
"1@	c #908193",
"2@	c #918193",
"3@	c #A69AA4",
"4@	c #998792",
"5@	c #80808E",
"6@	c #878795",
"7@	c #727282",
"8@	c #858597",
"9@	c #6E6E7E",
"0@	c #A2A2B2",
"a@	c #9696A9",
"b@	c #8B8B9D",
"c@	c #9A687E",
"d@	c #B18F9C",
"e@	c #882241",
"f@	c #872140",
"g@	c #B28F9C",
"h@	c #9B6C82",
"i@	c #737384",
"j@	c #787788",
"k@	c #C7C4CB",
"l@	c #6F4258",
"m@	c #C7C5CC",
"n@	c #797889",
"o@	c #747484",
"p@	c #9595A9",
"q@	c #BBBBCA",
"r@	c #9595A8",
"s@	c #636372",
"t@	c #B8B7C1",
"u@	c #C2C2D0",
"v@	c #A7A7B8",
"w@	c #9292A4",
"x@	c #ACACBC",
"y@	c #9B9BAB",
"z@	c #60606F",
"A@	c #868697",
"B@	c #626271",
"C@	c #9797A4",
"D@	c #D3D2DD",
"E@	c #636371",
"F@	c #5B5B6A",
"G@	c #5E5E6C",
"H@	c #5B5B69",
"I@	c #5D5D6C",
"J@	c #9B9BAC",
"K@	c #CACAD7",
"L@	c #B0B0BE",
"M@	c #555563",
"N@	c #A1A1B1",
"O@	c #EDECEF",
"P@	c #D0CFDB",
"Q@	c #646473",
"R@	c #88889A",
"S@	c #9B9BAD",
"T@	c #696978",
"U@	c #565664",
"V@	c #B3B3C1",
"W@	c #D3D3DE",
"X@	c #9999A9",
"Y@	c #B1B1C0",
"Z@	c #A2A1AC",
"`@	c #A8A8B5",
" #	c #9B9BA8",
".#	c #7A7A88",
"+#	c #9695A3",
"@#	c #D3D2DC",
"##	c #D3D2D9",
"$#	c #81818B",
"%#	c #8E8E9E",
"&#	c #848494",
"*#	c #6E6E7D",
"=#	c #9494A2",
"-#	c #E9E7EA",
";#	c #E6E5E7",
">#	c #8C8C9A",
",#	c #AAAAB6",
"'#	c #B9B8C3",
")#	c #6A6A7A",
"!#	c #7B7B8C",
"~#	c #878799",
"                      . +                       ",
"                    @ # $                       ",
"                    % & *                       ",
"                  = - ; > ,                     ",
"                  ' ) ! ~ {                     ",
"                ] ^ / ( _ ] { /                 ",
"              : < [ } | 1 2 [ 3 4               ",
"          5 6 7 8 9 0 a b c d e f 6 g           ",
"        , h i j k l 0 m n 0 l o p i q ,         ",
"      r s t u 9 v w x n n y w v z u A s B       ",
"      C D E F G H y # I J c K J L M N O P       ",
"      D s Q R S T U V s s W U X Y Z ` ]  .      ",
"      T ..+.R @.#.$.%.7 &.*.$.~ =.R -.;.>.      ",
"      ^ ,.'.).!.U ~.{.j ].^./.(._.} '.:.^       ",
"      ^ <.[.U }.|.1.J 2.3.J W 4.5.6.7.8.^       ",
"    9.0.a.V b.c.3.d.w e.f.w g.2.w h.I &.i.6     ",
"    ^ D (.t &.j.k.=.l.m.n.l.o.k.j.p.q.i  .^     ",
"  C r.s.t.u.v.w.l.x.y.z.z.y.x.a w.v.d.t.A.5 C   ",
"    D B.w.C.D.E.F.G.H.I.I.H.J.F.E.K.R D.k q     ",
"  L.}.K M.N.O.P.Q.R.J.S.S.J.T.U.P.O.V.W.K X.Y.  ",
"    Z.`.@. +.+++@+=. +R.'.V.o.@+#+$+%+&+*+=+    ",
"    $.-+;+>+,+'+)+!+b ~+~+l.!+(.{+&+>+]+-+^+    ",
"  /+(+g @._+:+<+[+}+|+1+1+).2+3+4+5+6+b 5 7+N   ",
"    &.8+9+c.0+a+b+c+d+2 e+f+g+h+i+j+4.k+l+&.    ",
"    m+n+z o+p+q+r+s+t+u+9+v+s+w+x+y+z+A+ .m+    ",
"    q B+C+D+D+U E+{+F+G+G+H+K I+U >+@.a.J+h     ",
"      K+L+M+N+O+P+Q+I.I.I.I. +P+O+R+S+r.K+      ",
"      T+U+V+W+X+Y+Z+`+ @ @.@+@@@#@$@%@&@*@      ",
"      =@-@=+;@>@,@'@e+)@!@;+~@{@]@^@s+Z./@      ",
"      ^ (@_@:@<@[@}@|@1@2@3@4@5@6@7@8@(@9@      ",
"      r 0@_@a@b@Y.c@d@e@f@g@h@K+b@a@8@0@^       ",
"        Y.h.p a@i@j@k@l@l@m@n@o@p@q@r@K+        ",
"        s@t@u@v@w@)@W+x@x@y@z@T {.p A@B@        ",
"          C@U D@0@E@F@G@G@H@I@J@K@L@I@          ",
"          M@N@O@P@<@      Q@R@S@1.T@            ",
"          U@V@W@&.4     U@X@p Y@9.              ",
"            X+D+D+Z@    U@`@ #.#]@              ",
"              +#@###$#    %#&#*#X               ",
"              =#++-#;#U@                        ",
"              =#>#,#'#U@                        ",
"                )#!#~#                          "};
