/* XPM */
static char * wolfnormal2_xpm[] = {
"23 43 476 2",
"  	c #FFFFFD",
". 	c #818181",
"+ 	c #A7A6A5",
"@ 	c #848484",
"# 	c #979694",
"$ 	c #D8D3CD",
"% 	c #AFADAA",
"& 	c #A09C96",
"* 	c #B4B2B0",
"= 	c #BAB6B0",
"- 	c #706962",
"; 	c #493A28",
"> 	c #AA937D",
", 	c #9A8C7E",
"' 	c #B29F8D",
") 	c #64523C",
"! 	c #443724",
"~ 	c #866F53",
"{ 	c #6D5A43",
"] 	c #937A5E",
"^ 	c #54442F",
"/ 	c #4E3F2A",
"( 	c #413322",
"_ 	c #54432D",
": 	c #766146",
"< 	c #473826",
"[ 	c #463825",
"} 	c #4D3E29",
"| 	c #4F402D",
"1 	c #7C664B",
"2 	c #67543A",
"3 	c #876F53",
"4 	c #A98D71",
"5 	c #7D674A",
"6 	c #6E5A40",
"7 	c #67543D",
"8 	c #4C3D29",
"9 	c #826B4F",
"0 	c #92795D",
"a 	c #836C4F",
"b 	c #B3967A",
"c 	c #B5987C",
"d 	c #997F63",
"e 	c #816A4D",
"f 	c #967D60",
"g 	c #574731",
"h 	c #4A3C28",
"i 	c #3F3221",
"j 	c #725D42",
"k 	c #977E61",
"l 	c #92795C",
"m 	c #B09377",
"n 	c #A08569",
"o 	c #9F8469",
"p 	c #B19478",
"q 	c #947A5E",
"r 	c #9A8064",
"s 	c #7B6549",
"t 	c #776248",
"u 	c #3E3121",
"v 	c #5A4931",
"w 	c #7A6448",
"x 	c #826B4E",
"y 	c #7C6649",
"z 	c #8B7256",
"A 	c #B39579",
"B 	c #C2A387",
"C 	c #B99B7F",
"D 	c #93795D",
"E 	c #8C7357",
"F 	c #7A6447",
"G 	c #866E52",
"H 	c #655238",
"I 	c #493B27",
"J 	c #403221",
"K 	c #635037",
"L 	c #51412C",
"M 	c #806A4E",
"N 	c #7D674B",
"O 	c #7E674B",
"P 	c #AE9175",
"Q 	c #A3886C",
"R 	c #957C5F",
"S 	c #B7997D",
"T 	c #897155",
"U 	c #625038",
"V 	c #544430",
"W 	c #6A563B",
"X 	c #483926",
"Y 	c #705B3F",
"Z 	c #53432D",
"` 	c #B39980",
" .	c #877055",
"..	c #584730",
"+.	c #816A4E",
"@.	c #9B8165",
"#.	c #745F42",
"$.	c #574630",
"%.	c #6F5B3F",
"&.	c #91785C",
"*.	c #8F765A",
"=.	c #5C4A33",
"-.	c #725E44",
";.	c #B0967C",
">.	c #675541",
",.	c #6E593D",
"'.	c #50402B",
").	c #614F36",
"!.	c #6D5941",
"~.	c #C0BAB2",
"{.	c #C4B198",
"].	c #877054",
"^.	c #5B4A32",
"/.	c #594831",
"(.	c #786248",
"_.	c #705B42",
":.	c #B8A184",
"<.	c #C6BEB3",
"[.	c #91806A",
"}.	c #54442E",
"|.	c #A99C8B",
"1.	c #D0CCC7",
"2.	c #BDAE9F",
"3.	c #A1876A",
"4.	c #564531",
"5.	c #776247",
"6.	c #846C50",
"7.	c #846D51",
"8.	c #52422D",
"9.	c #7C664D",
"0.	c #8D7558",
"a.	c #C2AA92",
"b.	c #C1BEBB",
"c.	c #CDC4B8",
"d.	c #5C4B33",
"e.	c #433523",
"f.	c #ABA194",
"g.	c #8D8D8D",
"h.	c #B79D85",
"i.	c #866F52",
"j.	c #735D41",
"k.	c #735E41",
"l.	c #846D50",
"m.	c #7B6548",
"n.	c #8D8783",
"o.	c #CBC6C0",
"p.	c #604E35",
"q.	c #3E3221",
"r.	c #80786E",
"s.	c #ABAAA8",
"t.	c #7D756A",
"u.	c #9C8368",
"v.	c #877053",
"w.	c #7E684B",
"x.	c #9B8164",
"y.	c #856E51",
"z.	c #756043",
"A.	c #817260",
"B.	c #9E9D9C",
"C.	c #93918F",
"D.	c #56452F",
"E.	c #806A4D",
"F.	c #867C72",
"G.	c #77716A",
"H.	c #82725F",
"I.	c #8E7559",
"J.	c #A88C70",
"K.	c #A4886C",
"L.	c #C8AA8D",
"M.	c #A78B6F",
"N.	c #997F62",
"O.	c #90775B",
"P.	c #8C765C",
"Q.	c #777169",
"R.	c #7A7773",
"S.	c #50412B",
"T.	c #55452E",
"U.	c #84725D",
"V.	c #927A5E",
"W.	c #A2876B",
"X.	c #AC9074",
"Y.	c #C5A68A",
"Z.	c #DFC5A6",
"`.	c #BFA185",
" +	c #BC9E82",
".+	c #B6997D",
"++	c #9C8265",
"@+	c #7D6D58",
"#+	c #645138",
"$+	c #493A27",
"%+	c #6E5A3E",
"&+	c #A1866A",
"*+	c #C2A588",
"=+	c #C4AA8C",
"-+	c #D5B89B",
";+	c #D3B799",
">+	c #E6CEAE",
",+	c #DBC1A2",
"'+	c #CFB093",
")+	c #D5BC9D",
"!+	c #BC9F83",
"~+	c #AE9276",
"{+	c #5B4A36",
"]+	c #927A5F",
"^+	c #CDB193",
"/+	c #E1C8A8",
"(+	c #DABEA0",
"_+	c #E3CAAA",
":+	c #E7D0AF",
"<+	c #E2C9A9",
"[+	c #DBC0A1",
"}+	c #E1C7A8",
"|+	c #CBAD91",
"1+	c #AA8E72",
"2+	c #CFB395",
"3+	c #695640",
"4+	c #4D3E2C",
"5+	c #745F46",
"6+	c #C3A78A",
"7+	c #DBC3A3",
"8+	c #D9BE9F",
"9+	c #CBAC8F",
"0+	c #D2B396",
"a+	c #D0B194",
"b+	c #D5B79A",
"c+	c #DDC3A3",
"d+	c #E0C7A7",
"e+	c #D8BB9D",
"f+	c #D2B497",
"g+	c #CDAE92",
"h+	c #D2B698",
"i+	c #DEC6A6",
"j+	c #CBB193",
"k+	c #52422F",
"l+	c #4F3F2B",
"m+	c #796346",
"n+	c #AC9275",
"o+	c #B99E81",
"p+	c #D2B597",
"q+	c #CEAE92",
"r+	c #E0C6A7",
"s+	c #D4B699",
"t+	c #D1B295",
"u+	c #D0B094",
"v+	c #D3B598",
"w+	c #CFB094",
"x+	c #C3A88A",
"y+	c #B29579",
"z+	c #5E4C34",
"A+	c #4C3D2A",
"B+	c #90775D",
"C+	c #756045",
"D+	c #6A563F",
"E+	c #504129",
"F+	c #493F1E",
"G+	c #5E5332",
"H+	c #806D4D",
"I+	c #CCB092",
"J+	c #DCC2A3",
"K+	c #D5B89A",
"L+	c #9C8366",
"M+	c #5E5331",
"N+	c #5B502F",
"O+	c #52452A",
"P+	c #977E64",
"Q+	c #836C53",
"R+	c #665339",
"S+	c #887057",
"T+	c #66543E",
"U+	c #65533B",
"V+	c #A58A6D",
"W+	c #6E5B3F",
"X+	c #8A7639",
"Y+	c #A68526",
"Z+	c #7B6809",
"`+	c #897359",
" @	c #E1C9A9",
".@	c #B1957B",
"+@	c #564A10",
"@@	c #AC8A18",
"#@	c #B19647",
"$@	c #55472A",
"%@	c #B79A7E",
"&@	c #6F5B44",
"*@	c #5F4D38",
"=@	c #947B5E",
"-@	c #91785B",
";@	c #8F765B",
">@	c #58442A",
",@	c #917834",
"'@	c #6C5A27",
")@	c #3E341A",
"!@	c #BFA286",
"~@	c #CBAE91",
"{@	c #635338",
"]@	c #4D401D",
"^@	c #9B8237",
"/@	c #604A27",
"(@	c #7C664C",
"_@	c #735E47",
":@	c #7D6B52",
"<@	c #CFC5B9",
"[@	c #A28A70",
"}@	c #A68A6E",
"|@	c #A68B6F",
"1@	c #A78C70",
"2@	c #CEAF93",
"3@	c #D0B195",
"4@	c #D1B296",
"5@	c #A58A6E",
"6@	c #9E856A",
"7@	c #C4B5A6",
"8@	c #998B79",
"9@	c #7A746C",
"0@	c #E8E3DF",
"a@	c #D6CCC1",
"b@	c #DFCBBB",
"c@	c #D8BC9E",
"d@	c #E0C6A6",
"e@	c #DFC5A5",
"f@	c #E3CBAA",
"g@	c #CFAF93",
"h@	c #DCC3AF",
"i@	c #CFC1B2",
"j@	c #EFE9E5",
"k@	c #A2A09E",
"l@	c #4E3E2A",
"m@	c #403322",
"n@	c #6E5F4B",
"o@	c #9A9691",
"p@	c #AAA9A8",
"q@	c #9B9A99",
"r@	c #D7D2CD",
"s@	c #EAE1D9",
"t@	c #D7C0AA",
"u@	c #D0B89B",
"v@	c #BDA586",
"w@	c #C6AD90",
"x@	c #DBC3A8",
"y@	c #E4D9CF",
"z@	c #E6DFDA",
"A@	c #A8A7A5",
"B@	c #A09F9F",
"C@	c #B1AEAA",
"D@	c #6A6053",
"E@	c #50402C",
"F@	c #423523",
"G@	c #7F6950",
"H@	c #514C46",
"I@	c #8A8988",
"J@	c #959493",
"K@	c #858584",
"L@	c #DAD5D2",
"M@	c #E2DDD7",
"N@	c #A59E8D",
"O@	c #352E0E",
"P@	c #796F57",
"Q@	c #DFDAD3",
"R@	c #E5E0DC",
"S@	c #9D9C9A",
"T@	c #7E7E7D",
"U@	c #A1A09E",
"V@	c #61605F",
"W@	c #624F3A",
"X@	c #5F4D39",
"Y@	c #625341",
"Z@	c #696867",
"`@	c #646363",
" #	c #7D7D7D",
".#	c #868584",
"+#	c #CBC8C3",
"@#	c #AAA7A4",
"##	c #727069",
"$#	c #A19D98",
"%#	c #CAC7C2",
"&#	c #A09F9E",
"*#	c #777777",
"=#	c #676767",
"-#	c #6B6A69",
";#	c #574F44",
">#	c #76614A",
",#	c #594834",
"'#	c #5B4A35",
")#	c #747473",
"!#	c #787878",
"~#	c #626262",
"{#	c #767676",
"]#	c #5A5A5A",
"^#	c #6D6D6D",
"/#	c #707070",
"(#	c #6E6E6E",
"_#	c #6B6B6B",
":#	c #727272",
"<#	c #514739",
"[#	c #725D45",
"}#	c #5D554A",
"|#	c #7F7F7E",
"1#	c #868686",
"2#	c #6F6F6F",
"3#	c #636363",
"4#	c #8B8A8A",
"5#	c #B5B1AE",
"6#	c #CECAC9",
"7#	c #BCB8B6",
"8#	c #969593",
"9#	c #5E5E5E",
"0#	c #7C7C7C",
"a#	c #8A8A8A",
"b#	c #696560",
"c#	c #4D3D29",
"d#	c #5D5D5D",
"e#	c #AFAEAD",
"f#	c #8C8C8C",
"g#	c #777676",
"h#	c #525252",
"i#	c #7F7F7F",
"j#	c #AFAEAE",
"k#	c #7B7A7A",
"l#	c #434343",
"m#	c #B2B1AF",
"n#	c #9D9D9D",
"o#	c #9E9E9E",
"p#	c #4E4E4E",
"q#	c #919191",
"r#	c #9B9B9B",
"s#	c #B2B1B0",
"t#	c #636362",
"u#	c #8E8D8C",
"v#	c #D4D0CA",
"w#	c #ADACAB",
"x#	c #575757",
"y#	c #A1A1A1",
"z#	c #CFCCC7",
"A#	c #AAA8A5",
"B#	c #929292",
"C#	c #B7B6B4",
"D#	c #939292",
"E#	c #4F4F4F",
"F#	c #B7B5B3",
"G#	c #AEADAB",
"H#	c #C0BDBA",
"I#	c #989897",
"J#	c #4B4B4B",
"K#	c #7C7B7B",
"L#	c #B3B1B0",
"M#	c #C1BFBB",
"N#	c #9C9C9B",
"O#	c #C8C5C1",
"P#	c #C1BDB8",
"Q#	c #95928F",
"R#	c #CCC8C4",
"S#	c #B1AFAD",
"T#	c #585858",
"U#	c #464646",
"V#	c #7B7B7B",
"W#	c #A3A2A1",
"X#	c #81807F",
"Y#	c #A8A8A7",
"Z#	c #828282",
"`#	c #545454",
" $	c #C3C0BB",
".$	c #CBC7C2",
"+$	c #C0BCB6",
"@$	c #C6C3BD",
"#$	c #CFCBC5",
"$$	c #A8A7A6",
"%$	c #747373",
"&$	c #838281",
"*$	c #999896",
"=$	c #838280",
"-$	c #757474",
";$	c #8E8E8E",
">$	c #797979",
",$	c #5C5C5C",
"'$	c #717171",
")$	c #6C6C6C",
"                                              ",
"                    . + @                     ",
"                    # $ %                     ",
"                    & * = -                   ",
"                  ; > , ' )                   ",
"                  ! ~ { ] ^                   ",
"                / ( _ : _ < [ }               ",
"              | 1 2 3 4 5 : 6 7               ",
"          } 8 9 0 a b c 4 d e f g h           ",
"        i j : k l m n b o p q r s t 8         ",
"    u   v w x y a z A B C D E F F G H I i     ",
"    J K L M K N O P Q 3 R S T 5 U 5 V W X     ",
"    ( Y Z `  ...+.@.#.$.%.&.*.=.-.;.>.,.'.    ",
"    ( ).!.~.{.]...^./.(...^.v _.:.<.[.L '.    ",
"    i }.|.1.2.3.N 4.5.6.7.8.9.0.a.b.c.d.e.    ",
"    i '.f.1.g.h.x i.j.O k.l.m.m n.b.o.p.q.    ",
"    /.'.r.s.t.u.k.v.w.x.v.y.z.0 A.B.C.p.D.    ",
"    ( E.F.G.H.k I.J.K.L.J.M.N.O.P.Q.R.I.S.i   ",
"  D.T.x U.V.P W.X.Y.p Z.`. +.+n P ++@+*.#+$+}.",
"  Z %+v.W.&+M.*+=+-+;+>+,+'+)+!+~+W.W.0 z.d.  ",
"  {+]+M.^+b C /+(+_+Z.:+_+<+[+}+|+1+2+~+n 3+  ",
"  4+5+6+7+8+9+0+a+b+c+d+e+[+'+f+g+h+i+j+] k+  ",
"    l+m+W.n+o+p+q+r+s+e+t+/+u+v+w+x+y+w.z+i   ",
"A+B+C+D+J.E+F+G+H+I+J+q+K+[+L+M+N+O+P+Q+R+S+T+",
"  /.U+V+M.W+X+Y+Z+`+t+ @v+.@+@@@#@$@O.%@&@2   ",
"    *@=@-@;@>@,@'@)@!@<+~@{@]@^@/@(@] =@_@8.  ",
"  Z #+8.:@<@[@}@|@1@2@3@4@b 5@J.6@7@8@)...).  ",
"    i [ 9@0@a@b@q+c@d@e@f@[+g@h@i@j@k@l@q.    ",
"    m@n@o@p@q@r@s@t@u@v@w@x@y@z@A@B@C@D@E@    ",
"    F@G@H@I@J@K@L@M@N@O@P@Q@R@S@T@U@V@W@X@    ",
"      T+Y@Z@`@ #.#+#@###$#%#&#*#=#-#;#>#      ",
"      ,#'#)#!#~#{#=#{#]#^#/#(#_#:#*#<#[#      ",
"      $+}#|#1#2#3#4#5#6#7#8#!#9#0#a#b#c#      ",
"        d#e#g.. 9#3#f#f#f#g#h#i#. j#k#        ",
"        l#m#n#o#9#l#l#l#l#l#p#q#r#s#t#        ",
"        l#u#v#w#/#          x#y#z#A#h#        ",
"        l#B#C#D#9#          E#@ F#o#x#        ",
"        l#G#H#I#J#            K#L#M#d#        ",
"        l#N#O#P#l#            Q#R#S#T#        ",
"        U#V#r#W#l#            X#Y#Z#`#        ",
"        @  $.$+$l#            Q#@$#$$$l#      ",
"        @ %$&$*$l#            =$-$u#;$l#      ",
"        >$`#,$'$                `#~#)$        "};
