/* XPM */
static char * wolfBack2_xpm[] = {
"22 43 403 2",
"  	c #FFFFFD",
". 	c #ECEBF0",
"+ 	c #E8E8ED",
"@ 	c #C2C2CF",
"# 	c #C1C0CD",
"$ 	c #F9F7F8",
"% 	c #F0F0F3",
"& 	c #B8B8C7",
"* 	c #E9E9EE",
"= 	c #FCFBFB",
"- 	c #D3D2DB",
"; 	c #DFDFE5",
"> 	c #F7F5F5",
", 	c #FBFAFA",
"' 	c #DADAE3",
") 	c #BCBCCA",
"! 	c #B3B3C3",
"~ 	c #B9B9C8",
"{ 	c #D5D5DF",
"] 	c #AAAABC",
"^ 	c #C9C9D5",
"/ 	c #F7F6F8",
"( 	c #F7F6F7",
"_ 	c #AAAABB",
": 	c #9393A1",
"< 	c #EFEEF1",
"[ 	c #F1F0F1",
"} 	c #F9F7F7",
"| 	c #F0EEF1",
"1 	c #BDBDCB",
"2 	c #AFAFC0",
"3 	c #E3E2E7",
"4 	c #B4B4C4",
"5 	c #BEBECC",
"6 	c #B6B6C6",
"7 	c #E2E1E7",
"8 	c #FAF8F8",
"9 	c #F3F1F2",
"0 	c #F6F5F6",
"a 	c #B3B3BF",
"b 	c #9797A8",
"c 	c #9797A3",
"d 	c #E8E7EB",
"e 	c #DEDEE6",
"f 	c #E7E6EB",
"g 	c #E9E8EC",
"h 	c #C6C5D2",
"i 	c #DCDBE1",
"j 	c #CACAD5",
"k 	c #BEBECD",
"l 	c #D4D3DB",
"m 	c #EAE9ED",
"n 	c #E1E1E8",
"o 	c #E4E3E9",
"p 	c #BDBCC5",
"q 	c #8D8D9E",
"r 	c #787889",
"s 	c #BCBBC7",
"t 	c #E3E2E8",
"u 	c #D9D9E2",
"v 	c #C4C4D1",
"w 	c #D8D8E1",
"x 	c #E8E7EC",
"y 	c #F2F1F2",
"z 	c #EDEBEE",
"A 	c #C9C9D4",
"B 	c #BFBFCD",
"C 	c #DBDBE3",
"D 	c #C2C2D0",
"E 	c #D6D6E0",
"F 	c #DCDCE4",
"G 	c #D4D3DA",
"H 	c #858596",
"I 	c #888898",
"J 	c #D5D4DD",
"K 	c #CFCFDA",
"L 	c #C5C5D2",
"M 	c #CDCDD8",
"N 	c #EBEAEE",
"O 	c #EBEAED",
"P 	c #E3E3E9",
"Q 	c #D5D5DE",
"R 	c #D0D0DB",
"S 	c #DDDCE3",
"T 	c #A0A0AE",
"U 	c #7E7E8F",
"V 	c #B7B7C4",
"W 	c #D0CFD9",
"X 	c #C3C2CF",
"Y 	c #E0DFE5",
"Z 	c #D8D7DF",
"` 	c #F5F4F5",
" .	c #E0E0E7",
"..	c #F2F1F4",
"+.	c #EEEDF0",
"@.	c #ECEBEE",
"#.	c #B1B1C1",
"$.	c #CFCED7",
"%.	c #D1D1DB",
"&.	c #9291A1",
"*.	c #A1A0AA",
"=.	c #B2B2BF",
"-.	c #BBBBC9",
";.	c #F1EFF1",
">.	c #E2E2E8",
",.	c #DEDEE5",
"'.	c #E4E3E7",
").	c #EDEBED",
"!.	c #DAD9E2",
"~.	c #E6E5EA",
"{.	c #CACAD6",
"].	c #EAE9EC",
"^.	c #CECDD7",
"/.	c #B6B6C5",
"(.	c #A5A4B2",
"_.	c #828292",
":.	c #CDCCD6",
"<.	c #C8C8D4",
"[.	c #E7E7EB",
"}.	c #DFDEE6",
"|.	c #C0C0CD",
"1.	c #F2F0F2",
"2.	c #D2D1DB",
"3.	c #E3E2E9",
"4.	c #CFCED8",
"5.	c #D7D6DF",
"6.	c #9797A6",
"7.	c #91909C",
"8.	c #8E8E9F",
"9.	c #EEECEF",
"0.	c #E1E1E7",
"a.	c #BABAC8",
"b.	c #E5E4EA",
"c.	c #DFDFE6",
"d.	c #C7C7D3",
"e.	c #C3C3D0",
"f.	c #CAC9D4",
"g.	c #F5F3F5",
"h.	c #CBCBD5",
"i.	c #9B9BAD",
"j.	c #8F8E9B",
"k.	c #92929F",
"l.	c #DFDDE1",
"m.	c #A3A3B0",
"n.	c #CBCAD6",
"o.	c #C4C4D0",
"p.	c #E7E7ED",
"q.	c #E9E9ED",
"r.	c #C8C8D3",
"s.	c #B2B2C2",
"t.	c #D4D3DD",
"u.	c #BDBCC7",
"v.	c #D0CFD5",
"w.	c #A5A5B1",
"x.	c #9C9CAB",
"y.	c #C4C3CF",
"z.	c #DEDDE4",
"A.	c #DBDAE2",
"B.	c #DCDBE2",
"C.	c #F4F2F4",
"D.	c #E7E7EC",
"E.	c #EBEAEF",
"F.	c #D9D8DE",
"G.	c #A8A8B8",
"H.	c #7D7D8D",
"I.	c #727282",
"J.	c #D2D2DD",
"K.	c #B2B2C3",
"L.	c #E2E1E8",
"M.	c #DBDBE4",
"N.	c #E0DFE7",
"O.	c #DDDDE5",
"P.	c #F1F0F2",
"Q.	c #BEBDCB",
"R.	c #B7B7C7",
"S.	c #CBCBD7",
"T.	c #9292A0",
"U.	c #838394",
"V.	c #9898AA",
"W.	c #AEAEBF",
"X.	c #D6D6DF",
"Y.	c #B0B0C1",
"Z.	c #A1A1B2",
"`.	c #8F8FA0",
" +	c #818192",
".+	c #BABAC9",
"++	c #ACACBE",
"@+	c #BDBDCC",
"#+	c #F2F1F3",
"$+	c #EFEFF2",
"%+	c #F8F7F8",
"&+	c #DDDCE2",
"*+	c #ADADBE",
"=+	c #B8B8C8",
"-+	c #CECEDA",
";+	c #9393A4",
">+	c #6F6F7F",
",+	c #808091",
"'+	c #AEAEC0",
")+	c #CDCDD9",
"!+	c #BBBBCA",
"~+	c #B5B5C5",
"{+	c #9999AB",
"]+	c #E1E0E7",
"^+	c #C0C0CE",
"/+	c #C7C7D4",
"(+	c #CECED9",
"_+	c #717181",
":+	c #6E6E7E",
"<+	c #F0EFF0",
"[+	c #E9E7EC",
"}+	c #DAD9DF",
"|+	c #C5C4D0",
"1+	c #E5E4E8",
"2+	c #CCCCD7",
"3+	c #A9A9BC",
"4+	c #707081",
"5+	c #D2D2DC",
"6+	c #C0C0CC",
"7+	c #EAE8EC",
"8+	c #D7D7E0",
"9+	c #DEDDE5",
"0+	c #F8F7F7",
"a+	c #F0EEF0",
"b+	c #DEDEE4",
"c+	c #C6C6D3",
"d+	c #B1B1C2",
"e+	c #B9B9C7",
"f+	c #EFEDF0",
"g+	c #CFCFD9",
"h+	c #DCDAE1",
"i+	c #E9E7EA",
"j+	c #D5D4DE",
"k+	c #CBCBD6",
"l+	c #ABABBC",
"m+	c #787888",
"n+	c #A3A3B5",
"o+	c #DDDCE4",
"p+	c #D8D7DE",
"q+	c #A6A6B8",
"r+	c #848495",
"s+	c #A3A2AC",
"t+	c #9595A6",
"u+	c #B8B7C7",
"v+	c #C8C8D5",
"w+	c #C7C7D2",
"x+	c #9E9EB0",
"y+	c #A2A1AD",
"z+	c #9595A2",
"A+	c #B6B5C2",
"B+	c #A4A3B0",
"C+	c #D4D4DE",
"D+	c #E4E4EB",
"E+	c #E9E8ED",
"F+	c #E4E3E8",
"G+	c #C4C3CC",
"H+	c #A4A4B3",
"I+	c #AAAAB6",
"J+	c #CCCBD6",
"K+	c #ABABBD",
"L+	c #A9A9BB",
"M+	c #C7C6D3",
"N+	c #E6E4E9",
"O+	c #F0EFF1",
"P+	c #CECED8",
"Q+	c #F1F0F3",
"R+	c #DAD9E1",
"S+	c #DCDBE3",
"T+	c #B7B7C6",
"U+	c #C1C1CE",
"V+	c #BCBCCB",
"W+	c #808090",
"X+	c #9696A7",
"Y+	c #D3D3DC",
"Z+	c #C0BFCC",
"`+	c #D1D0DA",
" @	c #9E9EAF",
".@	c #89899A",
"+@	c #818193",
"@@	c #F4F3F6",
"#@	c #F3F2F5",
"$@	c #C3C3D1",
"%@	c #C8C7D4",
"&@	c #CBCAD5",
"*@	c #D7D6DE",
"=@	c #9999AA",
"-@	c #5B5B6A",
";@	c #878793",
">@	c #A7A7B9",
",@	c #D2D1DA",
"'@	c #9796A3",
")@	c #E7E6EA",
"!@	c #9898A6",
"~@	c #D8D7DD",
"{@	c #AAA9B5",
"]@	c #5E5E6D",
"^@	c #565664",
"/@	c #A6A5B0",
"(@	c #A5A5B7",
"_@	c #B5B5C4",
":@	c #868695",
"<@	c #EDECEF",
"[@	c #C3C3CE",
"}@	c #C7C6D2",
"|@	c #ADADBD",
"1@	c #AEAEBE",
"2@	c #BDBDCD",
"3@	c #A3A2B1",
"4@	c #BBBBC4",
"5@	c #6F6F7C",
"6@	c #A0A0AF",
"7@	c #9F9FB1",
"8@	c #C5C4CF",
"9@	c #9696A6",
"0@	c #9B9BAC",
"a@	c #EFEEF0",
"b@	c #B3B3C2",
"c@	c #888899",
"d@	c #A4A4B6",
"e@	c #D1D0D9",
"f@	c #9A9AAC",
"g@	c #6C6C7A",
"h@	c #8B8B9A",
"i@	c #6B6B7A",
"j@	c #A5A5B6",
"k@	c #9D9DAF",
"l@	c #838395",
"m@	c #F3F2F3",
"n@	c #7C7C8D",
"o@	c #9696A9",
"p@	c #AFAFBF",
"q@	c #A3A3B4",
"r@	c #A6A6B7",
"s@	c #7E7E90",
"t@	c #CCCBD4",
"u@	c #B1B1BF",
"v@	c #9C9CAE",
"w@	c #828293",
"x@	c #BCBCC7",
"y@	c #F6F4F4",
"z@	c #F6F4F5",
"A@	c #7F7F8F",
"B@	c #9595A8",
"C@	c #BEBECB",
"D@	c #C6C5CF",
"E@	c #686877",
"F@	c #A5A5B4",
"G@	c #C4C4D2",
"H@	c #C7C6D0",
"I@	c #6D6D7D",
"J@	c #C4C4CE",
"K@	c #DFDEE5",
"L@	c #D4D4DD",
"M@	c #777786",
"N@	c #A6A6B2",
"O@	c #CCCCD9",
"P@	c #747485",
"Q@	c #A0A0B2",
"R@	c #C9C8D4",
"S@	c #AAAAB9",
"T@	c #7E7E8E",
"U@	c #BBBAC8",
"V@	c #AFAEBE",
"W@	c #9797A9",
"X@	c #777788",
"Y@	c #9D9DB0",
"Z@	c #676776",
"`@	c #A2A2B4",
" #	c #8B8B9C",
".#	c #AAAABA",
"+#	c #626271",
"@#	c #848491",
"##	c #A8A8B5",
"$#	c #60606F",
"%#	c #656575",
"&#	c #6D6D7B",
"*#	c #787887",
"=#	c #CAC9D5",
"-#	c #646473",
";#	c #A7A7B3",
">#	c #676775",
",#	c #8D8D9F",
"'#	c #9696A4",
")#	c #666675",
"!#	c #A4A4B5",
"~#	c #D8D7E0",
"{#	c #656574",
"]#	c #555563",
"^#	c #B5B4C3",
"/#	c #79798A",
"(#	c #9292A3",
"_#	c #D6D5DE",
":#	c #D0D0DC",
"<#	c #B0B0C0",
"[#	c #CACAD8",
"}#	c #A5A5B5",
"|#	c #636372",
"1#	c #A8A8B9",
"2#	c #8A8A9C",
"3#	c #808092",
"4#	c #A7A7B8",
"5#	c #8A8A9D",
"6#	c #696979",
"                                            ",
"        .                       + @         ",
"      # $ %         &         * = -         ",
"      ; > , ' ) ! ~ { @ ] @ ^ / > ( _       ",
"    : < [ } | 1 @ 2 3 4 5 6 7 8 9 0 a       ",
"  b c d e f g 6 h i / 7 j k l m n o p q     ",
"  r s t u v w ^ ) x y z A B C D E F G H     ",
"  I J f K L M x N O P t < d Q R B o S T     ",
"  U V W X Y ! Z `  ...e +.@.#.Q $.%.V &.    ",
"    *.=.-.;.A >.,.'., ).!.~.{.].^./.*.(.    ",
"  _.:.<.-.[.}.o B |.1.2.! F P 3.4.& 5.6.    ",
"  7.8.~ 9.0.a.b.c.M d.e.}.c.f.M g.h.i.j.    ",
"k.l.m.+.n.o.4 3.o p.M n q.c.r.s.t.d u.v.w.  ",
"  x.y.z.B B A.B.Q C.D.0 P j E.~ ^ M F.G.H.  ",
"  I.J.K.w B O L.M.N.d o ' O.P.Q.M.R.S.T.    ",
"U.V.s.2 {.W.X.z.0.;.n [ b.3 ' 4 @ ~ Y.Z.`.  ",
"   +.+M.++] @+_ :.#+$+%+&+*+=+W.] -+^ ;+>+  ",
"  ,+'+=+4 .+#.)+6 b., +.1 {.!+Y.5 ~+! 8.    ",
">+{+4 {.' M.]+}.w 6 { ^+/+]+c.F M.(+5 _ _+  ",
":+{+] 5 ' M.<+x [+}+|+}+1+f ;.c.M.2+3+] 4+  ",
"  ,+~ 5+6+7+8+x 9+m 0+a+}.o b+]+l c+/+8.    ",
"  {+#.d+e+f+g+ .F h+, i+j+t K O k+l+R.] _+  ",
"  m+n+_ |+x u f B |.].k+6 o+]+c.p+*+q+r+    ",
"  s+t+X @.B.u+>.P R e.v+>.}.w+d.#+J x+y+    ",
"z+A+B+P.@ ^+& o  .. C+D+E+O.:.d+k+F+G+H+I+  ",
"  _+J+J K+L+>.S M+N+N O+P+k+Q+4 ] @ R+I     ",
"  I.K 2 s.=+7+g+Y.C+t S+T+U++.-.V+] L T.>+  ",
"W+X+2 Y+Z+- Y ) K+`+P F+2 d+z.A l 2.!  @.@  ",
"  +@M f ) g+(+R.4 + @@#@1 5 $@%@&@*@A.=@    ",
"  -@;@^+2 >@2 ,@'@o+%+)@!@~@! >@*+6 {@]@^@  ",
"    /@#.5 (@_@Q :@1 <@2+H [@}@|@1@2@3@4@    ",
"  X+5@6@7@8@G.9@0@E a@' b@c@d@e@f@b@g@h@    ",
"    i@j@k@#.f@l@Z.<@= m@U+n@o@p@q@r@s@^@    ",
"    i@t@u@2.v@w@x@y@, z@S A@B@C@D@e@s@      ",
"    E@F@/+G@H@I@J@K@7 L@n M@N@O@D !+P@      ",
"      s@q@Q@R@l@S@4 ~+2 !+T@U@V@x+W@^@      ",
"      X@x+Y@n+r :+f@d.7@A@Z@x+`@v@ #        ",
"      ^@.#g+/+X@+#@#m ##$#%#b@R+#.&#        ",
"        *#c+=#o@-#  ;#>#^@,#-.{.'#          ",
"        )#!#~#b@{#      ]#v@w ^#/#^@        ",
"      ^@(#_#:#<#{#      ^@i.[#K@}#|#        ",
"        w@1##.2#|#        3#4#s.5#-#        ",
"          6#6#{#            6#6#{#          "};
