/* XPM */
static char * wolfNormalBack3_xpm[] = {
"23 42 443 2",
"  	c #FFFFFD",
". 	c #A2876B",
"+ 	c #947E60",
"@ 	c #CBB293",
"# 	c #B19779",
"$ 	c #D2BB9B",
"% 	c #725D40",
"& 	c #C2AA8B",
"* 	c #E0C7A7",
"= 	c #CAB192",
"- 	c #887054",
"; 	c #AC9275",
"> 	c #D9C1A1",
", 	c #D8BD9E",
"' 	c #A79172",
") 	c #776146",
"! 	c #DDC3A4",
"~ 	c #CEAF93",
"{ 	c #D8BFA0",
"] 	c #957C5F",
"^ 	c #8C7457",
"/ 	c #796347",
"( 	c #8A7256",
"_ 	c #7E684B",
": 	c #836B4F",
"< 	c #876F53",
"[ 	c #AF9477",
"} 	c #DBC0A2",
"| 	c #D0B194",
"1 	c #BEA787",
"2 	c #7F6951",
"3 	c #CDB193",
"4 	c #C3A488",
"5 	c #D8BC9E",
"6 	c #B1987A",
"7 	c #796346",
"8 	c #866F52",
"9 	c #C0A688",
"0 	c #7B6548",
"a 	c #816A4D",
"b 	c #7E674B",
"c 	c #CFB496",
"d 	c #D3B698",
"e 	c #BD9F83",
"f 	c #C3A78A",
"g 	c #5C4B37",
"h 	c #423523",
"i 	c #5B4A32",
"j 	c #9C8269",
"k 	c #A58A6E",
"l 	c #A3886C",
"m 	c #A88D71",
"n 	c #A2886B",
"o 	c #8D7558",
"p 	c #C4A589",
"q 	c #D9BFA0",
"r 	c #BEA084",
"s 	c #947B5E",
"t 	c #846D50",
"u 	c #B89B7F",
"v 	c #A3876B",
"w 	c #A2866A",
"x 	c #B3967A",
"y 	c #6E5A45",
"z 	c #5E4C34",
"A 	c #51412C",
"B 	c #A1866A",
"C 	c #A08569",
"D 	c #937A5E",
"E 	c #AA8E72",
"F 	c #90775B",
"G 	c #9A8064",
"H 	c #B79A7E",
"I 	c #B6997D",
"J 	c #8A7255",
"K 	c #A08669",
"L 	c #9E8468",
"M 	c #897154",
"N 	c #9B8164",
"O 	c #A98D71",
"P 	c #887053",
"Q 	c #3F3220",
"R 	c #7F694F",
"S 	c #B99B7F",
"T 	c #B6987C",
"U 	c #957B5F",
"V 	c #92795D",
"W 	c #C1A387",
"X 	c #D0B496",
"Y 	c #AC9074",
"Z 	c #BB9D81",
"` 	c #D0B597",
" .	c #B4977B",
"..	c #977E61",
"+.	c #B5987C",
"@.	c #5A4932",
"#.	c #4E3F2A",
"$.	c #5F4D35",
"%.	c #856E52",
"&.	c #A88C70",
"*.	c #C8AE90",
"=.	c #B29679",
"-.	c #D5BC9C",
";.	c #B19478",
">.	c #C4A78A",
",.	c #AB9375",
"'.	c #7F694C",
").	c #897155",
"!.	c #7C664B",
"~.	c #877055",
"{.	c #A0866D",
"].	c #987E62",
"^.	c #997F63",
"/.	c #DEC4A5",
"(.	c #A68B6E",
"_.	c #A68A6E",
":.	c #9D8366",
"<.	c #BFA084",
"[.	c #826B4F",
"}.	c #977D63",
"|.	c #635037",
"1.	c #4D3E29",
"2.	c #846D51",
"3.	c #B69B7E",
"4.	c #B09377",
"5.	c #A5896D",
"6.	c #80694C",
"7.	c #8F765A",
"8.	c #B19579",
"9.	c #876F52",
"0.	c #9D8266",
"a.	c #B99D80",
"b.	c #9A8165",
"c.	c #735E44",
"d.	c #3F3221",
"e.	c #806A52",
"f.	c #6B583C",
"g.	c #B49C7E",
"h.	c #C8AB8E",
"i.	c #8A7356",
"j.	c #AF9377",
"k.	c #B29579",
"l.	c #BB9F82",
"m.	c #9D8768",
"n.	c #645137",
"o.	c #826C56",
"p.	c #79634C",
"q.	c #947B62",
"r.	c #A99377",
"s.	c #91785C",
"t.	c #7A6447",
"u.	c #A58B6E",
"v.	c #BBA083",
"w.	c #BAA082",
"x.	c #A1876B",
"y.	c #A4896D",
"z.	c #B5997D",
"A.	c #866E52",
"B.	c #78654D",
"C.	c #AA8E73",
"D.	c #5F4D38",
"E.	c #6A563D",
"F.	c #A78C6F",
"G.	c #967D60",
"H.	c #877154",
"I.	c #9B8266",
"J.	c #CFB395",
"K.	c #C3A689",
"L.	c #9B8165",
"M.	c #B69C7E",
"N.	c #B9A082",
"O.	c #8E7659",
"P.	c #977D61",
"Q.	c #54432D",
"R.	c #463725",
"S.	c #64513B",
"T.	c #856E51",
"U.	c #9C8266",
"V.	c #887154",
"W.	c #BA9E81",
"X.	c #AB8F73",
"Y.	c #A78B6F",
"Z.	c #9B8064",
"`.	c #766043",
" +	c #91785B",
".+	c #453724",
"++	c #584730",
"@+	c #645238",
"#+	c #7F684C",
"$+	c #877053",
"%+	c #7D674A",
"&+	c #967C60",
"*+	c #D4B699",
"=+	c #B2977A",
"-+	c #D1B396",
";+	c #B19578",
">+	c #987F62",
",+	c #735E41",
"'+	c #786346",
")+	c #5D4B33",
"!+	c #413422",
"~+	c #68553A",
"{+	c #90775A",
"]+	c #92795C",
"^+	c #756043",
"/+	c #776144",
"(+	c #D5BC9D",
"_+	c #C1A689",
":+	c #745F42",
"<+	c #766144",
"[+	c #9E8367",
"}+	c #5C4B33",
"|+	c #7D6649",
"1+	c #826B4E",
"2+	c #937A5D",
"3+	c #856D51",
"4+	c #C9AF91",
"5+	c #776245",
"6+	c #4E3E2A",
"7+	c #423422",
"8+	c #8B7256",
"9+	c #A08568",
"0+	c #AE9276",
"a+	c #8D7458",
"b+	c #AD9074",
"c+	c #836C4F",
"d+	c #3F3121",
"e+	c #6A563B",
"f+	c #9A7F63",
"g+	c #A78C70",
"h+	c #C6A78B",
"i+	c #AD9175",
"j+	c #A48B6E",
"k+	c #B89A7E",
"l+	c #766044",
"m+	c #5C4A33",
"n+	c #9D8367",
"o+	c #C9A98D",
"p+	c #C0A286",
"q+	c #80694D",
"r+	c #56452F",
"s+	c #6D593D",
"t+	c #8E7559",
"u+	c #B3977A",
"v+	c #D9BE9F",
"w+	c #BA9C80",
"x+	c #483A27",
"y+	c #6A573C",
"z+	c #C0A588",
"A+	c #8B7356",
"B+	c #A78D70",
"C+	c #735D40",
"D+	c #624F36",
"E+	c #50412E",
"F+	c #8E765C",
"G+	c #735F43",
"H+	c #BEA687",
"I+	c #BEA285",
"J+	c #B4987B",
"K+	c #9F8569",
"L+	c #7C6649",
"M+	c #A48A6D",
"N+	c #AC9576",
"O+	c #8E775F",
"P+	c #6E5B44",
"Q+	c #AF987C",
"R+	c #AD9376",
"S+	c #9E8568",
"T+	c #B99E81",
"U+	c #C3AA8B",
"V+	c #A98E71",
"W+	c #D1B698",
"X+	c #9F8468",
"Y+	c #B79C7F",
"Z+	c #8C7558",
"`+	c #7F684B",
" @	c #C9AC8F",
".@	c #7D6951",
"+@	c #67543C",
"@@	c #5D4C37",
"#@	c #5C4B36",
"$@	c #856F52",
"%@	c #D3B89A",
"&@	c #C1A588",
"*@	c #C7A88C",
"=@	c #A88E71",
"-@	c #866E51",
";@	c #C1A98A",
">@	c #4D3D29",
",@	c #B7997D",
"'@	c #7C6549",
")@	c #9C8165",
"!@	c #8C7357",
"~@	c #493A27",
"{@	c #53493C",
"]@	c #5F4D34",
"^@	c #C5AB8D",
"/@	c #B4997C",
"(@	c #AA9173",
"_@	c #AC9073",
":@	c #544633",
"<@	c #4D4335",
"[@	c #757472",
"}@	c #AF9A86",
"|@	c #947B5F",
"1@	c #7F684D",
"2@	c #CFB597",
"3@	c #E0C8A8",
"4@	c #B79D80",
"5@	c #7A6449",
"6@	c #9D9288",
"7@	c #636260",
"8@	c #434343",
"9@	c #71614E",
"0@	c #8E8475",
"a@	c #807567",
"b@	c #756857",
"c@	c #A58A6F",
"d@	c #5D4C36",
"e@	c #CEB194",
"f@	c #997F62",
"g@	c #604F3A",
"h@	c #AA8F72",
"i@	c #79654B",
"j@	c #756B5D",
"k@	c #897F71",
"l@	c #8C7C69",
"m@	c #585148",
"n@	c #A7A5A3",
"o@	c #85817C",
"p@	c #8B8173",
"q@	c #898989",
"r@	c #97938E",
"s@	c #8B7459",
"t@	c #7C664A",
"u@	c #574630",
"v@	c #C2A488",
"w@	c #4B3C29",
"x@	c #7E6850",
"y@	c #82725C",
"z@	c #90908F",
"A@	c #969593",
"B@	c #7C7163",
"C@	c #9C9893",
"D@	c #A1A1A1",
"E@	c #565656",
"F@	c #525252",
"G@	c #8A8A8A",
"H@	c #787878",
"I@	c #AFADAA",
"J@	c #767068",
"K@	c #6D5B42",
"L@	c #67543E",
"M@	c #A1876A",
"N@	c #E2C9A9",
"O@	c #C1A487",
"P@	c #69563C",
"Q@	c #4F3F2B",
"R@	c #817E7A",
"S@	c #A2A09E",
"T@	c #7A7A7A",
"U@	c #7D7D7D",
"V@	c #494949",
"W@	c #616161",
"X@	c #4C4C4C",
"Y@	c #8D8D8D",
"Z@	c #8E8E8D",
"`@	c #868686",
" #	c #777777",
".#	c #6E5E48",
"+#	c #66533E",
"@#	c #E7CFAE",
"##	c #AC9075",
"$#	c #5E4D38",
"%#	c #716E6C",
"&#	c #919191",
"*#	c #838383",
"=#	c #8E8E8E",
"-#	c #515151",
";#	c #9F9D9A",
">#	c #999898",
",#	c #6B6051",
"'#	c #54442E",
")#	c #E1C8A8",
"!#	c #DCC1A2",
"~#	c #BB9E82",
"{#	c #836D55",
"]#	c #55493B",
"^#	c #B9B8B6",
"/#	c #9D9C9B",
"(#	c #969492",
"_#	c #696969",
":#	c #7B7B7B",
"<#	c #565452",
"[#	c #463825",
"}#	c #967D63",
"|#	c #C6A98C",
"1#	c #CCB092",
"2#	c #544838",
"3#	c #989898",
"4#	c #A6A6A6",
"5#	c #6D6D6D",
"6#	c #424242",
"7#	c #5C5C5C",
"8#	c #909090",
"9#	c #959595",
"0#	c #878787",
"a#	c #64605A",
"b#	c #78644F",
"c#	c #7F6F59",
"d#	c #6D5D48",
"e#	c #554A3B",
"f#	c #454545",
"g#	c #767676",
"h#	c #9B9B9B",
"i#	c #A3A3A3",
"j#	c #514D47",
"k#	c #6C5840",
"l#	c #746754",
"m#	c #BDBAB5",
"n#	c #949291",
"o#	c #56524D",
"p#	c #606060",
"q#	c #545454",
"r#	c #727272",
"s#	c #747474",
"t#	c #4A4034",
"u#	c #4A4033",
"v#	c #A7A5A2",
"w#	c #BCBBB8",
"x#	c #5A5A5A",
"y#	c #737373",
"z#	c #4F4F4F",
"A#	c #757575",
"B#	c #555555",
"C#	c #949494",
"D#	c #ACABAA",
"E#	c #A19F9D",
"F#	c #707070",
"G#	c #858585",
"H#	c #626262",
"I#	c #505050",
"J#	c #535353",
"                                  .           ",
"        + @                     # $ %         ",
"        & * =         -       ; > , '         ",
"      ) ! ~ { ] ^ / ( . _ : < [ } | 1         ",
"      2 3 4 5 6 7 _ 8 9 0 a b c d e f g       ",
"  h i j k l m n o . p q r s t u v w x y z     ",
"    A B C D ^ E F G H u I J K L M N O P Q     ",
"  h R S T P U V W X Y u Z `  .M o ..r +.@.    ",
"    #.$.%.&.&.0 *.H =.-.;.>.,.'.r ).!.$.      ",
"  h ~.{.).] r ].E ^.e /.(.. _.:.<.[.}.{.|.    ",
"    1.2.0 3.l 4.5.6.7.8.9.- S 0.a.b.6.c.d.    ",
"    e.f.g.h.i.V _.j.V P ^.k.E _ ; l.m.n.o.    ",
"  p.q.r.8.s.t.u.l v.w.x.= y.z.A.J P 3 B.C.D.  ",
"    E.F.J G.H.c I.O J.K.K.L.M.N.P O.G P.Q.    ",
"  R.S.T.'.U.V.W.5.. X.E &.B Y.a.T.Z.`. +.+    ",
"  ++@+#+$+%+0 &+l r *+=+-+;+>+] ,+8 T.'+)+#.  ",
"  !+~+{+]+,+^+/ /+^.(+> _+$+:+0 ,+<+[+6.++    ",
"    }+|+1+2+3+ +U.P k.4+B J C A.{+- 1+5+6+    ",
"  7+% %+8+9+k 0+ .a+#+&+'+y.b+ .C 0.c+5+|.d+  ",
"  h e+t.f+w g+h+i+r p j+W k+S e 5.G  +l+m+    ",
"    n. +1+&.8.n++.E o+/.p+Y.I ] 4 V.F q+r+    ",
"  h s+/+,+] Z C 5.t+u+v+^.G Y.v w+6.^+:+z     ",
"    x+y+_ z+. Y _.P A+O M t+S P.l.B+C+D+Q     ",
"  E+F+G+H+I+t F _.J+^.< K+I Y.L+M+u+N+y+O+    ",
"  P+@.Q+m c+7 R+S+T+U+V+W+X+Y+Z+6.`+ @.@+@@@  ",
"    #@y.b % $@%@:.9.&@*@=@-@Y+;@,+:+V G d.    ",
"  >@+@%+L+U A+,@'@6.k y.)@:+!@u O.a 0 M #.~@  ",
"  {@]@3+_.&.)@L.<+b ^@/@(@:+L+k _@o V+0 :@<@  ",
"    [@}@F J a t |@1@2@3@4@5@M !@P `+O 6@7@    ",
"    8@9@0@a@b@J c@d@E e@f@g@h@i@j@k@l@m@      ",
"    n@o@p@q@r@s@t@u@&+v@V.w@x@y@z@A@B@C@D@    ",
"    E@F@G@H@I@J@K@L@M@N@O@P@Q@R@S@T@U@V@W@    ",
"    8@X@Y@Z@`@ #.#+#B @#N@##$#%#&#*#=#F@      ",
"      8@-#;#># #,#'#C )#!#~#{#]#^#/#(#8@      ",
"        X@_#:# #<#[#}#|#1#V G.2#3#4#5#6#      ",
"          7#8#9#0#a#b#&.J c#d#e#D@U@f#        ",
"          8@g#h#i#H@j#k#l#m#n#o#*#p#          ",
"            q#r#s#W@  t#u#v#w#x#y#z#          ",
"              8@8@    q#A#s#H@p#B#            ",
"                      q#C#D#E#r#8@            ",
"                      -#F#C#G#H#              ",
"                        I#J#J#                "};
