/* XPM */
static char * wolfAngryRight1_xpm[] = {
"49 32 462 2",
"  	c #FFFFFD",
". 	c #E3E2E8",
"+ 	c #B4B4C4",
"@ 	c #D8D8E1",
"# 	c #EAEAEF",
"$ 	c #AAAABC",
"% 	c #CECDD7",
"& 	c #EFEDF0",
"* 	c #E2E1E8",
"= 	c #DDDDE5",
"- 	c #D1D0D9",
"; 	c #EFEEF0",
"> 	c #B9B8C7",
", 	c #DEDCE2",
"' 	c #B4B4C0",
") 	c #9D9DAF",
"! 	c #7E7E8E",
"~ 	c #AEAEBF",
"{ 	c #D4D3DD",
"] 	c #A9A9BA",
"^ 	c #D7D6DE",
"/ 	c #D1D1DB",
"( 	c #B1B1C1",
"_ 	c #BDBDCB",
": 	c #757585",
"< 	c #868696",
"[ 	c #7D7D8E",
"} 	c #A7A7B7",
"| 	c #AFAFBF",
"1 	c #9F9FB1",
"2 	c #A3A3B5",
"3 	c #D1D1DC",
"4 	c #D5D5DE",
"5 	c #DAD9E0",
"6 	c #AFAFC0",
"7 	c #737383",
"8 	c #AEAEBD",
"9 	c #AAAAB7",
"0 	c #6F6F7F",
"a 	c #B2B2C2",
"b 	c #B9B9C7",
"c 	c #BBBBC9",
"d 	c #E1E0E6",
"e 	c #DFDFE6",
"f 	c #C8C8D5",
"g 	c #EDECEF",
"h 	c #CFCED8",
"i 	c #CECED9",
"j 	c #6E6E7F",
"k 	c #6E6E7E",
"l 	c #C5C3C9",
"m 	c #A3A3AC",
"n 	c #767686",
"o 	c #A7A7B5",
"p 	c #C5C4CB",
"q 	c #8C8C9D",
"r 	c #AFAFBC",
"s 	c #808090",
"t 	c #BBBAC3",
"u 	c #9191A2",
"v 	c #9D9DA8",
"w 	c #C3C2CF",
"x 	c #9696A7",
"y 	c #89899A",
"z 	c #CCCCD8",
"A 	c #DDDCE3",
"B 	c #EDECEE",
"C 	c #EEEDF0",
"D 	c #DCDCE5",
"E 	c #F3F1F2",
"F 	c #F7F6F6",
"G 	c #F6F4F5",
"H 	c #E3E3E9",
"I 	c #A3A3B4",
"J 	c #9696A9",
"K 	c #747485",
"L 	c #ACACB6",
"M 	c #808091",
"N 	c #9A9AAB",
"O 	c #D0D0DA",
"P 	c #BFBFCC",
"Q 	c #A2A2B3",
"R 	c #C0C0CD",
"S 	c #E6E6EB",
"T 	c #BABAC9",
"U 	c #B0AFBD",
"V 	c #E7E6EB",
"W 	c #AFAFBD",
"X 	c #9494A2",
"Y 	c #B7B7C6",
"Z 	c #9898AA",
"` 	c #818192",
" .	c #A9A9B8",
"..	c #D8D7DE",
"+.	c #E7E7EB",
"@.	c #F3F2F5",
"#.	c #F9F8F8",
"$.	c #F4F3F4",
"%.	c #E5E3E8",
"&.	c #D6D5DE",
"*.	c #F0EEF0",
"=.	c #C9C9D5",
"-.	c #D4D3DC",
";.	c #8D8D9F",
">.	c #9292A4",
",.	c #9494A6",
"'.	c #A3A3B3",
").	c #CECDD5",
"!.	c #CAC9D3",
"~.	c #C2C2D0",
"{.	c #B5B5C4",
"].	c #8B8B9C",
"^.	c #8A8A9B",
"/.	c #A6A6B3",
"(.	c #B0B0C1",
"_.	c #9F9FAF",
":.	c #AEADB9",
"<.	c #ABABB9",
"[.	c #D6D5DC",
"}.	c #BBBBCA",
"|.	c #BEBECC",
"1.	c #8E8E9F",
"2.	c #9D9DAE",
"3.	c #CACAD6",
"4.	c #E4E3E9",
"5.	c #EBEAED",
"6.	c #D3D2DC",
"7.	c #CBCBD7",
"8.	c #9090A1",
"9.	c #9A9AAD",
"0.	c #EAE8EB",
"a.	c #CBCAD3",
"b.	c #B0B0BF",
"c.	c #DFDEE5",
"d.	c #E4E2E7",
"e.	c #A8A8B9",
"f.	c #BCBCCA",
"g.	c #C1C1CF",
"h.	c #CBCBD6",
"i.	c #B8B8C7",
"j.	c #B6B6C5",
"k.	c #CDCDD8",
"l.	c #888897",
"m.	c #C8C8D3",
"n.	c #DBDAE0",
"o.	c #C6C5D1",
"p.	c #D9D8E0",
"q.	c #ABABBB",
"r.	c #9999AA",
"s.	c #D2D2DC",
"t.	c #ECEBEE",
"u.	c #DFDEE6",
"v.	c #D9D9E2",
"w.	c #A5A5B4",
"x.	c #7D786D",
"y.	c #93939E",
"z.	c #C9C9D3",
"A.	c #C0C0CC",
"B.	c #727282",
"C.	c #DFDDE3",
"D.	c #A3A2B3",
"E.	c #7B7B8C",
"F.	c #8D8D9E",
"G.	c #BABAC8",
"H.	c #BFBFCD",
"I.	c #B2B2C0",
"J.	c #DBDBE4",
"K.	c #9898A7",
"L.	c #C3C3D0",
"M.	c #D3D3DE",
"N.	c #B0B0BE",
"O.	c #C0C0CE",
"P.	c #A4A4B3",
"Q.	c #BCBBC9",
"R.	c #DCDBE2",
"S.	c #B0B0BD",
"T.	c #CCCCD6",
"U.	c #D5D5DD",
"V.	c #E2E2E8",
"W.	c #EAE9ED",
"X.	c #BBBBC8",
"Y.	c #C3AF5B",
"Z.	c #64574F",
"`.	c #C1C1CE",
" +	c #A4A4B4",
".+	c #747484",
"++	c #626271",
"@+	c #A1A1B0",
"#+	c #C9C9D4",
"$+	c #888898",
"%+	c #787888",
"&+	c #797989",
"*+	c #9797A9",
"=+	c #C7C7D3",
"-+	c #CCCCD7",
";+	c #C8C8D4",
">+	c #A1A1B2",
",+	c #9090A0",
"'+	c #A9A9B9",
")+	c #A0A0B2",
"!+	c #B3B3C3",
"~+	c #D0D0D9",
"{+	c #BDBDCA",
"]+	c #9B9BAC",
"^+	c #878798",
"/+	c #A5A5B6",
"(+	c #9C9CAE",
"_+	c #9595A6",
":+	c #A6A5B0",
"<+	c #E7E5E8",
"[+	c #EEEDEF",
"}+	c #E9E8ED",
"|+	c #E1E0E7",
"1+	c #F8F7F7",
"2+	c #D4D3DB",
"3+	c #969394",
"4+	c #9D7934",
"5+	c #81785A",
"6+	c #A6A6B6",
"7+	c #777787",
"8+	c #E1E0E5",
"9+	c #CDCCD6",
"0+	c #C0BFCC",
"a+	c #B7B7C7",
"b+	c #ABABBC",
"c+	c #9B9BAD",
"d+	c #9494A5",
"e+	c #C5C5D2",
"f+	c #9797A7",
"g+	c #888899",
"h+	c #7C7C8C",
"i+	c #A5A4AF",
"j+	c #AEADB7",
"k+	c #ACACBD",
"l+	c #C4C4D1",
"m+	c #848494",
"n+	c #F5F4F6",
"o+	c #EEEDF1",
"p+	c #D0CFD9",
"q+	c #CCCBD5",
"r+	c #E0E0E7",
"s+	c #CDCDD9",
"t+	c #D4D4DE",
"u+	c #7A7A8B",
"v+	c #9A9AAA",
"w+	c #BEBECB",
"x+	c #C6C6D3",
"y+	c #D9D8E1",
"z+	c #9D9DAD",
"A+	c #A6A6B8",
"B+	c #8F8FA0",
"C+	c #A5A5B7",
"D+	c #A8A8BA",
"E+	c #A7A7B9",
"F+	c #9696A8",
"G+	c #C5C5CE",
"H+	c #79798A",
"I+	c #858595",
"J+	c #E2E1E7",
"K+	c #E2E1E6",
"L+	c #AEAEBE",
"M+	c #CECED8",
"N+	c #CFCFD9",
"O+	c #E4E3E7",
"P+	c #F2F0F1",
"Q+	c #F6F5F6",
"R+	c #FBFAFB",
"S+	c #F4F4F6",
"T+	c #CECEDA",
"U+	c #565664",
"V+	c #ABABBA",
"W+	c #AAAABB",
"X+	c #8C8C9C",
"Y+	c #8B8B9D",
"Z+	c #88889A",
"`+	c #9595A8",
" @	c #A2A2B4",
".@	c #7C7C8D",
"+@	c #9C9CAD",
"@@	c #DBDAE2",
"#@	c #9B9BAA",
"$@	c #858596",
"%@	c #B0AFB9",
"&@	c #D9D7DD",
"*@	c #E8E6EB",
"=@	c #B3B3BF",
"-@	c #6F6F7D",
";@	c #513B4D",
">@	c #6D6574",
",@	c #C7C6CA",
"'@	c #FBF9F9",
")@	c #D9D9E1",
"!@	c #757583",
"~@	c #838393",
"{@	c #696979",
"]@	c #A7A7B8",
"^@	c #8F8FA2",
"/@	c #9494A4",
"(@	c #A3A3B6",
"_@	c #ACACBC",
":@	c #A6A6B7",
"<@	c #ADADBD",
"[@	c #7B7B8B",
"}@	c #9F9FAE",
"|@	c #C8C7D0",
"1@	c #878799",
"2@	c #9E9EB0",
"3@	c #E3E1E6",
"4@	c #DCDCE4",
"5@	c #D9D7DC",
"6@	c #ACACB7",
"7@	c #4E2C40",
"8@	c #633249",
"9@	c #5E3E51",
"0@	c #8E8E97",
"a@	c #E8E7E8",
"b@	c #EFEEF2",
"c@	c #A2A2AF",
"d@	c #8A8A9C",
"e@	c #7A7A8A",
"f@	c #9797AA",
"g@	c #797987",
"h@	c #D0CFDB",
"i@	c #9998A2",
"j@	c #C6C6D2",
"k@	c #8C8C9E",
"l@	c #9191A3",
"m@	c #9393A2",
"n@	c #AEAEBC",
"o@	c #89899B",
"p@	c #9090A2",
"q@	c #868694",
"r@	c #D7D5DB",
"s@	c #928F9B",
"t@	c #726674",
"u@	c #8C7784",
"v@	c #796070",
"w@	c #734F61",
"x@	c #634D5E",
"y@	c #8F8FA1",
"z@	c #C5C5D3",
"A@	c #868695",
"B@	c #A5A4B1",
"C@	c #9A9AAC",
"D@	c #A2A2B1",
"E@	c #7F7F8F",
"F@	c #6D6D7C",
"G@	c #CAC9D4",
"H@	c #8E8EA0",
"I@	c #9797A6",
"J@	c #ACACB9",
"K@	c #838392",
"L@	c #9595A7",
"M@	c #818193",
"N@	c #838391",
"O@	c #8C8C9F",
"P@	c #666676",
"Q@	c #A0A0B0",
"R@	c #717181",
"S@	c #9D9CA4",
"T@	c #A5A4AE",
"U@	c #744C60",
"V@	c #AC919D",
"W@	c #794C5F",
"X@	c #AAAAB9",
"Y@	c #8F8F9E",
"Z@	c #BCBCCB",
"`@	c #C1C1CC",
" #	c #D6D6DF",
".#	c #A3A3B1",
"+#	c #656574",
"@#	c #858597",
"##	c #666675",
"$#	c #9E9EAF",
"%#	c #9F9FB0",
"&#	c #A0A0B1",
"*#	c #A2A2AC",
"=#	c #CDCCD7",
"-#	c #838394",
";#	c #828293",
">#	c #C1C0C8",
",#	c #9393A1",
"'#	c #A8A8B7",
")#	c #6B6B7B",
"!#	c #666674",
"~#	c #828291",
"{#	c #ACACBB",
"]#	c #92929E",
"^#	c #A8A8B8",
"/#	c #CACAD5",
"(#	c #DAD9E2",
"_#	c #DCDBE4",
":#	c #A9A9B7",
"<#	c #676776",
"[#	c #585866",
"}#	c #60606F",
"|#	c #868697",
"1#	c #91919E",
"2#	c #9696A6",
"3#	c #9493A1",
"4#	c #B6B6C4",
"5#	c #808092",
"6#	c #C1C0CA",
"7#	c #9F9FA9",
"8#	c #707080",
"9#	c #8B8B98",
"0#	c #A0A0AE",
"a#	c #C4C4D2",
"b#	c #616170",
"c#	c #AFAFBE",
"d#	c #CACAD3",
"e#	c #EAE8EC",
"f#	c #767685",
"g#	c #555564",
"h#	c #C0C0CB",
"i#	c #818190",
"j#	c #BAB9C5",
"k#	c #848495",
"l#	c #555563",
"m#	c #717182",
"n#	c #9C9CAC",
"o#	c #F1EFF1",
"p#	c #9696A5",
"q#	c #9898A9",
"r#	c #B0B0C0",
"s#	c #AAAABA",
"t#	c #C3C3D1",
"u#	c #C9C8D1",
"v#	c #838395",
"w#	c #A0A0AF",
"x#	c #C8C8D2",
"y#	c #A5A5B2",
"z#	c #CFCFDB",
"A#	c #A9A8B4",
"B#	c #5B5B6A",
"C#	c #A1A1B3",
"D#	c #848496",
"E#	c #686877",
"F#	c #5E5E6C",
"G#	c #9A9AA7",
"H#	c #C8C7D4",
"I#	c #C6C6D0",
"J#	c #85858F",
"K#	c #878797",
"L#	c #9898AB",
"M#	c #5F5F6D",
"N#	c #80808E",
"O#	c #E1E1E7",
"P#	c #ABAAB1",
"Q#	c #C0C0CF",
"R#	c #A9A8B2",
"S#	c #6A6A7A",
"T#	c #636372",
"U#	c #656575",
"V#	c #E4E3EA",
"W#	c #90909D",
"X#	c #ACACB8",
"Y#	c #9E9EAE",
"Z#	c #7E7E8C",
"`#	c #686878",
" $	c #767681",
".$	c #A8A7B1",
"                                                                                                  ",
"                                                                      .                           ",
"                                                                    + @ #   $                     ",
"                                                                    % & * = $ $                   ",
"                                                                    - ; > , ' ) $                 ",
"                                                                  ! ~ { ] ^ / ( _                 ",
"                                                            : < [ } | 1 2 3 @ 4 5   6             ",
"                                                    7 <   [ 8 9 0 a b c d e f g * h i             ",
"                        j 0     k l m n o p q 0 r s t u 0 v w x y z A B C D * E F G H             ",
"  I J                   K _ L M N O g P Q R S T U V W X Y Z `  ...+.@.@.@.#.$.%.&.G *.=.          ",
"  -.J             0 ;.>.,.'.).!.$ ~._ {.].^./.(._.:.<.M [.}.|.1.2.3.4.5.H . V d 6.4 . 7.8.        ",
"9.0.a.            0 b.c.d.e.1.f.g.a h.i.j.k.Q ^.l.1.m.n.o.p.q.n r.s.0.t.u.v.w.x.y.z.A.l.B.        ",
"J C.m.D.j       E.F.G.g.H.) I.3.J.b K.f.L.M.N.q O.P.u Q.R.$ x S.T.U.V.V V W.X.Y.Z.y.`. +.+        ",
"++@+~.#+ .$+%+%+&+*+=+-+;+>+,+a a '+)+!+J.~+{+]+^+/+(+_+8 r  +:+<+[+}+= |+1+2+3+4+5+y.U.6+7+      ",
"  E.| A 8+9+0+a+b+c+d+$ /+E.Q $ $ ].N O.e+f+g+g+h+i+j++ k+g.l+x m+6 e+O.l+n+o+p+q+e r+s+t+]+u+    ",
"    v+w+x+s.y+|.1 7+z+i ;+r.A+L.B+C+D+E+F+` c+y G+d 0+l+i.s.( H+I+J+K+e+L+M+N+O+P+Q+R+S+o+T+6+U+  ",
"      8.V+f $ W+q B+a z.Q X+e+_ Y+>+Z+M J J `+ @[ .@+@@@i #@y $@%@&@M+*@w =@-@U+;@>@,@'@# C )@!@  ",
"        .@~@~@~@{@B.]@'.^@X+/@(@_@:@J F+:@T <@ @J q.[@}@+ |@H+H+1@h+2@3@M.4@5@6@7@8@9@0@a@'@b@c@  ",
"                  {@8.g+`+d@e@)+f@g@h@x i@j@k@1 w <@l@m@/+o n@,+} o@{@X.#@p@q@L.r@s@t@u@v@w@x@g@  ",
"                  H+y@:@F+Q 1 z@{.A@B@C@D@E@F@T G@J H@I@J@[ N.u+K@L@M@N@u+O@P@g@Q@R@S@T@U@V@W@    ",
"                  7 X@Y@Z@`@ #|+c..#+#@#H@##$#%#A@Z@l@%+&#*#=#-#;#>#,#'#'+)#    !#    ~#{#]#      ",
"                  U+^#/#X.(#_#T :#m+ @u+<#[#7+}#n 7+|#1#2#3#4#5#c@w.7+6#7#              8#        ",
"                  9#$#2@f.c.<@0#! >+a#L@b#        U+;#%+c#d#e#{#f#M g#  h#                        ",
"                  g#i#6 s+j#k#l#m#c+/+n#g#        {@d@++n#/#o#p#U+                                ",
"                  U+q#r#r##@b#  g#p@s#H.7         E.J k@~#t#t+5#                                  ",
"                  ].i u#v#        +#J ] w#        F.|.k@<#x#@ y#                                  ",
"                P@+ z#A#B#          -#H.C#D#    E#j.W+n F#G#H#I#J#                                ",
"                P@+ k.K#            7 J E.v#{@  E#L#k@k@M#N#O#F P#                                ",
"                P@+ W.Q#R#            R@##S#U+  T#.+U#n U+8#% * V#W#                              ",
"                ##*+w+I+X#U+                                Y@_ Y#X@Z#                            ",
"                  k H+`#k U+                                  9# $.$l#                            ",
"                                                                                                  "};
