/* XPM */
static char * wolfNormalLeft1_xpm[] = {
"50 32 530 2",
"  	c #FFFFFD",
". 	c #A1866A",
"+ 	c #735E41",
"@ 	c #C7B196",
"# 	c #958674",
"$ 	c #7E674A",
"% 	c #C3A88A",
"& 	c #B9B5AF",
"* 	c #CABEB0",
"= 	c #826D52",
"- 	c #5E4C34",
"; 	c #967D61",
"> 	c #A89482",
", 	c #AFADAA",
"' 	c #DED9D2",
") 	c #8D7C64",
"! 	c #796347",
"~ 	c #766145",
"{ 	c #A68B6F",
"] 	c #988878",
"^ 	c #A19F9E",
"/ 	c #BBB9B6",
"( 	c #796954",
"_ 	c #3F3221",
": 	c #756043",
"< 	c #A98D71",
"[ 	c #987E62",
"} 	c #9F8569",
"| 	c #876F52",
"1 	c #7B7874",
"2 	c #848484",
"3 	c #82705A",
"4 	c #4F402B",
"5 	c #52422C",
"6 	c #3E3121",
"7 	c #796346",
"8 	c #90775B",
"9 	c #937A5E",
"0 	c #B6987C",
"a 	c #AD9175",
"b 	c #8A7255",
"c 	c #BAA183",
"d 	c #8D7A60",
"e 	c #786D5F",
"f 	c #937E67",
"g 	c #443724",
"h 	c #826B50",
"i 	c #594832",
"j 	c #463825",
"k 	c #3E3221",
"l 	c #7D674A",
"m 	c #CAAF91",
"n 	c #BFA286",
"o 	c #D5B89A",
"p 	c #BD9F83",
"q 	c #AE9175",
"r 	c #D0B496",
"s 	c #A88D70",
"t 	c #9C8266",
"u 	c #745F44",
"v 	c #463725",
"w 	c #7A6447",
"x 	c #957C5F",
"y 	c #473927",
"z 	c #705C41",
"A 	c #62503C",
"B 	c #51412C",
"C 	c #614F3A",
"D 	c #614F39",
"E 	c #725E48",
"F 	c #564530",
"G 	c #78634E",
"H 	c #64523E",
"I 	c #977E61",
"J 	c #DBC0A1",
"K 	c #D1B497",
"L 	c #B79C7F",
"M 	c #D5BA9B",
"N 	c #C8AB8E",
"O 	c #D2BA9A",
"P 	c #DBC1A2",
"Q 	c #DCC3A3",
"R 	c #D3BB9B",
"S 	c #C3AA8B",
"T 	c #937A5F",
"U 	c #655238",
"V 	c #5C4B37",
"W 	c #665339",
"X 	c #766147",
"Y 	c #5D4C36",
"Z 	c #8B7358",
"` 	c #A68B70",
" .	c #735E43",
"..	c #7C664C",
"+.	c #B09377",
"@.	c #8E7559",
"#.	c #715D40",
"$.	c #887057",
"%.	c #C0A286",
"&.	c #8D7459",
"*.	c #4E3F2A",
"=.	c #453725",
"-.	c #756049",
";.	c #787878",
">.	c #80694F",
",.	c #C7A78B",
"'.	c #A88C70",
").	c #9C8668",
"!.	c #A98F72",
"~.	c #BC9E82",
"{.	c #AD9074",
"].	c #7C6649",
"^.	c #604E37",
"/.	c #8B7357",
"(.	c #7E6850",
"_.	c #4D3E2A",
":.	c #947B61",
"<.	c #8F765B",
"[.	c #5D4B33",
"}.	c #866E52",
"|.	c #756048",
"1.	c #574630",
"2.	c #67543B",
"3.	c #8F765A",
"4.	c #6B573C",
"5.	c #483A27",
"6.	c #3E3220",
"7.	c #838382",
"8.	c #B8B6B4",
"9.	c #7E6952",
"0.	c #D6BB9C",
"a.	c #BA9C80",
"b.	c #9E8367",
"c.	c #6A5F3E",
"d.	c #6D5D44",
"e.	c #887054",
"f.	c #A08569",
"g.	c #B29579",
"h.	c #CEAD91",
"i.	c #BFA185",
"j.	c #5F4D36",
"k.	c #8B7256",
"l.	c #B09477",
"m.	c #91785B",
"n.	c #998067",
"o.	c #7B654A",
"p.	c #54442E",
"q.	c #50402B",
"r.	c #675439",
"s.	c #6A563D",
"t.	c #897157",
"u.	c #6A563C",
"v.	c #816A4E",
"w.	c #7B6548",
"x.	c #806A50",
"y.	c #816A4D",
"z.	c #AF9376",
"A.	c #90775A",
"B.	c #5A4931",
"C.	c #B9B6B1",
"D.	c #B8B5B1",
"E.	c #7D674F",
"F.	c #CFB596",
"G.	c #937B5E",
"H.	c #6F6132",
"I.	c #7A5820",
"J.	c #735A2F",
"K.	c #9E8468",
"L.	c #BEA084",
"M.	c #B19579",
"N.	c #9C8567",
"O.	c #907A5C",
"P.	c #826B4E",
"Q.	c #564531",
"R.	c #655239",
"S.	c #7D674B",
"T.	c #5B4A32",
"U.	c #80694E",
"V.	c #55452E",
"W.	c #876F53",
"X.	c #8D7558",
"Y.	c #836B4F",
"Z.	c #8B7359",
"`.	c #5F4D37",
" +	c #8C7357",
".+	c #7E684B",
"++	c #6D593E",
"@+	c #7A6448",
"#+	c #957B5F",
"$+	c #715D44",
"%+	c #4D3E29",
"&+	c #A5A3A1",
"*+	c #AEACAB",
"=+	c #B1AEAA",
"-+	c #50402D",
";+	c #B49B7D",
">+	c #CBAD90",
",+	c #6F5D3F",
"'+	c #A48D26",
")+	c #A38523",
"!+	c #6B582D",
"~+	c #BDA184",
"{+	c #D4B699",
"]+	c #B89D80",
"^+	c #D2B798",
"/+	c #C0A185",
"(+	c #6B573F",
"_+	c #604E35",
":+	c #756047",
"<+	c #6A573C",
"[+	c #574730",
"}+	c #977D61",
"|+	c #68543A",
"1+	c #705C40",
"2+	c #856E51",
"3+	c #7B654B",
"4+	c #786246",
"5+	c #8D7458",
"6+	c #80694D",
"7+	c #594831",
"8+	c #685740",
"9+	c #9C958D",
"0+	c #999999",
"a+	c #82817F",
"b+	c #483A26",
"c+	c #8A7459",
"d+	c #D5B99B",
"e+	c #B2977A",
"f+	c #9A8365",
"g+	c #8C764E",
"h+	c #8A734C",
"i+	c #DFCDB6",
"j+	c #CFC9C3",
"k+	c #877359",
"l+	c #997F62",
"m+	c #796448",
"n+	c #5A4935",
"o+	c #8E755A",
"p+	c #6F5B3F",
"q+	c #756044",
"r+	c #5F4E39",
"s+	c #584733",
"t+	c #443624",
"u+	c #53432F",
"v+	c #7B654C",
"w+	c #967C60",
"x+	c #55452F",
"y+	c #5D4C34",
"z+	c #705C3F",
"A+	c #6A563B",
"B+	c #53432E",
"C+	c #786245",
"D+	c #766144",
"E+	c #6C583D",
"F+	c #6C583C",
"G+	c #705B40",
"H+	c #7D674C",
"I+	c #9D8367",
"J+	c #B5987C",
"K+	c #958676",
"L+	c #746450",
"M+	c #453A2D",
"N+	c #3E3518",
"O+	c #745F45",
"P+	c #D7BE9F",
"Q+	c #CCB497",
"R+	c #F2E4D2",
"S+	c #F2E3D2",
"T+	c #D6C3B1",
"U+	c #B6A697",
"V+	c #C6C3C0",
"W+	c #C7C4C3",
"X+	c #81705A",
"Y+	c #9A8E7D",
"Z+	c #A99C8A",
"`+	c #93887C",
" @	c #473C2E",
".@	c #614E36",
"+@	c #947A5E",
"@@	c #8C7458",
"#@	c #AB8F72",
"$@	c #B2957A",
"%@	c #67543D",
"&@	c #6C5F4D",
"*@	c #6D6150",
"=@	c #705B3F",
"-@	c #725E41",
";@	c #624F36",
">@	c #645239",
",@	c #897154",
"'@	c #4C3D29",
")@	c #B7997D",
"!@	c #9C8265",
"~@	c #947B5F",
"{@	c #604E36",
"]@	c #252505",
"^@	c #574F27",
"/@	c #AF9479",
"(@	c #D7BFA7",
"_@	c #E1D7CC",
":@	c #F3EAE2",
"<@	c #F0EAE7",
"[@	c #DEDAD5",
"}@	c #B0AFAE",
"|@	c #A9A8A8",
"1@	c #A1A1A1",
"2@	c #868685",
"3@	c #A39F9A",
"4@	c #C2BFBC",
"5@	c #D0CCC7",
"6@	c #CECAC5",
"7@	c #84817D",
"8@	c #51432F",
"9@	c #5D4B35",
"0@	c #806A4E",
"a@	c #AA8E72",
"b@	c #64523B",
"c@	c #5E4F3E",
"d@	c #61574A",
"e@	c #757473",
"f@	c #747473",
"g@	c #6C6966",
"h@	c #6E6860",
"i@	c #4F4230",
"j@	c #6F6961",
"k@	c #645D53",
"l@	c #67563F",
"m@	c #584832",
"n@	c #8A7359",
"o@	c #6E593D",
"p@	c #776145",
"q@	c #5C4A32",
"r@	c #021F02",
"s@	c #514F2B",
"t@	c #C8C3B4",
"u@	c #F1EBE8",
"v@	c #F1ECE8",
"w@	c #D1CDC9",
"x@	c #AAA8A6",
"y@	c #7F7F7F",
"z@	c #797979",
"A@	c #C1BFBC",
"B@	c #C9C6C1",
"C@	c #B6B5B3",
"D@	c #AEABA8",
"E@	c #8A8A8A",
"F@	c #5E5E5E",
"G@	c #6E6E6E",
"H@	c #57534E",
"I@	c #4B3C28",
"J@	c #614F37",
"K@	c #615950",
"L@	c #7C7C7C",
"M@	c #828282",
"N@	c #818181",
"O@	c #8B8B8B",
"P@	c #7A7A7A",
"Q@	c #7B7B7B",
"R@	c #919191",
"S@	c #7D7C7C",
"T@	c #6B583C",
"U@	c #7C664B",
"V@	c #514739",
"W@	c #65605B",
"X@	c #816B51",
"Y@	c #69553A",
"Z@	c #473C2F",
"`@	c #5D4C33",
" #	c #433523",
".#	c #2F3830",
"+#	c #A3A296",
"@#	c #E7E2DD",
"##	c #BDBBB9",
"$#	c #B7B5B3",
"%#	c #727271",
"&#	c #737373",
"*#	c #A5A39F",
"=#	c #ADABA8",
"-#	c #B1B1AF",
";#	c #7A7977",
">#	c #858585",
",#	c #A5A5A4",
"'#	c #888786",
")#	c #545454",
"!#	c #8F8F8F",
"~#	c #72716F",
"{#	c #655A4C",
"]#	c #977E62",
"^#	c #725D41",
"/#	c #4D402F",
"(#	c #84827F",
"_#	c #868686",
":#	c #8F8F8E",
"<#	c #8E8E8E",
"[#	c #BEBCB9",
"}#	c #676766",
"|#	c #898989",
"1#	c #939393",
"2#	c #676767",
"3#	c #645C51",
"4#	c #493B28",
"5#	c #6A6662",
"6#	c #5A4C39",
"7#	c #5A4932",
"8#	c #423F3B",
"9#	c #5C5C5C",
"0#	c #888888",
"a#	c #636363",
"b#	c #A7A6A4",
"c#	c #8F8D8B",
"d#	c #878787",
"e#	c #696969",
"f#	c #747474",
"g#	c #7E7E7E",
"h#	c #6D6D6D",
"i#	c #686055",
"j#	c #5E4C35",
"k#	c #79634B",
"l#	c #544736",
"m#	c #C0BEBB",
"n#	c #4E4E4E",
"o#	c #9F9C99",
"p#	c #989898",
"q#	c #7C7A79",
"r#	c #635E58",
"s#	c #4F4F4F",
"t#	c #434343",
"u#	c #565656",
"v#	c #7D7C7A",
"w#	c #4C4C4C",
"x#	c #727272",
"y#	c #686868",
"z#	c #979593",
"A#	c #5A5A5A",
"B#	c #B1ACA8",
"C#	c #584936",
"D#	c #69563D",
"E#	c #4A3E2F",
"F#	c #949494",
"G#	c #757575",
"H#	c #929292",
"I#	c #616161",
"J#	c #505050",
"K#	c #ACABA9",
"L#	c #B3B2B1",
"M#	c #B9B7B4",
"N#	c #848483",
"O#	c #444444",
"P#	c #494949",
"Q#	c #464646",
"R#	c #999795",
"S#	c #A2A2A2",
"T#	c #AFACA9",
"U#	c #534533",
"V#	c #857C6F",
"W#	c #595958",
"X#	c #5B5B5B",
"Y#	c #626262",
"Z#	c #454545",
"`#	c #515151",
" $	c #707070",
".$	c #A3A3A2",
"+$	c #B0AEAD",
"@$	c #B8B7B5",
"#$	c #BEBBB8",
"$$	c #B0AEAB",
"%$	c #A1A0A0",
"&$	c #B1AFAC",
"*$	c #484848",
"=$	c #656565",
"-$	c #A2A1A0",
";$	c #7C776F",
">$	c #83817D",
",$	c #606060",
"'$	c #9F9F9F",
")$	c #838383",
"!$	c #575757",
"~$	c #B4B2B0",
"{$	c #DAD5CF",
"]$	c #A09F9F",
"^$	c #969696",
"/$	c #5F5F5F",
"($	c #C1BEBA",
"_$	c #A4A4A4",
":$	c #424242",
"<$	c #8F8F8D",
"[$	c #B4B3B1",
"}$	c #8C8C8C",
"|$	c #6A6A6A",
"1$	c #9B9B9B",
"2$	c #595959",
"3$	c #A0A0A0",
"4$	c #7E7D7D",
"5$	c #5D5D5D",
"6$	c #8D8D8D",
"7$	c #4D4D4D",
"8$	c #7D7D7D",
"9$	c #B6B3AF",
"0$	c #525252",
"a$	c #747270",
"b$	c #A9A9A9",
"c$	c #B2B0AE",
"d$	c #7E7E7D",
"e$	c #666666",
"f$	c #979797",
"g$	c #909090",
"h$	c #555555",
"i$	c #B7B5B1",
"j$	c #BEBAB8",
"k$	c #D3D0CC",
"l$	c #B5B4B3",
"m$	c #4A4A4A",
"n$	c #777777",
"o$	c #808080",
"p$	c #939291",
"q$	c #E5E1E0",
"r$	c #C9C6C2",
"s$	c #929191",
"t$	c #474747",
"u$	c #646464",
"v$	c #7B7A79",
"w$	c #ABABA9",
"x$	c #C4C2BE",
"y$	c #A7A6A5",
"z$	c #626261",
"A$	c #91908F",
"B$	c #90908F",
"C$	c #918F8C",
"D$	c #94918E",
"E$	c #585858",
"                                                                                                    ",
"                            .                                                                       ",
"                    + +   @ #                                                                       ",
"                    + $ % & * =                                                                     ",
"                  + - ; > , ' )                                                                     ",
"                  ! ~ { ] ^ / ( _                                                                   ",
"                : < [ } | 1 2 3 4 5 6                                                               ",
"            7 8 9 0 a b c d e f - g h i     j k                                                     ",
"            l m n o p . q r s t u v w x y   z A B C   D E F   G H                                   ",
"            I J K L M N O P Q R S T U V W X Y Z `  ...+.@.#.$.%.&.*.=.-.- 6                   ;.    ",
"          >.+.,.'.).!.~.{.q +.. ].W ^.7 /.(._.:.<.[.}.|.1.2.3.@.].+ . :.4.B B 5.6.            7.8.  ",
"          9.0.a.b.c.d.e.f.g.h.i.@.*.j.k.l.m.n.o.p.q.r.s.t.u.v.3.w.e.x.^.y.z.A.B.              C.D.  ",
"          E.F.G.H.I.J.K.L.'.M.N.O.P.Q.R.y.z.S.T. .U.V.W.X.Y.Z.`. +b..+++@+#+9 $+%+          &+*+=+  ",
"        -+;+>+,+'+)+!+~+{+< ]+^+{+/+(+_+/.:+<+W .+[+4.b.f.}+|+1+2+2+3+^.4+5+5+6+7+6.k k p.8+9+0+a+  ",
"      b+c+d+e+f+g+h+8 i+j+k+}+l+m+n+4+o+.+p+q+r+s+t+*.u+v+w+P.x+y++ z+A+B+C+D+E+F+G+p+H+I+J+K+L+M+  ",
"    N+O+P+{+Q+R+S+T+U+V+W+X+Y+Z+`+ @.@6++@.+@@#@$@%@&@*@7+=@+ -@|+E+v.;@>@,@v.'@V.w.,@)@X.!@~@{@    ",
"  ]@^@/@(@_@:@<@[@}@|@1@2@3@4@5@6@7@8@9@0@a@~@b@c@d@e@f@g@h@i@j@k@l@[ y.m@n@}+o@'@p+7 2+x p@q@      ",
"  r@s@t@u@v@w@x@y@z@^ A@B@C@D@E@F@G@H@I@t y.J@K@L@M@N@O@O@P@;.Q@R@S@T@U@V@W@X@Y@Z@*.`@`@`@ #        ",
"  .#+#@###$#%#&#*#=#-#;#>#,#'#)#G@!#~#{#]#^#/#(#_#:#;.<#[#}#|#1#2#Q@3#4#5#;.6#7#8#                  ",
"    9#0#N@a#b#c#2#d#9#e#a#9#;.f#g#a#h#i#j#k#l#;.L@m#0#n#2 h#0#o#e#0#p#M@;.;.q#r#s#                  ",
"      t#u#0+v#    a#  w#e#|#x#y#z#A#_#B#C#D#E#>#F#G#H#9#I#2 2#J#K#L#M#$#N#>#x#0#s#                  ",
"        O#P#            Q#b#R#G@S#I#L@T#U#V#W#f#G@X#I#Y#Z#`#a#;. $.$+$@$#$$$%$y#O#                  ",
"                          &$  *$G#=$-$D.;$>$u#,$t#        ,$>#'$h#h#R@'$$#)$O@2 !$                  ",
"                                *$P#~${$]$2#`#a#          J#y@^$f#`#/$P@($_$;.u#                    ",
"                                  :$<$[$}$|$&#;.`#        e#1$L@I#    2$}$'$)$h#                    ",
"                                  t#3$4@4$5$L@6$)#      Q#!#>#G#7$      a#8$9$_#0$                  ",
"                                  a$b$c$d$t#&#'$N@t#  e$|$f$g$e$          h$i$b$g#t#                ",
"                                  j$k$l$m$2$G#y@z@t#  /$a#n$o$n#          t#)$b$g#t#                ",
"                                p$q$r$s$t$t#y#)#2#    7$0$u$2$            v$w$x$g#t#                ",
"                              n$}$}$y$e@                                z$A$B$b#;.t#                ",
"                              h$C$D$y#                                t#s#E$y# $)#                  ",
"                                a#t#                                      t#:$:$                    "};
