/* XPM */
static char * wolfNormalRight3_xpm[] = {
"52 32 513 2",
"  	c #FFFFFD",
". 	c #A2876B",
"+ 	c #A88C70",
"@ 	c #9D9181",
"# 	c #CABAA5",
"$ 	c #AF9578",
"% 	c #766144",
"& 	c #735E41",
"* 	c #867359",
"= 	c #D1C8BD",
"- 	c #B8B3AE",
"; 	c #BFA486",
"> 	c #7E674A",
", 	c #897861",
"' 	c #DAD6CF",
") 	c #ACABA9",
"! 	c #A19183",
"~ 	c #A1866A",
"{ 	c #5B4A32",
"] 	c #3F3221",
"^ 	c #756550",
"/ 	c #969492",
"( 	c #93806C",
"_ 	c #A4896D",
": 	c #80694D",
"< 	c #816A4D",
"[ 	c #483927",
"} 	c #584730",
"| 	c #574730",
"1 	c #8B7862",
"2 	c #7D7C7B",
"3 	c #7A756F",
"4 	c #8C7458",
"5 	c #9D8266",
"6 	c #9D8367",
"7 	c #B3967A",
"8 	c #796346",
"9 	c #3E3121",
"0 	c #4F402B",
"a 	c #66533B",
"b 	c #8B7356",
"c 	c #3F3120",
"d 	c #5E4C34",
"e 	c #927C64",
"f 	c #7D6D59",
"g 	c #A48D6F",
"h 	c #C2A789",
"i 	c #B09377",
"j 	c #BB9D81",
"k 	c #9C8165",
"l 	c #3E3220",
"m 	c #3E3221",
"n 	c #79644E",
"o 	c #947B64",
"p 	c #614F37",
"q 	c #8F775E",
"r 	c #745F46",
"s 	c #6F5B44",
"t 	c #5B4A33",
"u 	c #76614C",
"v 	c #735E43",
"w 	c #493A28",
"x 	c #9E8468",
"y 	c #776144",
"z 	c #4A3B27",
"A 	c #7F694E",
"B 	c #B99B7F",
"C 	c #CCAF92",
"D 	c #A78B6F",
"E 	c #C5A68A",
"F 	c #D9BD9F",
"G 	c #C9AC8F",
"H 	c #D7BE9E",
"I 	c #806A4D",
"J 	c #68553B",
"K 	c #8C745B",
"L 	c #584732",
"M 	c #856D51",
"N 	c #BA9D80",
"O 	c #A08569",
"P 	c #735E42",
"Q 	c #766146",
"R 	c #B29579",
"S 	c #91785B",
"T 	c #68553A",
"U 	c #B6997D",
"V 	c #947B5F",
"W 	c #53432F",
"X 	c #816A50",
"Y 	c #4E3F2A",
"Z 	c #5C4B33",
"` 	c #BCA485",
" .	c #D0B898",
"..	c #D1B999",
"+.	c #D7BE9F",
"@.	c #D2B497",
"#.	c #C6AC8D",
"$.	c #9C8266",
"%.	c #C7AA8D",
"&.	c #D5B79A",
"*.	c #9F8468",
"=.	c #7D674A",
"-.	c #6D593D",
";.	c #806A52",
">.	c #AC9074",
",.	c #745F42",
"'.	c #826B4F",
").	c #856E51",
"!.	c #846D50",
"~.	c #5E4C35",
"{.	c #594831",
"].	c #604E39",
"^.	c #7E684B",
"/.	c #665339",
"(.	c #7F684E",
"_.	c #7E684F",
":.	c #4D3E2A",
"<.	c #8A7359",
"[.	c #967C60",
"}.	c #6D593F",
"|.	c #836C4F",
"1.	c #BC9D81",
"2.	c #B89A7E",
"3.	c #A78C70",
"4.	c #BB9F82",
"5.	c #B9A384",
"6.	c #A58A6E",
"7.	c #C2A387",
"8.	c #79644B",
"9.	c #5F4D36",
"0.	c #9B8164",
"a.	c #BC9E82",
"b.	c #645138",
"c.	c #92795D",
"d.	c #897156",
"e.	c #8C7457",
"f.	c #756043",
"g.	c #796348",
"h.	c #5F4D34",
"i.	c #554430",
"j.	c #54442E",
"k.	c #7D674C",
"l.	c #A88D71",
"m.	c #836C50",
"n.	c #56462F",
"o.	c #887054",
"p.	c #C3A589",
"q.	c #AA8E72",
"r.	c #A5896D",
"s.	c #866E52",
"t.	c #524329",
"u.	c #4A3E1A",
"v.	c #8B7457",
"w.	c #B4977B",
"x.	c #DAC0A0",
"y.	c #7F6953",
"z.	c #725D43",
"A.	c #6A563D",
"B.	c #8A7255",
"C.	c #937A5D",
"D.	c #635039",
"E.	c #7A654B",
"F.	c #8F765A",
"G.	c #766147",
"H.	c #7E674C",
"I.	c #766145",
"J.	c #826B4E",
"K.	c #69553B",
"L.	c #6A5740",
"M.	c #91785C",
"N.	c #AA9274",
"O.	c #B49D7E",
"P.	c #BEA285",
"Q.	c #C4A589",
"R.	c #A2866B",
"S.	c #765F2B",
"T.	c #866221",
"U.	c #89793D",
"V.	c #867053",
"W.	c #CCB093",
"X.	c #897158",
"Y.	c #483A26",
"Z.	c #53432D",
"`.	c #6A563B",
" +	c #725D40",
".+	c #92795C",
"++	c #756044",
"@+	c #635037",
"#+	c #6E5A40",
"$+	c #7A6447",
"%+	c #6C583D",
"&+	c #715C40",
"*+	c #987E62",
"=+	c #9A8065",
"-+	c #92795E",
";+	c #69553A",
">+	c #51412C",
",+	c #6F5B40",
"'+	c #675339",
")+	c #6A573B",
"!+	c #67543B",
"~+	c #897155",
"{+	c #625038",
"]+	c #614E37",
"^+	c #B79A7F",
"/+	c #C4A68A",
"(+	c #C4A78A",
"_+	c #A98E72",
":+	c #A2886C",
"<+	c #D3BAA0",
"[+	c #CAAF92",
"}+	c #6A5737",
"|+	c #A08527",
"1+	c #947D19",
"2+	c #736043",
"3+	c #C8AB8E",
"4+	c #C0A688",
"5+	c #584833",
"6+	c #AEACAA",
"7+	c #4C3D29",
"8+	c #55452F",
"9+	c #725D41",
"0+	c #5C4A32",
"a+	c #6F5A3E",
"b+	c #4D3E29",
"c+	c #614F36",
"d+	c #7F684C",
"e+	c #8C7357",
"f+	c #756046",
"g+	c #473826",
"h+	c #6C5843",
"i+	c #7D6852",
"j+	c #735D40",
"k+	c #473926",
"l+	c #837057",
"m+	c #DCD8D6",
"n+	c #E2D4C3",
"o+	c #9E8367",
"p+	c #9A8164",
"q+	c #A58F70",
"r+	c #B49C7E",
"s+	c #AF9477",
"t+	c #A48D70",
"u+	c #50402B",
"v+	c #BCB9B5",
"w+	c #C5C1BC",
"x+	c #9F9D9B",
"y+	c #716F6C",
"z+	c #594832",
"A+	c #69563C",
"B+	c #856E53",
"C+	c #90775B",
"D+	c #6F5A40",
"E+	c #6B573C",
"F+	c #635138",
"G+	c #725E42",
"H+	c #705B3F",
"I+	c #6E5B40",
"J+	c #4F402D",
"K+	c #6B6359",
"L+	c #696155",
"M+	c #6F5C45",
"N+	c #B3967B",
"O+	c #977D61",
"P+	c #866F52",
"Q+	c #937A5E",
"R+	c #846D51",
"S+	c #4F4538",
"T+	c #AFA8A1",
"U+	c #C4BBAF",
"V+	c #AEA69D",
"W+	c #81725D",
"X+	c #A9A8A8",
"Y+	c #B7B5B4",
"Z+	c #B8AFA6",
"`+	c #D8CCC0",
" @	c #F6ECE2",
".@	c #F8EDE4",
"+@	c #DBC5A9",
"@@	c #D7BB9F",
"#@	c #D8BFA0",
"$@	c #413818",
"%@	c #656565",
"&@	c #B6B2AE",
"*@	c #97928D",
"=@	c #AE9175",
"-@	c #AF9276",
";@	c #957B5F",
">@	c #67543A",
",@	c #796751",
"'@	c #504230",
")@	c #876F53",
"!@	c #90775A",
"~@	c #6C5F4E",
"{@	c #726F6A",
"]@	c #72716E",
"^@	c #534A3F",
"/@	c #706F6D",
"(@	c #777777",
"_@	c #787878",
":@	c #7D7D7D",
"<@	c #66615A",
"[@	c #5A4C3A",
"}@	c #574B3C",
"|@	c #868584",
"1@	c #B3B0AB",
"2@	c #BEBCB8",
"3@	c #BDBAB7",
"4@	c #B0AFAD",
"5@	c #9C9A97",
"6@	c #A5A5A4",
"7@	c #9C9C9C",
"8@	c #9D9D9D",
"9@	c #CBC7C3",
"0@	c #E3DEDA",
"a@	c #F1ECE8",
"b@	c #EAE4E0",
"c@	c #E0CCBC",
"d@	c #B29D82",
"e@	c #534C23",
"f@	c #182304",
"g@	c #5D5954",
"h@	c #7E705D",
"i@	c #978470",
"j@	c #A1876A",
"k@	c #8D7458",
"l@	c #4A3B28",
"m@	c #453D33",
"n@	c #625037",
"o@	c #7B674E",
"p@	c #6D6A67",
"q@	c #504639",
"r@	c #705C42",
"s@	c #80807F",
"t@	c #8F8F8F",
"u@	c #797979",
"v@	c #7B7B7B",
"w@	c #989898",
"x@	c #979797",
"y@	c #7E7E7E",
"z@	c #808080",
"A@	c #665F55",
"B@	c #564630",
"C@	c #7B6548",
"D@	c #4E4A45",
"E@	c #727272",
"F@	c #5B5B5B",
"G@	c #AEABA8",
"H@	c #B4B3B2",
"I@	c #BBB9B7",
"J@	c #C8C5C1",
"K@	c #B2B0AD",
"L@	c #707070",
"M@	c #666666",
"N@	c #979695",
"O@	c #C4C2BF",
"P@	c #E9E4DF",
"Q@	c #EBE5E1",
"R@	c #DFDAD1",
"S@	c #64623E",
"T@	c #021E03",
"U@	c #413422",
"V@	c #67533A",
"W@	c #66533A",
"X@	c #454340",
"Y@	c #5A4B38",
"Z@	c #594F41",
"`@	c #747372",
" #	c #726E69",
".#	c #A6A5A3",
"+#	c #5E5D5D",
"@#	c #B9B7B4",
"##	c #7C7C7C",
"$#	c #A3A3A1",
"%#	c #848484",
"&#	c #868686",
"*#	c #514433",
"=#	c #725D42",
"-#	c #836C52",
";#	c #675F54",
">#	c #7A7A7A",
",#	c #898989",
"'#	c #565656",
")#	c #818181",
"!#	c #8E8E8D",
"~#	c #636262",
"{#	c #999898",
"]#	c #B6B4B1",
"^#	c #B3B0AD",
"/#	c #6C6C6C",
"(#	c #908F8F",
"_#	c #AAA9A8",
":#	c #D1CEC9",
"<#	c #9C9B99",
"[#	c #4F4F4F",
"}#	c #6B6864",
"|#	c #878685",
"1#	c #949494",
"2#	c #767676",
"3#	c #83817F",
"4#	c #828282",
"5#	c #4A4A4A",
"6#	c #888888",
"7#	c #B7B6B4",
"8#	c #7C7B7B",
"9#	c #524535",
"0#	c #7E684E",
"a#	c #5A4933",
"b#	c #686055",
"c#	c #747474",
"d#	c #717171",
"e#	c #646464",
"f#	c #636363",
"g#	c #6B6B6B",
"h#	c #606060",
"i#	c #525252",
"j#	c #878787",
"k#	c #737270",
"l#	c #B1AFAC",
"m#	c #6E6E6E",
"n#	c #585858",
"o#	c #434343",
"p#	c #555555",
"q#	c #8B8B8B",
"r#	c #949392",
"s#	c #C2BFBC",
"t#	c #C3C0BC",
"u#	c #B5B3B1",
"v#	c #5C5C5C",
"w#	c #909090",
"x#	c #969696",
"y#	c #554B3E",
"z#	c #695C4B",
"A#	c #BCB9B7",
"B#	c #A9A7A4",
"C#	c #6B6A6A",
"D#	c #8B8A8A",
"E#	c #515151",
"F#	c #60605F",
"G#	c #858585",
"H#	c #535353",
"I#	c #757575",
"J#	c #696969",
"K#	c #9A9A9A",
"L#	c #AAA8A6",
"M#	c #A3A2A1",
"N#	c #B2B1B0",
"O#	c #9F9F9F",
"P#	c #595959",
"Q#	c #5E5E5E",
"R#	c #6A6A6A",
"S#	c #706960",
"T#	c #5A4D3D",
"U#	c #A6A39F",
"V#	c #6D6D6D",
"W#	c #A9A9A9",
"X#	c #626262",
"Y#	c #878684",
"Z#	c #ADABA8",
"`#	c #4E4E4E",
" $	c #686868",
".$	c #9F9F9E",
"+$	c #919191",
"@$	c #505050",
"#$	c #545454",
"$$	c #9C9995",
"%$	c #C2BDB6",
"&$	c #ABAAA9",
"*$	c #444444",
"=$	c #ADACAB",
"-$	c #8C8C8C",
";$	c #484848",
">$	c #424242",
",$	c #464646",
"'$	c #9B9B9B",
")$	c #5A5A5A",
"!$	c #9C9C9B",
"~$	c #D3CFCA",
"{$	c #9E9D9C",
"]$	c #4B4B4B",
"^$	c #929292",
"/$	c #A09F9E",
"($	c #575757",
"_$	c #999999",
":$	c #6F6F6F",
"<$	c #787877",
"[$	c #807F7E",
"}$	c #C0BDBA",
"|$	c #676767",
"1$	c #8A8A8A",
"2$	c #B5B3B2",
"3$	c #ABA9A6",
"4$	c #5D5D5D",
"5$	c #A7A7A7",
"6$	c #616161",
"7$	c #ADABAA",
"8$	c #B0AEAE",
"9$	c #E6E1DD",
"0$	c #D7D3D1",
"a$	c #CECBC6",
"b$	c #8F8D8B",
"c$	c #BDBBB7",
"d$	c #CAC8C6",
"e$	c #C2C0BF",
"f$	c #9D9D9C",
"g$	c #8E8D8D",
"h$	c #868685",
"i$	c #979696",
"j$	c #7F7F7E",
"k$	c #8C8B8B",
"l$	c #807E7C",
"m$	c #61605F",
"n$	c #7D7B79",
"                                                                                                        ",
"                                                                          . +                           ",
"                                                                          @ # $ % &                     ",
"                                                                        * = - ; > &                     ",
"                                                                        , ' ) ! ~ { &                   ",
"                                                                      ] ^ ) / ( _ : <                   ",
"                                                                  [ } | 1 2 3 4 5 6 7 8                 ",
"                                                        9 0     a b c d e f g h 4 i j 6 k 8             ",
"                            l m       n o m p q r m s t u v m w x y z A . B C D ~ E F G H I             ",
"                            m J K L } M N O P Q R S T U V W X & Y Z k `  .....+.@.#.$.%.&.*.=.          ",
"                        0 d d -.;.>.,.'.).!.~.{.].^./.(._.:.<.[.=.}.Z |._ 1.2.3.R 4.5.6.7.2.8.          ",
"                        9.0.a.M b.}.c.8 d.e.f.V g.h.i.j.k.l.[.+ m.0 n.o.U p.q.r.s.t.u.v.w.x.y.          ",
"                    m } z.o.o.% A.B.*.C.D.E.B.C.F.{.G.H.} I.q.J.K.L.M.N.O.P.q.Q.R.S.T.U.V.W.X.Y.        ",
"                  Z.`. +|..+.+++@+#+$+I.%+&+*+=+-+;+>+,+'+)+!+~+{+]+^+/+(+_+:+<+[+}+|+1+2+3+4+5+        ",
"  6+          7+8+: 9+-.0+a+& b+b.&  +c+{ d+e+f+8+8+g+h+i+'.j+'.e+$+k+`.B.e+l+m+n+o+p+q+r+s+&.t+u+      ",
"  v+w+x+y+z+A+B+w.C+& b+j.4 C.D+E+~+K.F+G+H+I+J+K+L+M+N+O+).P+Q+R+} S+T+U+V+W+X+Y+Z+`+ @.@+@@@#@m.$@    ",
"  %@&@x+*@=@-@[.;@j+>@b+& Q+,@'@)@!@~@{@]@^@/@(@_@:@<@^@[@M.+ : 7+}@|@1@2@3@4@5@6@7@8@9@0@a@b@c@d@e@f@  ",
"    g@h@i@j@k@[.: T l@m@n@o@p@q@r@>@s@t@u@_@v@w@x@:@y@z@A@B@C@6.Z.D@E@F@z@G@H@I@J@K@L@M@N@O@P@Q@R@S@T@  ",
"      U@@+V@/.W@0 U@  X@Y@Z@(@`@S+ #_@F@.#t@+#@#u@##$#%#&#*#=#-#;#>#,#v@'#)#!#E@~#{#]#^#s@/#(#_#:#<#    ",
"                      [#}#|#(@u@,#w@1#2#3#4#:@(@5#6#7#8#(@9#0#a#b#(@%@c#d#e#f#g#h#i#j#F@k#l#:@d#m#n#    ",
"                    o#p#%#h#q#r#s#t#I@u#F@v#E@v#%@w#M@x#)#y#d z#A#:@%@B#C#D#x#h#    E#    F#G#H#o#      ",
"                    '#I#J#E#K#L#M#N#u#O#(@o#o#o#P#Q#Q#L@R#S#T#U#m#V#W#K#X#Y#Z#o#            o#o#        ",
"                    %@K#6#`# $I#,#s#.$+$@$            #$,#$$%$&$h#g#:@h#*$  =$                          ",
"                  H#(@-$/#;$>$,$,#'$]#z@)$            o#g#!$~${$]$n#n#]$                                ",
"                  Q#G#t@F@      %@##&#^$d#o#            v@O#/$F#($(@w#m#;$                              ",
"                >$4#_$:$          Q#G#N#<$[#            [$}$_$P#  |$W#q#p#                              ",
"                >$(@1$## $        o#%#2$3$4$          4$M#5$_@    #$1$+$##:@                            ",
"                o#:$t@6$V#>$      o#:$x#7$J#        o#8$9$0$5#    o#:$t@)$h#f#                          ",
"                  [#F@5#`#          i#1#a$8@b$      o#c$d$e$|$      [#F@5#`#                            ",
"                                    E#u@f$J#g$o#    o#h$i$j$k$'#                                        ",
"                                      n#h#E#($o#      `#l$m$n$o#                                        ",
"                                                                                                        "};
