/* XPM */
static char * wolfNormalLeft3_xpm[] = {
"51 31 529 2",
"  	c #FFFFFD",
". 	c #AC9074",
"+ 	c #735E41",
"@ 	c #BEA587",
"# 	c #B0A293",
"$ 	c #AA9073",
"% 	c #C2B6A7",
"& 	c #CFC9C1",
"* 	c #968269",
"= 	c #69553A",
"- 	c #776248",
"; 	c #B0977E",
"> 	c #A19B96",
", 	c #D6D1CC",
"' 	c #AEA292",
") 	c #7C6649",
"! 	c #745F43",
"~ 	c #90775B",
"{ 	c #AF967F",
"] 	c #8B8986",
"^ 	c #C3C0BC",
"/ 	c #8D8376",
"( 	c #4D3E29",
"_ 	c #A3886B",
": 	c #91785B",
"< 	c #9F8569",
"[ 	c #957C60",
"} 	c #756B5E",
"| 	c #878787",
"1 	c #807568",
"2 	c #65523A",
"3 	c #483A27",
"4 	c #4C3D29",
"5 	c #8F765A",
"6 	c #8B7357",
"7 	c #A78B6F",
"8 	c #BA9C80",
"9 	c #8C7458",
"0 	c #A88E71",
"a 	c #A89377",
"b 	c #7B6B55",
"c 	c #897B6D",
"d 	c #7B6549",
"e 	c #423422",
"f 	c #735F47",
"g 	c #67543B",
"h 	c #403322",
"i 	c #B0987A",
"j 	c #CAAE91",
"k 	c #CDB194",
"l 	c #C6A78B",
"m 	c #A78C70",
"n 	c #A58A6E",
"o 	c #CBAF91",
"p 	c #B79B7E",
"q 	c #9D8366",
"r 	c #8A7256",
"s 	c #4D3E2A",
"t 	c #614F36",
"u 	c #65533D",
"v 	c #3F3221",
"w 	c #625037",
"x 	c #75604A",
"y 	c #483A26",
"z 	c #63513B",
"A 	c #51412C",
"B 	c #77624C",
"C 	c #5F4D37",
"D 	c #453724",
"E 	c #695642",
"F 	c #79644F",
"G 	c #866F52",
"H 	c #C7AB8D",
"I 	c #DBC0A1",
"J 	c #B79C7F",
"K 	c #CFB194",
"L 	c #CCB092",
"M 	c #D1B899",
"N 	c #D7BE9F",
"O 	c #DCC3A3",
"P 	c #CDB596",
"Q 	c #A2876C",
"R 	c #776146",
"S 	c #564530",
"T 	c #65533B",
"U 	c #6D593F",
"V 	c #67543E",
"W 	c #7F694E",
"X 	c #9B8267",
"Y 	c #715C42",
"Z 	c #A4896E",
"` 	c #9E8367",
" .	c #766144",
"..	c #745F45",
"+.	c #B89B80",
"@.	c #AB8F73",
"#.	c #5A4932",
"$.	c #423523",
"%.	c #604E3A",
"&.	c #735E44",
"*.	c #6C583F",
"=.	c #C6A68A",
"-.	c #B29579",
";.	c #9D8668",
">.	c #A28A6D",
",.	c #B89A7E",
"'.	c #B6997D",
").	c #A88C70",
"!.	c #B09377",
"~.	c #A98D71",
"{.	c #897154",
"].	c #6C583C",
"^.	c #56452F",
"/.	c #7D664A",
"(.	c #997F64",
"_.	c #483926",
":.	c #816A51",
"<.	c #967D63",
"[.	c #635139",
"}.	c #836C53",
"|.	c #5E4C34",
"1.	c #594831",
"2.	c #897155",
"3.	c #846D50",
"4.	c #725D41",
"5.	c #A98E73",
"6.	c #766146",
"7.	c #54442E",
"8.	c #4F3F2A",
"9.	c #3E3221",
"0.	c #574734",
"a.	c #CDB193",
"b.	c #CDAF92",
"c.	c #A08568",
"d.	c #7A6B4B",
"e.	c #6B5E41",
"f.	c #7A654B",
"g.	c #9D8266",
"h.	c #C8A98D",
"i.	c #C7A78B",
"j.	c #A5896D",
"k.	c #604E35",
"l.	c #4A3B28",
"m.	c #846D51",
"n.	c #967D60",
"o.	c #977E63",
"p.	c #8E755A",
"q.	c #5A4931",
"r.	c #50402B",
"s.	c #5B4A32",
"t.	c #67543A",
"u.	c #826B52",
"v.	c #756043",
"w.	c #846C50",
"x.	c #7E684B",
"y.	c #91785C",
"z.	c #604E38",
"A.	c #AA8E72",
"B.	c #9F8468",
"C.	c #705C40",
"D.	c #5E4C37",
"E.	c #C5AA8C",
"F.	c #AC9275",
"G.	c #76663F",
"H.	c #6E5222",
"I.	c #816428",
"J.	c #876F54",
"K.	c #B5977B",
"L.	c #A68E71",
"M.	c #947E60",
"N.	c #65523C",
"O.	c #755F42",
"P.	c #A68B6F",
"Q.	c #947B5F",
"R.	c #665339",
"S.	c #625038",
"T.	c #5C4A33",
"U.	c #967C60",
"V.	c #7F694C",
"W.	c #8D7559",
"X.	c #6C5841",
"Y.	c #776247",
"Z.	c #766045",
"`.	c #6D593D",
" +	c #92795C",
".+	c #947A5E",
"++	c #887155",
"@+	c #8F785C",
"#+	c #D5B89A",
"$+	c #A08669",
"%+	c #6D5E17",
"&+	c #BD9C28",
"*+	c #776328",
"=+	c #967D62",
"-+	c #D6BA9C",
";+	c #B5987C",
">+	c #B19579",
",+	c #C9AF91",
"'+	c #D7BB9D",
")+	c #836C55",
"!+	c #6A563B",
"~+	c #756046",
"{+	c #8A7257",
"]+	c #635137",
"^+	c #7A6448",
"/+	c #645137",
"(+	c #A08468",
"_+	c #A08569",
":+	c #756044",
"<+	c #675439",
"[+	c #816A4E",
"}+	c #856E51",
"|+	c #64523B",
"1+	c #8D7458",
"2+	c #725D40",
"3+	c #625036",
"4+	c #55452E",
"5+	c #6B5940",
"6+	c #C3A689",
"7+	c #C5AB8D",
"8+	c #A78D70",
"9+	c #86714E",
"0+	c #90784D",
"a+	c #866F53",
"b+	c #C6AF94",
"c+	c #DCD4CB",
"d+	c #988B7A",
"e+	c #997F63",
"f+	c #66543C",
"g+	c #635038",
"h+	c #856E52",
"i+	c #745F42",
"j+	c #5C4B36",
"k+	c #463826",
"l+	c #4E3F2A",
"m+	c #52422D",
"n+	c #977D61",
"o+	c #8D7558",
"p+	c #725E41",
"q+	c #6B573C",
"r+	c #53432D",
"s+	c #745E42",
"t+	c #786245",
"u+	c #6F5B40",
"v+	c #735E42",
"w+	c #594832",
"x+	c #493A27",
"y+	c #ADACAB",
"z+	c #818181",
"A+	c #635138",
"B+	c #BDA586",
"C+	c #D3B598",
"D+	c #CFB496",
"E+	c #E8D7C3",
"F+	c #F2E4D2",
"G+	c #DFCDBC",
"H+	c #C7B5A5",
"I+	c #B7B1A9",
"J+	c #CDCACA",
"K+	c #958979",
"L+	c #8C806E",
"M+	c #A89B88",
"N+	c #AEA192",
"O+	c #50483C",
"P+	c #786246",
"Q+	c #B7997D",
"R+	c #826B53",
"S+	c #62533F",
"T+	c #756A5C",
"U+	c #5A4A33",
"V+	c #705C3F",
"W+	c #635037",
"X+	c #826B4E",
"Y+	c #6A573C",
"Z+	c #584730",
"`+	c #856D51",
" @	c #5D4B34",
".@	c #6C583D",
"+@	c #836C4F",
"@@	c #9F8568",
"#@	c #8C7459",
"$@	c #55452F",
"%@	c #828181",
"&@	c #AAA8A4",
"*@	c #CECAC4",
"=@	c #909090",
"-@	c #39370F",
";@	c #988163",
">@	c #D0B49A",
",@	c #DED2C5",
"'@	c #ECE3D9",
")@	c #F8F1EE",
"!@	c #E0DBD6",
"~@	c #C1BFBC",
"{@	c #A9A8A7",
"]@	c #A9A9A9",
"^@	c #8C8C8B",
"/@	c #918E8B",
"(@	c #C5C2BD",
"_@	c #C1BFBB",
":@	c #D8D4CE",
"<@	c #9E9A96",
"[@	c #51493D",
"}@	c #655239",
"|@	c #6D5940",
"1@	c #997F62",
"2@	c #725D43",
"3@	c #5C4D3B",
"4@	c #5B4D3C",
"5@	c #73716F",
"6@	c #787878",
"7@	c #6D6A67",
"8@	c #726E69",
"9@	c #544838",
"0@	c #62594C",
"a@	c #76716A",
"b@	c #564835",
"c@	c #8F775B",
"d@	c #8A7255",
"e@	c #7E694F",
"f@	c #9B8165",
"g@	c #796346",
"h@	c #624F36",
"i@	c #766043",
"j@	c #A2876B",
"k@	c #A4896D",
"l@	c #AE9176",
"m@	c #93877A",
"n@	c #8C8B8B",
"o@	c #D4D0C9",
"p@	c #9D9B98",
"q@	c #021F02",
"r@	c #252D0A",
"s@	c #A6A28A",
"t@	c #EFE9E5",
"u@	c #F1ECE8",
"v@	c #DEDAD6",
"w@	c #C2C0BC",
"x@	c #7F7F7F",
"y@	c #858584",
"z@	c #BEBCBA",
"A@	c #C8C5C1",
"B@	c #B8B6B4",
"C@	c #C7C4BF",
"D@	c #848484",
"E@	c #6E6E6E",
"F@	c #636363",
"G@	c #696969",
"H@	c #453826",
"I@	c #8B735A",
"J@	c #7F684B",
"K@	c #4D4130",
"L@	c #838383",
"M@	c #8B8B8B",
"N@	c #808080",
"O@	c #8D8D8D",
"P@	c #746551",
"Q@	c #5D4C36",
"R@	c #6B6865",
"S@	c #73624F",
"T@	c #504331",
"U@	c #413627",
"V@	c #655238",
"W@	c #937A5E",
"X@	c #9D8975",
"Y@	c #8D8479",
"Z@	c #6D6861",
"`@	c #4F4F4F",
" #	c #6B6E62",
".#	c #E2DDD7",
"+#	c #CDCAC6",
"@#	c #B7B5B3",
"##	c #8E8E8D",
"$#	c #666565",
"%#	c #999896",
"&#	c #B0ACA7",
"*#	c #ADACAC",
"=#	c #8C8A88",
"-#	c #848483",
";#	c #979797",
">#	c #A7A6A5",
",#	c #535353",
"'#	c #646464",
")#	c #787168",
"!#	c #856E55",
"~#	c #786346",
"{#	c #66615A",
"]#	c #949494",
"^#	c #AFAFAD",
"/#	c #898785",
"(#	c #9B9B9B",
"_#	c #666666",
":#	c #77736D",
"<#	c #443625",
"[#	c #5D554A",
"}#	c #767675",
"|#	c #625A4F",
"1#	c #413A30",
"2#	c #4E3E2A",
"3#	c #7D674B",
"4#	c #7F684C",
"5#	c #574731",
"6#	c #4C3F2E",
"7#	c #858585",
"8#	c #888888",
"9#	c #686868",
"0#	c #8C8B8A",
"a#	c #AAA7A3",
"b#	c #676767",
"c#	c #7D7D7D",
"d#	c #737373",
"e#	c #595959",
"f#	c #7A7A7A",
"g#	c #757575",
"h#	c #898580",
"i#	c #68553E",
"j#	c #6C6A67",
"k#	c #B4B2AF",
"l#	c #989898",
"m#	c #565656",
"n#	c #717171",
"o#	c #7B7B7B",
"p#	c #A2A19E",
"q#	c #6C6B6A",
"r#	c #9E9E9E",
"s#	c #7C7C7C",
"t#	c #7E7E7E",
"u#	c #5F5951",
"v#	c #606060",
"w#	c #434343",
"x#	c #424242",
"y#	c #959595",
"z#	c #848382",
"A#	c #5C5B5A",
"B#	c #5D5D5D",
"C#	c #707070",
"D#	c #6F6F6F",
"E#	c #9B9996",
"F#	c #5F5F5F",
"G#	c #6C6C6C",
"H#	c #ABA9A7",
"I#	c #706558",
"J#	c #706D6A",
"K#	c #969696",
"L#	c #767676",
"M#	c #8E8E8E",
"N#	c #525252",
"O#	c #828282",
"P#	c #4D4D4D",
"Q#	c #888887",
"R#	c #BDBBB9",
"S#	c #C0BEBB",
"T#	c #A6A5A4",
"U#	c #989695",
"V#	c #8A8A8A",
"W#	c #494949",
"X#	c #81807F",
"Y#	c #B2B0AC",
"Z#	c #6B6B6B",
"`#	c #939292",
" $	c #A4A4A4",
".$	c #605546",
"+$	c #756A5B",
"@$	c #686766",
"#$	c #747474",
"$$	c #6D6D6D",
"%$	c #474747",
"&$	c #A1A1A1",
"*$	c #B2B1AF",
"=$	c #C0BEBA",
"-$	c #B3B1AE",
";$	c #A2A2A1",
">$	c #616161",
",$	c #575757",
"'$	c #585858",
")$	c #9C9B98",
"!$	c #888786",
"~$	c #A9A6A1",
"{$	c #867F75",
"]$	c #979694",
"^$	c #4E4E4E",
"/$	c #BDBBB8",
"($	c #9A9A9A",
"_$	c #868686",
":$	c #727272",
"<$	c #929292",
"[$	c #444444",
"}$	c #4B4B4B",
"|$	c #D6D2CC",
"1$	c #BCBAB7",
"2$	c #484848",
"3$	c #9E9C9A",
"4$	c #B5B3B1",
"5$	c #5C5C5C",
"6$	c #4A4A4A",
"7$	c #6A6A6A",
"8$	c #A5A4A1",
"9$	c #898989",
"0$	c #505050",
"a$	c #919191",
"b$	c #BBBAB7",
"c$	c #908F8E",
"d$	c #9F9F9E",
"e$	c #B4B2AE",
"f$	c #898887",
"g$	c #BEBBB7",
"h$	c #545454",
"i$	c #A3A1A1",
"j$	c #BCBABA",
"k$	c #979695",
"l$	c #AAA9A9",
"m$	c #515151",
"n$	c #5E5E5E",
"o$	c #A3A1A0",
"p$	c #E3DFDE",
"q$	c #C6C3C0",
"r$	c #646463",
"s$	c #676664",
"t$	c #C1BEBB",
"u$	c #B0AFAE",
"v$	c #8C8C8C",
"w$	c #8F8F8F",
"x$	c #5E5D5C",
"y$	c #888685",
"z$	c #A4A3A2",
"A$	c #959594",
"B$	c #636262",
"C$	c #848280",
"D$	c #989693",
"                          .                                                                           ",
"                    +   @ # +                                                                         ",
"                  + + $ % & *                                                                         ",
"                  = - ; > , '                                                                         ",
"                ) ! ~ { ] ^ / (                                                                       ",
"                _ : < [ } | 1 2 3 4                                                                   ",
"            5 6 7 8 9 0 a b c d e f g       h                                                         ",
"            i j k l m n o p q r s t 5 u v w x y z   A B C D E F v                                     ",
"          G H I J K L M N O N P Q R S T U V W X r Y Z `  ...+.@.#.$.%.&.$.                            ",
"        *.7 =.-.;.>.,.'.).!.~.{.].^./.) (._.:.<.[.) }.|.1.2.5 3.4.2.5.6.7.A 8.9.                      ",
"        0.a.b.c.d.e.f.g.).h.i.j.k.l.m.@.n.o.p.q.r.s.t.u.6.v.~ w.x.y.z.].A.B.C.v                       ",
"        D.E.F.G.H.I.J.-.K.. L.M.G N.1.O.P.Q.R.S.r T.U U.V.W.X.Y.B.{.Z.`. +.+++(                       ",
"      v @+#+$+%+&+*+=+-+;+>+,+'+l )+!+~+{+]+]+^+S./+5 (+_+:+<+[+}+}+|+!+r 1+{.2+3+4+                  ",
"      5+6+7+8+9+0+a+b+c+d+ +e+m.f+g+5 h++ i+N.j+k+l+m+|+n+o+t A 4.p+q+r+s+t+u+`.+ v+w+x+          y+z+",
"    A+B+C+D+E+F+G+H+I+J+K+L+M+N+O+r.P+U.) 2.B.Q+R+S+T+U+<++ 4.V+W+X+Y+Z+`+{. @l..@+@@@#@Z+$@  %@&@*@=@",
"  -@;@>@,@'@)@!@~@{@]@^@/@(@_@:@<@[@}@|@1@~.2@3@4@5@6@7@8@9@0@a@b@c@d@s.e@f@g@^.h@i@n+j@k@l@m@n@o@p@  ",
"q@r@s@t@u@v@w@x@x@y@z@A@B@C@D@E@F@G@H@I@J@~+K@L@6@M@D@M@N@6@6@O@D@P@*.Q@R@S@! T@U@V@+ n+`+W@X@Y@Z@`@  ",
"   #.#+#@###$#%#&#*#=#-#;#>#,#'#D@6@)#!#~#1.{#]#=@6@N@^#/#6@(#_#N@:#<#[#}#|#V@1#  x+2#3#4#~#}+5#6#    ",
"    7#8#9#0#a#b#c#d#e#E@,#f#E@6@g#,#h#r+i#i#j#6@k#l#m#n#o#f#p#q#| r#s#t#6@N@u#v#      v v v v         ",
"    w#x#y#z#A#  F@    B#8#C#D#E#F#G#H#I#2@y J#K#L#M#L#N#O#g#P#Q#R#S#T#U#O@C#V#v#x#                    ",
"        W#              X#Y#Z#`# $g#d#a#.$+$@$#$$$G#G#%$%$%$G@&$*$@#=$-$;$>$,$L#'$                    ",
"                        )$!$w#'$M#M#,#]#~${$]$B#^$            M#M@/$($6@_$e#:$<$o#x#                  ",
"                              [$,#,#}$c#|$1$7#2$            W#d#3$4$($5$6$w#7$M#z+>$                  ",
"                              e#N@x@G@,#8$(#l#w#            5$9$<$N@L@N#    6$z+t#d#                  ",
"                              $$&$8#0$x#a$b$c$W#            B#d$M#g#`@        _#y#=@N#                ",
"                            D#_$;#g#    e#]@e$t#          P#f$g$y#,#          D#D@6@h$                ",
"                          v#n#a$6@h$      i$A@j$5$        P#k$l$z+,#        m$L@a$6@h$                ",
"                          2$'$v#n$        o$p$q$r$      s$| t$u$F@          2$'$v#n$                  ",
"                                        c#v$w$T#x$    x#y$c#z$A$F@                                    ",
"                                        B$C$D$'#      w#B#0$C#G#W#                                    ",
"                                          B#w#          w#x#x#                                        "};
