/* XPM */
static char * wolfNormalRight2_xpm[] = {
"51 32 529 2",
"  	c #FFFFFD",
". 	c #AB8F73",
"+ 	c #816E55",
"@ 	c #C2B09B",
"# 	c #AD9376",
"$ 	c #725E40",
"% 	c #735E41",
"& 	c #B09F8A",
"* 	c #C4C1BD",
"= 	c #CDB89E",
"- 	c #8C7457",
"; 	c #725E41",
"> 	c #D2CCC2",
", 	c #C4C1BE",
"' 	c #A2958A",
") 	c #A68B6F",
"! 	c #65523A",
"~ 	c #5F4D34",
"{ 	c #AAA7A2",
"] 	c #BBB9B6",
"^ 	c #87827B",
"/ 	c #B6987C",
"( 	c #80694D",
"_ 	c #756043",
": 	c #53422D",
"< 	c #463825",
"[ 	c #745F45",
"} 	c #7E7C78",
"| 	c #848484",
"1 	c #786750",
"2 	c #9F8469",
"3 	c #9F8468",
"4 	c #977D61",
"5 	c #8B7356",
"6 	c #423422",
"7 	c #473926",
"8 	c #756046",
"9 	c #5E4C37",
"0 	c #4D3E2A",
"a 	c #8D7458",
"b 	c #7C746B",
"c 	c #7B6A53",
"d 	c #B7A183",
"e 	c #92795D",
"f 	c #987E62",
"g 	c #BC9E82",
"h 	c #9E8467",
"i 	c #866E51",
"j 	c #846D50",
"k 	c #4D3E2C",
"l 	c #76624D",
"m 	c #4D3D29",
"n 	c #62503A",
"o 	c #695640",
"p 	c #493B27",
"q 	c #53432F",
"r 	c #5A4933",
"s 	c #4D3E2B",
"t 	c #746046",
"u 	c #3F3221",
"v 	c #806A50",
"w 	c #50402B",
"x 	c #604E36",
"y 	c #947B5E",
"z 	c #9C8266",
"A 	c #C7AB8E",
"B 	c #BFA285",
"C 	c #AD9175",
"D 	c #D1B295",
"E 	c #BFA286",
"F 	c #CEB295",
"G 	c #937C5E",
"H 	c #4E3E2A",
"I 	c #78624A",
"J 	c #3E3221",
"K 	c #745F46",
"L 	c #BFA185",
"M 	c #9D846A",
"N 	c #6A563B",
"O 	c #816A4D",
"P 	c #AF9376",
"Q 	c #91785E",
"R 	c #6C583D",
"S 	c #9E8468",
"T 	c #897157",
"U 	c #6D5940",
"V 	c #756048",
"W 	c #635037",
"X 	c #67543F",
"Y 	c #5B4A32",
"Z 	c #7D674D",
"` 	c #B99E81",
" .	c #D1B999",
"..	c #DDC4A4",
"+.	c #DFC5A6",
"@.	c #D4BB9C",
"#.	c #CAAF91",
"$.	c #D6BA9C",
"%.	c #C5A78B",
"&.	c #C5A78A",
"*.	c #E1C8A8",
"=.	c #B09578",
"-.	c #796447",
";.	c #4E3F2A",
">.	c #5D4C34",
",.	c #7F694F",
"'.	c #7D6649",
").	c #766044",
"!.	c #8A7255",
"~.	c #92795C",
"{.	c #7C654B",
"].	c #55442E",
"^.	c #6F5B42",
"/.	c #8D7559",
"(.	c #67543A",
"_.	c #786249",
":.	c #9D8369",
"<.	c #66533D",
"[.	c #594833",
"}.	c #997F63",
"|.	c #776144",
"1.	c #6E5A40",
"2.	c #5C4A33",
"3.	c #AC9074",
"4.	c #AE9175",
"5.	c #A68A6E",
"6.	c #B29579",
"7.	c #968062",
"8.	c #9C8366",
"9.	c #C1A387",
"0.	c #977E62",
"a.	c #4A3B27",
"b.	c #A5896D",
"c.	c #937A5D",
"d.	c #645138",
"e.	c #91785B",
"f.	c #786346",
"g.	c #8A7155",
"h.	c #897155",
"i.	c #69553B",
"j.	c #826B50",
"k.	c #6F5B43",
"l.	c #53432D",
"m.	c #68553C",
"n.	c #92795F",
"o.	c #90785C",
"p.	c #A78B6F",
"q.	c #725E43",
"r.	c #453725",
"s.	c #7E674B",
"t.	c #B09377",
"u.	c #CCAC90",
"v.	c #A3886C",
"w.	c #7A654D",
"x.	c #746948",
"y.	c #907A5D",
"z.	c #D6B99B",
"A.	c #AB9176",
"B.	c #AFAEAD",
"C.	c #493A27",
"D.	c #584732",
"E.	c #947A5E",
"F.	c #6B573C",
"G.	c #93795D",
"H.	c #846D53",
"I.	c #887053",
"J.	c #826B4E",
"K.	c #5C4B34",
"L.	c #705B41",
"M.	c #80694E",
"N.	c #584731",
"O.	c #735E42",
"P.	c #AA8E71",
"Q.	c #50412C",
"R.	c #6C583F",
"S.	c #897255",
"T.	c #927C5E",
"U.	c #AE9477",
"V.	c #BEA084",
"W.	c #A4886C",
"X.	c #735E43",
"Y.	c #7D5C1F",
"Z.	c #665324",
"`.	c #8B7557",
" +	c #C6AC8D",
".+	c #A48A6F",
"++	c #483A26",
"@+	c #C0BCB8",
"#+	c #ABA8A5",
"$+	c #3F3121",
"%+	c #4D3E29",
"&+	c #745F43",
"*+	c #614F36",
"=+	c #766148",
"-+	c #887054",
";+	c #7C6649",
">+	c #9F8569",
",+	c #594831",
"'+	c #6F5A3F",
")+	c #675439",
"!+	c #66533A",
"~+	c #957C5F",
"{+	c #65533A",
"]+	c #705C41",
"^+	c #9F846A",
"/+	c #D0B195",
"(+	c #D9BE9F",
"_+	c #C2A78A",
":+	c #AA8E72",
"<+	c #C6A88B",
"[+	c #CCB092",
"}+	c #977C23",
"|+	c #C9A931",
"1+	c #514621",
"2+	c #B99B7F",
"3+	c #CBB092",
"4+	c #66533C",
"5+	c #ABA9A5",
"6+	c #BCBAB7",
"7+	c #A09F9C",
"8+	c #77726C",
"9+	c #5F4D35",
"0+	c #6E5A3F",
"a+	c #6D593D",
"b+	c #776145",
"c+	c #7A6447",
"d+	c #655239",
"e+	c #6D583D",
"f+	c #69563B",
"g+	c #957C60",
"h+	c #947B5F",
"i+	c #564631",
"j+	c #51412C",
"k+	c #4C3D2A",
"l+	c #5A4935",
"m+	c #6A573E",
"n+	c #6D593E",
"o+	c #796346",
"p+	c #877055",
"q+	c #836C50",
"r+	c #5D4C36",
"s+	c #7C664B",
"t+	c #9A8064",
"u+	c #B2A99F",
"v+	c #E3D5C3",
"w+	c #AB9276",
"x+	c #7F6946",
"y+	c #8F7745",
"z+	c #846F50",
"A+	c #A88D71",
"B+	c #D6BC9D",
"C+	c #A1886C",
"D+	c #55452F",
"E+	c #585858",
"F+	c #A3A19E",
"G+	c #909090",
"H+	c #9D866F",
"I+	c #9A8164",
"J+	c #8D7558",
"K+	c #856D51",
"L+	c #655238",
"M+	c #866F52",
"N+	c #725D43",
"O+	c #56452F",
"P+	c #735D40",
"Q+	c #655641",
"R+	c #756959",
"S+	c #604E37",
"T+	c #977D64",
"U+	c #B5977B",
"V+	c #876F52",
"W+	c #8B7357",
"X+	c #6A573B",
"Y+	c #483A27",
"Z+	c #6F665A",
"`+	c #A89987",
" @	c #9D907D",
".@	c #7E6E57",
"+@	c #B6AFA9",
"@@	c #D1CECC",
"#@	c #AFA396",
"$@	c #D5C1AE",
"%@	c #E7D6C3",
"&@	c #F1E1CE",
"*@	c #D5C0A7",
"=@	c #D3B799",
"-@	c #988164",
";@	c #4C3E26",
">@	c #594F41",
",@	c #897863",
"'@	c #B4977D",
")@	c #AB8E72",
"!@	c #8C7458",
"~@	c #725D40",
"{@	c #635137",
"]@	c #897154",
"^@	c #69563E",
"/@	c #6A563C",
"(@	c #967C60",
"_@	c #826C50",
":@	c #524738",
"<@	c #77726A",
"[@	c #544735",
"}@	c #615749",
"|@	c #6C6863",
"1@	c #6F6C6A",
"2@	c #777777",
"3@	c #665F56",
"4@	c #61513E",
"5@	c #604F3A",
"6@	c #63513A",
"7@	c #5C554D",
"8@	c #C5C1BC",
"9@	c #DEDAD4",
"0@	c #BEBCB9",
"a@	c #B6B1AB",
"b@	c #848281",
"c@	c #969696",
"d@	c #A9A9A9",
"e@	c #B3B2B0",
"f@	c #D4D0CC",
"g@	c #EAE5E1",
"h@	c #FAF1EB",
"i@	c #E4DACD",
"j@	c #D9C5B2",
"k@	c #C3A68A",
"l@	c #72623F",
"m@	c #312E0A",
"n@	c #54442E",
"o@	c #7F694C",
"p@	c #90775A",
"q@	c #856E51",
"r@	c #665339",
"s@	c #3F3629",
"t@	c #604F36",
"u@	c #63584B",
"v@	c #605A53",
"w@	c #766E64",
"x@	c #8B8B8B",
"y@	c #868686",
"z@	c #787878",
"A@	c #858585",
"B@	c #898989",
"C@	c #7D7D7D",
"D@	c #8E8E8E",
"E@	c #777470",
"F@	c #50412B",
"G@	c #846C51",
"H@	c #8E7559",
"I@	c #67553E",
"J@	c #4C4439",
"K@	c #717171",
"L@	c #5A5A5A",
"M@	c #828282",
"N@	c #8F8E8D",
"O@	c #C3C1BE",
"P@	c #C5C2BE",
"Q@	c #C5C2BF",
"R@	c #B9B7B5",
"S@	c #707070",
"T@	c #969694",
"U@	c #CCC8C4",
"V@	c #EEE8E5",
"W@	c #F3EEEA",
"X@	c #E4DFD8",
"Y@	c #6B6845",
"Z@	c #122506",
"`@	c #434343",
" #	c #493C2B",
".#	c #706D69",
"+#	c #6F6D6B",
"@#	c #554938",
"##	c #514637",
"$#	c #777471",
"%#	c #7B7B7B",
"&#	c #7A7A7A",
"*#	c #929292",
"=#	c #676767",
"-#	c #AEACA9",
";#	c #9C9C9C",
">#	c #818181",
",#	c #959493",
"'#	c #50473B",
")#	c #6B5943",
"!#	c #797672",
"~#	c #878787",
"{#	c #737373",
"]#	c #5C5C5C",
"^#	c #696868",
"/#	c #B2B1B0",
"(#	c #8F8F8F",
"_#	c #828180",
":#	c #A8A6A4",
"<#	c #A9A8A6",
"[#	c #A9A6A1",
"}#	c #7F7F7F",
"|#	c #666666",
"1#	c #AFAEAC",
"2#	c #BBB9B7",
"3#	c #DFDBD6",
"4#	c #C4C1B7",
"5#	c #494F44",
"6#	c #686663",
"7#	c #69645D",
"8#	c #7A7979",
"9#	c #7F7F7E",
"0#	c #868585",
"a#	c #919191",
"b#	c #878583",
"c#	c #999898",
"d#	c #6B6B6B",
"e#	c #686868",
"f#	c #999896",
"g#	c #797979",
"h#	c #59534A",
"i#	c #7C664D",
"j#	c #4E412E",
"k#	c #545454",
"l#	c #767676",
"m#	c #575757",
"n#	c #525252",
"o#	c #8C8C8C",
"p#	c #7C7B7A",
"q#	c #B1AFAC",
"r#	c #6D6D6C",
"s#	c #797978",
"t#	c #888888",
"u#	c #B0AEAB",
"v#	c #A5A4A2",
"w#	c #B4B3B1",
"x#	c #B9B7B4",
"y#	c #5B5B5B",
"z#	c #4E4E4E",
"A#	c #838383",
"B#	c #8D8D8D",
"C#	c #90877D",
"D#	c #979797",
"E#	c #636363",
"F#	c #777675",
"G#	c #7E7D7B",
"H#	c #747371",
"I#	c #424242",
"J#	c #4C4C4C",
"K#	c #646464",
"L#	c #9E9E9D",
"M#	c #B3B1AE",
"N#	c #C3C0BC",
"O#	c #B7B6B4",
"P#	c #B3B1AF",
"Q#	c #A8A8A7",
"R#	c #6D6D6D",
"S#	c #4A4A4A",
"T#	c #555555",
"U#	c #727272",
"V#	c #6F6F6F",
"W#	c #757575",
"X#	c #5B5A59",
"Y#	c #85817C",
"Z#	c #56462F",
"`#	c #A8A19A",
" $	c #A1A1A0",
".$	c #828181",
"+$	c #818180",
"@$	c #B9B6B3",
"#$	c #605F5F",
"$$	c #4B4B4B",
"%$	c #939393",
"&$	c #9C9C9B",
"*$	c #BAB8B6",
"=$	c #606060",
"-$	c #5D5D5D",
";$	c #949392",
">$	c #7D766B",
",$	c #A29E99",
"'$	c #808080",
")$	c #AAA9A6",
"!$	c #706F6E",
"~$	c #565656",
"{$	c #A6A6A5",
"]$	c #BCB9B5",
"^$	c #5F5F5F",
"/$	c #494949",
"($	c #DAD5CF",
"_$	c #9A9A9A",
":$	c #6C6C6C",
"<$	c #989898",
"[$	c #5E5E5E",
"}$	c #454545",
"|$	c #A3A3A3",
"1$	c #7C7C7C",
"2$	c #696969",
"3$	c #858584",
"4$	c #999999",
"5$	c #464646",
"6$	c #4F4F4F",
"7$	c #BFBDBA",
"8$	c #949290",
"9$	c #6A6A6A",
"0$	c #9B9A99",
"a$	c #B5B3B0",
"b$	c #9F9F9F",
"c$	c #B1B0AF",
"d$	c #737271",
"e$	c #9E9E9E",
"f$	c #BAB8B5",
"g$	c #A0A0A0",
"h$	c #959595",
"i$	c #E0DBD8",
"j$	c #ECE6E4",
"k$	c #6D6C6C",
"l$	c #A5A4A4",
"m$	c #C8C5C1",
"n$	c #7A7876",
"o$	c #505050",
"p$	c #CDCAC9",
"q$	c #B1AFAF",
"r$	c #656565",
"s$	c #515151",
"t$	c #999897",
"u$	c #626262",
"v$	c #888786",
"w$	c #565655",
"x$	c #8F8F8E",
"y$	c #929191",
"z$	c #80807F",
"A$	c #8B8B8A",
"B$	c #868481",
"C$	c #6A6968",
"D$	c #676665",
"                                                                          .                           ",
"                                                                        + @ #   $                     ",
"                                                                      % & * = - % ;                   ",
"                                                                      % > , ' ) ! ;                   ",
"                                                                      ~ { ] ^ / ( _                   ",
"                                                                  : < [ } | 1 2 3 4 5                 ",
"                                                        6     7 8 9 0 a b c d e f g h i j             ",
"                                    k l   m n o p q r s t   u v j w x y z A B 3 C D E F G             ",
"                            H I J J K L M N O P Q R S T U V W X Y Z `  ...+.@.#.$.%.&.*.=.-.          ",
"                      6 ;.;.>.,.P '.).!.~.{.].^./.(._.:.<.[.}.|.1.2.).e 3.4.5.L 6.7.8.9.g 0.W         ",
"                      a.( b.c.d.V e.f.g.h.i.j.k.R l.l.m.n.o.p.}.q.r.s.t.u.L v.y w.x.y.. z.A.J         ",
"  B.                C.D.E.}.h.F.-.G.y ! H.I.J.~.K.L.M.N.O.P.e _ Q.R.S.T.U.p.V.W.X.Y.Z.`. +.+++        ",
"  @+#+            $+%+&+!.!.( *+=+-+-+;+*+I.>+3 ( ,+8 '+)+!+~+{+]+^+/+(+_+:+<+[+8 }+|+1+2+3+4+        ",
"  5+6+7+8+7 7 7 9+0+N a+b+c+d+*+e+% f+;.O.g+h+i+j+a.k+l+m+n+o+p+q+r+s+h+t+!.u+v+w+x+y+z+A+B+C+D+      ",
"  E+F+G+H+I+- I+J+K+L+< 1.M+N+O+o+c+W % % P+*+Q+R+S+T+U+f j V+W+X+Y+Z+`+ @.@+@@@#@$@%@&@*@=@(+-@;@    ",
"    >@,@'@z i )@!@~@l.{@]@}.^@/@(@_@:@<@[@}@|@1@2@3@4@5@J.6.!.6@9+7@8@9@0@a@b@c@d@e@f@g@h@i@j@k@l@m@  ",
"      n@W o@p@q@r@,+s@t@O u@v@_.r@w@x@y@z@2@A@B@C@D@2@E@F@G@H@I@J@K@L@M@N@O@P@Q@R@S@A@T@U@V@W@X@Y@Z@  ",
"          F@F@F@C.  `@ #*+.#+#@###$#%#&#*#=#-#;#C@>#| ,#'#N H@)#!#~#{#]#^#/#(#_#:#<#[#}#|#1#2#3#4#5#  ",
"                    `@6#7#8#2@9#0#a#z@b#c#d#x@]#e#e@f#g#h#i#S+j#B@k#| l#S@K@m#K@n#o#2@p#q#r#l#(#s#    ",
"                    `@2@>#g#t#u#v#w#x#|#y#>#z@z#| A#A@B#h#N.4+C#D#E#F#G#{#&#&#k#  L@y#  H#G+z@I#      ",
"                      J#K#L#M#N#O#P#Q#R#=#z#S#T#U#n#V#W#X#Y#Z#`#>#k# $.$+$@$#$            $$S#        ",
"                        l#%$z@&$*$B@o#=${#T#    `@`@`@J#-$;$>$,$D#k#'$z#J#)$!$                        ",
"                        ~$T#t#{$]$%#^${#k#              /$>#6+($A@S#$$`@                              ",
"                          z#B@_$*#K@=$:$S#              `@%$<$-#[$R#}$                                ",
"                          K#y@|$1$y#C@2$                `@3$0@4$~$D@5$                                ",
"                        6$'$7$8$=$9$'$2$                `@0$a$|$~$M@}$                                ",
"                        -$b$c$d$k#z@B#C@&#              `@'$e$f$~$<$^$                                ",
"                        -$g$ $[$}$|#y@K#k#              `@h$i$j$k$l#T#E+                              ",
"                        -$l$m$<$n$n#T#o$5$              `@g#, p$q$r$S#s$                              ",
"                        y#>#t$u$v$`@                      w$x$y$z$A$}$                                ",
"                          ]#=$$$~$`@                        k#B$C$D$                                  ",
"                                                                                                      "};
