/* XPM */
static char * wolfnormal3_xpm[] = {
"23 42 451 2",
"  	c #FFFFFD",
". 	c #8D8D8D",
"+ 	c #7B7B7B",
"@ 	c #CAC6C2",
"# 	c #9A9997",
"$ 	c #D6D1CC",
"% 	c #D5D1CB",
"& 	c #7F7F7E",
"* 	c #806D59",
"= 	c #A09D9A",
"- 	c #9F9C99",
"; 	c #83715D",
"> 	c #3F3221",
", 	c #56462F",
"' 	c #735E46",
") 	c #63513C",
"! 	c #574630",
"~ 	c #55442E",
"{ 	c #483A27",
"] 	c #4F3F2B",
"^ 	c #655238",
"/ 	c #836C51",
"( 	c #645138",
"_ 	c #413422",
": 	c #54442E",
"< 	c #473926",
"[ 	c #77624A",
"} 	c #7B6548",
"| 	c #8B7357",
"1 	c #90775A",
"2 	c #B4977B",
"3 	c #9E8367",
"4 	c #766043",
"5 	c #5B4A34",
"6 	c #4B3C28",
"7 	c #50402B",
"8 	c #66533B",
"9 	c #A58A6E",
"0 	c #846D50",
"a 	c #9D8266",
"b 	c #A5896D",
"c 	c #AB8F73",
"d 	c #AB8E72",
"e 	c #897155",
"f 	c #9B8165",
"g 	c #8D7559",
"h 	c #53432D",
"i 	c #584730",
"j 	c #55452F",
"k 	c #7D674A",
"l 	c #876F53",
"m 	c #987E62",
"n 	c #AC9074",
"o 	c #A88C70",
"p 	c #C0A185",
"q 	c #A3886C",
"r 	c #AE9175",
"s 	c #897154",
"t 	c #856D51",
"u 	c #786246",
"v 	c #463825",
"w 	c #5E4C34",
"x 	c #7F684B",
"y 	c #7A6447",
"z 	c #846C50",
"A 	c #B6987C",
"B 	c #B5977B",
"C 	c #B7997D",
"D 	c #8C7458",
"E 	c #7C6549",
"F 	c #836C4F",
"G 	c #7C6649",
"H 	c #756043",
"I 	c #3F3220",
"J 	c #4E3F2A",
"K 	c #705B3F",
"L 	c #5B4A35",
"M 	c #5A4932",
"N 	c #725D41",
"O 	c #957C60",
"P 	c #B29579",
"Q 	c #745F44",
"R 	c #92795D",
"S 	c #836C50",
"T 	c #6C583E",
"U 	c #635038",
"V 	c #8F765B",
"W 	c #6D593D",
"X 	c #51412C",
"Y 	c #635037",
"Z 	c #73624D",
"` 	c #BEA890",
" .	c #846D52",
"..	c #594831",
"+.	c #826B4F",
"@.	c #816A4D",
"#.	c #614F36",
"$.	c #6A563B",
"%.	c #8A7255",
"&.	c #705C42",
"*.	c #5F4D35",
"=.	c #A2896C",
"-.	c #B5A28E",
";.	c #6B573C",
">.	c #A6947F",
",.	c #C2BDB7",
"'.	c #C4AE91",
").	c #7D674C",
"!.	c #55442F",
"~.	c #4C3D29",
"{.	c #846D51",
"].	c #4D3E29",
"^.	c #5D4B33",
"/.	c #998064",
"(.	c #C6B7A2",
"_.	c #C7C1B9",
":.	c #77634B",
"<.	c #3E3121",
"[.	c #DCD6CE",
"}.	c #BFBDBA",
"|.	c #AE9A88",
"1.	c #9A8063",
"2.	c #887054",
"3.	c #69563D",
"4.	c #866F52",
"5.	c #7D664A",
"6.	c #6E5A43",
"7.	c #AA8F75",
"8.	c #ABA197",
"9.	c #D2CFC9",
"0.	c #B5A99A",
"a.	c #C2BFBB",
"b.	c #8E8782",
"c.	c #A78C70",
"d.	c #776145",
"e.	c #735E41",
"f.	c #876F52",
"g.	c #735D41",
"h.	c #B59B84",
"i.	c #8F8F8F",
"j.	c #CFCCC7",
"k.	c #9E9588",
"l.	c #5B4A32",
"m.	c #6E5A40",
"n.	c #838281",
"o.	c #878787",
"p.	c #7C6950",
"q.	c #8A7155",
"r.	c #80694D",
"s.	c #91785C",
"t.	c #967C60",
"u.	c #8A7256",
"v.	c #957B5F",
"w.	c #786245",
"x.	c #93795D",
"y.	c #756B5C",
"z.	c #919191",
"A.	c #7B7267",
"B.	c #5C4B34",
"C.	c #91785B",
"D.	c #78746E",
"E.	c #756857",
"F.	c #A1876C",
"G.	c #9F8468",
"H.	c #AF9377",
"I.	c #D1B597",
"J.	c #A98D71",
"K.	c #957C5F",
"L.	c #9E8467",
"M.	c #907B64",
"N.	c #756A5A",
"O.	c #877D72",
"P.	c #52422C",
"Q.	c #6F5A3E",
"R.	c #856F55",
"S.	c #AD9175",
"T.	c #A4896D",
"U.	c #C4A78A",
"V.	c #BEA084",
"W.	c #C7AA8D",
"X.	c #E0C6A7",
"Y.	c #B89B7E",
"Z.	c #CBAC90",
"`.	c #B4987B",
" +	c #A78B6F",
".+	c #AF9276",
"++	c #9F8569",
"@+	c #8A7359",
"#+	c #624F36",
"$+	c #443624",
"%+	c #A08568",
"&+	c #BB9E82",
"*+	c #C8AC8F",
"=+	c #DCC3A3",
"-+	c #D5B79A",
";+	c #E0C6A6",
">+	c #E7D0AF",
",+	c #D7BA9C",
"'+	c #DCC2A3",
")+	c #CCB193",
"!+	c #CFB395",
"~+	c #AC8F73",
"{+	c #A1866A",
"]+	c #90775B",
"^+	c #78634B",
"/+	c #BC9E82",
"(+	c #DABFA0",
"_+	c #B3967A",
":+	c #CDAF92",
"<+	c #E1C8A8",
"[+	c #E3CBAA",
"}+	c #E3CBAB",
"|+	c #E6CEAD",
"1+	c #E2CAAA",
"2+	c #DFC6A6",
"3+	c #D9BE9F",
"4+	c #BA9C80",
"5+	c #C2A588",
"6+	c #D7BD9E",
"7+	c #A3886D",
"8+	c #5F4D38",
"9+	c #413322",
"0+	c #786349",
"a+	c #B29A7B",
"b+	c #CEB596",
"c+	c #DABEA0",
"d+	c #CFAF93",
"e+	c #CEAE92",
"f+	c #D2B497",
"g+	c #DEC4A5",
"h+	c #D6B89B",
"i+	c #C2AA8B",
"j+	c #AC9275",
"k+	c #54432E",
"l+	c #69553A",
"m+	c #887053",
"n+	c #B09377",
"o+	c #8F785B",
"p+	c #B19679",
"q+	c #D2B698",
"r+	c #CFB093",
"s+	c #D3B598",
"t+	c #D9BD9F",
"u+	c #CBAB8F",
"v+	c #D6BB9C",
"w+	c #BEA185",
"x+	c #AD9276",
"y+	c #AE9276",
"z+	c #62503B",
"A+	c #8A7257",
"B+	c #8F775D",
"C+	c #8A7258",
"D+	c #3A3115",
"E+	c #5F5421",
"F+	c #4D3F09",
"G+	c #7C6843",
"H+	c #D4B79A",
"I+	c #D8BC9E",
"J+	c #B99D80",
"K+	c #675722",
"L+	c #4D3F12",
"M+	c #4F4719",
"N+	c #4E4028",
"O+	c #6D5942",
"P+	c #705B41",
"Q+	c #866F55",
"R+	c #483A28",
"S+	c #6D593E",
"T+	c #8D755C",
"U+	c #C2A488",
"V+	c #887154",
"W+	c #5C4C33",
"X+	c #9D7F36",
"Y+	c #C5A31E",
"Z+	c #534811",
"`+	c #998068",
" @	c #66553D",
".@	c #877310",
"+@	c #B99727",
"@@	c #725C2D",
"#@	c #7A654A",
"$@	c #A08569",
"%@	c #B6997D",
"&@	c #79634A",
"*@	c #4D3E2A",
"=@	c #5B4933",
"-@	c #745F43",
";@	c #998166",
">@	c #907A60",
",@	c #655239",
"'@	c #846D49",
")@	c #5D4C33",
"!@	c #726143",
"~@	c #C6A88B",
"{@	c #DBBFA1",
"]@	c #514428",
"^@	c #6F5B3E",
"/@	c #7D6745",
"(@	c #69553C",
"_@	c #A18B72",
":@	c #6F5B40",
"<@	c #50412C",
"[@	c #4A3B28",
"}@	c #4E3E2A",
"|@	c #AAA196",
"1@	c #D5CABF",
"2@	c #A88E73",
"3@	c #B99B7F",
"4@	c #C1A387",
"5@	c #D7BA9D",
"6@	c #B09A84",
"7@	c #DED6CE",
"8@	c #857763",
"9@	c #5B4932",
"0@	c #4C3F2E",
"a@	c #A2A09E",
"b@	c #E1DCD9",
"c@	c #D7CFC7",
"d@	c #E4D1C2",
"e@	c #D3B79E",
"f@	c #DFC5A6",
"g@	c #E4CCAC",
"h@	c #E0C7A7",
"i@	c #E3CAAA",
"j@	c #DBC1A3",
"k@	c #D3B79F",
"l@	c #E8DCD3",
"m@	c #D8D2CC",
"n@	c #D7D2CF",
"o@	c #76716A",
"p@	c #493C2A",
"q@	c #594833",
"r@	c #6B5F51",
"s@	c #9A9895",
"t@	c #999999",
"u@	c #8B8A89",
"v@	c #DBD7D3",
"w@	c #EBE4DE",
"x@	c #D5C2AF",
"y@	c #A39376",
"z@	c #826F51",
"A@	c #C0B097",
"B@	c #DCCCBD",
"C@	c #EFE9E5",
"D@	c #BFBCB9",
"E@	c #838383",
"F@	c #A1A1A1",
"G@	c #807C77",
"H@	c #7A6852",
"I@	c #614F3A",
"J@	c #646361",
"K@	c #9B9996",
"L@	c #898888",
"M@	c #888786",
"N@	c #D8D3CF",
"O@	c #DDD8D1",
"P@	c #857862",
"Q@	c #423A1C",
"R@	c #B0A89A",
"S@	c #DFDAD4",
"T@	c #C5C2BF",
"U@	c #737372",
"V@	c #A6A5A3",
"W@	c #767574",
"X@	c #5A544C",
"Y@	c #7F6951",
"Z@	c #51473B",
"`@	c #646464",
" #	c #5F5F5F",
".#	c #767676",
"+#	c #838382",
"@#	c #B1B0AD",
"##	c #9A9A9A",
"$#	c #747474",
"%#	c #A2A2A2",
"&#	c #AAA7A4",
"*#	c #777777",
"=#	c #565656",
"-#	c #6B6A69",
";#	c #64523C",
">#	c #5C4B37",
",#	c #6B573E",
"'#	c #50473A",
")#	c #787878",
"!#	c #656565",
"~#	c #5A5A5A",
"{#	c #585858",
"]#	c #606060",
"^#	c #5E5E5E",
"/#	c #616161",
"(#	c #737373",
"_#	c #696969",
":#	c #737270",
"<#	c #584732",
"[#	c #53432E",
"}#	c #40372B",
"|#	c #757574",
"1#	c #949494",
"2#	c #7D7D7D",
"3#	c #6A6A6A",
"4#	c #AEADAB",
"5#	c #DDD9D7",
"6#	c #E3DFDE",
"7#	c #D4D1CD",
"8#	c #908F8F",
"9#	c #5C5C5C",
"0#	c #727272",
"a#	c #8E8E8E",
"b#	c #8C8C8C",
"c#	c #625E59",
"d#	c #868686",
"e#	c #4F4F4F",
"f#	c #6C6C6C",
"g#	c #545454",
"h#	c #B8B6B3",
"i#	c #797979",
"j#	c #A3A3A3",
"k#	c #909090",
"l#	c #434343",
"m#	c #484848",
"n#	c #6F6F6F",
"o#	c #ACABAA",
"p#	c #A7A6A6",
"q#	c #959494",
"r#	c #848484",
"s#	c #757575",
"t#	c #575757",
"u#	c #9D9D9D",
"v#	c #9F9E9C",
"w#	c #888888",
"x#	c #9C9C9C",
"y#	c #535353",
"z#	c #525252",
"A#	c #828282",
"B#	c #AFAEAD",
"C#	c #9F9F9F",
"D#	c #595959",
"E#	c #898989",
"F#	c #6D6D6D",
"G#	c #646362",
"H#	c #D1CDC8",
"I#	c #717171",
"J#	c #B1AEAA",
"K#	c #B9B7B5",
"L#	c #91908E",
"M#	c #A6A39E",
"N#	c #C6C3BD",
"O#	c #CBC7C2",
"P#	c #9A9A99",
"Q#	c #908F8D",
"R#	c #757474",
"                                              ",
"                      .                       ",
"                    + @ #                     ",
"                    + $ % &                   ",
"                    * = - ;                   ",
"                  > , ' ) ! >                 ",
"              ~ { ] ^ / ( _ : <               ",
"              [ } | 1 2 3 4 | 5               ",
"        6 7 8 9 0 a b c d e f g h i           ",
"      > j e k l m n o p q r s | t u v         ",
"    > ~ w x y x z 3 A B C D E F G H i 6 I     ",
"    J K L e M N O P 0 Q R 2 S T U V h W >     ",
"    X Y Z `  ...+.@.#.i $.%.&.*.=.-.i ;.I     ",
"    7 X >.,.'.).!.~.Y {.i ].^./.(._.:.#.I     ",
"    <.#.[.}.|.1.2.3.4.G 5.6.2.7.8.9.0.J I     ",
"    > #.a.}.b.c.d.} e.f.g.5.} h.i.j.k.J I     ",
"  _ l.m.n.o.p.q.r.s.t.o u.v.w.x.y.z.A.B.i     ",
"  > X C.D.E.F.t.G.H.2 I.J.P K.L.M.N.O.r.>     ",
"h P.Q.C.R.S.o T.U.V.W.X.Y.Z.`. +.+++@+r.#+M $+",
"  , } m H.%+&+*+=+-+;+>+,+'+)+!+~+{+r ]+;.].  ",
"  ^+S./+(+_+:+<+,+[+}+|+1+2+3+2+4+5+6+H.7+8+  ",
"  9+0+a+b+c+d+e+d+c+f+g+,+h+e+e+f+(+i+j+k+    ",
"  $+l+m+n+o+p+q+r+}+s+f+t+2+u+v+w+x+y+E ..    ",
"z+A+l.B+C+D+E+F+G+H+f+s+I+J+K+L+M+N+9 O+P+Q+R+",
"  S+T+U+V+W+X+Y+Z+`+t+}+s+ @.@+@@@#@$@%@&@*.  ",
"  *@=@-@;@>@,@'@)@!@~@{@4+]@^@/@(@_@m+:@<@[@  ",
"    }@#.|@1@2@3@3@4@5@f+f+4+3@2 6@7@8@J 9@    ",
"    _ 0@a@b@c@d@e@f@g@h@i@j@k@l@m@n@o@p@>     ",
"    q@r@s@t@u@v@w@x@y@z@A@B@C@D@E@F@G@H@I     ",
"    I@I@J@K@L@M@N@O@P@Q@R@S@T@U@V@W@X@Y@>     ",
"      Y@Z@`@ #.#+#@###$#%#&#$#*#=#-#;#>#      ",
"      ,#'#)#$#!#+ ~#{#]#^#/#(#_#)#:#<#[#      ",
"      }#|#1#2#!#3#4#5#6#7#8#9#0#a#b#c#        ",
"        /#1#E@d#e#]#f#f#f#g#]#b#i.h#g#        ",
"          i#j#k#g#l#l#l#l#m#n#o#p#q#          ",
"          l#o.r#s#=#      t#u#9.v#e#          ",
"            t#w#x#d#y#    z#A#B#C#{#          ",
"            D#.#E#F#]#    G#}.H#)#            ",
"              `@I#^#      J#K#L#D#            ",
"                        M#N#O#P#l#            ",
"                        Q#R#n.b#l#            ",
"                        i#g#9#I#              "};
