/* XPM */
static char * wolfNormalRight1_xpm[] = {
"49 32 519 2",
"  	c #FFFFFD",
". 	c #B29579",
"+ 	c #7C6649",
"@ 	c #B5ADA2",
"# 	c #C4AF94",
"$ 	c #735E41",
"% 	c #9F8E78",
"& 	c #D2CCC5",
"* 	c #BFB2A4",
"= 	c #A88E71",
"- 	c #725D41",
"; 	c #725D40",
"> 	c #A99E8E",
", 	c #D4D0CA",
"' 	c #979593",
") 	c #B49B85",
"! 	c #7C664D",
"~ 	c #67543A",
"{ 	c #725E41",
"] 	c #4C3D29",
"^ 	c #847A6D",
"/ 	c #B5B3B1",
"( 	c #847F79",
"_ 	c #A78E75",
": 	c #967D60",
"< 	c #796346",
"[ 	c #846D50",
"} 	c #443624",
"| 	c #53432E",
"1 	c #715C42",
"2 	c #85796D",
"3 	c #7F7D7B",
"4 	c #7A6F5F",
"5 	c #977E61",
"6 	c #9D8266",
"7 	c #9B8165",
"8 	c #A98D71",
"9 	c #776245",
"0 	c #433523",
"a 	c #53432D",
"b 	c #776147",
"c 	c #735F46",
"d 	c #3F3120",
"e 	c #7B6549",
"f 	c #887865",
"g 	c #877257",
"h 	c #BDA586",
"i 	c #AB9074",
"j 	c #8F765A",
"k 	c #BFA185",
"l 	c #AC9074",
"m 	c #9A8063",
"n 	c #957B5F",
"o 	c #3F3220",
"p 	c #3E3221",
"q 	c #3F3221",
"r 	c #9A8169",
"s 	c #76624D",
"t 	c #453725",
"u 	c #715C43",
"v 	c #967E65",
"w 	c #584730",
"x 	c #78624A",
"y 	c #4E3E2A",
"z 	c #8E765D",
"A 	c #5D4B33",
"B 	c #6F5B45",
"C 	c #8E7559",
"D 	c #614F36",
"E 	c #56452F",
"F 	c #93795D",
"G 	c #AA8E72",
"H 	c #C1A387",
"I 	c #C2A689",
"J 	c #A3876B",
"K 	c #C9AA8E",
"L 	c #D5BA9C",
"M 	c #D3B799",
"N 	c #BDA587",
"O 	c #838383",
"P 	c #787878",
"Q 	c #7A654E",
"R 	c #4E3F2A",
"S 	c #645238",
"T 	c #997F63",
"U 	c #897154",
"V 	c #6B583C",
"W 	c #897155",
"X 	c #B4977B",
"Y 	c #826B4E",
"Z 	c #7D674D",
"` 	c #B5987C",
" .	c #786349",
"..	c #604E3A",
"+.	c #7F684C",
"@.	c #635137",
"#.	c #4F3F2B",
"$.	c #725E43",
"%.	c #A68B6F",
"&.	c #C6AE8F",
"*.	c #D1B999",
"=.	c #DAC0A1",
"-.	c #CFB294",
";.	c #BBA083",
">.	c #A08569",
",.	c #C5A68A",
"'.	c #B6B4B1",
").	c #3E3120",
"!.	c #5A4931",
"~.	c #5E4C34",
"{.	c #604E35",
"].	c #6D593F",
"^.	c #9A8066",
"/.	c #7D674B",
"(.	c #574630",
"_.	c #705C44",
":.	c #786346",
"<.	c #69563C",
"[.	c #7C664E",
"}.	c #756046",
"|.	c #A4896E",
"1.	c #826B4F",
"2.	c #856E51",
"3.	c #5A4932",
"4.	c #675439",
"5.	c #91785B",
"6.	c #AF9276",
"7.	c #BC9D81",
"8.	c #AE9276",
"9.	c #AD9175",
"0.	c #BAA183",
"a.	c #B19A7B",
"b.	c #C7A88C",
"c.	c #AD9074",
"d.	c #624F39",
"e.	c #7C7C7C",
"f.	c #D0CBC6",
"g.	c #AEACA9",
"h.	c #796348",
"i.	c #AB8F73",
"j.	c #B6987C",
"k.	c #715C3F",
"l.	c #5B4933",
"m.	c #846D51",
"n.	c #7A6448",
"o.	c #92795E",
"p.	c #80694C",
"q.	c #7E674B",
"r.	c #947A5F",
"s.	c #6C583C",
"t.	c #57462F",
"u.	c #554530",
"v.	c #92795D",
"w.	c #A98E72",
"x.	c #90775B",
"y.	c #A78B6F",
"z.	c #756045",
"A.	c #645137",
"B.	c #9C8165",
"C.	c #BD9F83",
"D.	c #BEA084",
"E.	c #9F8468",
"F.	c #705C42",
"G.	c #4E4021",
"H.	c #5D4D2B",
"I.	c #C8AB8E",
"J.	c #D1B697",
"K.	c #574734",
"L.	c #C4C0BB",
"M.	c #A9A7A6",
"N.	c #838280",
"O.	c #4A3B27",
"P.	c #887054",
"Q.	c #866F52",
"R.	c #68553A",
"S.	c #7B654A",
"T.	c #816A4F",
"U.	c #64513B",
"V.	c #8A7255",
"W.	c #876F53",
"X.	c #6E5A40",
"Y.	c #887154",
"Z.	c #7A644B",
"`.	c #998063",
" +	c #AE9879",
".+	c #BBA385",
"++	c #B5997C",
"@+	c #BA9D81",
"#+	c #836C52",
"$+	c #937527",
"%+	c #7E612B",
"&+	c #78693A",
"*+	c #A78D70",
"=+	c #68553E",
"-+	c #4D4D4D",
";+	c #817F7C",
">+	c #9D9C9A",
",+	c #978572",
"'+	c #766146",
")+	c #564530",
"!+	c #473926",
"~+	c #483926",
"{+	c #625037",
"]+	c #8D7558",
"^+	c #92795C",
"/+	c #6B573C",
"(+	c #5C4B34",
"_+	c #7A6447",
":+	c #725D42",
"<+	c #967C61",
"[+	c #856D52",
"}+	c #665339",
"|+	c #54442F",
"1+	c #6F5A3F",
"2+	c #7A6449",
"3+	c #78634A",
"4+	c #75604A",
"5+	c #BC9E83",
"6+	c #C7AA8D",
"7+	c #BA9E81",
"8+	c #A68A6E",
"9+	c #B0957A",
"0+	c #DAC2A6",
"a+	c #A68C70",
"b+	c #66532E",
"c+	c #BE9E25",
"d+	c #685813",
"e+	c #9F8569",
"f+	c #D6BA9C",
"g+	c #9D8469",
"h+	c #453724",
"i+	c #7E6D59",
"j+	c #AC9279",
"k+	c #B19478",
"l+	c #9D8367",
"m+	c #745E41",
"n+	c #604D35",
"o+	c #735D40",
"p+	c #6E5A3E",
"q+	c #655238",
"r+	c #887053",
"s+	c #8C7357",
"t+	c #635039",
"u+	c #55452F",
"v+	c #4B3C2A",
"w+	c #7F6952",
"x+	c #755F42",
"y+	c #8B7356",
"z+	c #51412C",
"A+	c #786245",
"B+	c #9E9182",
"C+	c #E5DFDA",
"D+	c #C9B59D",
"E+	c #9C8265",
"F+	c #9E8568",
"G+	c #A58F71",
"H+	c #B69C7E",
"I+	c #BFA487",
"J+	c #CAAD90",
"K+	c #826E53",
"L+	c #493A27",
"M+	c #65523A",
"N+	c #897255",
"O+	c #8C7458",
"P+	c #A1866A",
"Q+	c #69563B",
"R+	c #463825",
"S+	c #68553B",
"T+	c #947A5E",
"U+	c #8E765A",
"V+	c #705B3F",
"W+	c #5B4A32",
"X+	c #6F5C41",
"Y+	c #715D41",
"Z+	c #705C40",
"`+	c #635139",
" @	c #514330",
".@	c #767169",
"+@	c #5C5041",
"@@	c #90785F",
"#@	c #AF9377",
"$@	c #8B7357",
"%@	c #987E62",
"&@	c #796447",
"*@	c #483A27",
"=@	c #5E574E",
"-@	c #CDC4BB",
";@	c #C1B8AC",
">@	c #9B9387",
",@	c #877B6D",
"'@	c #B4B3B2",
")@	c #B0ADA9",
"!@	c #C8BEB4",
"~@	c #E1D6CB",
"{@	c #F7ECE3",
"]@	c #F0E3D5",
"^@	c #DBC3A5",
"/@	c #D4B89B",
"(@	c #C2AA8B",
"_@	c #2C2806",
":@	c #5C4A32",
"<@	c #745F45",
"[@	c #594831",
"}@	c #8F775D",
"|@	c #72624F",
"1@	c #594832",
"2@	c #877258",
"3@	c #605547",
"4@	c #80807F",
"5@	c #64605A",
"6@	c #585047",
"7@	c #777777",
"8@	c #544C41",
"9@	c #534A3F",
"0@	c #68563E",
"a@	c #977D61",
"b@	c #66533B",
"c@	c #564630",
"d@	c #5F5952",
"e@	c #969491",
"f@	c #BEBAB6",
"g@	c #AEADAB",
"h@	c #CCC8C3",
"i@	c #A2A2A0",
"j@	c #9D9B99",
"k@	c #A9A9A9",
"l@	c #909090",
"m@	c #B3B2B1",
"n@	c #CCC8C4",
"o@	c #F0EAE7",
"p@	c #EEE9E5",
"q@	c #E8E0DA",
"r@	c #DAC3B0",
"s@	c #948161",
"t@	c #34350E",
"u@	c #112204",
"v@	c #4B3C28",
"w@	c #50412B",
"x@	c #42382C",
"y@	c #4A3F31",
"z@	c #746554",
"A@	c #6E6C6A",
"B@	c #604E36",
"C@	c #746551",
"D@	c #8B8B8B",
"E@	c #868686",
"F@	c #989898",
"G@	c #8C8C8C",
"H@	c #8A8A8A",
"I@	c #4C4030",
"J@	c #69563D",
"K@	c #977E63",
"L@	c #493A28",
"M@	c #606060",
"N@	c #6C6C6C",
"O@	c #636363",
"P@	c #7F7F7F",
"Q@	c #C7C4BF",
"R@	c #B1B0AF",
"S@	c #BCBBB8",
"T@	c #CCC9C4",
"U@	c #9B9A99",
"V@	c #666666",
"W@	c #B4B2B0",
"X@	c #D4D0CC",
"Y@	c #E9E4DF",
"Z@	c #EEE8E4",
"`@	c #C7C2B3",
" #	c #2B340E",
".#	c #021E03",
"+#	c #49433C",
"@#	c #5E4E38",
"##	c #625D56",
"$#	c #67635D",
"%#	c #4E4538",
"&#	c #797979",
"*#	c #626261",
"=#	c #ADADAC",
"-#	c #82807E",
";#	c #A5A5A3",
">#	c #707070",
",#	c #808080",
"'#	c #A3A2A0",
")#	c #6F6C68",
"!#	c #5E4D36",
"~#	c #6F5B40",
"{#	c #725E46",
"]#	c #87837E",
"^#	c #737373",
"/#	c #878787",
"(#	c #6E6E6E",
"_#	c #535353",
":#	c #9A9999",
"<#	c #7D7D7D",
"[#	c #6D6D6C",
"}#	c #A1A1A1",
"|#	c #BDBAB5",
"1#	c #A6A5A3",
"2#	c #706F6E",
"3#	c #7A7A7A",
"4#	c #939393",
"5#	c #BCBAB8",
"6#	c #CDCAC5",
"7#	c #747473",
"8#	c #6B6762",
"9#	c #828282",
"0#	c #A2A2A2",
"a#	c #898887",
"b#	c #848484",
"c#	c #656565",
"d#	c #565656",
"e#	c #ABAAA7",
"f#	c #6C6A67",
"g#	c #625039",
"h#	c #756048",
"i#	c #898581",
"j#	c #616161",
"k#	c #696969",
"l#	c #676767",
"m#	c #505050",
"n#	c #595959",
"o#	c #908E8B",
"p#	c #A09F9D",
"q#	c #7B7B7B",
"r#	c #6D6D6D",
"s#	c #5B5B5B",
"t#	c #757474",
"u#	c #9B9B9A",
"v#	c #A4A3A0",
"w#	c #B6B5B2",
"x#	c #C3C0BD",
"y#	c #BFBDBA",
"z#	c #868685",
"A#	c #6A6A6A",
"B#	c #717171",
"C#	c #818181",
"D#	c #9A9A9A",
"E#	c #706E6C",
"F#	c #4C4032",
"G#	c #6B5940",
"H#	c #82786C",
"I#	c #B1AFAE",
"J#	c #686868",
"K#	c #A6A4A0",
"L#	c #767676",
"M#	c #8B8A89",
"N#	c #545454",
"O#	c #515151",
"P#	c #696968",
"Q#	c #858585",
"R#	c #434343",
"S#	c #898989",
"T#	c #AAA9A8",
"U#	c #BAB8B6",
"V#	c #454545",
"W#	c #5E5E5E",
"X#	c #4C4C4C",
"Y#	c #5D5D5D",
"Z#	c #665846",
"`#	c #6C6458",
" $	c #979695",
".$	c #A5A3A0",
"+$	c #868583",
"@$	c #C1BEBB",
"#$	c #646464",
"$$	c #8B8986",
"%$	c #A9A6A1",
"&$	c #CFCBC6",
"*$	c #A1A09F",
"=$	c #8F8F8F",
"-$	c #AAA9A9",
";$	c #9D9C99",
">$	c #424242",
",$	c #5A5A5A",
"'$	c #7E7E7E",
")$	c #ABA9A8",
"!$	c #D6D2CC",
"~$	c #9D9D9D",
"{$	c #A0A0A0",
"]$	c #B2B1B0",
"^$	c #ADACAB",
"/$	c #AEABA8",
"($	c #4F4F4F",
"_$	c #9B9B9B",
":$	c #6F6F6F",
"<$	c #ABA9A6",
"[$	c #B7B6B4",
"}$	c #ACACAB",
"|$	c #8D8C8A",
"1$	c #474747",
"2$	c #9C9C9C",
"3$	c #525252",
"4$	c #949494",
"5$	c #4A4A4A",
"6$	c #807F7E",
"7$	c #A6A5A5",
"8$	c #A7A6A4",
"9$	c #716F6D",
"0$	c #ABABA9",
"a$	c #626262",
"b$	c #CFCCCC",
"c$	c #E6E0DC",
"d$	c #A19E9D",
"e$	c #CECBC6",
"f$	c #9E9E9E",
"g$	c #918F8C",
"h$	c #4E4E4E",
"i$	c #B0AEAB",
"j$	c #C7C4C2",
"k$	c #D1CECE",
"l$	c #9D9D9C",
"m$	c #6B6B6B",
"n$	c #8E8E8D",
"o$	c #757473",
"p$	c #8C8B8A",
"q$	c #575757",
"r$	c #737271",
"s$	c #62615F",
"t$	c #8F8D8A",
"                                                                                                  ",
"                                                                      .                           ",
"                                                                    + @ #   $                     ",
"                                                                    % & * = - ;                   ",
"                                                                    > , ' ) ! ~ {                 ",
"                                                                  ] ^ / ( _ : < [                 ",
"                                                            } | ] 1 2 3 4 5 6 7 8   9             ",
"                                                    0 a   ] b c d e f g h i j k l m n             ",
"                        o p     q r s t u v w p x y z A q B C D E F G H I J l K L M N             ",
"  O P                   } [ Q R S T k U V W X Y Z `  ...+.@.#.$.%.&.*.*.*.=.-.;.>.M ,.j           ",
"  '.P             ).!.~.{.].^.T { W [ /.w (._.:.<.[.}.R |.1.2.3.4.5.6.7.8.9.` 0.a.G b.c.d.        ",
"e.f.g.            q h.i.j.k.l.m.U n.o.p.q.r.s.t.u.3.v.w.x.y.z.t A.B.C.D.%.E.F.G.H.: I.J.K.        ",
"P L.M.N.p       O.!.1.P.Q.R.S.5.E.T.U.m.V.T h.w W.X.A Y.i.; D Z.`. +.+++` @+#+$+%+&+*+I.=+        ",
"-+;+>+,+'+)+!+!+~+{+]+^+j /+(+_+_+:+/+e >.<+[+}+|+1+4.{.2+3+].4+5+6+7+8+9+0+a+b+c+d+e+f+g+h+      ",
"  O.i+j+k+l+]++.m+}+n+o+p+O.s.$ - w q+r+s+t+u+u+v+4+w++ x+U y+D z+A+s+r+B+C+D+E+F+G+H+I+J+K+L+    ",
"    M+N+O+E+P+2.Q+R+S+T+U+A.V+V.W+X+Y+Z+`+ @.@+@@@#@$@y+p.%@&@*@=@-@;@>@,@'@)@!@~@{@]@^@/@(@1 _@  ",
"      :@<@j $ $ [@W+_+}@|@1@s+2@3@4@5@6@7@P 7@O 8@9@0@y.a@b@c@d@e@f@g@h@i@j@k@l@m@n@o@p@q@r@s@t@u@",
"        v@w@w@w@x@y@Z+z@A@1@B@C@D@E@P P E@F@G@O P H@I@J@q.K@L@M@N@O@P@Q@R@S@T@U@V@V@W@X@Y@Z@`@ #.#",
"                  +#@###7@$#%#4@&#*#=#P -#;#>#,#'#G@)#!#~#{#]#^#/#(#_#:#<#^#[#}#|#1#2#3#4#5#6#7#  ",
"                  M@8#E@7@9#,#0#4#[#a#e.b#c#d#F@e#P f#g#h#] i#j#k#7@l#k#j#>#m#j#9#n#o#p#q#(#r#    ",
"                  s#H@t#u#v#w#x#y#z#m#A#B#m#,#C#N@D#E#F#G#H#I#J#J#K#L#M#H@N#    O#    P#Q#R#      ",
"                  R#S#T#U@U#5#F@H@A#O j#O#V#W#X#Y#W#A#L#Z#`# $V@b#Q#W#.$+$              R#        ",
"                  >#P@P@u#@$G@9##$C#}#7@X#        R#l#M@$$%$&$G@W#V@R#  *$                        ",
"                  R#J#=$-$;$k#>$,$e.Q#'$R#        _#(#-+'$)$!$&#R#                                ",
"                  R#q#=$=$'$X#  R#^#S#~$s#        j#P >#J#{$]$V@                                  ",
"                  >#^$/$k#        ($P S#O         B#_$:$O#<$[$E@                                  ",
"                O#4#}$|$1$          J#2$9#k#    3$4$H@Y#5$6$7$8$9$                                ",
"                O#4#0$N@            s#P a$k#_#  3$3#>#:$5$l#b$c$d$                                ",
"                O#4#e$f$g$            n#m#N#R#  h$s#m#Y#R#n#i$j$k$L#                              ",
"                m#&#l$m$n$>$                                o$_$4@p$c#                            ",
"                  q$M@3$q$R#                                  r$s$t$R#                            ",
"                                                                                                  "};
