/* XPM */
static char * wolfAngry3_xpm[] = {
"23 42 409 2",
"  	c #FFFFFD",
". 	c #AEAEBE",
"+ 	c #9999AB",
"@ 	c #E6E5EA",
"# 	c #B8B8C5",
"$ 	c #F0EFF1",
"% 	c #F0EEF1",
"& 	c #9D9DAE",
"* 	c #B3B3C0",
"= 	c #C3C3D0",
"- 	c #C2C1CE",
"; 	c #B6B6C2",
"> 	c #6F6F7F",
", 	c #89899A",
"' 	c #A9A9B7",
") 	c #9797A5",
"! 	c #8A8A9B",
"~ 	c #878798",
"{ 	c #7A7A8A",
"] 	c #818191",
"^ 	c #9A9AAB",
"/ 	c #BBBBC9",
"( 	c #9999AA",
"_ 	c #727282",
": 	c #878797",
"< 	c #787888",
"[ 	c #AEAEBB",
"} 	c #B3B3C3",
"| 	c #C7C6D2",
"1 	c #E1E0E5",
"2 	c #D4D4DD",
"3 	c #ADADBE",
"4 	c #C5C5D2",
"5 	c #8E8E9E",
"6 	c #7D7D8D",
"7 	c #828293",
"8 	c #9B9BAC",
"9 	c #DAD9E1",
"0 	c #BAB9C8",
"a 	c #DEDDE5",
"b 	c #E1E1E8",
"c 	c #E1E0E7",
"d 	c #C2C2CF",
"e 	c #CECDD7",
"f 	c #C4C4D0",
"g 	c #868697",
"h 	c #8B8B9C",
"i 	c #6E6E7F",
"j 	c #898999",
"k 	c #B5B5C5",
"l 	c #BFBFCD",
"m 	c #D0D0DB",
"n 	c #DFDEE5",
"o 	c #E0DFE7",
"p 	c #EDECEF",
"q 	c #DDDDE5",
"r 	c #DFDEE4",
"s 	c #C1C1CE",
"t 	c #C4C4D1",
"u 	c #BDBDCB",
"v 	c #AFAFBF",
"w 	c #777787",
"x 	c #888898",
"y 	c #9393A4",
"z 	c #B7B7C6",
"A 	c #B1B1C2",
"B 	c #BCBCCB",
"C 	c #D3D3DC",
"D 	c #E8E7EB",
"E 	c #E7E6EB",
"F 	c #E8E7EC",
"G 	c #B4B4C4",
"H 	c #BCBCCA",
"I 	c #ACACBD",
"J 	c #808091",
"K 	c #A6A6B8",
"L 	c #8D8D9B",
"M 	c #A9A9BA",
"N 	c #CECED9",
"O 	c #E4E3E9",
"P 	c #BCBBCA",
"Q 	c #ABABBC",
"R 	c #CAC9D5",
"S 	c #E5E4E9",
"T 	c #A2A2B2",
"U 	c #9797A8",
"V 	c #C6C5D1",
"W 	c #858596",
"X 	c #A3A3B5",
"Y 	c #848495",
"Z 	c #9898A9",
"` 	c #A2A2B0",
" .	c #E7E7EC",
"..	c #BABAC7",
"+.	c #8C8C9D",
"@.	c #BABAC8",
"#.	c #B9B9C8",
"$.	c #9696A7",
"%.	c #A0A0B2",
"&.	c #A7A7B6",
"*.	c #DDDCE3",
"=.	c #A1A1B3",
"-.	c #838394",
";.	c #D6D5DE",
">.	c #EAE9EE",
",.	c #B5B5C3",
"'.	c #7E7E8F",
").	c #7F7F8F",
"!.	c #9191A2",
"~.	c #CECED8",
"{.	c #ACACB8",
"].	c #F5F3F4",
"^.	c #DEDEE5",
"/.	c #D5D4DC",
"(.	c #D0D0DA",
"_.	c #C0C0CD",
":.	c #9E9EAE",
"<.	c #A4A4B1",
"[.	c #C1C1CF",
"}.	c #DCDBE2",
"|.	c #D0CFD9",
"1.	c #EEECEF",
"2.	c #D9D8DF",
"3.	c #AEAEBD",
"4.	c #D8D7DE",
"5.	c #AEAEC0",
"6.	c #AAAABC",
"7.	c #B2B2C3",
"8.	c #DDDCE1",
"9.	c #AFAFC0",
"0.	c #ECEAEE",
"a.	c #C8C7D3",
"b.	c #8F8FA0",
"c.	c #A5A5B4",
"d.	c #A3A3B4",
"e.	c #A7A7B8",
"f.	c #B1B1C1",
"g.	c #C2C2D0",
"h.	c #B8B8C8",
"i.	c #CBCBD7",
"j.	c #DFDFE6",
"k.	c #CFCFDA",
"l.	c #B0B0C1",
"m.	c #CCCCD7",
"n.	c #A0A0B3",
"o.	c #B2B2C2",
"p.	c #9090A0",
"q.	c #CACAD6",
"r.	c #9B9BAD",
"s.	c #A1A1B4",
"t.	c #D1D0D9",
"u.	c #D8D8E1",
"v.	c #E6E6EB",
"w.	c #F5F4F5",
"x.	c #E0E0E7",
"y.	c #E5E5EA",
"z.	c #D7D7E0",
"A.	c #BDBCC9",
"B.	c #B0B0BF",
"C.	c #A5A5B7",
"D.	c #E0DFE6",
"E.	c #EFEEF0",
"F.	c #ECEBEE",
"G.	c #F1EFF1",
"H.	c #FBFAFA",
"I.	c #F4F2F3",
"J.	c #E6E5EB",
"K.	c #DFDEE6",
"L.	c #E2E2E8",
"M.	c #D6D6DF",
"N.	c #8E8E9F",
"O.	c #757585",
"P.	c #D2D2DD",
"Q.	c #DBDBE4",
"R.	c #EAE9ED",
"S.	c #F1F0F2",
"T.	c #F9F8F9",
"U.	c #F8F6F6",
"V.	c #FEFDFD",
"W.	c #F8F7F7",
"X.	c #FAF9F9",
"Y.	c #F2F1F3",
"Z.	c #F4F3F4",
"`.	c #E2E1E8",
" +	c #DCDCE4",
".+	c #E3E2E8",
"++	c #C9C9D6",
"@+	c #7F7F90",
"#+	c #AEAEB9",
"$+	c #DEDDE3",
"%+	c #EBE9ED",
"&+	c #F9F7F8",
"*+	c #FCFBFB",
"=+	c #F6F5F6",
"-+	c #FDFCFC",
";+	c #F8F6F7",
">+	c #E3E3E9",
",+	c #D3D2D9",
"'+	c #9292A0",
")+	c #717181",
"!+	c #AAAAB7",
"~+	c #D9D8E0",
"{+	c #F2F1F4",
"]+	c #F9F8F8",
"^+	c #DBDAE0",
"/+	c #E3E2E7",
"(+	c #F7F5F5",
"_+	c #E6E5E9",
":+	c #D7D6DE",
"<+	c #9E9EB0",
"[+	c #E9E7EC",
"}+	c #D3D3DE",
"|+	c #CAC9D4",
"1+	c #C8C8D4",
"2+	c #E1E1E7",
"3+	c #E1E0E6",
"4+	c #8D8D9E",
"5+	c #9696A3",
"6+	c #C3C3CF",
"7+	c #C3C2CC",
"8+	c #C2C2CD",
"9+	c #686877",
"0+	c #6F6750",
"a+	c #9A9AA4",
"b+	c #CACAD4",
"c+	c #D9D9E1",
"d+	c #D5D5DF",
"e+	c #DADAE2",
"f+	c #CACAD2",
"g+	c #77757A",
"h+	c #666052",
"i+	c #DEDEE6",
"j+	c #A09FAD",
"k+	c #A6A6B6",
"l+	c #BFBFCA",
"m+	c #797989",
"n+	c #A4A4B5",
"o+	c #C1C0CA",
"p+	c #ECEAED",
"q+	c #8F8F9D",
"r+	c #BEA54D",
"s+	c #635853",
"t+	c #92929B",
"u+	c #E0DFE5",
"v+	c #C7C7D3",
"w+	c #DBDAE1",
"x+	c #D0CFD5",
"y+	c #767682",
"z+	c #7B6744",
"A+	c #A8995F",
"B+	c #B1B1BF",
"C+	c #D2D1DA",
"D+	c #E2E1E5",
"E+	c #B0B0BE",
"F+	c #9494A5",
"G+	c #D1D1DB",
"H+	c #908786",
"I+	c #B6974C",
"J+	c #8B877F",
"K+	c #A5A5B0",
"L+	c #E2E0E6",
"M+	c #E4E3E8",
"N+	c #838390",
"O+	c #A89B69",
"P+	c #A28455",
"Q+	c #9B9AA6",
"R+	c #D5D5DE",
"S+	c #C0C0CE",
"T+	c #838393",
"U+	c #7C7C8C",
"V+	c #808090",
"W+	c #CECDD8",
"X+	c #F1F0F3",
"Y+	c #C9C8D4",
"Z+	c #CCCBD6",
"`+	c #D6D5DD",
" @	c #EEEDF1",
".@	c #DEDDE4",
"+@	c #D7D7DF",
"@@	c #D3D2DA",
"#@	c #C6C6D3",
"$@	c #B5B5C6",
"%@	c #7B7B8C",
"&@	c #BFBECA",
"*@	c #DDDCDF",
"=@	c #ECEAEC",
"-@	c #FAF9FA",
";@	c #E1E1E4",
">@	c #E3E2E5",
",@	c #EBEAED",
"'@	c #9A9AAA",
")@	c #79798A",
"!@	c #6F6F7E",
"~@	c #8C8C9B",
"{@	c #9898A8",
"]@	c #B4B4BC",
"^@	c #BBBBCA",
"/@	c #6A6A78",
"(@	c #9E9EA8",
"_@	c #E1E1E5",
":@	c #C1C1C6",
"<@	c #B0B0B6",
"[@	c #D7D7DC",
"}@	c #F5F4F6",
"|@	c #CBCAD0",
"1@	c #888895",
"2@	c #80808F",
"3@	c #9D9CA7",
"4@	c #9494A2",
"5@	c #9595A3",
"6@	c #B5B4BC",
"7@	c #A6A5B2",
"8@	c #634D5F",
"9@	c #887F8A",
"0@	c #848491",
"a@	c #5E5E6C",
"b@	c #D2D0D4",
"c@	c #674F5F",
"d@	c #7B7584",
"e@	c #C4C3CC",
"f@	c #8F8F9B",
"g@	c #B7B7C2",
"h@	c #7C7C8D",
"i@	c #878795",
"j@	c #A39DA6",
"k@	c #8D7483",
"l@	c #A494A2",
"m@	c #877F91",
"n@	c #B2A9B3",
"o@	c #836575",
"p@	c #908F9A",
"q@	c #90909F",
"r@	c #6E6E7D",
"s@	c #89899B",
"t@	c #9898A6",
"u@	c #90909D",
"v@	c #A0A0B0",
"w@	c #9696A9",
"x@	c #9292A4",
"y@	c #767686",
"z@	c #988B9B",
"A@	c #A36076",
"B@	c #8D465D",
"C@	c #982D4D",
"D@	c #A78492",
"E@	c #954761",
"F@	c #858593",
"G@	c #818193",
"H@	c #9292A5",
"I@	c #858595",
"J@	c #686878",
"K@	c #9494A7",
"L@	c #9C9CAE",
"M@	c #A1A0AB",
"N@	c #937283",
"O@	c #704258",
"P@	c #C1B1BB",
"Q@	c #777685",
"R@	c #747485",
"S@	c #8F8FA2",
"T@	c #ADADBD",
"U@	c #7A7A8B",
"V@	c #B6B6C5",
"W@	c #A2A2B4",
"X@	c #A6A6B7",
"Y@	c #656574",
"Z@	c #ACACBC",
"`@	c #6C6C7C",
" #	c #D6D6DE",
".#	c #6A6A7A",
"+#	c #6B6B7B",
"@#	c #585867",
"##	c #5C5C6A",
"$#	c #8A8A9A",
"%#	c #CDCDD8",
"&#	c #C9C9D5",
"*#	c #B4B4C0",
"=#	c #565664",
"-#	c #6D6D7D",
";#	c #6E6E7C",
">#	c #BEBDCA",
",#	c #A8A8B8",
"'#	c #BEBECC",
")#	c #A5A5B5",
"!#	c #696978",
"~#	c #A2A2B3",
"{#	c #6F6F7D",
"]#	c #70707D",
"^#	c #91919F",
"/#	c #A8A8B5",
"(#	c #787885",
"_#	c #7A7A86",
":#	c #EDEBEF",
"<#	c #8D8D9D",
"[#	c #777786",
"}#	c #CAC9CF",
"|#	c #DAD9E2",
"1#	c #AEADBA",
"2#	c #BDBCC1",
"3#	c #E1DFE4",
"4#	c #E5E4E7",
"5#	c #BABAC6",
"6#	c #ABABB5",
"7#	c #8F8E9C",
"8#	c #9E9EAA",
"9#	c #ABABB9",
"0#	c #9797A9",
"a#	c #747484",
"b#	c #8D8D9F",
"                                              ",
"                      .                       ",
"                    + @ #                     ",
"                    + $ % &                   ",
"                    * = - ;                   ",
"                  > , ' ) ! >                 ",
"              ~ { ] ^ / ( _ : <               ",
"              [ } - | 1 2 3 4 5               ",
"        6 7 8 9 0 2 a b c d e f g h           ",
"      i j d k l m n o p q r s t u v w         ",
"    > x y z A z B C D E F 4 G H G I h 6 >     ",
"    J K L s 5 M N O P Q R S B T U V W X >     ",
"    Y Z `  ...+.@.#.$.h %.= &.y 2 *.h =.>     ",
"    7 -.;.c >.,.~ '.U H h ).!.~. .@ {.$.i     ",
"    > $.].^./.(._.:.l G k <.[.}.|.1.2.] >     ",
"    > $.c ^.3.4.5.} 6.l 6.k 7.8.9.0.a.] >     ",
"  _ b.c.d.e.f.g.h.i.m j.t k.l.m.n.o.X p.h     ",
"  > Y q.r.s.t.m u.O v.w.x.y.k.z.A.n.B.h.>     ",
"g Y C.q.H D.j.q E.F.G.H.F I.J.K.L.M.[.h.U N.O.",
"  ! 7.P.O Q.R.S.T.U.H.V.W.X.Y.Z.`. +.+++%.@+  ",
"  #+$+%+&+@ Z.*+=+*+*+-+*+X.W.*+R.1.;+>+,+'+  ",
"  )+!+~+{+]+^+/+j.S.(+H.W.E >+}._+]+ .:+:     ",
"  O.<+s [+c $+~.}+a |+- ;.Q.1+}.r 2+3+} 4+    ",
"5+6+b.7+8+9+0+a+b+c+i.d+q.e+f+g+h+).i+j+k+l+m+",
"  n+o+p+s q+r+s+t+u+}.v+w+x+y+z+A+B+C+D+E+F+  ",
"  @+5 M G+V H+I+J+K+L+M+n N+O+P+Q+R+S+n+T+U+  ",
"    V+$.W+X+Y+Z+`+ @.@+@J.E @@#@M.Y.$@] b.    ",
"    _ %@&@E.*@=@I.V.V.V.V.-@].;@>@,@'@)@!@    ",
"    ~@{@]@^@/@(@_@w.:@<@[@}@|@1@2@= 3@3.!@    ",
"    4@5@V+6@7@8@9@3+0@a@{.b@c@d@e@f@'.g@!@    ",
"      g@h@'.w i@j@k@l@m@n@o@p@q@r@s@t@u@      ",
"      v@%@w@x@y@z@A@B@C@D@E@F@G@w@H@~@I@      ",
"      J@K@k L@@+%@M@N@O@P@Q@R@S@v T@Y         ",
"        U@V@W@X@Y@j Z@Z@Z@`@)@I 9. #.#        ",
"          5@#@f.+#@#a@a@a@##$#%#&#*#          ",
"          =#k+X H@-#      ;#S+1.>#Y@          ",
"            r@,#'#)#!#    9+~#m [.{#          ",
"            ]#^#/#i@(#    _#n :#4@            ",
"              6 <#[#      }#|#1#]#            ",
"                        2#3#4#5#=#            ",
"                        6#7#8#9#=#            ",
"                        0#.#a#b#              "};
