/* XPM */
static char * wolfNormalLeft2_xpm[] = {
"51 32 532 2",
"  	c #FFFFFD",
". 	c #735E41",
"+ 	c #BDA790",
"@ 	c #836F54",
"# 	c #735D41",
"$ 	c #897154",
"% 	c #C9B499",
"& 	c #C5C0B8",
"* 	c #9C8870",
"= 	c #6B573D",
"- 	c #9B8165",
"; 	c #B09E8D",
"> 	c #C4C1BE",
", 	c #D2CCC2",
"' 	c #725D40",
") 	c #715D43",
"! 	c #BA9C80",
"~ 	c #8B8784",
"{ 	c #BBB7B0",
"] 	c #635037",
"^ 	c #866F52",
"/ 	c #8B7256",
"( 	c #9C8265",
"_ 	c #A2866A",
": 	c #7A6954",
"< 	c #8E8E8E",
"[ 	c #83807D",
"} 	c #68543B",
"| 	c #423523",
"1 	c #4A3B28",
"2 	c #816A4D",
"3 	c #7D674A",
"4 	c #9A8063",
"5 	c #B7997D",
"6 	c #9A7F63",
"7 	c #967C60",
"8 	c #A38E73",
"9 	c #756A5A",
"0 	c #7B7670",
"a 	c #8D7458",
"b 	c #4E3E2A",
"c 	c #604E37",
"d 	c #635039",
"e 	c #3E3121",
"f 	c #8B7457",
"g 	c #BA9E81",
"h 	c #B3967A",
"i 	c #CCAD91",
"j 	c #A3886C",
"k 	c #9C8266",
"l 	c #C7AB8E",
"m 	c #B79E80",
"n 	c #8A745B",
"o 	c #8F775A",
"p 	c #54442E",
"q 	c #52422D",
"r 	c #897155",
"s 	c #6C5840",
"t 	c #5F4D36",
"u 	c #443725",
"v 	c #4A3B29",
"w 	c #51412E",
"x 	c #4E3F2C",
"y 	c #574634",
"z 	c #453726",
"A 	c #AC9376",
"B 	c #E2CAAA",
"C 	c #CBAE91",
"D 	c #CEB294",
"E 	c #BAA082",
"F 	c #C4AA8C",
"G 	c #D9BD9E",
"H 	c #D6BA9C",
"I 	c #BFA688",
"J 	c #A48A6D",
"K 	c #6D5941",
"L 	c #645137",
"M 	c #7D6851",
"N 	c #56452F",
"O 	c #65523C",
"P 	c #7E684E",
"Q 	c #7B654E",
"R 	c #957C5F",
"S 	c #66533B",
"T 	c #79634C",
"U 	c #AD9175",
"V 	c #8A7255",
"W 	c #635137",
"X 	c #826C56",
"Y 	c #C4A589",
"Z 	c #6F5B43",
"` 	c #63513B",
" .	c #483A26",
"..	c #3E3120",
"+.	c #91785C",
"@.	c #B5987C",
"#.	c #CEB093",
"$.	c #9D8366",
"%.	c #8C7457",
"&.	c #B99D81",
"*.	c #CFB093",
"=.	c #B59B7E",
"-.	c #B4997C",
";.	c #B3997C",
">.	c #A48C6E",
",.	c #6C583F",
"'.	c #5F4D35",
").	c #6A563B",
"!.	c #887053",
"~.	c #5E4C37",
"{.	c #66533D",
"].	c #B09378",
"^.	c #856E55",
"/.	c #67543A",
"(.	c #A08569",
"_.	c #8C7358",
":.	c #594831",
"<.	c #826B4E",
"[.	c #A5896D",
"}.	c #977D61",
"|.	c #756043",
"1.	c #937A61",
"2.	c #90775B",
"3.	c #3F3221",
"4.	c #3E3221",
"5.	c #A2886E",
"6.	c #D2B497",
"7.	c #AB8F73",
"8.	c #A18A6C",
"9.	c #A39372",
"0.	c #977F65",
"a.	c #997F63",
"b.	c #A58A6E",
"c.	c #C5A68A",
"d.	c #CAAB8F",
"e.	c #A98D71",
"f.	c #7E674B",
"g.	c #4A3B27",
"h.	c #7E684D",
"i.	c #8F765A",
"j.	c #AE9276",
"k.	c #866E53",
"l.	c #7A644C",
"m.	c #5D4C35",
"n.	c #604E35",
"o.	c #68553A",
"p.	c #5B4A35",
"q.	c #756045",
"r.	c #80694C",
"s.	c #887054",
"t.	c #7B6548",
"u.	c #92795C",
"v.	c #8D755B",
"w.	c #5C4A33",
"x.	c #866E51",
"y.	c #3E3220",
"z.	c #A48B70",
"A.	c #CEB496",
"B.	c #9F8468",
"C.	c #554421",
"D.	c #5A4117",
"E.	c #6E5A3F",
"F.	c #B5977B",
"G.	c #A78B6F",
"H.	c #AC8F73",
"I.	c #8B7356",
"J.	c #766144",
"K.	c #836C4F",
"L.	c #91785B",
"M.	c #B09477",
"N.	c #5C4B34",
"O.	c #6D5940",
"P.	c #6A573E",
"Q.	c #5B4932",
"R.	c #8E7559",
"S.	c #826B4F",
"T.	c #947B60",
"U.	c #68553C",
"V.	c #675439",
"W.	c #AC9074",
"X.	c #987E62",
"Y.	c #4F402C",
"Z.	c #989898",
"`.	c #C4A78A",
" +	c #B99C80",
".+	c #554925",
"++	c #C6A842",
"@+	c #A78823",
"#+	c #6B583E",
"$+	c #C3A689",
"%+	c #AF9377",
"&+	c #CFB596",
"*+	c #DCC3A3",
"=+	c #CFB194",
"-+	c #9D8368",
";+	c #776246",
">+	c #6C583D",
",+	c #745F44",
"'+	c #614F36",
")+	c #816A4F",
"!+	c #55452F",
"~+	c #7F684C",
"{+	c #9E8367",
"]+	c #5A4932",
"^+	c #937A5D",
"/+	c #93795D",
"(+	c #887156",
"_+	c #7A6448",
":+	c #80694D",
"<+	c #725D41",
"[+	c #9A9896",
"}+	c #C4C1BC",
"|+	c #493B27",
"1+	c #8E765C",
"2+	c #D8BF9F",
"3+	c #AA8E72",
"4+	c #6A5838",
"5+	c #957B2B",
"6+	c #735F34",
"7+	c #A1886B",
"8+	c #DFCDB6",
"9+	c #B3A494",
"0+	c #92795D",
"a+	c #A88C70",
"b+	c #987F62",
"c+	c #715D46",
"d+	c #7B654A",
"e+	c #7C664D",
"f+	c #645138",
"g+	c #4C3D29",
"h+	c #5A4933",
"i+	c #67553F",
"j+	c #957C60",
"k+	c #735E42",
"l+	c #6B573C",
"m+	c #715C43",
"n+	c #856E51",
"o+	c #745F42",
"p+	c #5D4B33",
"q+	c #706E6B",
"r+	c #9C9A97",
"s+	c #BFBDB9",
"t+	c #B6B3AF",
"u+	c #463823",
"v+	c #887357",
"w+	c #D3B799",
"x+	c #CEB194",
"y+	c #C5AD91",
"z+	c #DFCBB0",
"A+	c #D5BFA6",
"B+	c #C6AC94",
"C+	c #B19F8C",
"D+	c #E2DCD8",
"E+	c #C8C1BB",
"F+	c #7A674D",
"G+	c #8A785F",
"H+	c #8C7A61",
"I+	c #605241",
"J+	c #4D3D29",
"K+	c #846D50",
"L+	c #7E674A",
"M+	c #9E8468",
"N+	c #B09479",
"O+	c #7F6951",
"P+	c #5D4C34",
"Q+	c #6D5D47",
"R+	c #67553D",
"S+	c #6F5B40",
"T+	c #786245",
"U+	c #766043",
"V+	c #66533A",
"W+	c #655239",
"X+	c #4B3C28",
"Y+	c #6D593D",
"Z+	c #887154",
"`+	c #7C6649",
" @	c #7D674C",
".@	c #776247",
"+@	c #97836E",
"@@	c #949393",
"#@	c #B2B0AC",
"$@	c #696969",
"%@	c #332F0B",
"&@	c #6B5B3A",
"*@	c #D8C1A9",
"=@	c #E3D4C0",
"-@	c #F8EDE3",
";@	c #F3EDEA",
">@	c #DFDBD7",
",@	c #A9A9A9",
"'@	c #9A9A9A",
")@	c #7E7C7A",
"!@	c #A8A298",
"~@	c #C7C4C0",
"{@	c #E5E0DA",
"]@	c #BBB8B4",
"^@	c #51483D",
"/@	c #766149",
"(@	c #7E684B",
"_@	c #725E46",
":@	c #7E6852",
"<@	c #615649",
"[@	c #787878",
"}@	c #66625D",
"|@	c #60594F",
"1@	c #665845",
"2@	c #5D4D37",
"3@	c #756A5C",
"4@	c #4F4231",
"5@	c #756046",
"6@	c #9D8266",
"7@	c #997F62",
"8@	c #AF947B",
"9@	c #8C8173",
"0@	c #665F56",
"a@	c #172606",
"b@	c #5A542D",
"c@	c #D9CFC3",
"d@	c #F3EBE6",
"e@	c #F2ECE9",
"f@	c #E0DBD6",
"g@	c #B7B5B2",
"h@	c #A5A4A4",
"i@	c #767676",
"j@	c #ACABAB",
"k@	c #BBB9B6",
"l@	c #BFBCB8",
"m@	c #999796",
"n@	c #9E9D9C",
"o@	c #71706E",
"p@	c #727170",
"q@	c #54493C",
"r@	c #5A4934",
"s@	c #614F37",
"t@	c #68625B",
"u@	c #6C6966",
"v@	c #8C8B8A",
"w@	c #797979",
"x@	c #7C7C7C",
"y@	c #7B7B7B",
"z@	c #6E6B68",
"A@	c #878787",
"B@	c #7B7977",
"C@	c #786E5F",
"D@	c #786246",
"E@	c #7A644B",
"F@	c #5F574D",
"G@	c #685946",
"H@	c #876F52",
"I@	c #69563B",
"J@	c #433625",
"K@	c #90775A",
"L@	c #7E674C",
"M@	c #635038",
"N@	c #37422E",
"O@	c #C0BCAF",
"P@	c #E8E3E0",
"Q@	c #C9C6C1",
"R@	c #BEBCB8",
"S@	c #7F7F7F",
"T@	c #727272",
"U@	c #82807D",
"V@	c #9C9B9A",
"W@	c #BCB9B5",
"X@	c #999896",
"Y@	c #B9B7B5",
"Z@	c #767575",
"`@	c #5E5E5E",
" #	c #6F6F6F",
".#	c #7A7A7A",
"+#	c #635E58",
"@#	c #756149",
"##	c #493F31",
"$#	c #92908E",
"%#	c #7E7E7E",
"&#	c #808080",
"*#	c #A1A1A1",
"=#	c #A8A7A5",
"-#	c #6D6D6D",
";#	c #888888",
">#	c #868686",
",#	c #76726C",
"'#	c #514433",
")#	c #5A4C38",
"!#	c #696662",
"~#	c #726F6A",
"{#	c #493C2B",
"]#	c #434343",
"^#	c #5D4C33",
"/#	c #453725",
"(#	c #545454",
"_#	c #959493",
":#	c #B3B2B0",
"<#	c #828282",
"[#	c #676767",
"}#	c #9B9A98",
"|#	c #908F8E",
"1#	c #959492",
"2#	c #A1A1A0",
"3#	c #646464",
"4#	c #717171",
"5#	c #595959",
"6#	c #848484",
"7#	c #747474",
"8#	c #5C5C5C",
"9#	c #898989",
"0#	c #544633",
"a#	c #645239",
"b#	c #7B654B",
"c#	c #59534A",
"d#	c #818181",
"e#	c #AAA9A8",
"f#	c #6C6C6C",
"g#	c #9A9997",
"h#	c #5F5F5F",
"i#	c #908E8B",
"j#	c #6B6B6B",
"k#	c #858585",
"l#	c #787672",
"m#	c #777777",
"n#	c #747473",
"o#	c #5B5245",
"p#	c #5E5951",
"q#	c #9E9E9D",
"r#	c #878582",
"s#	c #424242",
"t#	c #626262",
"u#	c #606060",
"v#	c #5B5B5B",
"w#	c #7B7B7A",
"x#	c #676766",
"y#	c #979797",
"z#	c #6F6458",
"A#	c #6C5941",
"B#	c #949494",
"C#	c #494949",
"D#	c #616161",
"E#	c #ACABAA",
"F#	c #AFAEAD",
"G#	c #989897",
"H#	c #A6A5A3",
"I#	c #757575",
"J#	c #B0AFAC",
"K#	c #8F8E8D",
"L#	c #898887",
"M#	c #9F9E9D",
"N#	c #838383",
"O#	c #BAB3AC",
"P#	c #5B4A32",
"Q#	c #746D64",
"R#	c #5B5855",
"S#	c #5A5A5A",
"T#	c #575757",
"U#	c #555555",
"V#	c #565656",
"W#	c #5D5D5D",
"X#	c #707070",
"Y#	c #B7B5B3",
"Z#	c #BCBAB8",
"`#	c #BBB9B7",
" $	c #C9C5C1",
".$	c #B5B3B0",
"+$	c #929291",
"@$	c #666666",
"#$	c #686766",
"$$	c #ADAAA7",
"%$	c #525252",
"&$	c #959595",
"*$	c #8B8782",
"=$	c #5F5446",
"-$	c #8F8D8B",
";$	c #515151",
">$	c #474747",
",$	c #444444",
"'$	c #585858",
")$	c #8D8D8C",
"!$	c #B2B1B0",
"~$	c #9F9F9E",
"{$	c #7D7D7D",
"]$	c #9B9B9B",
"^$	c #535353",
"/$	c #4B4B4B",
"($	c #8C8C8C",
"_$	c #DCD7D0",
":$	c #C1BEBB",
"<$	c #4F4F4F",
"[$	c #C4C0BC",
"}$	c #A4A4A3",
"|$	c #636363",
"1$	c #C3C0BB",
"2$	c #999998",
"3$	c #8D8D8D",
"4$	c #737373",
"5$	c #9B9B9A",
"6$	c #9D9D9D",
"7$	c #8F8F8F",
"8$	c #4E4E4E",
"9$	c #454545",
"0$	c #909090",
"a$	c #B6B5B3",
"b$	c #8B8B8B",
"c$	c #A0A0A0",
"d$	c #A3A3A3",
"e$	c #C3C0BD",
"f$	c #969594",
"g$	c #6E6E6E",
"h$	c #B3B1AF",
"i$	c #464646",
"j$	c #B1AFAE",
"k$	c #807F7E",
"l$	c #B7B5B4",
"m$	c #9F9F9F",
"n$	c #E0DCD8",
"o$	c #D9D5D3",
"p$	c #919191",
"q$	c #4D4D4D",
"r$	c #B3B0B0",
"s$	c #E0DCDA",
"t$	c #C3C1BE",
"u$	c #797878",
"v$	c #484848",
"w$	c #605F5E",
"x$	c #939393",
"y$	c #A5A4A2",
"z$	c #626261",
"A$	c #AAA8A7",
"B$	c #8E8D8D",
"C$	c #737271",
"D$	c #737270",
"E$	c #9E9C98",
"F$	c #505050",
"G$	c #686868",
"                                                                                                      ",
"                    .     + @                                                                         ",
"                    # $ % & *                                                                         ",
"                  # = - ; > , .                                                                       ",
"                  ' ) ! ~ > { ]                                                                       ",
"                ^ / ( _ : < [ } | 1                                                                   ",
"            2 3 4 5 6 7 8 9 0 a b c d       e                                                         ",
"            f g h i j k l m n o p q r s     t u v     w x     y z                                     ",
"            A B C C D E F G H I J K L M N O P Q R S T U V W X Y Z     `  ...                          ",
"          +.@.#.$.%.&.*.=.-.;.>.f ,.'.).!.~.{.].^./.(._.:.<.[.}.|./.1.2.N | | 3.                      ",
"        4.5.6.7.8.9.0.a.b.c.d.e.f.g.h.i.j.k.l.m.n.n.o.p.q.] r.s.t.u.v.w.x.2.t.g.                      ",
"        y.z.A.B.C.D.E.a.F.G.H.I.J.N g.K.L.M.V N.O.P.Q.R.2 S.T.U.V i.V.' 7 W.X.Y.                  Z.  ",
"        c `. +.+++@+#+$+c.%+&+*+=+-+;+>+( ,+'+>+)+!+~+B.{+!.]+r.^+/+(+]+_+:+:+<+p               [+}+  ",
"      |+1+2+3+4+5+6+7+8+9+0+_ a+b+c+d+e+t.W f+p g+b h+i+- j+k+p l+. f+).m+n+n+o+p+p+N 4.e 4.q+r+s+t+  ",
"    u+v+w+x+y+z+A+B+C+D+E+F+G+H+I+J+<+^ K+L+M+N+O+P+Q+R+S+T+. >+).U+|.b V+t.W+X+Y+Z+`+ @.@ @+@@@#@$@  ",
"  %@&@g *@=@-@;@>@> ,@'@)@!@~@{@]@^@n./@$ a+(@_@:@<@[@}@|@1@2@3@4@K.2.>+5@6@r ]+p . 7@5 u.U 8@9@0@    ",
"  a@b@c@d@e@f@g@h@i@j@k@l@> m@n@o@p@q@r@V }.s@t@u@v@w@x@y@o@z@A@B@C@D@E@F@G@H@I@J@f+<+K@0+n+L@M@      ",
"  N@O@P@Q@R@S@T@U@V@W@X@Z.Y@Z@`@ #.#+#@#^+).##$#S@%#&#*#=#-#;#w@>#,#'#)#!#~#o.{#]#  J+^#^#^#/#        ",
"  (#_#:#<#[#}#|#1#2#3#4#5#6#7# #< 8#9#0#a#b#c#d#X@e#f#4#g#h#h@i#j#k#l#u@m#n#o#p#]#                    ",
"      ]#[@q#r#s#t#u#]#v#w@-#u#w#x#f#y#z#A#M@c#6#A@B#m#C#.#A@3#D#E#F#G#H#d#x@;#I#]#                    ",
"        h#5#            [#J#K#L#M#(#N#O#P#Q#R#>#y@S#6#T#U#V#W#X#Y#Z#`# $.$+$@$5#                      ",
"                        #$$$%$T#< (#&$*$=$-$8#;$>$,$>$    '$7#D#< )$!$~${$]$7#                        ",
"                              ]#^$/$($_$:$9#<$              W#-#-#&#[$}$N#t#|$                        ",
"                                ,$|$[#1$2$3$s#              /$4$'$I#5$6$7$8$                          ",
"                                9$>#V#0$a$b$]#                3#.#h#&#c$d#8#                          ",
"                                9$d#V#d$e$f$]#                g$<#t#$@X@h$7#i$                        ",
"                                V#Z.V#j$y#A@]#                 #6#m#(#k$l$m$W#                        ",
"                              U#S#<#V#n$o$B#]#              u#4#p$j#q$V#]$m$W#                        ",
"                              U#8$@$r$s$t$u$]#              v$'$u#v#w$3$~@h@W#                        ",
"                                ,$N#($x$y$z$                      ]#1#[@A$B$W#                        ",
"                                ]#C$D$E$`@                        ]#|$F$X#G$                          ",
"                                  (#V#]#                            ]#]#]#                            "};
