/* XPM */
static char * wolfAngry2_xpm[] = {
"23 43 410 2",
"  	c #FFFFFD",
". 	c #A0A0B2",
"+ 	c #C8C7D3",
"@ 	c #A3A3B5",
"# 	c #B5B4C2",
"$ 	c #F2F0F2",
"% 	c #CDCCD6",
"& 	c #C0C0CB",
"* 	c #D4D3DC",
"= 	c #D8D7DE",
"- 	c #9797A7",
"; 	c #7A7A89",
"> 	c #DDDDE5",
", 	c #C4C4D0",
"' 	c #DFDEE5",
") 	c #9898A6",
"! 	c #757585",
"~ 	c #BDBDCA",
"{ 	c #A1A1AE",
"] 	c #C9C9D3",
"^ 	c #878797",
"/ 	c #808091",
"( 	c #717181",
"_ 	c #868697",
": 	c #ADADBC",
"< 	c #787888",
"[ 	c #7F7F90",
"} 	c #818191",
"| 	c #B4B4C2",
"1 	c #9D9DAE",
"2 	c #BFBFCD",
"3 	c #D9D8DF",
"4 	c #B5B5C5",
"5 	c #A4A4B4",
"6 	c #9B9BA9",
"7 	c #7E7E8E",
"8 	c #B8B8C6",
"9 	c #C8C8D3",
"0 	c #BABAC9",
"a 	c #E6E5EA",
"b 	c #E7E6EB",
"c 	c #E0E0E7",
"d 	c #CDCDD7",
"e 	c #B8B7C7",
"f 	c #CDCDD8",
"g 	c #8B8B9B",
"h 	c #7C7C8C",
"i 	c #6F6F7F",
"j 	c #A8A8B9",
"k 	c #D0D0DB",
"l 	c #C7C7D2",
"m 	c #E2E1E7",
"n 	c #DBDBE4",
"o 	c #DADAE3",
"p 	c #E5E4EA",
"q 	c #CBCAD6",
"r 	c #D1D0DB",
"s 	c #B3B3C2",
"t 	c #AEAEBD",
"u 	c #8E8E9F",
"v 	c #B2B2C2",
"w 	c #B4B4C4",
"x 	c #BBBBCA",
"y 	c #C2C2CF",
"z 	c #EFEDEF",
"A 	c #E9E8EC",
"B 	c #C9C9D5",
"C 	c #C5C5D2",
"D 	c #B1B1C2",
"E 	c #BEBECD",
"F 	c #9B9BAC",
"G 	c #7B7B8B",
"H 	c #707080",
"I 	c #9797A9",
"J 	c #848495",
"K 	c #B9B9C7",
"L 	c #9898A9",
"M 	c #B5B5C4",
"N 	c #B6B6C6",
"O 	c #E1E0E6",
"P 	c #D8D7E0",
"Q 	c #C0C0CE",
"R 	c #CCCCD7",
"S 	c #E8E7EC",
"T 	c #C1C1CF",
"U 	c #9797A8",
"V 	c #A0A0B1",
"W 	c #797989",
"X 	c #A7A7B8",
"Y 	c #E0DFE4",
"Z 	c #8B8B9C",
"` 	c #D3D3DD",
" .	c #ABABBC",
"..	c #8A8A9B",
"+.	c #A6A6B7",
"@.	c #C9C8D4",
"#.	c #C8C8D4",
"$.	c #9090A1",
"%.	c #A8A8B7",
"&.	c #9796A3",
"*.	c #A4A4B6",
"=.	c #828293",
"-.	c #9696A7",
";.	c #A2A2B1",
">.	c #E0DFE6",
",.	c #E9E9EE",
"'.	c #BDBCCA",
").	c #8C8C9D",
"!.	c #8F8FA0",
"~.	c #8D8D9E",
"{.	c #AFAFBE",
"].	c #A6A6B5",
"^.	c #E3E2E9",
"/.	c #E4E3EA",
"(.	c #C3C3CF",
"_.	c #878798",
":.	c #D2D1D8",
"<.	c #ECEBEE",
"[.	c #E1E0E7",
"}.	c #D7D7E0",
"|.	c #B4B4C3",
"1.	c #888897",
"2.	c #BCBCCB",
"3.	c #848494",
"4.	c #B4B4C1",
"5.	c #C6C6D2",
"6.	c #EDECEE",
"7.	c #737383",
"8.	c #D1D0DA",
"9.	c #ECEAEE",
"0.	c #AEAEBE",
"a.	c #E1DFE4",
"b.	c #AAAABB",
"c.	c #AAAABC",
"d.	c #B3B3C3",
"e.	c #E0DFE5",
"f.	c #E8E7EB",
"g.	c #9494A5",
"h.	c #A8A8BA",
"i.	c #CBCBD6",
"j.	c #A5A5B7",
"k.	c #D6D6DF",
"l.	c #BEBECC",
"m.	c #ACACBE",
"n.	c #BEBECB",
"o.	c #89899A",
"p.	c #B9B9C8",
"q.	c #9C9CAE",
"r.	c #D1D1DB",
"s.	c #C7C7D4",
"t.	c #DFDFE6",
"u.	c #F1EFF1",
"v.	c #DFDEE6",
"w.	c #D3D2DD",
"x.	c #CACAD6",
"y.	c #BFBECB",
"z.	c #9B9BAD",
"A.	c #838393",
"B.	c #888899",
"C.	c #B6B6C5",
"D.	c #DFDEE4",
"E.	c #DCDCE4",
"F.	c #E2E1E8",
"G.	c #FBFAFA",
"H.	c #EDECEF",
"I.	c #EBEAED",
"J.	c #CFCED8",
"K.	c #9999AB",
"L.	c #7A7A8B",
"M.	c #EEEDF0",
"N.	c #EDEDF0",
"O.	c #F8F6F6",
"P.	c #F6F5F6",
"Q.	c #FDFCFC",
"R.	c #FAF8F9",
"S.	c #F5F4F4",
"T.	c #EBE9ED",
"U.	c #CCCCD8",
"V.	c #ADADBE",
"W.	c #8E8E9C",
"X.	c #C4C3CD",
"Y.	c #F3F2F3",
"Z.	c #FCFAFA",
"`.	c #FAF8F8",
" +	c #FCFBFB",
".+	c #FEFDFD",
"++	c #F4F3F4",
"@+	c #D3D2DB",
"#+	c #9D9DAA",
"$+	c #7F7F8E",
"%+	c #A7A6B4",
"&+	c #ECEAED",
"*+	c #F7F6F8",
"=+	c #F8F7F8",
"-+	c #F3F2F4",
";+	c #F0EFF1",
">+	c #FAF9F9",
",+	c #F9F7F7",
"'+	c #F7F6F7",
")+	c #E6E5EB",
"!+	c #F4F3F5",
"~+	c #F6F4F5",
"{+	c #EFEEF0",
"]+	c #C4C3CE",
"^+	c #848492",
"/+	c #818192",
"(+	c #B0B0C1",
"_+	c #D7D7DF",
":+	c #EBEAEE",
"<+	c #DAD9E1",
"[+	c #CBCAD5",
"}+	c #E2E1E6",
"|+	c #D9D9E0",
"1+	c #DCDBE1",
"2+	c #D6D6E0",
"3+	c #EDECF0",
"4+	c #E5E4E9",
"5+	c #9292A4",
"6+	c #7D7D8C",
"7+	c #ACACBC",
"8+	c #9F9FAD",
"9+	c #E0DFE7",
"0+	c #8E8E9B",
"a+	c #808089",
"b+	c #A0A0AA",
"c+	c #CFCFD9",
"d+	c #D3D3DE",
"e+	c #D4D4DE",
"f+	c #C5C5D1",
"g+	c #BABAC2",
"h+	c #86858D",
"i+	c #848491",
"j+	c #CDCCD5",
"k+	c #BABAC6",
"l+	c #9B9BA8",
"m+	c #9A9AA9",
"n+	c #D3D2DA",
"o+	c #A4A4B2",
"p+	c #9C8B46",
"q+	c #70634F",
"r+	c #94939E",
"s+	c #DCDBE2",
"t+	c #B4B4BA",
"u+	c #625C60",
"v+	c #AC9437",
"w+	c #878795",
"x+	c #C9C8D5",
"y+	c #E3E2E6",
"z+	c #A2A2AF",
"A+	c #9292A1",
"B+	c #C5C5D0",
"C+	c #C7C7D3",
"D+	c #9C978E",
"E+	c #987334",
"F+	c #8C8157",
"G+	c #878793",
"H+	c #ECEBEF",
"I+	c #E7E6EA",
"J+	c #F2F1F3",
"K+	c #ABABB4",
"L+	c #78746B",
"M+	c #9E7C2F",
"N+	c #9E9073",
"O+	c #B3B3C1",
"P+	c #A6A6B2",
"Q+	c #858595",
"R+	c #C6C5D1",
"S+	c #B6B3BD",
"T+	c #BCBAC2",
"U+	c #DEDEE5",
"V+	c #BDBCC6",
"W+	c #BAB7BE",
"X+	c #B8B8C5",
"Y+	c #EAE9ED",
"Z+	c #6F6F7E",
"`+	c #777788",
" @	c #A1A1B1",
".@	c #F7F5F6",
"+@	c #EFEEF2",
"@@	c #F6F4F4",
"#@	c #BFBFCB",
"$@	c #808090",
"%@	c #9E9EAF",
"&@	c #B6B5BF",
"*@	c #8A8A97",
"=@	c #8F8E99",
"-@	c #E4E3E7",
";@	c #E3E2E5",
">@	c #EAE9EB",
",@	c #AFAFB6",
"'@	c #7A7986",
")@	c #CDCCD3",
"!@	c #9595A6",
"~@	c #828292",
"{@	c #737382",
"]@	c #B7B7C2",
"^@	c #717182",
"/@	c #B2B1BC",
"(@	c #898492",
"_@	c #7D6E7B",
":@	c #E4E3E5",
"<@	c #A5A5B1",
"[@	c #575765",
"}@	c #80808D",
"|@	c #A19AA3",
"1@	c #746777",
"2@	c #9A99A6",
"3@	c #BFBFC8",
"4@	c #9696A3",
"5@	c #9292A0",
"6@	c #7A7A87",
"7@	c #94919F",
"8@	c #8B838E",
"9@	c #98919B",
"0@	c #CFCDD5",
"a@	c #8E8D9D",
"b@	c #BCB9C4",
"c@	c #A8A2AB",
"d@	c #A7A3AA",
"e@	c #827B8A",
"f@	c #838391",
"g@	c #ACACB8",
"h@	c #8C8C9B",
"i@	c #8F8F9E",
"j@	c #9393A6",
"k@	c #9696A9",
"l@	c #767686",
"m@	c #80808F",
"n@	c #8A3B56",
"o@	c #7F5F6F",
"p@	c #79364F",
"q@	c #70374E",
"r@	c #8E4960",
"s@	c #827888",
"t@	c #757586",
"u@	c #8F8FA1",
"v@	c #7D7D8E",
"w@	c #A8A8B5",
"x@	c #7A7A8A",
"y@	c #868698",
"z@	c #9E9EB0",
"A@	c #8B8B9D",
"B@	c #7C7C8B",
"C@	c #82687A",
"D@	c #BE9FAA",
"E@	c #6D1330",
"F@	c #8E576A",
"G@	c #A18A97",
"H@	c #908D9D",
"I@	c #8C8C9E",
"J@	c #7F7F8F",
"K@	c #767687",
"L@	c #BBBAC8",
"M@	c #9999A9",
"N@	c #686877",
"O@	c #9D9DAF",
"P@	c #D2D1DD",
"Q@	c #9797A6",
"R@	c #565664",
"S@	c #D2D1DB",
"T@	c #C0C0CF",
"U@	c #585866",
"V@	c #6F6F80",
"W@	c #60606E",
"X@	c #646473",
"Y@	c #BDBDCC",
"Z@	c #D4D4DF",
"`@	c #565663",
" #	c #ABABB9",
".#	c #CFCFDB",
"+#	c #8B8B9A",
"@#	c #6E6E7C",
"##	c #C7C6D1",
"$#	c #D8D8E1",
"%#	c #656574",
"&#	c #A4A4B5",
"*#	c #D7D6DF",
"=#	c #CFCED9",
"-#	c #B8B8C4",
";#	c #60606F",
">#	c #9797A5",
",#	c #757583",
"'#	c #BCBCC9",
")#	c #DAD8DC",
"!#	c #ABAAB1",
"~#	c #D0CFD9",
"{#	c #6F6F7D",
"]#	c #595967",
"^#	c #9999AA",
"/#	c #BDBDCB",
"(#	c #C2C2CC",
"_#	c #9B9BA6",
":#	c #CACAD7",
"<#	c #A1A1B2",
"[#	c #6A6A79",
"}#	c #DEDDE2",
"|#	c #E5E4E7",
"1#	c #D8D6DA",
"2#	c #E9E7EA",
"3#	c #9E9EAA",
"4#	c #B6B6C0",
"5#	c #9C9CA7",
"6#	c #8F8E9C",
"7#	c #AAAAB6",
"8#	c #AEAEBC",
"9#	c #6A6A7A",
"0#	c #747484",
"a#	c #8D8D9F",
"b#	c #7B7B8C",
"c#	c #878799",
"                                              ",
"                    . + @                     ",
"                    # $ %                     ",
"                    & * = -                   ",
"                  ; > , ' )                   ",
"                  ! ~ { ] ^                   ",
"                / ( _ : _ < < [               ",
"              } | 1 2 3 4 : 5 6               ",
"          [ 7 8 9 0 a b c d e f g h           ",
"        i j : k l m n a o p q r s t 7         ",
"    i   u v 0 w x y a z A B C D D E F G i     ",
"    H I J K L M N O P Q R S T 4 U 4 ^ V W     ",
"    ( X _ Y ~ Z K `  ...+.@.#.$.%.O &.*.=.    ",
"    ( -.;.>.,.'.).!.~.{.Z !.u ].^./.(.J =.    ",
"    i _.:.<.[.}.|.1.t 2.~ 3.4.5.A >.6.$.7.    ",
"    i =.8.9.0.a.0 2 b.N c.2.d.e.: >.f.g.i     ",
"    ~.=.h.i.j.8.b.Q N k.Q l.m.9 0.n.|.g.o.    ",
"    ( p.t q.{.r.s.t.> u.t.v.w.x.y.q.z.#.A.i   ",
"  o.B.0 C.#.D.E.F.u.p G.H.I.f.n m J.0.B K.L._.",
"  _ j.Q o n v.M.N.O.P.Q.R.S.P.T.^.E.o U.V.$.  ",
"  W.X.t.Y.a A Z.`. +G..+ + +`.Z.Y.[.++^.@+#+  ",
"  $+%+&+*+=+z -+T.;+>+Z.,+'+)+!+z ~+>+{+]+^+  ",
"    /+(+_+:+<+[+k E.}+|+1+[.2+B J.3+4+N 5+i   ",
"6+] 7+8+9+0+a+b+c+d+e+U.k o f+g+h+i+j+k+F & l+",
"  ~.m+n+<+o+p+q+r+a.(.B , s+t+u+v+w+x+y+z+1   ",
"    A+B+C+9 D+E+F+G+H+I+J+K+L+M+N+O+f B+P+Q+  ",
"  _ K.Q+D H.R+S+T+* k.(.R U+V+W+X+Y+f+-.Z -.  ",
"    Z+`+ @.@J++@@@Z..+.+.+.+@@J+3+G.#@$@i     ",
"    ( %@&@B *@=@-@'+;+;@>@G.a ,@'@n.)@!@~@    ",
"    {@]@^@P+/@(@_@:@<@[@}@A |@1@2@3@G 4@5@    ",
"      l+A+3.6@7@8@9@0@a@b@c@d@e@}@f@[ g@      ",
"      h@i@j@k@l@m@n@o@p@q@r@s@t@u@k@v@w@      ",
"      x@y@z@+.A@B@C@D@E@F@G@H@`+z.b.I@J@      ",
"        K@k 0.. `+v@2.L@x M@N@O@. P@Q@        ",
"        R@S@Q T@`+U@V@V@V@W@X@s Y@Z@'@        ",
"        `@ #{+.#+#          @#C :+##N@        ",
"        R@s $#s `+          %#&#*#T@@#        ",
"        `@=#' -#;#            >#e+>.,#        ",
"        R@'#p )#R@            !#S ~#{#        ",
"        ]#^#/#(#R@            _#:#<#[#        ",
"        z+}#|#1#R@            !#a.2#9 R@      ",
"        z+0+3#4#R@            5#6#7#8#R@      ",
"        I 9#0#a#                9#b#c#        "};
