/* XPM */
static char * wolfAngryRight3_xpm[] = {
"51 32 474 2",
"  	c #FFFFFD",
". 	c #D4D3DB",
"+ 	c #DFDFE6",
"@ 	c #C9C8D5",
"# 	c #EAE9EE",
"$ 	c #E2E2E9",
"% 	c #AEAEBF",
"& 	c #AAAABC",
"* 	c #B9B9C8",
"= 	c #F2F0F2",
"- 	c #DAD9E2",
"; 	c #EBEBEF",
"> 	c #B6B6C5",
", 	c #B9B9C7",
"' 	c #F4F2F3",
") 	c #CECDD9",
"! 	c #C6C5CE",
"~ 	c #D7D6DF",
"{ 	c #8F8FA0",
"] 	c #6F6F7F",
"^ 	c #A7A7B8",
"/ 	c #CCCBD6",
"( 	c #B8B8C6",
"_ 	c #C0BFCB",
": 	c #DDDCE4",
"< 	c #B8B8C8",
"[ 	c #797988",
"} 	c #8B8B9C",
"| 	c #BFBFCC",
"1 	c #9D9DAF",
"2 	c #C3C3D0",
"3 	c #D8D8E1",
"4 	c #D7D7E1",
"5 	c #E4E3E8",
"6 	c #B0B0C1",
"7 	c #828292",
"8 	c #9B9BAB",
"9 	c #C4C4D1",
"0 	c #6E6E7F",
"a 	c #9393A4",
"b 	c #C9C9D5",
"c 	c #AEAEBE",
"d 	c #CFCED8",
"e 	c #ECEBEF",
"f 	c #C6C6D3",
"g 	c #E4E4E9",
"h 	c #EBE9ED",
"i 	c #D5D5DF",
"j 	c #D2D2DC",
"k 	c #A5A4AE",
"l 	c #BFBEC4",
"m 	c #9696A6",
"n 	c #C1C1C9",
"o 	c #A6A5B3",
"p 	c #A4A4B1",
"q 	c #A3A2AC",
"r 	c #A7A7B7",
"s 	c #787887",
"t 	c #D0CFD8",
"u 	c #7B7B8B",
"v 	c #B7B7C5",
"w 	c #DADAE2",
"x 	c #E6E5E9",
"y 	c #F3F2F3",
"z 	c #DCDBE4",
"A 	c #F0EFF0",
"B 	c #F9F8F8",
"C 	c #F1F0F2",
"D 	c #F6F5F7",
"E 	c #B4B4C3",
"F 	c #9D9DAE",
"G 	c #C2C2CC",
"H 	c #888897",
"I 	c #8C8C9D",
"J 	c #BDBDCC",
"K 	c #EAE8EC",
"L 	c #D3D2DB",
"M 	c #ADADBC",
"N 	c #E3E2E8",
"O 	c #CACAD6",
"P 	c #9E9EB0",
"Q 	c #CBCBD6",
"R 	c #858594",
"S 	c #B9B9C6",
"T 	c #A9A9BB",
"U 	c #808091",
"V 	c #9090A2",
"W 	c #D1D1DB",
"X 	c #E2E1E6",
"Y 	c #F2F1F4",
"Z 	c #F3F2F5",
"` 	c #F6F6F7",
" .	c #F7F5F5",
"..	c #EBEAEE",
"+.	c #D2D1DB",
"@.	c #F0EFF1",
"#.	c #F8F6F6",
"$.	c #D7D7E0",
"%.	c #B5B5C5",
"&.	c #818192",
"*.	c #9292A4",
"=.	c #A3A3B4",
"-.	c #B4B4BE",
";.	c #DCDBE2",
">.	c #ABABBC",
",.	c #BBBBCA",
"'.	c #BEBECC",
").	c #BDBDCB",
"!.	c #9292A2",
"~.	c #8D8D9E",
"{.	c #9494A3",
"].	c #B6B6C6",
"^.	c #9B9BAC",
"/.	c #B4B4C1",
"(.	c #B1B1BD",
"_.	c #7F7F8F",
":.	c #BCBCC6",
"<.	c #CDCDD7",
"[.	c #A3A3B2",
"}.	c #9191A2",
"|.	c #BCBCCA",
"1.	c #EBEAED",
"2.	c #E9E8EC",
"3.	c #E5E5EA",
"4.	c #E6E5EA",
"5.	c #DDDCE3",
"6.	c #C9C9D4",
"7.	c #E5E4EA",
"8.	c #D6D6DF",
"9.	c #A1A1B1",
"0.	c #9393A3",
"a.	c #D3D3DD",
"b.	c #E9E8EB",
"c.	c #9999AA",
"d.	c #A2A1B2",
"e.	c #CCCCD7",
"f.	c #C1C1CD",
"g.	c #C5C5D2",
"h.	c #ACACBD",
"i.	c #CECED9",
"j.	c #B1B1C0",
"k.	c #878797",
"l.	c #878798",
"m.	c #D8D7DD",
"n.	c #D8D7DE",
"o.	c #BBBBC9",
"p.	c #89899A",
"q.	c #C1C1CF",
"r.	c #E4E3E7",
"s.	c #F0EEF0",
"t.	c #E0E0E7",
"u.	c #DEDEE5",
"v.	c #827F81",
"w.	c #777476",
"x.	c #CECDD5",
"y.	c #9494A2",
"z.	c #777788",
"A.	c #A9A9B8",
"B.	c #9F9FAF",
"C.	c #DADAE3",
"D.	c #CDCDD8",
"E.	c #9797A7",
"F.	c #B1B1BF",
"G.	c #C8C8D4",
"H.	c #B6B6C4",
"I.	c #DAD9E0",
"J.	c #B8B7C6",
"K.	c #9F9FB0",
"L.	c #9F9FAD",
"M.	c #C7C7D3",
"N.	c #D4D3DC",
"O.	c #DBDAE2",
"P.	c #E1E0E7",
"Q.	c #A89D7A",
"R.	c #8C7640",
"S.	c #787784",
"T.	c #BCBCC7",
"U.	c #7D7D8D",
"V.	c #868696",
"W.	c #9F9FB1",
"X.	c #ACACBC",
"Y.	c #9797A8",
"Z.	c #A4A4B4",
"`.	c #B2B2C2",
" +	c #ADADBE",
".+	c #A2A2B4",
"++	c #A8A8B9",
"@+	c #D2D2DD",
"#+	c #D5D5DE",
"$+	c #CBCBD5",
"%+	c #848495",
"&+	c #A5A5B6",
"*+	c #9C9CAE",
"=+	c #A0A0B2",
"-+	c #9A9AAA",
";+	c #C1C1CE",
">+	c #9595A4",
",+	c #E3E1E5",
"'+	c #ECEBED",
")+	c #EFEDF0",
"!+	c #F5F4F4",
"~+	c #9E9CA5",
"{+	c #977952",
"]+	c #948340",
"^+	c #767683",
"/+	c #D3D3DA",
"(+	c #B7B7C4",
"_+	c #838394",
":+	c #7E7E8E",
"<+	c #888899",
"[+	c #A4A4B6",
"}+	c #9090A1",
"|+	c #A5A5B7",
"1+	c #7F7F90",
"2+	c #9696A7",
"3+	c #B7B7C7",
"4+	c #ACACBA",
"5+	c #787888",
"6+	c #9E9EAA",
"7+	c #AAA9B2",
"8+	c #797989",
"9+	c #EDECF0",
"0+	c #D5D4DE",
"a+	c #CBCAD4",
"b+	c #D6D5DE",
"c+	c #DBDBE4",
"d+	c #AFAFBF",
"e+	c #828293",
"f+	c #D7D6DD",
"g+	c #DFDEE3",
"h+	c #BBBAC6",
"i+	c #9393A5",
"j+	c #9E9EAE",
"k+	c #B7B7C3",
"l+	c #E1DFE4",
"m+	c #A9A9BC",
"n+	c #A5A5B5",
"o+	c #A1A1B2",
"p+	c #A8A8BA",
"q+	c #A7A7B9",
"r+	c #808090",
"s+	c #A5A5B2",
"t+	c #E3E2E6",
"u+	c #CBCAD5",
"v+	c #7A7A8A",
"w+	c #C6C5CF",
"x+	c #E3E2E7",
"y+	c #D3D2DC",
"z+	c #C2C1CE",
"A+	c #D8D7DF",
"B+	c #EFEDEE",
"C+	c #F6F5F6",
"D+	c #FBFAFA",
"E+	c #F4F3F5",
"F+	c #BABAC7",
"G+	c #6E6E7D",
"H+	c #D0CFD6",
"I+	c #BCBCC8",
"J+	c #BCBCCB",
"K+	c #DDDCE2",
"L+	c #D0D0DB",
"M+	c #CFCFDA",
"N+	c #ADADBB",
"O+	c #C0C0CE",
"P+	c #9999AB",
"Q+	c #7C7C8D",
"R+	c #9191A3",
"S+	c #9696A9",
"T+	c #8A8A9B",
"U+	c #C8C8D3",
"V+	c #7D7D8E",
"W+	c #A2A2B0",
"X+	c #CCCBD1",
"Y+	c #D1D0DB",
"Z+	c #B8B7C4",
"`+	c #8B8B98",
" @	c #555564",
".@	c #524454",
"+@	c #5E4E5F",
"@@	c #A4A3AC",
"#@	c #F5F3F4",
"$@	c #E9E8ED",
"%@	c #E9E7EC",
"&@	c #9B9BA8",
"*@	c #565664",
"=@	c #79798A",
"-@	c #D5D4DD",
";@	c #9E9EAF",
">@	c #7C7C8C",
",@	c #676776",
"'@	c #9797A9",
")@	c #8E8EA0",
"!@	c #A6A6B6",
"~@	c #B0B0C0",
"{@	c #9898AA",
"]@	c #9A9AAC",
"^@	c #BABAC9",
"/@	c #9C9CAF",
"(@	c #90909F",
"_@	c #B2B2C3",
":@	c #D6D5DD",
"<@	c #868697",
"[@	c #6C6C7C",
"}@	c #8F8FA1",
"|@	c #737384",
"1@	c #C9C8D1",
"2@	c #D6D5E0",
"3@	c #DBDBE3",
"4@	c #B6B5BD",
"5@	c #6C5E6E",
"6@	c #541E35",
"7@	c #5D354A",
"8@	c #86818C",
"9@	c #C5C4C8",
"0@	c #FAF9F9",
"a@	c #727282",
"b@	c #9B9BAD",
"c@	c #9C9CAD",
"d@	c #5E5E6D",
"e@	c #9696A8",
"f@	c #9393A6",
"g@	c #7A7A8B",
"h@	c #737383",
"i@	c #C6C5D0",
"j@	c #747482",
"k@	c #9A9AAD",
"l@	c #C4C3D0",
"m@	c #A3A3B5",
"n@	c #A9A9B9",
"o@	c #BBBBC8",
"p@	c #9393A2",
"q@	c #9898A8",
"r@	c #A9A9B7",
"s@	c #9E9EAC",
"t@	c #B7B4BD",
"u@	c #75727F",
"v@	c #694B5C",
"w@	c #988894",
"x@	c #6C4D5F",
"y@	c #6E4E5F",
"z@	c #706B7A",
"A@	c #656574",
"B@	c #8D8D9F",
"C@	c #9797AA",
"D@	c #AAAABA",
"E@	c #9B9AA5",
"F@	c #A1A1B3",
"G@	c #9B9BAA",
"H@	c #9494A4",
"I@	c #5F5F6E",
"J@	c #818191",
"K@	c #B6B6C3",
"L@	c #8E8E9E",
"M@	c #8D8DA0",
"N@	c #7D7D8C",
"O@	c #868698",
"P@	c #686876",
"Q@	c #A6A6B5",
"R@	c #8A8994",
"S@	c #ABAAB1",
"T@	c #836B7D",
"U@	c #7D5165",
"V@	c #B096A0",
"W@	c #8C6E81",
"X@	c #787886",
"Y@	c #B2B2C1",
"Z@	c #E0DFE6",
"`@	c #E1E0E6",
" #	c #DBDAE3",
".#	c #727280",
"+#	c #747484",
"@#	c #747485",
"##	c #B1B1C1",
"$#	c #A0A0B1",
"%#	c #9594A2",
"&#	c #D1D0D9",
"*#	c #7E7E8D",
"=#	c #848492",
"-#	c #666674",
";#	c #A2A2B2",
">#	c #A5A5B3",
",#	c #6B6572",
"'#	c #6D6D7D",
")#	c #848496",
"!#	c #C8C7D2",
"~#	c #D4D4DE",
"{#	c #D4D4DD",
"]#	c #C1C1D0",
"^#	c #9393A1",
"/#	c #565663",
"(#	c #717181",
"_#	c #777787",
":#	c #8C8C9E",
"<#	c #848493",
"[#	c #9A9AA9",
"}#	c #878799",
"|#	c #C7C6D0",
"1#	c #89899C",
"2#	c #888896",
"3#	c #CDCDDA",
"4#	c #7B7B8C",
"5#	c #A2A1AE",
"6#	c #CAC9D1",
"7#	c #6B6B7B",
"8#	c #616170",
"9#	c #646472",
"0#	c #A9A9BA",
"a#	c #E0E0E6",
"b#	c #B3B3C2",
"c#	c #656573",
"d#	c #C0C0CC",
"e#	c #DEDDE1",
"f#	c #575765",
"g#	c #CECDD8",
"h#	c #696979",
"i#	c #9595A8",
"j#	c #88889A",
"k#	c #5C5C6B",
"l#	c #555563",
"m#	c #595968",
"n#	c #D5D4DC",
"o#	c #858595",
"p#	c #EEEDF0",
"q#	c #BDBCC8",
"r#	c #757583",
"s#	c #B3B3C3",
"t#	c #9797A5",
"u#	c #C0C0CD",
"v#	c #787786",
"w#	c #6E6E7E",
"x#	c #8A8A9C",
"y#	c #767687",
"z#	c #D4D4DF",
"A#	c #9594A6",
"B#	c #9B9AA8",
"C#	c #DEDDE3",
"D#	c #6F6F7D",
"E#	c #AAAABB",
"F#	c #81818F",
"G#	c #D6D6E0",
"H#	c #767686",
"I#	c #C3C2CF",
"J#	c #CACAD7",
"K#	c #6A6A7A",
"L#	c #ABABBB",
"M#	c #8B8B9E",
"N#	c #AFAFC0",
"O#	c #7A7A88",
"P#	c #8B8B9D",
"Q#	c #838393",
"R#	c #F5F3F5",
"S#	c #DFDEE2",
"T#	c #5E5E6C",
"U#	c #717180",
"V#	c #787889",
"W#	c #646473",
"X#	c #5F5F6D",
"Y#	c #686877",
"Z#	c #EAE9ED",
"`#	c #A8A7B0",
" $	c #DBDAE1",
".$	c #D7D6DE",
"+$	c #80808E",
"@$	c #BEBECB",
"#$	c #848494",
"$$	c #ABABB8",
"%$	c #B7B7C6",
"&$	c #AAAAB9",
"*$	c #6C6C7A",
"=$	c #676777",
"-$	c #636373",
";$	c #9797A2",
">$	c #767581",
",$	c #94939E",
"                                                                                                      ",
"                                                                          . +                         ",
"                                                                          @ # $ % &                   ",
"                                                                        * = - ; > &                   ",
"                                                                        , ' ) ! ~ { &                 ",
"                                                                      ] ^ / ( _ : < *                 ",
"                                                                  [ } } | 1 1 2 3 4 5 6               ",
"                                                        ] 7     8 9 0 a b c d e f g h i j 6           ",
"                            ] ]       k l 0 m n o ] p { q r ] s t % u v w x y + z A B C D E           ",
"                            ] F G H I J K L & M N O P x Q R S T U V W X Y Z Z `  ...+.@.#.$.%.        ",
"                        &.*.*.=.-.;.>.,.'.).!.~.{.].^./.(._.:.<.%.[.}.|.: 1.2.+ 3.4.5.6.7.8.9.        ",
"                        0.a.b., c.d.e.6 f.g.h.i.j.a k.l.E m.e.n.o.&.p.q.r.s.t.u.'.v.w.x.b y.z.        ",
"                    0 I A.q.q.c B.2 C.D.E.F.2 D.G.I M H.I >.I.J.K.L.M.N.O...P.s.- Q.R.S.T.v U.        ",
"                  V.W.T ,.e.e.X.Y.Z.`. +.+++@+#+$+P %+&+*+=+-+;+E.>+,+'+)+t.- !+@.~+{+]+^+/+(+_+      ",
"  <.          :+<+< & [+}+|+& 1+c.& & 2+{ 3+g.4+<+<+5+6+7+( & ,.g.`.8+W.2 g.].9+B 0+a+b+# b c+d+e+    ",
"  f+g+h+i+} j+k+l+O m+_.l.g.D.n+o+2 P Y.p+q+[+r+i+*.s+t+u+).'.D.).} v+w+x+y+6 z+y+A+B+C+D+D E+i F+G+  ",
"  1+H+I+J+N K+L+M+& F _.& D.N+r+O+b P+2+i+Q+R+S+S+*+I Q+T+U+;.( V+%+W+X+;.I.Y+Z+`+ @.@+@@@#@C $@%@&@*@",
"    =@ +U+-@f L+< ;@>@,@'@j.)@Q+!@F =+~@{@S+]@^@* *+/@W.(@p._@:@<@[@}@|@K.1@2@3@x+4@5@6@7@8@9@0@D @+ @",
"      a@Y.^.b@c@&.a@  d@T+%+e@f@g@2+'@h@i@~@j@A+2+k@l@m@^ r+n@o@p@q@r@]@[@s@N+)@u S . t@u@v@w@x@y@z@  ",
"                      A@B@++S+C@D@^@> 0.E@F@G@H@I@++3 ]@S+J@K@L@p@0.:+}+M@N@Q+O@8+P@Q@h@R@S@T@U@V@W@  ",
"                     @[@Z.X@>.Y@Z@`@ #0+.#+#{ @#1+##r+( $#J@!.%#&#^.*#w+=#r@v =@    -#    ^+;#>#,#    ",
"                    '#f@)#,@).!#2 ~#{#]#^#*@/# @(#_#_#:#<#[#}#|#1#2#3#J+4#5#6#*@            7#8#      ",
"                    1+J+++9#7 i+0#a#;+b#c#            7#A.d#e#e.=@V.^.8+f#  g#                        ",
"                  h#i#h.j#k#l#m#0#'.n#W.a@            /#o#).p#q#I@] ] I@                              ",
"                  r#&+~@+#      _.b@|+s#B@*@            t#q.u#v#w#i#6 x#k#                            ",
"                *@F@,.x#          y#[+z#A#A@            B#C#o@D#  e+3#>.[@                            ",
"                 @e@E#]@F#        *@=.G#|#H#          r#I#J#y.    K#L#`.]@8                           ",
"                *@M#N#O#2#l#      *@P#3+D.Q#        *@$+R#S#T#    *@M#N#U#V#V+                        ",
"                  W#+#X#W#          Y#> Z#O+`#      *@ $$ .$+$      W#+#X#W#                          ",
"                                    ,@'@@$#$$$/#    *@[.%$c@&$*$                                      ",
"                                      ] =@=$w#/#      -$;$>$,$*@                                      ",
"                                                                                                      "};
