/* XPM */
static char * healing32_xpm[] = {
"32 30 294 2",
"  	c #FFFFFE",
". 	c #050606",
"+ 	c #060607",
"@ 	c #060606",
"# 	c #272728",
"$ 	c #050505",
"% 	c #050607",
"& 	c #050506",
"* 	c #08090A",
"= 	c #4C0101",
"- 	c #550101",
"; 	c #560001",
"> 	c #4F0101",
", 	c #542324",
"' 	c #550000",
") 	c #550001",
"! 	c #540001",
"~ 	c #500001",
"{ 	c #4E1717",
"] 	c #162121",
"^ 	c #570101",
"/ 	c #B50203",
"( 	c #DA0001",
"_ 	c #DA0000",
": 	c #CB0202",
"< 	c #690203",
"[ 	c #000606",
"} 	c #000303",
"| 	c #630607",
"1 	c #C40C0C",
"2 	c #DA0101",
"3 	c #DA0102",
"4 	c #D60102",
"5 	c #CD0001",
"6 	c #B21415",
"7 	c #620F10",
"8 	c #000708",
"9 	c #5A1A1C",
"0 	c #840002",
"a 	c #D70000",
"b 	c #FE1E1D",
"c 	c #FC4443",
"d 	c #FB4B4B",
"e 	c #FD2827",
"f 	c #EF0000",
"g 	c #920203",
"h 	c #600405",
"i 	c #5A0202",
"j 	c #8E0202",
"k 	c #E80303",
"l 	c #FE0000",
"m 	c #FA0100",
"n 	c #F00101",
"o 	c #D30103",
"p 	c #880102",
"q 	c #510708",
"r 	c #152020",
"s 	c #591E1E",
"t 	c #B51012",
"u 	c #DD0000",
"v 	c #F10000",
"w 	c #FB4947",
"x 	c #F39393",
"y 	c #F2A2A2",
"z 	c #F95C5C",
"A 	c #F80000",
"B 	c #E00203",
"C 	c #CF0406",
"D 	c #5B2022",
"E 	c #161F1F",
"F 	c #161E1E",
"G 	c #551E1E",
"H 	c #C30404",
"I 	c #DF0203",
"J 	c #F60201",
"K 	c #FD0000",
"L 	c #F90100",
"M 	c #EC0102",
"N 	c #D20103",
"O 	c #AC080A",
"P 	c #571D1D",
"Q 	c #434647",
"R 	c #590000",
"S 	c #850102",
"T 	c #DB0102",
"U 	c #FE1E1E",
"V 	c #FB4445",
"W 	c #F66E6F",
"X 	c #F0A3A4",
"Y 	c #F0ADAE",
"Z 	c #F96364",
"` 	c #FF0000",
" .	c #F50202",
"..	c #860002",
"+.	c #650000",
"@.	c #820000",
"#.	c #EA0201",
"$.	c #F90001",
"%.	c #EF0001",
"&.	c #CD0102",
"*.	c #750101",
"=.	c #563435",
"-.	c #212123",
";.	c #4A0303",
">.	c #B30202",
",.	c #D90000",
"'.	c #FB4243",
").	c #F28E90",
"!.	c #EFA2A3",
"~.	c #F48484",
"{.	c #F96A6A",
"].	c #FC3B3C",
"^.	c #FA0101",
"/.	c #DA0202",
"(.	c #D30102",
"_.	c #D90101",
":.	c #F60101",
"<.	c #EE0001",
"[.	c #B10102",
"}.	c #951418",
"|.	c #3F0506",
"1.	c #000000",
"2.	c #202022",
"3.	c #510204",
"4.	c #D50001",
"5.	c #FE1D1D",
"6.	c #FB4948",
"7.	c #F76F6F",
"8.	c #EE9FA1",
"9.	c #EDA6A6",
"0.	c #F76261",
"a.	c #E20001",
"b.	c #440000",
"c.	c #202021",
"d.	c #510203",
"e.	c #D30000",
"f.	c #FB4241",
"g.	c #F0A5A6",
"h.	c #F75E5E",
"i.	c #FB3737",
"j.	c #E20101",
"k.	c #CC0001",
"l.	c #AF0203",
"m.	c #430001",
"n.	c #D40000",
"o.	c #FA4847",
"p.	c #EFA09F",
"q.	c #ECAFAF",
"r.	c #F66E6D",
"s.	c #FC2423",
"t.	c #F95756",
"u.	c #F86060",
"v.	c #FB3B3A",
"w.	c #212021",
"x.	c #D40102",
"y.	c #202020",
"z.	c #E10101",
"A.	c #212121",
"B.	c #4F0304",
"C.	c #CC0203",
"D.	c #FB0101",
"E.	c #F80001",
"F.	c #EC0001",
"G.	c #DF0102",
"H.	c #C80002",
"I.	c #AC0609",
"J.	c #430102",
"K.	c #010101",
"L.	c #4D0203",
"M.	c #7D0202",
"N.	c #D90203",
"O.	c #FA0000",
"P.	c #E40001",
"Q.	c #D20101",
"R.	c #B40102",
"S.	c #670102",
"T.	c #4F3332",
"U.	c #610102",
"V.	c #D50204",
"W.	c #F90000",
"X.	c #E10002",
"Y.	c #CE0001",
"Z.	c #AB0102",
"`.	c #4F0102",
" +	c #3B3C3C",
".+	c #D50304",
"++	c #AC0002",
"@+	c #500102",
"#+	c #000102",
"$+	c #5E0304",
"%+	c #C70507",
"&+	c #FC0000",
"*+	c #F60100",
"=+	c #EA0101",
"-+	c #DB0001",
";+	c #C20001",
">+	c #A00103",
",+	c #3C3D3D",
"'+	c #631C1D",
")+	c #8C0102",
"!+	c #FB0000",
"~+	c #F20001",
"{+	c #E70102",
"]+	c #B80103",
"^+	c #780003",
"/+	c #4B0506",
"(+	c #2A2D2E",
"_+	c #5C0101",
":+	c #BF0303",
"<+	c #F70101",
"[+	c #F60001",
"}+	c #E90001",
"|+	c #D90102",
"1+	c #BF0102",
"2+	c #9D0C0E",
"3+	c #530809",
"4+	c #000E0F",
"5+	c #420506",
"6+	c #690303",
"7+	c #950202",
"8+	c #E00202",
"9+	c #D80101",
"0+	c #BB0102",
"a+	c #810000",
"b+	c #632E2F",
"c+	c #4B2E2F",
"d+	c #001616",
"e+	c #5F1515",
"f+	c #C20A0B",
"g+	c #E80101",
"h+	c #F70000",
"i+	c #E70101",
"j+	c #BE0102",
"k+	c #9B0506",
"l+	c #510D0E",
"m+	c #3F4344",
"n+	c #532F30",
"o+	c #761D1E",
"p+	c #980101",
"q+	c #E50101",
"r+	c #EA0001",
"s+	c #D70101",
"t+	c #840202",
"u+	c #5B0607",
"v+	c #41191A",
"w+	c #0F2425",
"x+	c #500000",
"y+	c #C50102",
"z+	c #E40203",
"A+	c #F80101",
"B+	c #F70100",
"C+	c #DC0101",
"D+	c #9E0708",
"E+	c #550B0C",
"F+	c #730B0B",
"G+	c #8B0203",
"H+	c #E90102",
"I+	c #FE0100",
"J+	c #F10001",
"K+	c #EB0001",
"L+	c #D40101",
"M+	c #C00101",
"N+	c #780101",
"O+	c #5B0D0E",
"P+	c #431C1D",
"Q+	c #05191A",
"R+	c #411414",
"S+	c #D10708",
"T+	c #E90202",
"U+	c #F70201",
"V+	c #BE0304",
"W+	c #A70607",
"X+	c #481213",
"Y+	c #172021",
"Z+	c #6F0707",
"`+	c #7C0101",
" @	c #E10102",
".@	c #D00001",
"+@	c #C40102",
"@@	c #750304",
"#@	c #580203",
"$@	c #000909",
"%@	c #290202",
"&@	c #CA0203",
"*@	c #D70103",
"=@	c #BB0103",
"-@	c #AE0203",
";@	c #480507",
">@	c #000101",
",@	c #560909",
"'@	c #570001",
")@	c #4B0000",
"!@	c #490E0E",
"~@	c #0D0D0E",
"            . + + @ @ .                 # $ + % & *             ",
"            = - ; ; ; >                 , ' ) ! ~ {             ",
"        ] ^ / ( _ _ _ : < [         } | 1 2 3 4 5 6 7 8         ",
"        9 0 a b c d e f g h         i j k l l m n o p q         ",
"    r s t u v w x y z A B C D E F G H I J l l K L M N O P Q     ",
"    R S T U V W X Y Z l `  ...+.+.@.#.` l l l l l $.%.&.*.=.    ",
"-.;.>.,.v '.).!.~.{.].l l ^./.(.(._.:.l l l l l l $.<.2 [.}.|.1.",
"2.3.4.5.6.7.8.9.0.l l l l l ` ` ` ` l l l l l l l $.<.a.5 [.b.1.",
"c.d.e.f.x g.~.h.i.l l l l l l l l l l l l l l l l $.<.j.k.l.m.1.",
"c.d.n.o.p.q.r.l l l l l l l l l l l l l l l l l l $.<.j.k.l.m.1.",
"2.3.n.s.t.u.v.l l l l l l l l l l l l l l l l l l $.<.j.k.l.m.1.",
"w.d.x.l l l l l l l l l l l l l l l l l l l l l l $.<.j.k.l.m.1.",
"y.d.x.l l l l l l l l l l l l l l l l l l l l l l $.<.z.k.l.m.1.",
"A.B.C. .D.l l l l l l l l l l l l l l l l l l l l E.F.G.H.I.J.K.",
"    L.M.N.` l l l l l l l l l l l l l l l l l O.n P.Q.R.S.T.    ",
"    1.U.V.` l l l l l l l l l l l l l l l l l W.<.X.Y.Z.`. +    ",
"    1.U..+` l l l l l l l l l l l l l l l l l W.<.a.Y.++@+ +    ",
"    #+$+%+%.A l l l l l l l l l l l l l l K &+*+=+-+;+>+L.,+    ",
"        '+)+3 ` l l l l l l l l l l l l l !+~+{+4 ]+^+/+        ",
"        (+_+:+=+<+l l l l l l l l l l K !+[+}+|+1+2+3+4+        ",
"          5+6+7+8+` l l l l l l l l l &+~+}+9+0+a+b+c+          ",
"            d+e+f+g+h+l l l l l l l !+[+i+_.j+k+l+m+            ",
"              n+o+p+q+` l l l l l &+~+r+s+1+t+u+v+              ",
"                w+x+y+z+A+l l l m B+i+C+0+D+E+1.                ",
"                    F+G+H+I+I+K J+K+L+M+N+O+P+                  ",
"                    Q+R+S+T+U+L i+G.V+W+X+Y+                    ",
"                        Z+`+ @F..@+@@@#@                        ",
"                        $@%@&@*@=@-@;@>@                        ",
"                            ,@'@)@!@                            ",
"                            . 1.1.~@                            "};
