/* XPM */
static char * pistol32_xpm[] = {
"32 29 176 2",
"  	c #FFFFFE",
". 	c #47704C",
"+ 	c #000000",
"@ 	c #000000",
"# 	c #000000",
"$ 	c #000000",
"% 	c #000000",
"& 	c #000000",
"* 	c #000000",
"= 	c #000000",
"- 	c #000000",
"; 	c #000000",
"> 	c #000000",
", 	c #000000",
"' 	c #000000",
") 	c #000000",
"! 	c #000000",
"~ 	c #000000",
"{ 	c #000000",
"] 	c #000000",
"^ 	c #000000",
"/ 	c #000000",
"( 	c #000000",
"_ 	c #000000",
": 	c #000000",
"< 	c #000000",
"[ 	c #000000",
"} 	c #000000",
"| 	c #000000",
"1 	c #000000",
"2 	c #000000",
"3 	c #000000",
"4 	c #000000",
"5 	c #000000",
"6 	c #000000",
"7 	c #000000",
"8 	c #000000",
"9 	c #030303",
"0 	c #000000",
"a 	c #000000",
"b 	c #000000",
"c 	c #000000",
"d 	c #000000",
"e 	c #000000",
"f 	c #000000",
"g 	c #000000",
"h 	c #000000",
"i 	c #000000",
"j 	c #000000",
"k 	c #000000",
"l 	c #000000",
"m 	c #0D0D0D",
"n 	c #0D0D0D",
"o 	c #000000",
"p 	c #000000",
"q 	c #000000",
"r 	c #404040",
"s 	c #000000",
"t 	c #000000",
"u 	c #000000",
"v 	c #050505",
"w 	c #000000",
"x 	c #000000",
"y 	c #000000",
"z 	c #000000",
"A 	c #000000",
"B 	c #353535",
"C 	c #000000",
"D 	c #161616",
"E 	c #000000",
"F 	c #404040",
"G 	c #000000",
"H 	c #222222",
"I 	c #000000",
"J 	c #000000",
"K 	c #000000",
"L 	c #000000",
"M 	c #111111",
"N 	c #5C5C5C",
"O 	c #5D5D5D",
"P 	c #0D0D0D",
"Q 	c #0D0D0D",
"R 	c #000000",
"S 	c #000000",
"T 	c #0D0D0D",
"U 	c #000000",
"V 	c #161616",
"W 	c #383838",
"X 	c #1C1C1C",
"Y 	c #2E2E2E",
"Z 	c #161616",
"` 	c #353535",
" .	c #000000",
"..	c #000000",
"+.	c #000000",
"@.	c #1C1C1C",
"#.	c #3B3B3B",
"$.	c #4B4B4B",
"%.	c #0D0D0D",
"&.	c #000000",
"*.	c #383838",
"=.	c #565656",
"-.	c #686868",
";.	c #838383",
">.	c #000000",
",.	c #424040",
"'.	c #4D4D4D",
").	c #828282",
"!.	c #4B4B4B",
"~.	c #0D0D0D",
"{.	c #878787",
"].	c #404040",
"^.	c #454545",
"/.	c #4F4F4F",
"(.	c #6A6A6A",
"_.	c #424242",
":.	c #818181",
"<.	c #A6A6A6",
"[.	c #888888",
"}.	c #868686",
"|.	c #727272",
"1.	c #757575",
"2.	c #A7A7A7",
"3.	c #5F5F5F",
"4.	c #494949",
"5.	c #515151",
"6.	c #848484",
"7.	c #808080",
"8.	c #161616",
"9.	c #898989",
"0.	c #5C5C5C",
"a.	c #2A2A2A",
"b.	c #7F7F7F",
"c.	c #8C8C8C",
"d.	c #353535",
"e.	c #A9A9A9",
"f.	c #474747",
"g.	c #858585",
"h.	c #AAAAAA",
"i.	c #222222",
"j.	c #9F9F9F",
"k.	c #A8A8A8",
"l.	c #717171",
"m.	c #969696",
"n.	c #737373",
"o.	c #1C1C1C",
"p.	c #3D3D3D",
"q.	c #919191",
"r.	c #A5A5A5",
"s.	c #777777",
"t.	c #3B3B3B",
"u.	c #ABABAB",
"v.	c #949494",
"w.	c #323232",
"x.	c #646464",
"y.	c #787878",
"z.	c #8A8A8A",
"A.	c #454242",
"B.	c #535353",
"C.	c #AEAEAE",
"D.	c #474545",
"E.	c #2E2B2B",
"F.	c #7C7C7C",
"G.	c #6E6E6E",
"H.	c #8B8B8B",
"I.	c #909090",
"J.	c #8D8D8D",
"K.	c #383838",
"L.	c #5A5A5A",
"M.	c #555555",
"N.	c #4F5151",
"O.	c #4F4D4D",
"P.	c #262626",
"Q.	c #9B9B9B",
"R.	c #A4A4A4",
"S.	c #000000",
"  + +                                           + +             ",
"  B _.B _.B r B B B B B B B B H + + + a.B X E.D Y M w.B B       ",
"D ).r.{.R.9.j.;.;.;.;.;.;.;.;.-.#.#.p.l.;.$.|.r y.B F.;.).X #.  ",
"D ).r.}.R.9.j.;.;.;.;.;.;.;.;.;.;.;.;.;.;.$.|.r y.B F.;.).H b.m ",
"D ).Q.g.Q.{.Q.;.;.;.;.;.;.;.;.;.;.;.;.;.1.=.-.M.(.5.b.;.).H G.m ",
"D :.;.;.;.;.;.;.;.;.;.;.;.;.;.;.;.;.;.;.x.s.3.F.O F.;.;.).X +   ",
"D -.-.l.l.l.l.l.l.l.l.l.l.l.l.l.l.l.l.l.l.l.l.l.l.l.l.l.l.D     ",
"  + m #.'.'.$.f.f.f.4.'.^.W W W W W W W W W W W W W W W W m     ",
"      D W $.^.,.,._.4.^.Y + + + + + + + + + + + + + + +         ",
"        D $.,.,.,.^.^.Y     +   +                               ",
"      D p.^.,.,.,.^.p.+   +     +                               ",
"      D $.,.,.,.A._.a.          +                               ",
"    m r ^.,.,.,.^.r +                                           ",
"    m $.,.,.,.,.#.H   + + + +                                   ",
"  m ^.A.,.,.,.A.r +                                             ",
"  m $.,.,.,.,.#.D                                               ",
"m 4._.,.,.,.A._.+                                               ",
"v $.$.$.$.$._.m                                                 ",
"+ v v v v v v +                                                 ",
"                                                                ",
"                                                                ",
"                                                                ",
"                                                                ",
"                                                                ",
"                                                                ",
"                                                                ",
"                                                                ",
"                                                                ",
"                                                                "};
