/* XPM */
static char * pizza32_xpm[] = {
"32 32 390 2",
"  	c #FFFFFE",
". 	c #737056",
"+ 	c #737055",
"@ 	c #71662F",
"# 	c #55513B",
"$ 	c #514622",
"% 	c #FDE395",
"& 	c #FEE79D",
"* 	c #FCCF56",
"= 	c #FCE497",
"- 	c #52512E",
"; 	c #797455",
"> 	c #FDE69E",
", 	c #FDD25C",
"' 	c #FDD25D",
") 	c #FDE291",
"! 	c #FCE292",
"~ 	c #F9BD45",
"{ 	c #FBE370",
"] 	c #010101",
"^ 	c #545139",
"/ 	c #514E33",
"( 	c #FBE492",
"_ 	c #FEE69C",
": 	c #FCE395",
"< 	c #FCE393",
"[ 	c #FBC248",
"} 	c #FDC34B",
"| 	c #FD5250",
"1 	c #FC925F",
"2 	c #504E2B",
"3 	c #252219",
"4 	c #241E0D",
"5 	c #FDE69C",
"6 	c #FEE699",
"7 	c #FCCC48",
"8 	c #FDE699",
"9 	c #FBCA49",
"0 	c #FCCB4C",
"a 	c #FA5750",
"b 	c #FB7056",
"c 	c #FB6E53",
"d 	c #FAA25C",
"e 	c #F7E375",
"f 	c #221F12",
"g 	c #4F4B39",
"h 	c #4F4937",
"i 	c #FDE79E",
"j 	c #FBCD4A",
"k 	c #FDE392",
"l 	c #FBC147",
"m 	c #FCC348",
"n 	c #FB5750",
"o 	c #FC9E61",
"p 	c #FDF073",
"q 	c #FDF29B",
"r 	c #F6BD84",
"s 	c #F6BD83",
"t 	c #F2D36A",
"u 	c #EDD56F",
"v 	c #4E4231",
"w 	c #1A1706",
"x 	c #FEE697",
"y 	c #FCCD48",
"z 	c #FECD47",
"A 	c #FEC64E",
"B 	c #FC524E",
"C 	c #FA7254",
"D 	c #F79359",
"E 	c #FEF59E",
"F 	c #FEF59D",
"G 	c #FBC78C",
"H 	c #DD3F39",
"I 	c #D93F39",
"J 	c #D93E39",
"K 	c #FCCB90",
"L 	c #010000",
"M 	c #000000",
"N 	c #FDE79B",
"O 	c #FBCD49",
"P 	c #FDCD4A",
"Q 	c #FECE4B",
"R 	c #FB6A4F",
"S 	c #FA8C56",
"T 	c #FEF69D",
"U 	c #FEF69E",
"V 	c #FACB8C",
"W 	c #FCCB8F",
"X 	c #D97742",
"Y 	c #DA403A",
"Z 	c #A62C24",
"` 	c #D87742",
" .	c #FDAF8D",
"..	c #1B170B",
"+.	c #FBCF4D",
"@.	c #FDE698",
"#.	c #FEE598",
"$.	c #FDC949",
"%.	c #FCCA47",
"&.	c #F94F4D",
"*.	c #F76851",
"=.	c #F88B56",
"-.	c #FDF59D",
";.	c #FEF79D",
">.	c #FEF69B",
",.	c #D94039",
"'.	c #C6392F",
").	c #C73A30",
"!.	c #DB3F3A",
"~.	c #A72D26",
"{.	c #D93D36",
"].	c #F7E174",
"^.	c #1B1504",
"/.	c #0A0804",
"(.	c #FDE79C",
"_.	c #F9CC4B",
":.	c #FEE69A",
"<.	c #FDCA52",
"[.	c #FA514E",
"}.	c #DA7541",
"|.	c #D9413A",
"1.	c #A52C23",
"2.	c #D64137",
"3.	c #FBCA8F",
"4.	c #FEF79E",
"5.	c #FAE075",
"6.	c #F1D570",
"7.	c #AF3427",
"8.	c #B4342A",
"9.	c #C63B31",
"0.	c #C63A30",
"a.	c #DA413B",
"b.	c #C1382C",
"c.	c #FBC98E",
"d.	c #ECD46F",
"e.	c #000001",
"f.	c #100F0A",
"g.	c #F6E39D",
"h.	c #FEE599",
"i.	c #FEE596",
"j.	c #FDCD49",
"k.	c #FC504F",
"l.	c #FD6B52",
"m.	c #D9403A",
"n.	c #D83F38",
"o.	c #D97442",
"p.	c #DA3D38",
"q.	c #FCCD8E",
"r.	c #FDAE87",
"s.	c #FA7B57",
"t.	c #FBCA8D",
"u.	c #B24231",
"v.	c #B6342B",
"w.	c #B4332B",
"x.	c #C53B31",
"y.	c #A73426",
"z.	c #FCAB86",
"A.	c #FBB087",
"B.	c #FACD8E",
"C.	c #26251A",
"D.	c #030002",
"E.	c #FCCD49",
"F.	c #FDCC4A",
"G.	c #F96A4F",
"H.	c #FC8E59",
"I.	c #C73B30",
"J.	c #C53A2F",
"K.	c #D53D35",
"L.	c #FEF69C",
"M.	c #FACA8D",
"N.	c #FAAC84",
"O.	c #FDF8A0",
"P.	c #C43A2D",
"Q.	c #B13228",
"R.	c #B03327",
"S.	c #FE975A",
"T.	c #FC9559",
"U.	c #FCF79F",
"V.	c #FEF7A0",
"W.	c #FDF8A1",
"X.	c #020101",
"Y.	c #020001",
"Z.	c #FCDB7D",
"`.	c #FEDA7A",
" +	c #FCCD47",
".+	c #FDCD4C",
"++	c #B33329",
"@+	c #B23228",
"#+	c #D1753F",
"$+	c #FDD2A4",
"%+	c #FDF06F",
"&+	c #FEF89E",
"*+	c #FEF89F",
"=+	c #FDF89F",
"-+	c #FEF79F",
";+	c #FDF79D",
">+	c #FBCA8C",
",+	c #FBCA8B",
"'+	c #FC8656",
")+	c #FA7851",
"!+	c #FDAC86",
"~+	c #FEAC87",
"{+	c #FEF7A4",
"]+	c #070506",
"^+	c #B2945E",
"/+	c #FEDB7D",
"(+	c #FEDB7C",
"_+	c #FEDA79",
":+	c #FEF06D",
"<+	c #FEEF6E",
"[+	c #FDF071",
"}+	c #DC3F37",
"|+	c #E34637",
"1+	c #DD3F3A",
"2+	c #D94037",
"3+	c #F9E177",
"4+	c #F9CA8A",
"5+	c #FCFA93",
"6+	c #ECD56B",
"7+	c #ECD56C",
"8+	c #FDF69E",
"9+	c #FBCB8F",
"0+	c #D93E38",
"a+	c #DC403C",
"b+	c #090101",
"c+	c #090401",
"d+	c #B29360",
"e+	c #B1935F",
"f+	c #FDDB7D",
"g+	c #FDDA7D",
"h+	c #FDDA79",
"i+	c #FDCC48",
"j+	c #FDCD48",
"k+	c #FECD49",
"l+	c #C6382F",
"m+	c #C73A31",
"n+	c #DA3F39",
"o+	c #FDF7A1",
"p+	c #F8E071",
"q+	c #F8E171",
"r+	c #F7E071",
"s+	c #FDF79F",
"t+	c #C3392D",
"u+	c #DC413B",
"v+	c #A42D25",
"w+	c #DB423D",
"x+	c #020102",
"y+	c #B0915C",
"z+	c #B0915B",
"A+	c #FDDA7C",
"B+	c #FDDA7A",
"C+	c #FDCE4D",
"D+	c #B3342D",
"E+	c #B4342B",
"F+	c #B4332A",
"G+	c #D73D37",
"H+	c #FDF89E",
"I+	c #D5773F",
"J+	c #B23328",
"K+	c #A42F28",
"L+	c #040101",
"M+	c #B0925C",
"N+	c #B09059",
"O+	c #FDDB7B",
"P+	c #FEDB7B",
"Q+	c #FEDB7A",
"R+	c #FECE4A",
"S+	c #FDCE4A",
"T+	c #B53129",
"U+	c #C2372C",
"V+	c #F8E172",
"W+	c #FCAC86",
"X+	c #B23229",
"Y+	c #B4322A",
"Z+	c #030000",
"`+	c #AF905A",
" @	c #FDDA7B",
".@	c #FEDA7B",
"+@	c #FCA94E",
"@@	c #FDCC49",
"#@	c #FEEF6D",
"$@	c #FDEF6D",
"%@	c #FCCA8D",
"&@	c #FCA15C",
"*@	c #F97951",
"=@	c #EFD56D",
"-@	c #B13128",
";@	c #030101",
">@	c #B1935E",
",@	c #B2915A",
"'@	c #FCAB53",
")@	c #FCA94F",
"!@	c #FDA94E",
"~@	c #FDAA4E",
"{@	c #FDF06D",
"]@	c #DB4330",
"^@	c #E14735",
"/@	c #A32B22",
"(@	c #DF4837",
"_@	c #E16941",
":@	c #EFD86F",
"<@	c #FCFB94",
"[@	c #EDD86F",
"}@	c #010001",
"|@	c #FCAA50",
"1@	c #FEA94F",
"2@	c #FCA950",
"3@	c #FEDA78",
"4@	c #FCCE4B",
"5@	c #B4342C",
"6@	c #B4342D",
"7@	c #C73B31",
"8@	c #A52D25",
"9@	c #D53E36",
"0@	c #FDD452",
"a@	c #FDAC87",
"b@	c #F9E277",
"c@	c #010100",
"d@	c #FBA951",
"e@	c #FEF7B5",
"f@	c #B19059",
"g@	c #FDA94F",
"h@	c #FED384",
"i@	c #FDCE49",
"j@	c #B13327",
"k@	c #B5332B",
"l@	c #C53A2E",
"m@	c #FA7952",
"n@	c #FDD552",
"o@	c #FAE374",
"p@	c #FDF7B8",
"q@	c #050101",
"r@	c #FED382",
"s@	c #FDCE4E",
"t@	c #FDCF49",
"u@	c #FBCF49",
"v@	c #FEEF70",
"w@	c #FEF79B",
"x@	c #FEF79C",
"y@	c #040404",
"z@	c #FBD370",
"A@	c #FBAA50",
"B@	c #FED26D",
"C@	c #FCA84F",
"D@	c #FED385",
"E@	c #FCCD46",
"F@	c #FDEF6C",
"G@	c #FDEF6B",
"H@	c #010002",
"I@	c #FDF6B5",
"J@	c #FDF8BC",
"K@	c #030304",
"L@	c #080201",
"M@	c #FAAA50",
"N@	c #FED36D",
"O@	c #FDD56F",
"P@	c #090201",
"Q@	c #B2925C",
"R@	c #B0905A",
"S@	c #B08F57",
"T@	c #FDD384",
"U@	c #FCD571",
"V@	c #FEF8B7",
"W@	c #020100",
"X@	c #FCAA51",
"Y@	c #FED571",
"Z@	c #241E12",
"`@	c #15110B",
" #	c #15120C",
".#	c #17110C",
"+#	c #B3935D",
"@#	c #B3935C",
"##	c #B29359",
"$#	c #FCD36F",
"%#	c #020002",
"&#	c #FDD874",
"*#	c #020103",
"=#	c #1B180A",
"-#	c #1C1C15",
";#	c #010003",
">#	c #010103",
",#	c #FED875",
"'#	c #0F0F0E",
")#	c #F5F0B6",
"!#	c #FEF6B4",
"~#	c #FDD879",
"{#	c #FEF7B7",
"]#	c #FCD470",
"^#	c #4D4322",
"/#	c #4F4E3B",
"                            . + @ .                             ",
"                        # $ % & * = -                           ",
"                      ; > , ' ) ! ~ { ]                         ",
"                  ^ / ( _ : < [ } | 1 2                         ",
"              3 4 5 6 7 8 9 0 a b c d e f                       ",
"          g h i j % k l m n o p q r s t u v                     ",
"        w 8 x _ y z A B C D E F G H I J G K ]                   ",
"    L M N O O _ P Q R S T U V W X Y Z Y `  .M                   ",
"  ..+.@._ #.$.%.&.*.=.-.;.>.F ,.'.).!.~.!.{.].^.                ",
"/.(.O _.:.<.[.}.|.1.2.3.4.5.6.7.8.9.0.).a.b.c.d.e.              ",
"f.g.h.i.j.k.l.m.).n.o.p.q.r.s.t.u.v.w.x.y.z.A.B.C.              ",
"  D.j E.F.G.H.w.0.I.J.K.L.M.N.V O.P.Q.R.S.T.U.V.W.X.            ",
"  Y.Z.`. + +.+++++@+#+$+%+&+*+=+-+;+>+,+'+)+!+~+{+X.            ",
"  ]+^+/+(+`._+j.j. +:+<+[+}+|+1+2+3+4+5+6+7+8+9+0+a+b+          ",
"    c+d+e+f+(+g+h+i+j+k+p.l+).m+Z n+o+p+q+r+s+t+u+v+w+x+        ",
"      X.X.y+y+z+A+B+_+ + +C+D+E+F+!.G+4.;.;.H+I+J+m+K+L+        ",
"          X.L Y.M+N+O+P+Q+j+R+S+@+T+U+*+;.;.V+W+X+Y+m+w+Z+      ",
"                ] X.y+`+ @.@+@`.@@i+y #@$@;.%@&@*@=@-@m.;@      ",
"                    X.L >@,@'@)@!@~@@@O {@]@^@/@(@_@:@<@[@}@    ",
"                        ] ] }@|@1@2@_+3@y 4@5@6@7@8@9@0@a@b@c@  ",
"                            }@d@e@f@2@g@g@h@P i@j@k@l@m@n@o@X.  ",
"                            Y.2@p@q@'@1@g@2@+@r@s@t@u@v@w@x@o+y@",
"                            Y.z@x+  D.A@B@)@1@C@)@D@j+E@F@G@{@H@",
"                            c@I@J@K@  L@M@N@O@P@Q@R@S@h@T@j y Y.",
"                            }@U@V@}@  W@X@Y@Z@  `@ #.#+#@#####X.",
"                            Y.$#p@}@    %#&#*#        L L M M   ",
"                              =#-#      ;#&#x+                  ",
"                                        >#,#x+                  ",
"                                      '#)#!#]                   ",
"                                      W@~#{#]                   ",
"                                      W@]#V@X.                  ",
"                                        ^#/#                    "};
