/* XPM */
static char * speedBoots_xpm[] = {
"32 32 120 2",
"  	c #FFFFFE",
". 	c #301906",
"+ 	c #321B07",
"@ 	c #311A06",
"# 	c #7A481F",
"$ 	c #7B4820",
"% 	c #623A1A",
"& 	c #613A1A",
"* 	c #61391A",
"= 	c #1F1105",
"- 	c #1C0F04",
"; 	c #7C4920",
"> 	c #7B4920",
", 	c #623A1B",
"' 	c #613A1B",
") 	c #201307",
"! 	c #1E1107",
"~ 	c #633B1A",
"{ 	c #633A1A",
"] 	c #563011",
"^ 	c #563113",
"/ 	c #524642",
"( 	c #524743",
"_ 	c #514642",
": 	c #553011",
"< 	c #563013",
"[ 	c #563115",
"} 	c #594F4B",
"| 	c #594F4C",
"1 	c #574D49",
"2 	c #564C49",
"3 	c #554B47",
"4 	c #1F1104",
"5 	c #1E1004",
"6 	c #201207",
"7 	c #FCFBFB",
"8 	c #FDFDFD",
"9 	c #D5D5D5",
"0 	c #D4D4D4",
"a 	c #B7B7B7",
"b 	c #B6B6B5",
"c 	c #36302F",
"d 	c #302927",
"e 	c #341B06",
"f 	c #241204",
"g 	c #221204",
"h 	c #20140B",
"i 	c #574E4A",
"j 	c #5E5552",
"k 	c #FFFFFF",
"l 	c #FEFEFE",
"m 	c #B5B5B5",
"n 	c #9F5011",
"o 	c #A05011",
"p 	c #8F4A12",
"q 	c #8E4914",
"r 	c #534742",
"s 	c #EDEDED",
"t 	c #EEEEEE",
"u 	c #F0F0F0",
"v 	c #D7D7D7",
"w 	c #403B3A",
"x 	c #383331",
"y 	c #351B06",
"z 	c #A15111",
"A 	c #A05111",
"B 	c #904A14",
"C 	c #8F4A16",
"D 	c #584C48",
"E 	c #5C5350",
"F 	c #EFEFEF",
"G 	c #D6D6D6",
"H 	c #3E3937",
"I 	c #914A12",
"J 	c #554742",
"K 	c #D3D3D3",
"L 	c #BABABA",
"M 	c #B9B9B9",
"N 	c #904A12",
"O 	c #8F4A14",
"P 	c #544742",
"Q 	c #574C49",
"R 	c #B8B8B8",
"S 	c #584E4B",
"T 	c #36302E",
"U 	c #391D06",
"V 	c #914910",
"W 	c #904910",
"X 	c #713B10",
"Y 	c #703B12",
"Z 	c #BBBBBB",
"` 	c #3C3635",
" .	c #584E4A",
"..	c #8F4910",
"+.	c #6F3A13",
"@.	c #3C3634",
"#.	c #3B3534",
"$.	c #1D1106",
"%.	c #1C1005",
"&.	c #713A10",
"*.	c #6F3A11",
"=.	c #352A26",
"-.	c #332A27",
";.	c #332926",
">.	c #1D1005",
",.	c #703A10",
"'.	c #8F4912",
").	c #8F4A13",
"!.	c #8E4912",
"~.	c #723B10",
"{.	c #62320B",
"].	c #61310B",
"^.	c #62310B",
"/.	c #60310B",
"(.	c #211104",
"_.	c #1F1004",
":.	c #6F3A10",
"<.	c #6F3910",
"[.	c #60300B",
"}.	c #201104",
"                                                                ",
"                                                                ",
"                    . . . . . . . . . . . . . .                 ",
"                    + + + + + + @ @ @ @ @ @ @ @                 ",
"                . + # $ $ $ $ $ % & & & & & & * = -             ",
"                . + $ ; ; ; ; > % % % % % % , ' ) !             ",
"                . + $ ; ~ { { % % % ] ] ] ^ / ( _ _ ( ( ( (     ",
"                . + # $ % & & & & * ] : < [ } | | | 1 2 3 3     ",
"                . . + + @ @ = = = 4 5 6 / } 7 8 8 8 9 0 a b c d ",
"                . . . . e e f f g g ! h i j 8 k l l 9 0 a m c d ",
"                    . e n o o o p q r i s t u u v 9 w x c c     ",
"                    . y o z z A B C D E F u u u G 0 H c c c     ",
"                    . y o z I B J D K 9 l k k l L M a a a m c d ",
"                    . y o z N O P Q 9 v l k l 8 R a a a a m c d ",
"                    . y o z N O P S t u u u v 9 H c c c c c     ",
"                    . y o z N O P S F u u u G 0 H T d d d d     ",
"                    . y o z N O P | 8 k k l L M a m T d         ",
"                    y U o A N O P | 8 k l 8 R a a m c d         ",
"        . . . . . y n o V W X Y r S F F Z R ` c c c             ",
"        y y y y y U o A V W X Y r  .s s R m T d d d             ",
"    . y n o o o o o I I A A W ..Y +.@.#.c T $.%.                ",
"    y U o z z z z A N N A A W ..&.*.=.-.-.;.>.-                 ",
". y n o z z I N N N X X N N X &.,.&.'.).).!.g -                 ",
". e o z z A I N N p &.&.'.'.,.,.,.&.p N N '.g -                 ",
"- f o z I I A A ~.&.,.,.{.{.].^.,.,.&.X N '.g -                 ",
"- f o A N N A o &.,.,.,.]././.].,.,.,.,.'.!.g -                 ",
"- g p N N N ~.&.,.,.^.].(._._.(.].].].].{.]._.-                 ",
"- g !.'.'.!.,.:.:.<.].[._.- - _.[././././.[._.-                 ",
"    g g g g }.}.}.}._._.        _._._._._._.- -                 ",
"    - - - - - - - - - -         - - - - - - - -                 ",
"                                                                ",
"                                                                "};
