/* XPM */
static char * Boulder_xpm[] = {
"17 14 7 1",
" 	c None",
".	c #606070",
"+	c #9DA1A8",
"@	c #7E7E8F",
"#	c #43434F",
"$	c #464652",
"%	c #3D3D47",
"      .....      ",
"    ..+++@@.     ",
"   .++.++@@@.    ",
"  .++@.+@@@@#.   ",
" .@@@.@.@@@.#+#  ",
" #..#@@#...#@+#  ",
"#+@@.@@.@@#.@@#  ",
"#+@@.@@#@@.@@@#  ",
"#+@@..###.@##.#  ",
" #....@@@#@@@#$  ",
" ###@@.@@#@+##   ",
" ####@@.@.###    ",
"  ####@#####     ",
"    ##%# ##      "};
