/* XPM */
static char * explosion1_1_xpm[] = {
"44 44 371 2",
"  	c #FFFFFE",
". 	c #FFFFFF",
"+ 	c #E0E0E5",
"@ 	c #8E91AC",
"# 	c #1A327E",
"$ 	c #04297C",
"% 	c #402B7C",
"& 	c #621A7A",
"* 	c #700878",
"= 	c #710778",
"- 	c #700778",
"; 	c #641479",
"> 	c #48227B",
", 	c #211E7A",
"' 	c #21307E",
") 	c #FAF9F9",
"! 	c #EAE9EC",
"~ 	c #C8C4D0",
"{ 	c #857EA0",
"] 	c #3F2B7D",
"^ 	c #3B237B",
"/ 	c #50257B",
"( 	c #651678",
"_ 	c #6F0776",
": 	c #6F0877",
"< 	c #700777",
"[ 	c #6E0774",
"} 	c #651175",
"| 	c #541D79",
"1 	c #421A7A",
"2 	c #42297C",
"3 	c #867FA1",
"4 	c #E2DFE5",
"5 	c #E2E1E6",
"6 	c #F8F8F9",
"7 	c #BCB4C5",
"8 	c #8F7B9F",
"9 	c #724A87",
"0 	c #611579",
"a 	c #6A0D74",
"b 	c #6C0672",
"c 	c #6D0774",
"d 	c #69056C",
"e 	c #65096C",
"f 	c #641175",
"g 	c #631079",
"h 	c #63187A",
"i 	c #754E88",
"j 	c #917B9F",
"k 	c #998BA9",
"l 	c #978EAB",
"m 	c #B8B5C5",
"n 	c #E9E8EC",
"o 	c #ECE8EC",
"p 	c #CCC4CF",
"q 	c #907A9E",
"r 	c #621179",
"s 	c #680076",
"t 	c #6D0672",
"u 	c #6B0670",
"v 	c #6A066E",
"w 	c #67056A",
"x 	c #68056B",
"y 	c #69066E",
"z 	c #6A066F",
"A 	c #630363",
"B 	c #640364",
"C 	c #6E0775",
"D 	c #6C0A77",
"E 	c #650E78",
"F 	c #5A0077",
"G 	c #531978",
"H 	c #887B9E",
"I 	c #C7C4D0",
"J 	c #E9E9EC",
"K 	c #F9F9F9",
"L 	c #C2B4C3",
"M 	c #97799C",
"N 	c #784382",
"O 	c #680074",
"P 	c #6C0075",
"Q 	c #6C0571",
"R 	c #660367",
"S 	c #640363",
"T 	c #650466",
"U 	c #640465",
"V 	c #60025E",
"W 	c #5E025A",
"X 	c #5E025C",
"Y 	c #5F025D",
"Z 	c #5F025C",
"` 	c #5F025B",
" .	c #61025F",
"..	c #650366",
"+.	c #6A056E",
"@.	c #6C0073",
"#.	c #690075",
"$.	c #650074",
"%.	c #610072",
"&.	c #6C4581",
"*.	c #867C9E",
"=.	c #B6B5C5",
"-.	c #CEC3CF",
";.	c #98799C",
">.	c #6A006F",
",.	c #660468",
"'.	c #5D0159",
").	c #5F025E",
"!.	c #5E025D",
"~.	c #590155",
"{.	c #570050",
"].	c #580050",
"^.	c #580051",
"/.	c #570154",
"(.	c #580155",
"_.	c #5A0155",
":.	c #5E025B",
"<.	c #6B066F",
"[.	c #6C0671",
"}.	c #6B0671",
"|.	c #610071",
"1.	c #531D78",
"2.	c #877C9F",
"3.	c #C1B4C4",
"4.	c #97799D",
"5.	c #7B4282",
"6.	c #660068",
"7.	c #640464",
"8.	c #620361",
"9.	c #5B0155",
"0.	c #580053",
"a.	c #560155",
"b.	c #540051",
"c.	c #550050",
"d.	c #57004F",
"e.	c #58004F",
"f.	c #500051",
"g.	c #500052",
"h.	c #560052",
"i.	c #5A0154",
"j.	c #660466",
"k.	c #69056D",
"l.	c #680071",
"m.	c #630075",
"n.	c #6E4685",
"o.	c #897B9F",
"p.	c #CDC3CF",
"q.	c #95799B",
"r.	c #680872",
"s.	c #680070",
"t.	c #68056C",
"u.	c #620362",
"v.	c #5D025A",
"w.	c #5B0157",
"x.	c #590154",
"y.	c #560051",
"z.	c #530050",
"A.	c #4F0050",
"B.	c #4D0050",
"C.	c #500050",
"D.	c #540050",
"E.	c #4A0050",
"F.	c #4B0050",
"G.	c #510050",
"H.	c #550051",
"I.	c #570053",
"J.	c #5B0156",
"K.	c #640466",
"L.	c #630072",
"M.	c #581878",
"N.	c #C2B4C4",
"O.	c #98799B",
"P.	c #764279",
"Q.	c #620066",
"R.	c #640068",
"S.	c #630465",
"T.	c #580153",
"U.	c #530051",
"V.	c #4C0050",
"W.	c #470050",
"X.	c #430050",
"Y.	c #440050",
"Z.	c #480050",
"`.	c #490050",
" +	c #4F0051",
".+	c #5A0156",
"++	c #5B025B",
"@+	c #5F0360",
"#+	c #630364",
"$+	c #64006A",
"%+	c #CCC4D0",
"&+	c #98799E",
"*+	c #6D0773",
"=+	c #640065",
"-+	c #600361",
";+	c #460050",
">+	c #520050",
",+	c #560154",
"'+	c #580157",
")+	c #5D025B",
"!+	c #650365",
"~+	c #6C0772",
"{+	c #640076",
"]+	c #551D7A",
"^+	c #978FAB",
"/+	c #917A9F",
"(+	c #794384",
"_+	c #6A0071",
":+	c #640066",
"<+	c #5C0259",
"[+	c #570051",
"}+	c #4E0050",
"|+	c #450050",
"1+	c #550053",
"2+	c #630362",
"3+	c #650077",
"4+	c #9F8BA8",
"5+	c #E3DFE5",
"6+	c #690076",
"7+	c #580154",
"8+	c #60035F",
"9+	c #6D0075",
"0+	c #99799E",
"a+	c #EAE8EC",
"b+	c #F9F8F9",
"c+	c #3F0050",
"d+	c #400050",
"e+	c #420050",
"f+	c #5D025C",
"g+	c #67056B",
"h+	c #6D0073",
"i+	c #7B4786",
"j+	c #3D2B7B",
"k+	c #5F1976",
"l+	c #6B056F",
"m+	c #3C0050",
"n+	c #380050",
"o+	c #390050",
"p+	c #3B0050",
"q+	c #620071",
"r+	c #5B1378",
"s+	c #9B8EAA",
"t+	c #E3E1E6",
"u+	c #352377",
"v+	c #59136D",
"w+	c #630262",
"x+	c #3E0050",
"y+	c #5C0158",
"z+	c #60025D",
"A+	c #5B0066",
"B+	c #550073",
"C+	c #4C2578",
"D+	c #5E156E",
"E+	c #5E015A",
"F+	c #410050",
"G+	c #5E0065",
"H+	c #5E1074",
"I+	c #3A0050",
"J+	c #560050",
"K+	c #5C0157",
"L+	c #630463",
"M+	c #67006C",
"N+	c #690B75",
"O+	c #744E88",
"P+	c #857FA1",
"Q+	c #6A056D",
"R+	c #402B7D",
"S+	c #1C327E",
"T+	c #6E0674",
"U+	c #671178",
"V+	c #6A0B74",
"W+	c #4E004F",
"X+	c #6A0975",
"Y+	c #511C77",
"Z+	c #5F106D",
"`+	c #3D0050",
" @	c #5A0054",
".@	c #5E0063",
"+@	c #610D73",
"@@	c #3D1A76",
"#@	c #5A0E6D",
"$@	c #590053",
"%@	c #590153",
"&@	c #5D0158",
"*@	c #5B0064",
"=@	c #590072",
"-@	c #9B8BA8",
";@	c #40297B",
">@	c #601875",
",@	c #69046B",
"'@	c #560153",
")@	c #620070",
"!@	c #5C1278",
"~@	c #9C8EAA",
"{@	c #E3E0E6",
"]@	c #590156",
"^@	c #610362",
"/@	c #68006B",
"(@	c #650E79",
"_@	c #6B0072",
":@	c #5A0078",
"<@	c #660075",
"[@	c #660467",
"}@	c #6B0075",
"|@	c #6A0077",
"1@	c #A28AA8",
"2@	c #E4DFE5",
"3@	c #54197A",
"4@	c #530156",
"5@	c #5E035F",
"6@	c #670569",
"7@	c #A08DAA",
"8@	c #E4E0E6",
"9@	c #610464",
"0@	c #5B025D",
"a@	c #570155",
"b@	c #540158",
"c@	c #59035F",
"d@	c #630467",
"e@	c #67006D",
"f@	c #680073",
"g@	c #774384",
"h@	c #927A9E",
"i@	c #BDB4C4",
"j@	c #EBE9EC",
"k@	c #69056F",
"l@	c #650468",
"m@	c #600363",
"n@	c #65056A",
"o@	c #68056D",
"p@	c #65006F",
"q@	c #640E76",
"r@	c #CBC4D0",
"s@	c #EBE8EC",
"t@	c #690072",
"u@	c #6A056F",
"v@	c #520051",
"w@	c #570153",
"x@	c #744380",
"y@	c #917A9D",
"z@	c #571777",
"A@	c #630071",
"B@	c #660469",
"C@	c #570052",
"D@	c #610068",
"E@	c #600070",
"F@	c #6A0070",
"G@	c #6C0071",
"H@	c #5D0259",
"I@	c #640365",
"J@	c #68006C",
"K@	c #61006A",
"L@	c #70437A",
"M@	c #907A9B",
"N@	c #6F0876",
"O@	c #650467",
"P@	c #620D75",
"Q@	c #CBC4CF",
"R@	c #650075",
"S@	c #650070",
"T@	c #6A056C",
"U@	c #6A046C",
"V@	c #64006C",
"W@	c #5C1379",
"X@	c #580076",
"Y@	c #611077",
"Z@	c #6A0B76",
"`@	c #690973",
" #	c #630D75",
".#	c #5C0076",
"+#	c #5D1279",
"                  .   + @ # $ % & * = * * * * - * ; > , ' @ +   .                       ",
"              . . ) ! ~ { ] ^ / ( _ _ : * * * < [ } | 1 2 3 ~ 4 5 ! 6 .                 ",
"              .   ! 7 8 9 & 0 ( a b b c : * * c d e f g h i j k l m n   .               ",
"          . . ) o p q r s _ t u v d w x y z z x A B d b C D E F G H I J K .             ",
"          .   o L M N O P Q R S T U V W X Y Y Z W `  ...+.@.#.$.%.&.*.=.J   .           ",
"        . ) o -.;.c >.u z ,.Y '.).!.~.{.].].].^./.(._.:.B x <.[.}.|.1.2.I ! K .         ",
"      .   o 3.4.5.>.6.7.8.Z 9.0.(.a.b.c.d.e.e.c.f.g.h.i.'.Y 8.j.k.l.m.n.o.m !   .       ",
"    . ) o p.q.r.s.t.u.v.w.x.y.z.A.B.B.C.D.c.z.A.E.F.G.D.H.I.J.Y K.t.u L.M.o.I J 6       ",
"  .   o N.O.P.Q.R.S.v.T.h.U.G.V.W.X.Y.Z.A.A.`.W.Z.E.B.B.V. +h..+++@+#+$+L.n.2.=.J   .   ",
". ) ! %+&+*+=+8.-+!.~.D.C.B.V.E.;+X.X.W.B.B.W.;+E.V.V.E.;+E.>+y.,+'+)+!+~+{+]+^+5 . .   ",
"  ! 7 /+(+_+:+V <+~.[+>+E.W.E.V.V.V.V.B.A.A.B.V.}+A.}+F.|+W.A.z.U.1+w.2+[.#.3+4+5+  .   ",
"+ ~ 8 r 6+b T :.7+D.>+}+E.`.V.}+}+}+V.F.F.F.F.F.V.B.A.}+E.`.V.A.>+H.x.8+z 9+* 0+%+a+b+  ",
"@ { 9 6+P <.u.w.h.C.E.E.A.>+G.A.B.`.X.c+c+c+c+d+e+W.B.G.>+A.`.E.G.c.[+f+g+h+< i+j 7 !   ",
"# j+k+[.l+,.Z x.U.B.W.`.>+D.C.F.Z.X.m+n+n+n+n+o+p+d+W.B.>+C.`.`.A.z.c.w.A x z q+r+s+t+. ",
"$ u+v+T w+Z J.y.G.V.E.V.G.C.W.d+x+m+o+n+n+n+n+n+o+p+x+X.`.V.B.V.E.B.z.0.y+z+8.A+B+k 4   ",
"% C+D+A E+i.^.z.V.E.V.}+A.F.d+o+n+n+n+n+n+n+n+n+n+n+n+p+F+`.C.A.W.W.A.c.^.9.Z G+H+8 ~ + ",
"& ( a x ` ^.c.A.W.;+V.}+B.Z.x+n+n+n+n+n+n+n+n+n+n+n+n+I+x+;+C.A.Y.e+E.G.J+K+L+M+N+O+P+@ ",
"* : c x W {.z.B.Y.X.V.}+`.X.m+n+n+n+n+n+n+n+n+n+n+n+n+o+p+Y.A.}+e+c+W.A.c.K+A Q+[ & R+S+",
"= T+d 2+K+{.z.B.Y.X.V.V.X.m+o+n+n+n+n+n+n+n+n+n+n+n+n+n+o+F+V.V.F+c+W.A.c.i.:.!+b 0 ^ $ ",
"* [ d 2+K+{.c.C.Z.W.B.F.c+n+n+n+n+n+n+n+n+n+n+n+n+n+n+n+n+d+F.F.e+F+F.>+J+i.:.!+~+& R+S+",
"* : c x W ].{.D.A.B.A.F.c+n+n+n+n+n+n+n+n+n+n+n+n+n+n+n+n+c+F.V.Y.|+C.J+{.K+A Q+[ & R+S+",
"* : c x W ].].c.A.B.A.F.c+n+n+n+n+n+n+n+n+n+n+n+n+n+n+n+n+c+F.V.Y.;+G.{.].K+A Q+[ & R+S+",
"* [ d 2+K+].].z.`.W.B.F.c+n+n+n+n+n+n+n+n+n+n+n+n+n+n+n+n+d+F.F.e+X.}+c.{.i.:.!+~+& R+S+",
"- [ d 2+K+{.c.A.W.;+V.F.d+o+n+n+n+n+n+n+n+n+n+n+n+n+n+n+n+d+F.F.e+F+E.G.J+i.:.!+b 0 ^ $ ",
"* : c x W c.}+E.Z.E.}+V.e+p+o+n+n+n+n+n+n+n+n+n+n+n+n+n+o+F+V.B.X.d+|+V.D.K+A Q+[ & R+S+",
"; U+V+x W c.W+F.E.V.A.B.W.d+p+n+n+n+n+n+n+n+n+n+n+n+n+n+I+X.}+A.|+F+;+B.D.K+A M+X+i 3 @ ",
"> Y+Z+2+K+{.c.G.B.V.}+A.B.W.x+n+n+n+n+n+n+n+n+n+n+n+n+o+`+;+G.G.;+Y.B.z.{. @:..@+@j ~ + ",
", @@#@7.z+K+$@D.B.E.F.}+G.B.X.p+I+o+n+n+n+n+n+n+n+n+o+x+Y.F.C.A.Z.`.G.y.%@&@V *@=@-@4   ",
"' ;@>@u ,@A &@H.V.;+|+E.>+>+`.F+x+p+o+n+n+n+n+n+o+I+`+Y.}+C.F.`.V.A.>+'@v.2+t.)@!@~@{@. ",
"@ 3 i D @.x Y I. +E.W.`.A.C.V.`.;+Y.F+d+c+c+d+d+F+X.;+F.C.A.Z.Z.C.z.D.]@^@/@[ i+j 7 !   ",
"+ ~ j (@#.<.8.J.h.>+A.V.`.`.B.C.C.A.V.F.F.F.F.F.V.}+G.C.F.Z.Z.B.z.J+{.)+g+_@: 0+%+a+b+  ",
"  4 k :@<@t [@Y _.y.z.A.E.`.V.A.A.}+V.F.V.V.F.F.B.A.G.A.`.Z.B.C.z.h._.8.}.}@|@1@2@  .   ",
". 5 l 3@{+C +.K.++,+U.>+G.A.E.W.Y.e+F+e+Y.Y.e+e+X.|+;+Z.V.C.z.z. +4@5@6@*+6+(@7@8@. .   ",
"  ! m o.n.m.l.t.9@0@a@H.c.z.B.W.e+c+c+F+|+;+X.F+d+F+Y.`.A.z.J+h.b@c@d@e@f@g@h@i@j@  .   ",
"  6 n I 2.1.|.u k@l@!.x.[+c.z.A.E.W.W.F.C.G.}+E.|+;+B.G.>+D.{.w.m@n@o@p@q@h@r@s@b+      ",
"  .   J =.*.&.q+t@u@7.Y )+w.0.H.v@f.A.>+J+{.c.G.B.}+z.y.w@]@)+8.,.M+p@x@y@i@j@  .       ",
"    . K J I H z@A@u d w B@A y+0.7+/.y.J+{.].{.J+H.H.C@i.v.u.g+k.,.D@+@y@r@j@) .         ",
"      .   ! m H &.E@p@F@G@k.u.Z Y Z &@K+&@H@H@y+9.J.'.V I@J@_@l.K@L@M@i@j@  .           ",
"        . K ! I *.1.m.N@_ *+k.6@6@O@A A T [@[@L+Z z+U t.u [ : #.P@M@Q@j@) .             ",
"          .   J =.^+4+&+i+R@q+S@F@l+T@U@l+[.[.Q+R :+V@A@<@i+&+1@7@i@s@  .               ",
"            . 6 J 5 5+%+j W@X@Y@Z@C [ [ C N@N@C ~+`@ #.#+#j %+2@8@j@b+.                 ",
"                  .   a+7 s+k 8 O+& 0 & & & & 0 & i j -@~@7 a+  .                       ",
"                . . . b+! t+4 ~ P+R+^ R+R+R+R+^ R+3 ~ 4 {@! b+. . .                     ",
"                          .   + @ S+$ S+S+S+S+$ S+@ +   .                               "};
