/* XPM */
static char * border2_xpm[] = {
"17 16 4 1",
" 	c #10141F",
".	c #202E37",
"+	c #151D28",
"@	c #394A50",
"                 ",
"................ ",
"+.@@+.@@+.@@+.@@ ",
"+@@@+@@@+@@@+@@@ ",
"+@@@+@@@+@@@+@@@ ",
"+@@@+@@@+@@@+@@@ ",
"+@@@+@@@+@@@+@@@ ",
"+@@@+@@@+@@@+@@@ ",
"+@@@+@@@+@@@+@@@ ",
"+@@@+@@@+@@@+@@@ ",
"+@@@+@@@+@@@+@@@ ",
"+@@@+@@@+@@@+@@@ ",
"+@@@+@@@+@@@+@@@ ",
"+@@.+@@.+@@.+@@. ",
"................ ",
"                 "};
