/* XPM */
static char * border1_xpm[] = {
"16 16 4 1",
" 	c #10141F",
".	c #202E37",
"+	c #394A50",
"@	c #151D28",
" .+++++++++++.. ",
" .++++++++++++. ",
" ..+++++++++++. ",
" .@@@@@@@@@@@@. ",
" .+++++++++++.. ",
" .++++++++++++. ",
" ..+++++++++++. ",
" .@@@@@@@@@@@@. ",
" .+++++++++++.. ",
" .++++++++++++. ",
" ..+++++++++++. ",
" .@@@@@@@@@@@@. ",
" .+++++++++++.. ",
" .++++++++++++. ",
" ..+++++++++++. ",
" .@@@@@@@@@@@@. "};
