/* XPM */
static char * ground_xpm[] = {
"17 17 4 1",
" 	c #151D28",
".	c #10141F",
"+	c #394A50",
"@	c #577277",
" .      .      ..",
" +@@@@@@@@@@@@@+.",
" @+++++++++++++@ ",
" @+++++++++++++@ ",
" @+++++++++++++@ ",
".@+++++++++++++@ ",
" @+++++++++++++@ ",
" @+++++++++++++@.",
" @+++++++++++++@ ",
" @+++++++++++++@ ",
" @+++++++++++++@ ",
" @+++++++++++++@ ",
" @+++++++++++++@ ",
".@+++++++++++++@ ",
".@+++++++++++++@ ",
" +@@@@@@@@@@@@@+.",
" .      .      .."};
