/* XPM */
static char * highlight_xpm[] = {
"16 16 4 1",
" 	c #DDDDDD",
".	c #411D31",
"+	c #CF573C",
"@	c #A53030",
"....        ....",
".++.        .++.",
".@..        ..@.",
"...          ...",
"                ",
"                ",
"                ",
"                ",
"                ",
"                ",
"                ",
"                ",
"...          ...",
".@..        ..@.",
".++.        .++.",
"....        ...."};
