/* XPM */
static char * inventory_xpm[] = {
"36 36 18 1",
" 	c #FFFFFE",
".	c #BBBBBB",
"+	c #D2D2D2",
"@	c #8B8B8B",
"#	c #696969",
"$	c #C1C1C1",
"%	c #717171",
"&	c #C2C2C2",
"*	c #8F8F8F",
"=	c #4E4E4F",
"-	c #E2E2E2",
";	c #696969",
">	c #C5C5C5",
",	c #8A8A8A",
"'	c #797979",
")	c #696969",
"!	c #7D7D7D",
"~	c #313131",
"                                    ",
"                                    ",
"  ================================  ",
"  =##############################=  ",
"  =##############################=  ",
"  =##;;;;;;;;;;;;;;;;;;;;;;;;;;''=  ",
"  =##;))))))))))))))))))))))))!''=  ",
"  =##;))))))))))))))))))))))))!''=  ",
"  =##;))))))))))))))))))))))))!''=  ",
"  =##;))))))))))))))))))))))))!''=  ",
"  =##;))))))))))))))))))))))))!''=  ",
"  =##;))))))))))))))))))))))))!''=  ",
"  =##;))))))))))))))))))))))))!''=  ",
"  =##;))))))))))))))))))))))))!''=  ",
"  =##;))))))))))))))))))))))))!''=  ",
"  =##;))))))))))))))))))))))))!''=  ",
"  =##;))))))))))))))))))))))))!''=  ",
"  =##;))))))))))))))))))))))))!''=  ",
"  =##;))))))))))))))))))))))))!''=  ",
"  =##;))))))))))))))))))))))))!''=  ",
"  =##;))))))))))))))))))))))))!''=  ",
"  =##;))))))))))))))))))))))))!''=  ",
"  =##;))))))))))))))))))))))))!''=  ",
"  =##;))))))))))))))))))))))))!''=  ",
"  =##;))))))))))))))))))))))))!''=  ",
"  =##;))))))))))))))))))))))))!''=  ",
"  =##;))))))))))))))))))))))))!''=  ",
"  =##;))))))))))))))))))))))))!''=  ",
"  =##;))))))))))))))))))))))))!''=  ",
"  =##;))))))))))))))))))))))))!''=  ",
"  =##!!!!!!!!!!!!!!!!!!!!!!!!!'''=  ",
"  =##''''''''''''''''''''''''''''=  ",
"  =##''''''''''''''''''''''''''''=  ",
"  ================================  ",
"                                    ",
"                                    "};
