/* XPM */
static char * selected_xpm[] = {
"36 36 18 1",
" 	c #FFFFFE",
".	c #BBBBBB",
"+	c #D2D2D2",
"@	c #8B8B8B",
"#	c #FFFFFE",
"$	c #C1C1C1",
"%	c #717171",
"&	c #C2C2C2",
"*	c #8F8F8F",
"=	c #08F26E",
"-	c #E2E2E2",
";	c #FFFFFE",
">	c #C5C5C5",
",	c #8A8A8A",
"'	c #797979",
")	c #FFFFFE",
"!	c #FFFFFE",
"~	c #313131",
"                                    ",
"                                    ",
"  ================================  ",
"  =##############################=  ",
"  =##############################=  ",
"  =##;;;;;;;;;;;;;;;;;;;;;;;;;;##=  ",
"  =##;))))))))))))))))))))))))!##=  ",
"  =##;))))))))))))))))))))))))!##=  ",
"  =##;))))))))))))))))))))))))!##=  ",
"  =##;))))))))))))))))))))))))!##=  ",
"  =##;))))))))))))))))))))))))!##=  ",
"  =##;))))))))))))))))))))))))!##=  ",
"  =##;))))))))))))))))))))))))!##=  ",
"  =##;))))))))))))))))))))))))!##=  ",
"  =##;))))))))))))))))))))))))!##=  ",
"  =##;))))))))))))))))))))))))!##=  ",
"  =##;))))))))))))))))))))))))!##=  ",
"  =##;))))))))))))))))))))))))!##=  ",
"  =##;))))))))))))))))))))))))!##=  ",
"  =##;))))))))))))))))))))))))!##=  ",
"  =##;))))))))))))))))))))))))!##=  ",
"  =##;))))))))))))))))))))))))!##=  ",
"  =##;))))))))))))))))))))))))!##=  ",
"  =##;))))))))))))))))))))))))!##=  ",
"  =##;))))))))))))))))))))))))!##=  ",
"  =##;))))))))))))))))))))))))!##=  ",
"  =##;))))))))))))))))))))))))!##=  ",
"  =##;))))))))))))))))))))))))!##=  ",
"  =##;))))))))))))))))))))))))!##=  ",
"  =##;))))))))))))))))))))))))!##=  ",
"  =##!!!!!!!!!!!!!!!!!!!!!!!!!###=  ",
"  =##############################=  ",
"  =##############################=  ",
"  ================================  ",
"                                    ",
"                                    "};
