/* XPM */
static char * teleport_xpm[] = {
"30 30 8 1",
" 	c #FFFFFE",
".	c #394A50",
"+	c #10141F",
"@	c #151D28",
"#	c #202E37",
"$	c #DE9E41",
"%	c #BE772B",
"&	c #0AD0F3",
".++++++               @++++++.",
"+#...#+               @+#...#+",
"+.###.+               @+.###.+",
"+.###.++++++++++++++++++.###.+",
"+.###.+$$%@@@@$$$%@@@@$+.###.+",
"+#...#+$$@@@@%$$$@@@@%$+#...#+",
"++++++++++++++++++++++++++++++",
"   +$$+&&&&&&&&&&&&&&&&+$$+   ",
"   +@%+&&&&&&&&&&&&&&&&+@%+   ",
"   +@@+&&&&&&&&&&&&&&&&+@@+   ",
"   +@@+&&&&&&&&&&&&&&&&+@@+   ",
"   +@@+&&&&&&&&&&&&&&&&+@@+   ",
"   +%@+&&&&&&&&&&&&&&&&+%@+   ",
"   +$$+&&&&&&&&&&&&&&&&+$$+   ",
"   +$$+&&&&&&&&&&&&&&&&+$$+   ",
"   +$$+&&&&&&&&&&&&&&&&+$$+   ",
"   +@%+&&&&&&&&&&&&&&&&+@%+   ",
"   +@@+&&&&&&&&&&&&&&&&+@@+   ",
"   +@@+&&&&&&&&&&&&&&&&+@@+   ",
"   +@@+&&&&&&&&&&&&&&&&+@@+   ",
"   +%@+&&&&&&&&&&&&&&&&+%@+   ",
"   +$$+&&&&&&&&&&&&&&&&+$$+   ",
"   +$$+&&&&&&&&&&&&&&&&+$$+   ",
"++++++++++++++++++++++++++++++",
"+#...#+$$%@@@@$$$%@@@@$+#...#+",
"+.###.+$$@@@@%$$$@@@@%$+.###.+",
"+.###.++++++++++++++++++.###.+",
"+.###.+                +.###.+",
"+#...#+                +#...#+",
".++++++                ++++++."};
