/* XPM */
static char * unbreakableWalls_xpm[] = {
"36 36 18 1",
" 	c #000000",
".	c #BBBBBB",
"+	c #D2D2D2",
"@	c #8B8B8B",
"#	c #EBEBEB",
"$	c #C1C1C1",
"%	c #717171",
"&	c #C2C2C2",
"*	c #8F8F8F",
"=	c #4E4E4E",
"-	c #E2E2E2",
";	c #D5D5D5",
">	c #C5C5C5",
",	c #8A8A8A",
"'	c #797979",
")	c #B2B2B2",
"!	c #7D7D7D",
"~	c #313131",
"                                    ",
"                                    ",
"  .++++++++++++++++++++++++++++++@  ",
"  +#############################$%  ",
"  +############################&*=  ",
"  +##-;;;;;;;;;;;;;;;;;;;;;;;;>,'=  ",
"  +##;))))))))))))))))))))))))!''=  ",
"  +##;))))))))))))))))))))))))!''=  ",
"  +##;))))))))))))))))))))))))!''=  ",
"  +##;))))))))))))))))))))))))!''=  ",
"  +##;))))))))))))))))))))))))!''=  ",
"  +##;))))))))))))))))))))))))!''=  ",
"  +##;))))))))))))))))))))))))!''=  ",
"  +##;))))))))))))))))))))))))!''=  ",
"  +##;))))))))))))))))))))))))!''=  ",
"  +##;))))))))))))))))))))))))!''=  ",
"  +##;))))))))))))))))))))))))!''=  ",
"  +##;))))))))))))))))))))))))!''=  ",
"  +##;))))))))))))))))))))))))!''=  ",
"  +##;))))))))))))))))))))))))!''=  ",
"  +##;))))))))))))))))))))))))!''=  ",
"  +##;))))))))))))))))))))))))!''=  ",
"  +##;))))))))))))))))))))))))!''=  ",
"  +##;))))))))))))))))))))))))!''=  ",
"  +##;))))))))))))))))))))))))!''=  ",
"  +##;))))))))))))))))))))))))!''=  ",
"  +##;))))))))))))))))))))))))!''=  ",
"  +##;))))))))))))))))))))))))!''=  ",
"  +##;))))))))))))))))))))))))!''=  ",
"  +##;))))))))))))))))))))))))!''=  ",
"  +##>!!!!!!!!!!!!!!!!!!!!!!!!'''=  ",
"  +#&,'''''''''''''''''''''''''''=  ",
"  +$*''''''''''''''''''''''''''''=  ",
"  @%=============================~  ",
"                                    ",
"                                    "};
