/* XPM */
static char * dogBack2_xpm[] = {
"43 76 338 2",
"  	c None",
". 	c #050505",
"+ 	c #040404",
"@ 	c #151312",
"# 	c #1A1816",
"$ 	c #0D0C0B",
"% 	c #080808",
"& 	c #221F1C",
"* 	c #2D2925",
"= 	c #2C2824",
"- 	c #1D1B18",
"; 	c #0F0E0D",
"> 	c #2B2723",
", 	c #0B0A0A",
"' 	c #211E1B",
") 	c #050504",
"! 	c #060605",
"~ 	c #2A2622",
"{ 	c #0B0A09",
"] 	c #27231F",
"^ 	c #1F1C19",
"/ 	c #0E0D0C",
"( 	c #060606",
"_ 	c #1D1A17",
": 	c #282420",
"< 	c #24201C",
"[ 	c #25211D",
"} 	c #0F0D0C",
"| 	c #211D1A",
"1 	c #26221E",
"2 	c #25201C",
"3 	c #131210",
"4 	c #0B0B0A",
"5 	c #0C0B0A",
"6 	c #211E1A",
"7 	c #26211D",
"8 	c #28241F",
"9 	c #292520",
"0 	c #292420",
"a 	c #040405",
"b 	c #272421",
"c 	c #332F2B",
"d 	c #312D29",
"e 	c #27221E",
"f 	c #28231F",
"g 	c #2D2824",
"h 	c #322E2A",
"i 	c #0C0B0B",
"j 	c #2C2925",
"k 	c #3A3631",
"l 	c #37332E",
"m 	c #312C28",
"n 	c #38342F",
"o 	c #171614",
"p 	c #2B2824",
"q 	c #2A2723",
"r 	c #2A2521",
"s 	c #24211E",
"t 	c #191816",
"u 	c #35312C",
"v 	c #34302B",
"w 	c #322E29",
"x 	c #191716",
"y 	c #34302C",
"z 	c #292521",
"A 	c #181715",
"B 	c #2F2C28",
"C 	c #2E2B27",
"D 	c #2D2A26",
"E 	c #070707",
"F 	c #322C29",
"G 	c #413A36",
"H 	c #3D3632",
"I 	c #1A1613",
"J 	c #191512",
"K 	c #211D19",
"L 	c #352F2B",
"M 	c #3F3834",
"N 	c #100E0E",
"O 	c #332D2A",
"P 	c #443C38",
"Q 	c #403834",
"R 	c #241F1A",
"S 	c #231E19",
"T 	c #191513",
"U 	c #181412",
"V 	c #211C19",
"W 	c #221D18",
"X 	c #352E2A",
"Y 	c #423A36",
"Z 	c #040505",
"` 	c #221E1D",
" .	c #2C2624",
"..	c #2E2A29",
"+.	c #49474D",
"@.	c #4B4A50",
"#.	c #3B383B",
"$.	c #201B17",
"%.	c #201B19",
"&.	c #1E1916",
"*.	c #201B18",
"=.	c #2B2727",
"-.	c #393537",
";.	c #2A2523",
">.	c #030304",
",.	c #030203",
"'.	c #111215",
").	c #838A9F",
"!.	c #8C93AA",
"~.	c #5F626F",
"{.	c #15100E",
"].	c #16120F",
"^.	c #353337",
"/.	c #8A92A8",
"(.	c #8D94AB",
"_.	c #3D404B",
":.	c #000000",
"<.	c #030302",
"[.	c #020100",
"}.	c #101113",
"|.	c #5F616E",
"1.	c #140E0B",
"2.	c #17120F",
"3.	c #15100C",
"4.	c #343235",
"5.	c #8D95AB",
"6.	c #3D4049",
"7.	c #020201",
"8.	c #494D57",
"9.	c #606573",
"0.	c #595D6B",
"a.	c #2F3139",
"b.	c #2D2E34",
"c.	c #313950",
"d.	c #384B7E",
"e.	c #384A7C",
"f.	c #384A7D",
"g.	c #35436A",
"h.	c #2D2F35",
"i.	c #2B2D34",
"j.	c #494C57",
"k.	c #5C616F",
"l.	c #131416",
"m.	c #030303",
"n.	c #686D7D",
"o.	c #8C93A9",
"p.	c #7B8194",
"q.	c #1C2742",
"r.	c #4968B5",
"s.	c #4765B0",
"t.	c #4867B3",
"u.	c #364C84",
"v.	c #010100",
"w.	c #4E525E",
"x.	c #868DA3",
"y.	c #191A1D",
"z.	c #626674",
"A.	c #848A9D",
"B.	c #74798A",
"C.	c #0D0C0D",
"D.	c #060503",
"E.	c #1E2740",
"F.	c #455FA5",
"G.	c #435DA1",
"H.	c #445FA4",
"I.	c #34477A",
"J.	c #070605",
"K.	c #040302",
"L.	c #4C4F5A",
"M.	c #858B9F",
"N.	c #7E8497",
"O.	c #18181B",
"P.	c #363130",
"Q.	c #47413F",
"R.	c #433D3B",
"S.	c #292622",
"T.	c #282521",
"U.	c #232120",
"V.	c #1B1A1D",
"W.	c #1E1D1E",
"X.	c #272420",
"Y.	c #393431",
"Z.	c #453F3D",
"`.	c #0F0E0E",
" +	c #322D2A",
".+	c #423B37",
"++	c #2C2823",
"@+	c #171310",
"#+	c #181411",
"$+	c #1D1916",
"%+	c #37322E",
"&+	c #403935",
"*+	c #3E3834",
"=+	c #1E1A17",
"-+	c #1C1815",
";+	c #37312D",
">+	c #3E3733",
",+	c #171312",
"'+	c #24201D",
")+	c #433C38",
"!+	c #181413",
"~+	c #161212",
"{+	c #36302C",
"]+	c #25211E",
"^+	c #312B27",
"/+	c #302A26",
"(+	c #2E2A26",
"_+	c #2F2B27",
":+	c #302C28",
"<+	c #2F2A26",
"[+	c #2F2925",
"}+	c #26201C",
"|+	c #332F2A",
"1+	c #241F1C",
"2+	c #0A0908",
"3+	c #27211D",
"4+	c #2C2723",
"5+	c #25201D",
"6+	c #0A0909",
"7+	c #0A0A0A",
"8+	c #090909",
"9+	c #2B2622",
"0+	c #302B27",
"a+	c #282320",
"b+	c #332C28",
"c+	c #2E2824",
"d+	c #342D29",
"e+	c #332E2B",
"f+	c #433D39",
"g+	c #3F3935",
"h+	c #27231E",
"i+	c #090908",
"j+	c #302E2B",
"k+	c #9B968E",
"l+	c #99948C",
"m+	c #9C978F",
"n+	c #9E9991",
"o+	c #1C1B1A",
"p+	c #423D38",
"q+	c #3E3A35",
"r+	c #2A2621",
"s+	c #090808",
"t+	c #020202",
"u+	c #32302E",
"v+	c #B8B3AB",
"w+	c #B6B1A9",
"x+	c #B2ADA6",
"y+	c #201F1E",
"z+	c #3D3935",
"A+	c #514C46",
"B+	c #4D4842",
"C+	c #312D27",
"D+	c #302C26",
"E+	c #221E1A",
"F+	c #201C18",
"G+	c #080807",
"H+	c #333230",
"I+	c #BDB9B1",
"J+	c #BBB7AF",
"K+	c #B7B3AB",
"L+	c #20201E",
"M+	c #77736D",
"N+	c #A19B93",
"O+	c #969089",
"P+	c #59544D",
"Q+	c #58534C",
"R+	c #383530",
"S+	c #040403",
"T+	c #171513",
"U+	c #010101",
"V+	c #3C3B3B",
"W+	c #E1DFDC",
"X+	c #DEDCD9",
"Y+	c #DAD8D5",
"Z+	c #262525",
"`+	c #969088",
" @	c #57524B",
".@	c #56514A",
"+@	c #37332F",
"@@	c #161513",
"#@	c #3E3D3D",
"$@	c #E9E7E4",
"%@	c #E6E4E1",
"&@	c #272626",
"*@	c #8D8A86",
"=@	c #BEBAB4",
"-@	c #B5B1AA",
";@	c #837E77",
">@	c #524F4B",
",@	c #010202",
"'@	c #2D2926",
")@	c #151412",
"!@	c #2F2F2E",
"~@	c #81807E",
"{@	c #807F7D",
"]@	c #7E7D7B",
"^@	c #202020",
"/@	c #A9A8A6",
"(@	c #E5E3E0",
"_@	c #DDDAD7",
":@	c #BAB5AD",
"<@	c #BDB8B0",
"[@	c #75726D",
"}@	c #080707",
"|@	c #0B0B0B",
"1@	c #A8A6A4",
"2@	c #E3E1DE",
"3@	c #B9B4AB",
"4@	c #73706B",
"5@	c #0D0D0D",
"6@	c #D4D2CE",
"7@	c #DAD8D2",
"8@	c #878683",
"9@	c #0F0F0E",
"0@	c #1D1917",
"a@	c #12100F",
"b@	c #A9A7A5",
"c@	c #E4E2DF",
"d@	c #E0DEDB",
"e@	c #E0DFDC",
"f@	c #E6E5E2",
"g@	c #8E8E8C",
"h@	c #0C0C0C",
"i@	c #110F0E",
"j@	c #999896",
"k@	c #CBC9C6",
"l@	c #C8C6C3",
"m@	c #CDCBC8",
"n@	c #838280",
"o@	c #0F0F0F",
"p@	c #0E0E0E",
"q@	c #191412",
"r@	c #1B1613",
"s@	c #0D0B0A",
"t@	c #1A1513",
"u@	c #1B1513",
"v@	c #151211",
"w@	c #120F0E",
"                                                                                      ",
"            . . . . . . . .                                 . . . . . . . .           ",
"            . . + + + + + +                                 + + + + + . . .           ",
"            . . @ # # # # @ + .                       . + $ # # # # # % . .           ",
"            . . & * = = * - + .                       . + ; = = = = > , . .           ",
"            . . ' = > > = - ) !                       ! ) ; > > > > ~ { . .           ",
"            . . ' = > > > ] ^ ^ / + . . . . . . . . ( _ ^ & > > > > ~ { . .           ",
"            . . ' = > > > : < [ } + . . . . . . . . ( | < 1 > > > > ~ { . .           ",
"            . . ' = > ~ ~ : < 2 3 4 5 5 5 5 5 5 5 5 $ 6 < 1 ~ ~ > > ~ { . .           ",
"            . . ' = ~ 7 7 7 7 7 8 9 9 9 9 9 9 9 9 9 9 7 7 7 7 7 0 > ~ { . .           ",
"            . . ' = ~ 7 7 7 7 7 8 9 9 9 9 9 9 9 9 9 9 7 7 7 7 7 0 > ~ { . .           ",
"            . a b c d e 7 7 7 7 e f f f f f f f f f f 7 7 7 7 7 g h d i . .           ",
"            . + j k l e 7 7 7 7 7 7 7 7 7 7 7 7 7 7 7 7 7 7 7 2 m k n $ . .           ",
"            . + j k l e 7 7 7 7 7 7 7 7 7 7 7 7 7 7 7 7 7 7 7 2 m k n $ . .           ",
"      . + o p q ~ r r 7 7 7 7 7 7 7 7 7 7 7 7 7 7 7 7 7 7 7 7 7 f r r q q s . .       ",
"      . + t u v r 7 7 7 7 7 7 7 7 7 7 7 7 7 7 7 7 7 7 7 7 7 7 7 7 7 7 w u > . . .     ",
"      . + x y c z 7 7 7 7 7 7 7 7 7 7 7 7 7 7 7 7 7 7 7 7 7 7 7 7 7 7 d y q . . .     ",
"      . + x y c z 7 7 7 7 7 1 1 1 1 1 1 1 1 1 1 1 1 1 1 1 1 7 7 7 7 7 d y q . . .     ",
"      . + x y c z 7 7 7 7 7 1 1 1 1 1 1 1 1 1 1 1 1 1 1 1 1 7 7 7 7 7 d y q . . .     ",
"      . + x y c z 7 7 7 7 7 1 1 1 1 1 1 1 1 1 1 1 1 1 1 1 1 7 7 7 7 7 d y q . . .     ",
"      . + x y c z 7 7 7 7 7 1 1 7 7 7 7 7 7 7 7 7 7 7 1 1 1 7 7 7 7 7 d y q . . .     ",
"      . + x y c z 7 7 7 7 7 1 1 7 7 7 7 7 7 7 7 7 7 7 1 1 1 7 7 7 7 7 d y q . . .     ",
"      . + x y c z 7 7 7 7 7 7 7 7 7 7 7 7 7 7 7 7 7 7 1 1 1 7 7 7 7 7 d y q . . .     ",
"      . + x y c z 7 7 7 7 7 7 7 7 7 7 7 7 7 7 7 7 7 7 1 1 1 7 7 7 7 7 d y q . . .     ",
"      . + A B C ~ 0 0 7 7 7 7 7 7 7 7 2 2 2 2 2 7 7 7 1 1 1 7 7 f 0 0 D C b . .       ",
"            E ( F G H e 7 7 7 7 7 7 2 I J J J J K 7 7 7 7 7 7 2 L G M N E E           ",
"            . + O P Q R S R 7 7 7 7 2 T U U U U V 7 7 7 7 2 S W X P Y / . .           ",
"            . Z `  ...+.@.#.$.V V V %.J U U U U &.V V V *.=.@.@.-.;.;., . .           ",
"            . . >.,.'.).!.~.{.U U U U U U U U U U U U U ].^./.(._.:.>.. . .           ",
"            . . <.[.}.).!.|.1.2.2.2.2.2.2.2.2.2.2.2.2.2.3.4./.5.6.:.7.+ . .           ",
"            . + 8.9.0.a.b.c.d.e.e.e.e.e.e.e.e.e.e.e.e.e.f.g.h.i.j.9.k.l.+ .           ",
"            . m.n.o.p.% :.q.r.s.s.s.s.s.s.s.s.s.s.s.s.s.t.u.v.:.w.(.x.y.+ .           ",
"            . m.z.A.B.C.D.E.F.G.G.G.G.G.G.G.G.G.G.G.G.G.H.I.J.K.L.M.N.O.+ .           ",
"      . . . . + P.Q.R.S.T.U.V.V.V.V.V.V.V.V.V.V.V.V.V.V.V.W.T.X.Y.Q.Z.`.. .           ",
"      . . . . +  +.+M = ++< @+#+#+#+#+U U U U U #+#+#+#+#+$+> ~ %+.+&+/ . .           ",
"      . . . . +  +.+*+~ z [ =+=+=+=+=+U U U U U -+=+=+=+=+| z : ;+.+&+/ . .           ",
"      . . . . +  +.+>+e 7 f > > > > ~ T U U U ,+'+++> > > r 7 2 L .+&+/ . .           ",
"      . . . . + O )+M e 7 f > > > > ~ !+,+,+,+~+'+++> > > r 7 2 {+)+G / . .           ",
"      . . . . Z ]+^+/+(+(+_+:+:+:+:+_+]+'+'+'+'+= :+:+:+:+_+(+(+<+/+[+4 . .           ",
"      . . . . . $+}+1 h c c c c c c |+= ++++++++:+c c c c c c c > 2 1+2+. .           ",
"      . . . . . =+3+e h c c c c c c h = > > > > :+c c c c c c c 4+7 5+6+. .           ",
"            . . =+3+e h c c c c c c c h h h h h c c c c c c c c 4+7 5+6+. .           ",
"            . . =+3+e h c c c c c c c c c c c c c c c c c c c c 4+7 5+6+. .           ",
"            . . =+3+e h c c c c c c c c c c c c c c c c c c c c 4+7 5+6+. .           ",
"            . . =+3+e h c c c c c c c c c c c c c c c c c c c c 4+7 5+6+. . . . .     ",
"            . . =+3+e h c c c c c c c c c c c c c c c c c c c c 4+7 5+6+. . . . .     ",
"          % . . =+3+e h c c c c c c c c c c c c c c c c c c c c 4+7 5+6+. . . . .     ",
"          7+. . =+3+e h c c c c c c c c c c c c c c c c c c c c 4+7 5+6+. . . . .     ",
"          7+. . =+3+e h c c c c c c c c c c c c c c c c c c c c 4+7 5+6+. . . . .     ",
"          7+. . =+3+e = = _+c c c c c c c c c c c c c c c d = = 0 7 5+6+. . . . 8+    ",
"          7+. . =+3+e > > (+c c c c c c c c c c c c c c c d > > : 7 5+6+. . . . 8+    ",
"          7+. . =+3+1 ~ ~ * c c c c c :+:+:+:+:+h c c c c d ~ ~ f 7 5+6+. . ( ( 7+    ",
"          7+. . =+3+7 7 7 9+c c c c h e 7 7 7 7 (+c c c c 0+7 7 7 7 5+6+. (           ",
"          7+. . $+}+2 7 7 9+c c c c h e 7 7 7 7 (+c c c c 0+7 7 2 2 1+2+. (           ",
"          7+. Z a+X b+e 7 0 g g g g g 7 7 7 7 7 r g g g g 9+7 7 c+d+b+5 . (           ",
"          7+. + O )+M e 7 7 7 7 7 7 7 7 7 7 7 7 7 7 7 7 7 7 7 2 {+)+G / Z (           ",
"          7+. +  +.+>+e 7 7 7 7 7 7 7 7 7 7 7 7 7 7 7 7 7 7 7 2 L .+&+/ Z (           ",
"          7+. + e+f+g+9 8 h+7 7 7 7 e _+:+:+:+:+r 7 2 } i+j+k+l+m+n+k+o++ (           ",
"          7+. + h p+q+r+9 8 7 7 7 7 e h c c c c 9+7 2 s+t+u+v+w+w+w+x+y++ (           ",
"          7+. + z+A+B+C+D+r+K K K K E+h c c c y : K F+G+t+H+I+J+J+J+K+L++ (           ",
"          7+. m.M+N+O+P+Q+R+S+! ! ! i+:+c c c y T+) ! . U+V+W+X+X+X+Y+Z+m.(           ",
"          7+. m.M+N+`+ @.@+@m.. . . % :+c c c y @@+ . . U+#@$@%@%@%@W+&@m.(           ",
"          7+. m.*@=@-@;@;@>@,@. . . G+'@:+:+:+d )@+ . % ( !@~@{@{@{@]@^@% 7+          ",
"          7+. t+/@(@_@:@<@[@:.. . . }@T.> > > = 3 + .     |@:.:.:.:.:.                ",
"          7+. t+1@2@Y+w+3@4@:.. . . }@T.> > > = 3 + .     5@. . . . .                 ",
"          7+. t+1@2@X+6@7@8@:.. 8+5@9@0@=+K ] : a@+ .       5@5@5@5@5@                ",
"          7+. t+b@c@d@e@f@g@:.. h@    T T $+7 e i@+ .                                 ",
"          |@( >.j@k@l@l@m@n@:.( 5@    T T $+2 7 i@+ .                                 ",
"                o@p@p@p@p@o@          q@q@J I r@s@Z .                                 ",
"                E . . . . %           q@q@q@t@u@s@Z .                                 ",
"                7+% % % % |@          !+!+v@w@w@2+. .                                 ",
"                                          h@Z Z . . .                                 ",
"                                          h@. . . . .                                 ",
"                                            h@h@h@h@h@                                ",
"                                                                                      ",
"                                                                                      "};
