/* XPM */
static char * dogBack4_xpm[] = {
"43 76 346 2",
"  	c None",
". 	c #050505",
"+ 	c #040404",
"@ 	c #151312",
"# 	c #1A1816",
"$ 	c #0D0C0B",
"% 	c #080808",
"& 	c #221F1C",
"* 	c #2D2925",
"= 	c #2C2824",
"- 	c #1D1B18",
"; 	c #0F0E0D",
"> 	c #2B2723",
", 	c #0B0A0A",
"' 	c #211E1B",
") 	c #050504",
"! 	c #060605",
"~ 	c #2A2622",
"{ 	c #0B0A09",
"] 	c #27231F",
"^ 	c #1F1C19",
"/ 	c #0E0D0C",
"( 	c #060606",
"_ 	c #1D1A17",
": 	c #282420",
"< 	c #24201C",
"[ 	c #25211D",
"} 	c #0F0D0C",
"| 	c #211D1A",
"1 	c #26221E",
"2 	c #25201C",
"3 	c #131210",
"4 	c #0B0B0A",
"5 	c #0C0B0A",
"6 	c #211E1A",
"7 	c #26211D",
"8 	c #28241F",
"9 	c #292520",
"0 	c #292420",
"a 	c #040405",
"b 	c #272421",
"c 	c #332F2B",
"d 	c #312D29",
"e 	c #27221E",
"f 	c #28231F",
"g 	c #2D2824",
"h 	c #322E2A",
"i 	c #0C0B0B",
"j 	c #2C2925",
"k 	c #3A3631",
"l 	c #37332E",
"m 	c #312C28",
"n 	c #38342F",
"o 	c #171614",
"p 	c #2B2824",
"q 	c #2A2723",
"r 	c #2A2521",
"s 	c #24211E",
"t 	c #191816",
"u 	c #35312C",
"v 	c #34302B",
"w 	c #322E29",
"x 	c #191716",
"y 	c #34302C",
"z 	c #292521",
"A 	c #181715",
"B 	c #2F2C28",
"C 	c #2E2B27",
"D 	c #2D2A26",
"E 	c #070707",
"F 	c #322C29",
"G 	c #413A36",
"H 	c #3D3632",
"I 	c #1A1613",
"J 	c #191512",
"K 	c #211D19",
"L 	c #352F2B",
"M 	c #3F3834",
"N 	c #100E0E",
"O 	c #332D2A",
"P 	c #443C38",
"Q 	c #403834",
"R 	c #241F1A",
"S 	c #231E19",
"T 	c #191513",
"U 	c #181412",
"V 	c #211C19",
"W 	c #221D18",
"X 	c #352E2A",
"Y 	c #423A36",
"Z 	c #040505",
"` 	c #221E1D",
" .	c #2C2624",
"..	c #2E2A29",
"+.	c #49474D",
"@.	c #4B4A50",
"#.	c #3B383B",
"$.	c #201B17",
"%.	c #201B19",
"&.	c #1E1916",
"*.	c #201B18",
"=.	c #2B2727",
"-.	c #393537",
";.	c #2A2523",
">.	c #030304",
",.	c #030203",
"'.	c #111215",
").	c #838A9F",
"!.	c #8C93AA",
"~.	c #5F626F",
"{.	c #15100E",
"].	c #16120F",
"^.	c #353337",
"/.	c #8A92A8",
"(.	c #8D94AB",
"_.	c #3D404B",
":.	c #000000",
"<.	c #030302",
"[.	c #020100",
"}.	c #101113",
"|.	c #5F616E",
"1.	c #140E0B",
"2.	c #17120F",
"3.	c #15100C",
"4.	c #343235",
"5.	c #8D95AB",
"6.	c #3D4049",
"7.	c #020201",
"8.	c #494D57",
"9.	c #606573",
"0.	c #595D6B",
"a.	c #2F3139",
"b.	c #2D2E34",
"c.	c #313950",
"d.	c #384B7E",
"e.	c #384A7C",
"f.	c #384A7D",
"g.	c #35436A",
"h.	c #2D2F35",
"i.	c #2B2D34",
"j.	c #494C57",
"k.	c #5C616F",
"l.	c #131416",
"m.	c #030303",
"n.	c #686D7D",
"o.	c #8C93A9",
"p.	c #7B8194",
"q.	c #1C2742",
"r.	c #4968B5",
"s.	c #4765B0",
"t.	c #4867B3",
"u.	c #364C84",
"v.	c #010100",
"w.	c #4E525E",
"x.	c #868DA3",
"y.	c #191A1D",
"z.	c #626674",
"A.	c #848A9D",
"B.	c #74798A",
"C.	c #0D0C0D",
"D.	c #060503",
"E.	c #1E2740",
"F.	c #455FA5",
"G.	c #435DA1",
"H.	c #445FA4",
"I.	c #34477A",
"J.	c #070605",
"K.	c #040302",
"L.	c #4C4F5A",
"M.	c #858B9F",
"N.	c #7E8497",
"O.	c #18181B",
"P.	c #363130",
"Q.	c #47413F",
"R.	c #433D3B",
"S.	c #292622",
"T.	c #282521",
"U.	c #232120",
"V.	c #1B1A1D",
"W.	c #1E1D1E",
"X.	c #272420",
"Y.	c #393431",
"Z.	c #453F3D",
"`.	c #0F0E0E",
" +	c #322D2A",
".+	c #423B37",
"++	c #2C2823",
"@+	c #171310",
"#+	c #181411",
"$+	c #1D1916",
"%+	c #37322E",
"&+	c #403935",
"*+	c #3E3834",
"=+	c #1E1A17",
"-+	c #1C1815",
";+	c #37312D",
">+	c #3E3733",
",+	c #171312",
"'+	c #24201D",
")+	c #433C38",
"!+	c #181413",
"~+	c #161212",
"{+	c #36302C",
"]+	c #25211E",
"^+	c #312B27",
"/+	c #302A26",
"(+	c #2E2A26",
"_+	c #2F2B27",
":+	c #302C28",
"<+	c #2F2A26",
"[+	c #2F2925",
"}+	c #26201C",
"|+	c #332F2A",
"1+	c #241F1C",
"2+	c #0A0908",
"3+	c #27211D",
"4+	c #2C2723",
"5+	c #25201D",
"6+	c #0A0909",
"7+	c #0A0A0A",
"8+	c #2B2622",
"9+	c #302B27",
"0+	c #282320",
"a+	c #332C28",
"b+	c #2E2824",
"c+	c #342D29",
"d+	c #77746E",
"e+	c #A19C93",
"f+	c #9D9890",
"g+	c #99948C",
"h+	c #65615C",
"i+	c #080706",
"j+	c #27231E",
"k+	c #37322D",
"l+	c #433D39",
"m+	c #413B37",
"n+	c #0E0D0D",
"o+	c #898680",
"p+	c #B9B4AC",
"q+	c #B6B1A9",
"r+	c #BBB6AD",
"s+	c #74716C",
"t+	c #1C1816",
"u+	c #423D38",
"v+	c #403B36",
"w+	c #8D8A84",
"x+	c #BEBAB2",
"y+	c #BBB7AF",
"z+	c #C0BCB4",
"A+	c #777570",
"B+	c #181613",
"C+	c #221E19",
"D+	c #221E1A",
"E+	c #25211C",
"F+	c #302C26",
"G+	c #2F2B25",
"H+	c #423D37",
"I+	c #514C46",
"J+	c #4E4A44",
"K+	c #100F0F",
"L+	c #020202",
"M+	c #A7A6A3",
"N+	c #E2E0DD",
"O+	c #DEDCD9",
"P+	c #E4E2DF",
"Q+	c #8D8C8A",
"R+	c #090908",
"S+	c #171513",
"T+	c #1A1916",
"U+	c #57524B",
"V+	c #544F48",
"W+	c #7F7972",
"X+	c #A09A92",
"Y+	c #9B958D",
"Z+	c #1C1B1A",
"`+	c #ADACA9",
" @	c #EAE8E5",
".@	c #E6E4E1",
"+@	c #ECEAE7",
"@@	c #92918F",
"#@	c #161513",
"$@	c #555049",
"%@	c #524D46",
"&@	c #7E7871",
"*@	c #0E0E0E",
"=@	c #090909",
"-@	c #696866",
";@	c #82807E",
">@	c #807F7D",
",@	c #82817F",
"'@	c #5C5C5A",
")@	c #080807",
"!@	c #2D2926",
"~@	c #151412",
"{@	c #242321",
"]@	c #827C75",
"^@	c #7E7972",
"/@	c #A19D96",
"(@	c #BDB9B3",
"_@	c #B7B3AD",
":@	c #20201F",
"<@	c #080707",
"[@	c #32312F",
"}@	c #BAB5AD",
"|@	c #B7B2A9",
"1@	c #CFCCC7",
"2@	c #E2E0DE",
"3@	c #DCDAD8",
"4@	c #262625",
"5@	c #31302E",
"6@	c #B3AEA5",
"7@	c #CCC9C4",
"8@	c #E0DEDC",
"9@	c #DAD9D6",
"0@	c #262525",
"a@	c #0D0D0D",
"b@	c #161412",
"c@	c #0C0C0C",
"d@	c #010101",
"e@	c #393938",
"f@	c #D7D5CF",
"g@	c #D4D2CD",
"h@	c #DAD8D4",
"i@	c #DFDDDA",
"j@	c #241F1B",
"k@	c #221D1A",
"l@	c #181514",
"m@	c #3C3C3B",
"n@	c #E3E2DF",
"o@	c #E0DFDC",
"p@	c #E0DEDB",
"q@	c #DBDAD7",
"r@	c #231E1A",
"s@	c #171514",
"t@	c #3A3938",
"u@	c #CAC8C5",
"v@	c #C8C6C3",
"w@	c #C4C2BF",
"x@	c #252524",
"y@	c #191412",
"z@	c #111111",
"A@	c #1A1513",
"B@	c #110E0D",
"C@	c #120F0E",
"D@	c #13100F",
"E@	c #060707",
"                                                                                      ",
"            . . . . . . . .                                 . . . . . . . .           ",
"            . . + + + + + +                                 + + + + + . . .           ",
"            . . @ # # # # @ + .                       . + $ # # # # # % . .           ",
"            . . & * = = * - + .                       . + ; = = = = > , . .           ",
"            . . ' = > > = - ) !                       ! ) ; > > > > ~ { . .           ",
"            . . ' = > > > ] ^ ^ / + . . . . . . . . ( _ ^ & > > > > ~ { . .           ",
"            . . ' = > > > : < [ } + . . . . . . . . ( | < 1 > > > > ~ { . .           ",
"            . . ' = > ~ ~ : < 2 3 4 5 5 5 5 5 5 5 5 $ 6 < 1 ~ ~ > > ~ { . .           ",
"            . . ' = ~ 7 7 7 7 7 8 9 9 9 9 9 9 9 9 9 9 7 7 7 7 7 0 > ~ { . .           ",
"            . . ' = ~ 7 7 7 7 7 8 9 9 9 9 9 9 9 9 9 9 7 7 7 7 7 0 > ~ { . .           ",
"            . a b c d e 7 7 7 7 e f f f f f f f f f f 7 7 7 7 7 g h d i . .           ",
"            . + j k l e 7 7 7 7 7 7 7 7 7 7 7 7 7 7 7 7 7 7 7 2 m k n $ . .           ",
"            . + j k l e 7 7 7 7 7 7 7 7 7 7 7 7 7 7 7 7 7 7 7 2 m k n $ . .           ",
"      . + o p q ~ r r 7 7 7 7 7 7 7 7 7 7 7 7 7 7 7 7 7 7 7 7 7 f r r q q s . .       ",
"      . + t u v r 7 7 7 7 7 7 7 7 7 7 7 7 7 7 7 7 7 7 7 7 7 7 7 7 7 7 w u > . . .     ",
"      . + x y c z 7 7 7 7 7 7 7 7 7 7 7 7 7 7 7 7 7 7 7 7 7 7 7 7 7 7 d y q . . .     ",
"      . + x y c z 7 7 7 7 7 1 1 1 1 1 1 1 1 1 1 1 1 1 1 1 1 7 7 7 7 7 d y q . . .     ",
"      . + x y c z 7 7 7 7 7 1 1 1 1 1 1 1 1 1 1 1 1 1 1 1 1 7 7 7 7 7 d y q . . .     ",
"      . + x y c z 7 7 7 7 7 1 1 1 1 1 1 1 1 1 1 1 1 1 1 1 1 7 7 7 7 7 d y q . . .     ",
"      . + x y c z 7 7 7 7 7 1 1 7 7 7 7 7 7 7 7 7 7 7 1 1 1 7 7 7 7 7 d y q . . .     ",
"      . + x y c z 7 7 7 7 7 1 1 7 7 7 7 7 7 7 7 7 7 7 1 1 1 7 7 7 7 7 d y q . . .     ",
"      . + x y c z 7 7 7 7 7 1 1 7 7 7 7 7 7 7 7 7 7 7 7 7 7 7 7 7 7 7 d y q . . .     ",
"      . + x y c z 7 7 7 7 7 1 1 7 7 7 7 7 7 7 7 7 7 7 7 7 7 7 7 7 7 7 d y q . . .     ",
"      . + A B C ~ 0 0 7 7 7 1 1 7 7 7 2 2 2 2 2 7 7 7 7 7 7 7 7 f 0 0 D C b . .       ",
"            E ( F G H e 7 7 7 7 7 7 2 I J J J J K 7 7 7 7 7 7 2 L G M N E E           ",
"            . + O P Q R S R 7 7 7 7 2 T U U U U V 7 7 7 7 2 S W X P Y / . .           ",
"            . Z `  ...+.@.#.$.V V V %.J U U U U &.V V V *.=.@.@.-.;.;., . .           ",
"            . . >.,.'.).!.~.{.U U U U U U U U U U U U U ].^./.(._.:.>.. . .           ",
"            . . <.[.}.).!.|.1.2.2.2.2.2.2.2.2.2.2.2.2.2.3.4./.5.6.:.7.+ . .           ",
"            . + 8.9.0.a.b.c.d.e.e.e.e.e.e.e.e.e.e.e.e.e.f.g.h.i.j.9.k.l.+ .           ",
"            . m.n.o.p.% :.q.r.s.s.s.s.s.s.s.s.s.s.s.s.s.t.u.v.:.w.(.x.y.+ .           ",
"            . m.z.A.B.C.D.E.F.G.G.G.G.G.G.G.G.G.G.G.G.G.H.I.J.K.L.M.N.O.+ .           ",
"            . + P.Q.R.S.T.U.V.V.V.V.V.V.V.V.V.V.V.V.V.V.V.W.T.X.Y.Q.Z.`.. . . .       ",
"            . +  +.+M = ++< @+#+#+#+#+U U U U U #+#+#+#+#+$+> ~ %+.+&+/ . . . . .     ",
"            . +  +.+*+~ z [ =+=+=+=+=+U U U U U -+=+=+=+=+| z : ;+.+&+/ . . . . .     ",
"            . +  +.+>+e 7 f > > > > ~ T U U U ,+'+++> > > r 7 2 L .+&+/ . . . . .     ",
"            . + O )+M e 7 f > > > > ~ !+,+,+,+~+'+++> > > r 7 2 {+)+G / . . . . .     ",
"            . Z ]+^+/+(+(+_+:+:+:+:+_+]+'+'+'+'+= :+:+:+:+_+(+(+<+/+[+4 . . . . .     ",
"            . . $+}+1 h c c c c c c |+= ++++++++:+c c c c c c c > 2 1+2+. . . . .     ",
"            . . =+3+e h c c c c c c h = > > > > :+c c c c c c c 4+7 5+6+. . . .       ",
"            . . =+3+e h c c c c c c c h h h h h c c c c c c c c 4+7 5+6+. .           ",
"            . . =+3+e h c c c c c c c c c c c c c c c c c c c c 4+7 5+6+. .           ",
"          . . . =+3+e h c c c c c c c c c c c c c c c c c c c c 4+7 5+6+. .           ",
"      . . . . . =+3+e h c c c c c c c c c c c c c c c c c c c c 4+7 5+6+. .           ",
"      . . . . . =+3+e h c c c c c c c c c c c c c c c c c c c c 4+7 5+6+. .           ",
"      . . . . . =+3+e h c c c c c c c c c c c c c c c c c c c c 4+7 5+6+. (           ",
"      . . . . . =+3+e h c c c c c c c c c c c c c c c c c c c c 4+7 5+6+. (           ",
"      . . . . . =+3+e h c c c c c c c c c c c c c c c c c c c c 4+7 5+6+. (           ",
"      . . . . . =+3+e = = _+c c c c c c c c c c c c c c c d = = 0 7 5+6+. (           ",
"      . . . . . =+3+e > > (+c c c c c c c c c c c c c c c d > > : 7 5+6+. (           ",
"      ( ( ( . . =+3+1 ~ ~ * c c c c c :+:+:+:+:+h c c c c d ~ ~ f 7 5+6+. (           ",
"          7+. . =+3+7 7 7 8+c c c c h e 7 7 7 7 (+c c c c 9+7 7 7 7 5+6+. (           ",
"          7+. . $+}+2 7 7 8+c c c c h e 7 7 7 7 (+c c c c 9+7 7 2 2 1+2+. (           ",
"          7+. Z 0+X a+e 7 0 g g g g g 7 7 7 7 7 r g g g g 8+7 7 b+c+a+5 . (           ",
"          7+. + O )+M e 7 7 7 7 7 7 7 7 7 7 7 7 7 7 7 7 7 7 7 2 {+)+G / Z (           ",
"          7+. +  +.+>+e 7 7 7 7 7 7 7 7 7 7 7 7 7 7 7 7 7 7 7 2 L .+&+/ Z (           ",
"          7+. m.d+e+f+g+f+h+i+4 =+3+e _+:+:+:+:+r 7 7 7 7 e 8 j+k+l+m+n+Z (           ",
"          7+. m.o+p+q+q+r+s+:.+ t+e e h c c c c 8+7 7 7 7 e 9 8 k+u+v+/ Z (           ",
"          7+. m.w+x+y+y+z+A+:.a B+C+D+h c c c y : K K K K E+F+G+H+I+J+K++ (           ",
"          7+. L+M+N+O+O+P+Q+:.. ! ! R+:+c c c y S+) ! ! ) T+U+V+W+X+Y+Z++ (           ",
"          7+. L+`+ @.@.@+@@@:.. . . % :+c c c y #@+ . . + t $@%@&@X+Y+Z++ (           ",
"          *@=@E -@;@>@>@,@'@+ =@( . )@!@:+:+:+d ~@+ . . m.{@]@^@/@(@_@:@+ (           ",
"                L+:.:.:.:.+     E . <@T.> > > = 3 + . . L+[@}@|@1@2@3@4@m.(           ",
"                E . . . . %     E . <@T.> > > = 3 + . . L+5@q+6@7@8@9@0@m.(           ",
"                  a@a@a@a@      E . E [ ] '+=+=+b@c@c@. d@e@f@g@h@i@9@0@m.(           ",
"                                E . E j@7 k@T T l@    ( d@m@n@o@p@p@q@4@m.(           ",
"                                E . E r@2 K T T s@    E L+t@u@v@v@v@w@x@+ E           ",
"                                E . ( J I I y@y@          z@*@*@*@*@*@                ",
"                                E . ( y@A@A@y@y@          a@. . . . .                 ",
"                                E . ( B@C@D@!+!+            % % % % %                 ",
"                                E . . Z Z E@                                          ",
"                                E . . . . E                                           ",
"                                *@c@c@c@c@*@                                          ",
"                                                                                      ",
"                                                                                      "};
