/* XPM */
static char * dogBack1_xpm[] = {
"43 78 365 2",
"  	c None",
". 	c #050505",
"+ 	c #040404",
"@ 	c #0C0C0B",
"# 	c #0F0E0D",
"$ 	c #0E0D0C",
"% 	c #060606",
"& 	c #211E1B",
"* 	c #2C2824",
"= 	c #2B2723",
"- 	c #1D1A18",
"; 	c #2A2622",
"> 	c #0B0A09",
", 	c #1C1A17",
"' 	c #030303",
") 	c #2C2823",
"! 	c #23201D",
"~ 	c #151312",
"{ 	c #161412",
"] 	c #0D0C0B",
"^ 	c #151311",
"/ 	c #1B1916",
"( 	c #292521",
"_ 	c #25211D",
": 	c #26221E",
"< 	c #0F0E0C",
"[ 	c #221E1A",
"} 	c #27231F",
"| 	c #282420",
"1 	c #24201C",
"2 	c #25211C",
"3 	c #070707",
"4 	c #211D1A",
"5 	c #2B2622",
"6 	c #27221E",
"7 	c #26211D",
"8 	c #25201C",
"9 	c #28241F",
"0 	c #292520",
"a 	c #292420",
"b 	c #040505",
"c 	c #24211E",
"d 	c #2F2B27",
"e 	c #2D2925",
"f 	c #27231E",
"g 	c #2E2A26",
"h 	c #0B0B0A",
"i 	c #2C2925",
"j 	c #3A3631",
"k 	c #37332E",
"l 	c #312C28",
"m 	c #38342F",
"n 	c #2C2926",
"o 	c #3B3732",
"p 	c #312D28",
"q 	c #393530",
"r 	c #0C0B0B",
"s 	c #131211",
"t 	c #1C1A18",
"u 	c #302B27",
"v 	c #2F2A26",
"w 	c #2C2723",
"x 	c #1F1D1A",
"y 	c #191816",
"z 	c #35312D",
"A 	c #34302C",
"B 	c #322E2A",
"C 	c #2B2724",
"D 	c #191716",
"E 	c #332F2B",
"F 	c #312D29",
"G 	c #2A2723",
"H 	c #35312C",
"I 	c #34302B",
"J 	c #2A2521",
"K 	c #322E29",
"L 	c #0E0D0D",
"M 	c #11100F",
"N 	c #10100F",
"O 	c #302B28",
"P 	c #3B3531",
"Q 	c #38322E",
"R 	c #39332F",
"S 	c #171514",
"T 	c #100F0E",
"U 	c #322C29",
"V 	c #423B37",
"W 	c #3E3733",
"X 	c #352F2B",
"Y 	c #403935",
"Z 	c #322D2A",
"` 	c #1A1614",
" .	c #191513",
"..	c #211D19",
"+.	c #332D2A",
"@.	c #443C38",
"#.	c #403834",
"$.	c #241F1A",
"%.	c #231E19",
"&.	c #181412",
"*.	c #211C19",
"=.	c #221D18",
"-.	c #352E2A",
";.	c #423A36",
">.	c #221E1D",
",.	c #2C2624",
"'.	c #2E2A29",
").	c #49474D",
"!.	c #4B4A50",
"~.	c #3B383B",
"{.	c #201B17",
"].	c #201B19",
"^.	c #191512",
"/.	c #1E1916",
"(.	c #201B18",
"_.	c #2B2727",
":.	c #393537",
"<.	c #2A2523",
"[.	c #0B0A0A",
"}.	c #030304",
"|.	c #030203",
"1.	c #111215",
"2.	c #838A9F",
"3.	c #8C93AA",
"4.	c #5F626F",
"5.	c #15100E",
"6.	c #16120F",
"7.	c #353337",
"8.	c #8A92A8",
"9.	c #8D94AB",
"0.	c #3D404B",
"a.	c #000000",
"b.	c #030302",
"c.	c #020100",
"d.	c #101113",
"e.	c #5F616E",
"f.	c #140E0B",
"g.	c #17120F",
"h.	c #15100C",
"i.	c #343235",
"j.	c #8D95AB",
"k.	c #3D4049",
"l.	c #020201",
"m.	c #494D57",
"n.	c #606573",
"o.	c #595D6B",
"p.	c #2F3139",
"q.	c #2D2E34",
"r.	c #313950",
"s.	c #384B7E",
"t.	c #384A7C",
"u.	c #384A7D",
"v.	c #35436A",
"w.	c #2D2F35",
"x.	c #2B2D34",
"y.	c #494C57",
"z.	c #5C616F",
"A.	c #131416",
"B.	c #686D7D",
"C.	c #8C93A9",
"D.	c #7B8194",
"E.	c #080808",
"F.	c #1C2742",
"G.	c #4968B5",
"H.	c #4765B0",
"I.	c #4867B3",
"J.	c #364C84",
"K.	c #010100",
"L.	c #4E525E",
"M.	c #868DA3",
"N.	c #191A1D",
"O.	c #626674",
"P.	c #848A9D",
"Q.	c #74798A",
"R.	c #0D0C0D",
"S.	c #060503",
"T.	c #1E2740",
"U.	c #455FA5",
"V.	c #435DA1",
"W.	c #445FA4",
"X.	c #34477A",
"Y.	c #070605",
"Z.	c #040302",
"`.	c #4C4F5A",
" +	c #858B9F",
".+	c #7E8497",
"++	c #18181B",
"@+	c #363130",
"#+	c #47413F",
"$+	c #433D3B",
"%+	c #292622",
"&+	c #282521",
"*+	c #232120",
"=+	c #1B1A1D",
"-+	c #1E1D1E",
";+	c #272420",
">+	c #393431",
",+	c #453F3D",
"'+	c #0F0E0E",
")+	c #3F3834",
"!+	c #171310",
"~+	c #181411",
"{+	c #1D1916",
"]+	c #37322E",
"^+	c #3E3834",
"/+	c #1E1A17",
"(+	c #1C1815",
"_+	c #37312D",
":+	c #28231F",
"<+	c #171312",
"[+	c #24201D",
"}+	c #433C38",
"|+	c #181413",
"1+	c #161212",
"2+	c #36302C",
"3+	c #413A36",
"4+	c #25211E",
"5+	c #312B27",
"6+	c #302A26",
"7+	c #302C28",
"8+	c #2F2925",
"9+	c #26201C",
"0+	c #332F2A",
"a+	c #241F1C",
"b+	c #0A0908",
"c+	c #27211D",
"d+	c #25201D",
"e+	c #0A0909",
"f+	c #0A0A0A",
"g+	c #282320",
"h+	c #332C28",
"i+	c #2D2824",
"j+	c #2E2824",
"k+	c #342D29",
"l+	c #0C0B0A",
"m+	c #332E2B",
"n+	c #433D39",
"o+	c #3F3935",
"p+	c #37322D",
"q+	c #413B37",
"r+	c #423D38",
"s+	c #3E3A35",
"t+	c #2A2621",
"u+	c #403B36",
"v+	c #3D3935",
"w+	c #514C46",
"x+	c #4D4842",
"y+	c #312D27",
"z+	c #302C26",
"A+	c #2F2B25",
"B+	c #423D37",
"C+	c #4E4A44",
"D+	c #100F0F",
"E+	c #77736D",
"F+	c #A19B93",
"G+	c #969089",
"H+	c #59544D",
"I+	c #58534C",
"J+	c #383530",
"K+	c #040403",
"L+	c #060605",
"M+	c #090908",
"N+	c #171513",
"O+	c #050504",
"P+	c #1A1916",
"Q+	c #57524B",
"R+	c #544F48",
"S+	c #7F7972",
"T+	c #A09A92",
"U+	c #9B958D",
"V+	c #1C1B1A",
"W+	c #969088",
"X+	c #56514A",
"Y+	c #37332F",
"Z+	c #161513",
"`+	c #555049",
" @	c #524D46",
".@	c #7E7871",
"+@	c #8D8A86",
"@@	c #BEBAB4",
"#@	c #B5B1AA",
"$@	c #837E77",
"%@	c #524F4B",
"&@	c #010202",
"*@	c #080807",
"=@	c #2D2926",
"-@	c #151412",
";@	c #242321",
">@	c #827C75",
",@	c #7E7972",
"'@	c #A19D96",
")@	c #BDB9B3",
"!@	c #B7B3AD",
"~@	c #20201F",
"{@	c #020202",
"]@	c #A9A8A6",
"^@	c #E5E3E0",
"/@	c #DDDAD7",
"(@	c #BAB5AD",
"_@	c #BDB8B0",
":@	c #75726D",
"<@	c #080707",
"[@	c #131210",
"}@	c #32312F",
"|@	c #B7B2A9",
"1@	c #CFCCC7",
"2@	c #E2E0DE",
"3@	c #DCDAD8",
"4@	c #262625",
"5@	c #A8A6A4",
"6@	c #E3E1DE",
"7@	c #DAD8D5",
"8@	c #B6B1A9",
"9@	c #B9B4AB",
"0@	c #73706B",
"a@	c #31302E",
"b@	c #B3AEA5",
"c@	c #CCC9C4",
"d@	c #E0DEDC",
"e@	c #DAD9D6",
"f@	c #262525",
"g@	c #DEDCD9",
"h@	c #D4D2CE",
"i@	c #DAD8D2",
"j@	c #878683",
"k@	c #12100F",
"l@	c #010101",
"m@	c #393938",
"n@	c #D7D5CF",
"o@	c #D4D2CD",
"p@	c #DAD8D4",
"q@	c #DFDDDA",
"r@	c #A9A7A5",
"s@	c #E4E2DF",
"t@	c #E0DEDB",
"u@	c #E0DFDC",
"v@	c #E6E5E2",
"w@	c #8E8E8C",
"x@	c #241F1B",
"y@	c #110F0E",
"z@	c #3C3C3B",
"A@	c #E3E2DF",
"B@	c #DBDAD7",
"C@	c #0B0B0B",
"D@	c #999896",
"E@	c #CBC9C6",
"F@	c #C8C6C3",
"G@	c #CDCBC8",
"H@	c #838280",
"I@	c #231E1B",
"J@	c #3A3938",
"K@	c #CAC8C5",
"L@	c #C4C2BF",
"M@	c #252524",
"N@	c #0F0F0F",
"O@	c #0E0E0E",
"P@	c #1A1613",
"Q@	c #111111",
"R@	c #1A1513",
"S@	c #181514",
"T@	c #0D0D0D",
"U@	c #120F0E",
"V@	c #131111",
"W@	c #0A0B0B",
"X@	c #0C0C0C",
"            . . . . . . . .                                 . . . . . . . .           ",
"            . . + + + + + +                                 + + + + + . . .           ",
"            . . @ # # # # $                                 # # # # # % . .           ",
"            . . & * = = * - + .                       . + # = = = = ; > . .           ",
"            . . & * = = * , ' +                       + ' $ = = = = ; > . .           ",
"            . . & * = = ) ! ~ { ] + . . . . . . . . % ^ { / = = = = ; > . .           ",
"            . . & * = = = ( _ : < + . . . . . . . . % [ _ } = = = = ; > . .           ",
"            . . & * = = = | 1 2 # . % % % % % % % % 3 4 1 : = = = = ; > . .           ",
"            . . & * 5 6 6 6 7 7 8 1 1 1 1 1 1 1 1 1 1 7 7 7 6 6 ( = ; > . .           ",
"            . . & * ; 7 7 7 7 7 9 0 0 0 0 0 0 0 0 0 0 7 7 7 7 7 a = ; > . .           ",
"            . b c d e 7 7 7 7 7 f 9 9 9 9 9 9 9 9 9 9 7 7 7 7 7 5 g e h . .           ",
"            . + i j k 6 7 7 7 7 7 7 7 7 7 7 7 7 7 7 7 7 7 7 7 8 l j m ] . .           ",
"            + ' n o m 6 7 7 7 7 7 7 7 7 7 7 7 7 7 7 7 7 7 7 7 8 p o q r + +           ",
"          s t t = u v 7 7 7 7 7 7 7 7 7 7 7 7 7 7 7 7 7 7 7 7 7 w u u x t y . .       ",
"      . + y z A a 8 8 7 7 7 7 7 7 7 7 7 7 7 7 7 7 7 7 7 7 7 7 7 8 8 8 B z C . . .     ",
"      . + D A E ( 7 7 7 7 7 7 7 7 7 7 7 7 7 7 7 7 7 7 7 7 7 7 7 7 7 7 F A G . . .     ",
"      . + D A E ( 7 7 7 7 7 : : : : : : : : : : : : : : : : 7 7 7 7 7 F A G . . .     ",
"      . + D A E ( 7 7 7 7 7 : : : : : : : : : : : : : : : : 7 7 7 7 7 F A G . . .     ",
"      . + D A E ( 7 7 7 7 7 : : : : : : : : : : : : : : : : 7 7 7 7 7 F A G . . .     ",
"      . + D A E ( 7 7 7 7 7 : : 7 7 7 7 7 7 7 7 7 7 7 : : : 7 7 7 7 7 F A G . . .     ",
"      . + D A E ( 7 7 7 7 7 : : 7 7 7 7 7 7 7 7 7 7 7 : : : 7 7 7 7 7 F A G . . .     ",
"      . + D A E ( 7 7 7 7 7 : : 7 7 7 7 7 7 7 7 7 7 7 : : : 7 7 7 7 7 F A G . . .     ",
"      . + D A E ( 7 7 7 7 7 7 7 7 7 7 7 7 7 7 7 7 7 7 : : : 7 7 7 7 7 F A G . . .     ",
"      . + y H I J 7 7 7 7 7 7 7 7 7 7 7 7 7 7 7 7 7 7 : : : 7 7 7 7 7 K H = . . .     ",
"          L M N O P Q 6 7 7 7 7 : : : : : : : : : : : 7 7 7 7 8 l P R S M T           ",
"            + ' U V W 6 7 7 7 7 : : : : : : : : : : : 7 7 7 7 8 X V Y ] + +           ",
"            . + Z V W 6 7 7 7 7 : : : _ _ _ _ _ : : : 7 7 7 7 8 X V Y $ . .           ",
"            . + Z V W 6 7 7 7 7 7 7 8 `  . . . ...7 7 7 7 7 7 8 X V Y $ . .           ",
"            . + +.@.#.$.%.$.7 7 7 7 8  .&.&.&.&.*.7 7 7 7 8 %.=.-.@.;.$ . .           ",
"            . b >.,.'.).!.~.{.*.*.*.].^.&.&.&.&./.*.*.*.(._.!.!.:.<.<.[.. .           ",
"            . . }.|.1.2.3.4.5.&.&.&.&.&.&.&.&.&.&.&.&.&.6.7.8.9.0.a.}.. . .           ",
"            . . b.c.d.2.3.e.f.g.g.g.g.g.g.g.g.g.g.g.g.g.h.i.8.j.k.a.l.+ . .           ",
"            . + m.n.o.p.q.r.s.t.t.t.t.t.t.t.t.t.t.t.t.t.u.v.w.x.y.n.z.A.+ .           ",
"            . ' B.C.D.E.a.F.G.H.H.H.H.H.H.H.H.H.H.H.H.H.I.J.K.a.L.9.M.N.+ .           ",
"            . ' O.P.Q.R.S.T.U.V.V.V.V.V.V.V.V.V.V.V.V.V.W.X.Y.Z.`. +.++++ .           ",
"            . + @+#+$+%+&+*+=+=+=+=+=+=+=+=+=+=+=+=+=+=+=+-+&+;+>+#+,+'+. .           ",
"            . + Z V )+* ) 1 !+~+~+~+~+&.&.&.&.&.~+~+~+~+~+{+= ; ]+V Y $ . .           ",
"            . + Z V ^+; ( _ /+/+/+/+/+&.&.&.&.&.(+/+/+/+/+4 ( | _+V Y $ . .           ",
"            . + Z V W 6 7 :+= = = = ;  .&.&.&.<+[+) = = = J 7 8 X V Y $ . .           ",
"            . + +.}+)+6 7 :+= = = = ; |+<+<+<+1+[+) = = = J 7 8 2+}+3+$ . .           ",
"      . . . . b 4+5+6+g g d 7+7+7+7+d 4+[+[+[+[+* 7+7+7+7+d g g v 6+8+h . . . .       ",
"      . . . . . {+9+: B E E E E E E 0+* ) ) ) ) 7+E E E E E E E = 8 a+b+. . . . .     ",
"      . . . . . /+c+6 B E E E E E E B * = = = = 7+E E E E E E E w 7 d+e+. . . . .     ",
"      . . . . . /+c+6 B E E E E E E E B B B B B E E E E E E E E w 7 d+e+. . . . .     ",
"      . . . . . /+c+6 B E E E E E E E E E E E E E E E E E E E E w 7 d+e+. . . . .     ",
"      . . . . . /+c+6 B E E E E E E E E E E E E E E E E E E E E w 7 d+e+. . . . .     ",
"      . . . . . /+c+6 B E E E E E E E E E E E E E E E E E E E E w 7 d+e+. . . . .     ",
"      . . . . . /+c+6 B E E E E E E E E E E E E E E E E E E E E w 7 d+e+. . . . .     ",
"      f+f+3 . . /+c+6 B E E E E E E E E E E E E E E E E E E E E w 7 d+e+. % f+f+      ",
"          f+. . /+c+6 B E E E E E E E E E E E E E E E E E E E E w 7 d+e+. %           ",
"          f+. . /+c+6 B E E E E E E E E E E E E E E E E E E E E w 7 d+e+. %           ",
"          f+. . /+c+6 * * d E E E E E E E E E E E E E E E F * * a 7 d+e+. %           ",
"          f+. . /+c+6 = = g E E E E E E E E E E E E E E E F = = | 7 d+e+. %           ",
"          f+. . /+c+: ; ; e E E E E E 7+7+7+7+7+B E E E E F ; ; :+7 d+e+. %           ",
"          f+. . /+c+7 7 7 5 E E E E B 6 7 7 7 7 g E E E E u 7 7 7 7 d+e+. %           ",
"          f+. . {+9+8 7 7 5 E E E E B 6 7 7 7 7 g E E E E u 7 7 8 8 a+b+. %           ",
"          f+. b g+-.h+6 7 a i+i+i+i+i+7 7 7 7 7 J i+i+i+i+5 7 7 j+k+h+l+. %           ",
"          f+. + +.}+)+6 7 7 7 7 7 7 7 7 7 7 7 7 7 7 7 7 7 7 7 8 2+}+3+$ b %           ",
"          f+. + Z V W 6 7 7 7 7 7 7 7 7 7 7 7 7 7 7 7 7 7 7 7 8 X V Y $ b %           ",
"          f+. + m+n+o+0 9 f 7 7 7 7 6 d 7+7+7+7+J 7 7 7 7 6 9 f p+n+q+L b %           ",
"          f+. + B r+s+t+0 9 7 7 7 7 6 B E E E E 5 7 7 7 7 6 0 9 p+r+u+$ b %           ",
"          f+. + v+w+x+y+z+t+........[ B E E E A | ........2 z+A+B+w+C+D++ %           ",
"          f+. ' E+F+G+H+I+J+K+L+L+L+M+7+E E E A N+O+L+L+O+P+Q+R+S+T+U+V++ %           ",
"          f+. ' E+F+W+Q+X+Y+' . . . E.7+E E E A Z++ . . + y `+ @.@T+U+V++ %           ",
"          f+. ' +@@@#@$@$@%@&@. . . *@=@7+7+7+F -@+ . . ' ;@>@,@'@)@!@~@+ %           ",
"          f+. {@]@^@/@(@_@:@a.. . . <@&+= = = * [@+ . . {@}@(@|@1@2@3@4@' %           ",
"          f+. {@5@6@7@8@9@0@a.. . . <@&+= = = * [@+ . . {@a@8@b@c@d@e@f@' %           ",
"          f+. {@5@6@g@h@i@j@a.. . . 3 _ } } } | k@+ . . l@m@n@o@p@q@e@f@' %           ",
"          f+. {@r@s@t@u@v@w@a.. . . 3 x@7 7 7 6 y@+ . . l@z@A@u@t@t@B@4@' %           ",
"          C@% }.D@E@F@F@G@H@a.% % % E.I@8 8 8 7 k@. % % {@J@K@F@F@F@L@M@+ 3           ",
"                N@O@O@O@O@N@          P@P@P@P@P@N+        Q@O@O@O@O@O@                ",
"                3 . . . . E.          R@R@R@R@R@S@        T@. . . . .                 ",
"                f+E.E.E.E.C@          U@U@U@U@U@V@          E.E.E.E.E.                ",
"                                      b b b b b W@                                    ",
"                                      . . . . . C@                                    ",
"                                      X@X@X@X@X@                                      ",
"                                                                                      ",
"                                                                                      "};
