/* XPM */
static char * dogFront4_xpm[] = {
"44 76 562 2",
"  	c None",
". 	c #050505",
"+ 	c #12100D",
"@ 	c #110F0D",
"# 	c #0C0B0A",
"$ 	c #040505",
"% 	c #15110F",
"& 	c #1B1613",
"* 	c #070706",
"= 	c #1D1714",
"- 	c #1C1714",
"; 	c #171311",
"> 	c #201A16",
", 	c #1F1A16",
"' 	c #040404",
") 	c #1E1B18",
"! 	c #2A2621",
"~ 	c #292520",
"{ 	c #030303",
"] 	c #1D1B17",
"^ 	c #0F0E0D",
"/ 	c #171513",
"( 	c #26231F",
"_ 	c #2E2925",
": 	c #2D2925",
"< 	c #13110F",
"[ 	c #2B2722",
"} 	c #2F2B27",
"| 	c #312D29",
"1 	c #12110F",
"2 	c #2F2B26",
"3 	c #090808",
"4 	c #211E1A",
"5 	c #221F1B",
"6 	c #27231F",
"7 	c #302C28",
"8 	c #27241F",
"9 	c #2C2823",
"0 	c #030404",
"a 	c #070807",
"b 	c #282520",
"c 	c #2D2924",
"d 	c #060606",
"e 	c #050506",
"f 	c #1B1917",
"g 	c #1A1816",
"h 	c #1C1A18",
"i 	c #1A1815",
"j 	c #191815",
"k 	c #211F1B",
"l 	c #2F2B25",
"m 	c #2E2A25",
"n 	c #070707",
"o 	c #39332F",
"p 	c #37322E",
"q 	c #3A3631",
"r 	c #3B3732",
"s 	c #35322D",
"t 	c #080808",
"u 	c #131210",
"v 	c #35312D",
"w 	c #34302C",
"x 	c #37332F",
"y 	c #383430",
"z 	c #332F2C",
"A 	c #131212",
"B 	c #100F0F",
"C 	c #3C3A37",
"D 	c #75706A",
"E 	c #726D67",
"F 	c #6A6661",
"G 	c #67635F",
"H 	c #615D59",
"I 	c #2F2B28",
"J 	c #2D2A27",
"K 	c #23201E",
"L 	c #151412",
"M 	c #161513",
"N 	c #171616",
"O 	c #141313",
"P 	c #484542",
"Q 	c #8C867E",
"R 	c #88837B",
"S 	c #7B7872",
"T 	c #77746F",
"U 	c #706D68",
"V 	c #3D3834",
"W 	c #3B3632",
"X 	c #292523",
"Y 	c #0A0A0A",
"Z 	c #0B0B0B",
"` 	c #0E0E0D",
" .	c #0F0F0E",
"..	c #464340",
"+.	c #86817A",
"@.	c #837E77",
"#.	c #78746F",
"$.	c #74716C",
"%.	c #6E6A66",
"&.	c #3C3733",
"*.	c #3A3531",
"=.	c #2A2723",
"-.	c #0F0F0D",
";.	c #10100E",
">.	c #131110",
",.	c #141211",
"'.	c #111011",
").	c #393735",
"!.	c #6D6963",
"~.	c #66625D",
"{.	c #65605C",
"].	c #605B57",
"^.	c #38342F",
"/.	c #302D28",
"(.	c #393530",
"_.	c #37332E",
":.	c #36322D",
"<.	c #332F2A",
"[.	c #322E29",
"}.	c #312E29",
"|.	c #0F0F0F",
"1.	c #0D0D0D",
"2.	c #2F2D2B",
"3.	c #5A5652",
"4.	c #585450",
"5.	c #55514D",
"6.	c #413D39",
"7.	c #403C38",
"8.	c #3D3935",
"9.	c #383530",
"0.	c #322F2A",
"a.	c #2F2C27",
"b.	c #050606",
"c.	c #1E1C1A",
"d.	c #3D3934",
"e.	c #3B3733",
"f.	c #423E3A",
"g.	c #44403C",
"h.	c #45413D",
"i.	c #4F4B47",
"j.	c #4A4642",
"k.	c #413E39",
"l.	c #2C2722",
"m.	c #060607",
"n.	c #040406",
"o.	c #1D1B1A",
"p.	c #4D4945",
"q.	c #484540",
"r.	c #403D38",
"s.	c #0A0908",
"t.	c #1C1916",
"u.	c #1A1714",
"v.	c #37342F",
"w.	c #5C5852",
"x.	c #5A5650",
"y.	c #5B5752",
"z.	c #5B5753",
"A.	c #5E5A56",
"B.	c #5E5B57",
"C.	c #5F5C58",
"D.	c #3E3A35",
"E.	c #0A0909",
"F.	c #26211D",
"G.	c #25201B",
"H.	c #443F39",
"I.	c #6B6660",
"J.	c #69645E",
"K.	c #67635E",
"L.	c #66625E",
"M.	c #686561",
"N.	c #6C6965",
"O.	c #6D6A66",
"P.	c #433F3A",
"Q.	c #302C27",
"R.	c #0B0A09",
"S.	c #2A2420",
"T.	c #29231F",
"U.	c #48433D",
"V.	c #706B64",
"W.	c #6E6962",
"X.	c #6C6863",
"Y.	c #6B6763",
"Z.	c #6A6662",
"`.	c #64615D",
" +	c #6E6B67",
".+	c #44413C",
"++	c #312D28",
"@+	c #131211",
"#+	c #605A52",
"$+	c #847E77",
"%+	c #B2AEA8",
"&+	c #B0ABA5",
"*+	c #B1ADA9",
"=+	c #B2AFAB",
"-+	c #A09D99",
";+	c #0D0C0C",
">+	c #3C3B39",
",+	c #898783",
"'+	c #878581",
")+	c #5D5955",
"!+	c #4A4540",
"~+	c #4B4641",
"{+	c #141311",
"]+	c #655E56",
"^+	c #89837B",
"/+	c #B7B3AC",
"(+	c #B5B0A9",
"_+	c #B6B3AE",
":+	c #B8B5B1",
"<+	c #A4A19E",
"[+	c #010303",
"}+	c #363634",
"|+	c #8C8A86",
"1+	c #5F5B57",
"2+	c #4C4742",
"3+	c #4D4843",
"4+	c #645D55",
"5+	c #8F8982",
"6+	c #C5C1BB",
"7+	c #C2BEB8",
"8+	c #BBB7B3",
"9+	c #AAA8A4",
"0+	c #3D3C3A",
"a+	c #363533",
"b+	c #585754",
"c+	c #918F8B",
"d+	c #908E8A",
"e+	c #65615C",
"f+	c #514C47",
"g+	c #524D48",
"h+	c #141312",
"i+	c #665F57",
"j+	c #9B9690",
"k+	c #E1DFDB",
"l+	c #DDDBD7",
"m+	c #C3C1BC",
"n+	c #B9B7B2",
"o+	c #B8B5B0",
"p+	c #A5A09B",
"q+	c #A49F9A",
"r+	c #A29E99",
"s+	c #9E9C97",
"t+	c #9F9D98",
"u+	c #716E69",
"v+	c #5C5752",
"w+	c #5D5954",
"x+	c #625B53",
"y+	c #99958E",
"z+	c #E0DEDA",
"A+	c #DCDAD6",
"B+	c #C3C1BD",
"C+	c #B9B9B4",
"D+	c #B7B6B1",
"E+	c #A19C97",
"F+	c #A09B96",
"G+	c #9F9B96",
"H+	c #9D9B96",
"I+	c #9E9D98",
"J+	c #706C67",
"K+	c #595550",
"L+	c #1B1A19",
"M+	c #958E85",
"N+	c #968F86",
"O+	c #B5B0AA",
"P+	c #BAB8B3",
"Q+	c #AEACA7",
"R+	c #B0AEA9",
"S+	c #B6B2AD",
"T+	c #B7B4AF",
"U+	c #BBB9B4",
"V+	c #9C9994",
"W+	c #8E8A85",
"X+	c #8F8B86",
"Y+	c #201E1D",
"Z+	c #B2ABA3",
"`+	c #B5AEA5",
" @	c #C6C1BA",
".@	c #DBD9D6",
"+@	c #B5B3AE",
"@@	c #A8A5A0",
"#@	c #ACA9A4",
"$@	c #C2BFBA",
"%@	c #C3C0BB",
"&@	c #C6C3BE",
"*@	c #CCC9C4",
"=@	c #CDCAC5",
"-@	c #ADA9A4",
";@	c #AEAAA5",
">@	c #1F1E1C",
",@	c #A9A39A",
"'@	c #ABA49B",
")@	c #C0BCB5",
"!@	c #DBDAD7",
"~@	c #B7B4B0",
"{@	c #AAA7A2",
"]@	c #AEABA6",
"^@	c #CBC8C3",
"/@	c #B1ADA8",
"(@	c #A4A09B",
"_@	c #A5A19C",
":@	c #131312",
"<@	c #181716",
"[@	c #121110",
"}@	c #6D6C6A",
"|@	c #E2E0DD",
"1@	c #DCDAD7",
"2@	c #D2CFCA",
"3@	c #CECBC6",
"4@	c #CAC7C2",
"5@	c #C4C1BC",
"6@	c #C8C5C0",
"7@	c #4F4E4C",
"8@	c #161615",
"9@	c #1A1A19",
"0@	c #000000",
"a@	c #646362",
"b@	c #E7E5E2",
"c@	c #E0DEDB",
"d@	c #D6D3CE",
"e@	c #CFCCC7",
"f@	c #C5C2BD",
"g@	c #C9C6C1",
"h@	c #41403F",
"i@	c #010202",
"j@	c #4C4B4A",
"k@	c #ACABA8",
"l@	c #A6A6A3",
"m@	c #C6C4BF",
"n@	c #D1CEC9",
"o@	c #C0BDB8",
"p@	c #A9A6A1",
"q@	c #ACAAA5",
"r@	c #604F4D",
"s@	c #3C2423",
"t@	c #3E2726",
"u@	c #090908",
"v@	c #9E9B97",
"w@	c #D4D0CB",
"x@	c #A29F9A",
"y@	c #5E5B55",
"z@	c #5E5D57",
"A@	c #B67671",
"B@	c #DF827D",
"C@	c #DC817C",
"D@	c #0A0B0A",
"E@	c #070908",
"F@	c #A2A09C",
"G@	c #DAD7D1",
"H@	c #D5D2CD",
"I@	c #CFCCC6",
"J@	c #D2CFC9",
"K@	c #A6A39D",
"L@	c #B67570",
"M@	c #DF817C",
"N@	c #DC807B",
"O@	c #151311",
"P@	c #54514F",
"Q@	c #63615F",
"R@	c #62605E",
"S@	c #646360",
"T@	c #686661",
"U@	c #6E6B64",
"V@	c #6D6B64",
"W@	c #92756E",
"X@	c #A37973",
"Y@	c #A27973",
"Z@	c #030304",
"`@	c #201D19",
" #	c #463D34",
".#	c #453C34",
"+#	c #161311",
"@#	c #060505",
"##	c #080707",
"$#	c #111110",
"%#	c #373633",
"&#	c #7B7871",
"*#	c #78756E",
"=#	c #75746D",
"-#	c #74746D",
";#	c #1F1C19",
">#	c #433C33",
",#	c #423B32",
"'#	c #0C0B0B",
")#	c #0E0D0D",
"!#	c #181717",
"~#	c #151616",
"{#	c #3B3A37",
"]#	c #78756D",
"^#	c #75726B",
"/#	c #161412",
"(#	c #2E2924",
"_#	c #2D2823",
":#	c #100F0D",
"<#	c #121314",
"[#	c #707687",
"}#	c #787E90",
"|#	c #525560",
"1#	c #0D0C0A",
"2#	c #020202",
"3#	c #111214",
"4#	c #828A9E",
"5#	c #8C94A9",
"6#	c #565C68",
"7#	c #030302",
"8#	c #282623",
"9#	c #272624",
"0#	c #2E2E2E",
"a#	c #696F7F",
"b#	c #6E7486",
"c#	c #4A5060",
"d#	c #0F1523",
"e#	c #121826",
"f#	c #27231E",
"g#	c #8D8882",
"h#	c #B2ADA6",
"i#	c #9D9892",
"j#	c #0C0C0C",
"k#	c #030200",
"l#	c #1D2843",
"m#	c #4866B1",
"n#	c #4663AC",
"o#	c #141310",
"p#	c #26221D",
"q#	c #8E8982",
"r#	c #B3AEA7",
"s#	c #9D9992",
"t#	c #1B2642",
"u#	c #4A69B6",
"v#	c #3B3832",
"w#	c #89857F",
"x#	c #A6A29C",
"y#	c #9E9B95",
"z#	c #706F6D",
"A#	c #706F6B",
"B#	c #535864",
"C#	c #243258",
"D#	c #263459",
"E#	c #898680",
"F#	c #3A3732",
"G#	c #3D3A34",
"H#	c #1D1B19",
"I#	c #232220",
"J#	c #4C4944",
"K#	c #494641",
"L#	c #84817C",
"M#	c #999691",
"N#	c #DBD9D5",
"O#	c #E4E2DE",
"P#	c #8C8B88",
"Q#	c #86827D",
"R#	c #4E4A45",
"S#	c #514D48",
"T#	c #252321",
"U#	c #23211F",
"V#	c #4B4843",
"W#	c #85827D",
"X#	c #9A9792",
"Y#	c #A09D98",
"Z#	c #D4D2CE",
"`#	c #898885",
" $	c #86837E",
".$	c #4D4944",
"+$	c #504C47",
"@$	c #2C2B29",
"#$	c #625F5B",
"$$	c #93908C",
"%$	c #A5A29F",
"&$	c #A7A4A1",
"*$	c #BCBAB6",
"=$	c #C2C0BC",
"-$	c #797775",
";$	c #928F8B",
">$	c #5A5752",
",$	c #2A2927",
"'$	c #020203",
")$	c #2F2E2C",
"!$	c #969390",
"~$	c #A8A5A2",
"{$	c #A9A6A3",
"]$	c #B7B4B1",
"^$	c #BDBAB7",
"/$	c #757372",
"($	c #94928E",
"_$	c #5C5A55",
":$	c #605E59",
"<$	c #2B2A28",
"[$	c #31302E",
"}$	c #6A6763",
"|$	c #9B9895",
"1$	c #ACA9A6",
"2$	c #A9A7A4",
"3$	c #9D9B98",
"4$	c #A09E9B",
"5$	c #686664",
"6$	c #010101",
"7$	c #6B6863",
"8$	c #6F6C67",
"9$	c #32312E",
"0$	c #403F3D",
"a$	c #908D89",
"b$	c #8B8884",
"c$	c #B4B2AF",
"d$	c #C4C2BF",
"e$	c #AEACAA",
"f$	c #111111",
"g$	c #090909",
"h$	c #C3C1BE",
"i$	c #C0BEBA",
"j$	c #BCB8B2",
"k$	c #555350",
"l$	c #3F3E3C",
"m$	c #8F8C88",
"n$	c #8A8783",
"o$	c #AEACA9",
"p$	c #C3C0BC",
"q$	c #C4C0B9",
"r$	c #CAC6BF",
"s$	c #585653",
"t$	c #4B4947",
"u$	c #A5A29C",
"v$	c #C1BFBC",
"w$	c #CCCAC7",
"x$	c #B6B4B1",
"y$	c #CDCBC8",
"z$	c #B3B1AE",
"A$	c #6C6A67",
"B$	c #6F6D6A",
"C$	c #595755",
"D$	c #CBC8C2",
"E$	c #C5C2BC",
"F$	c #D2CFCC",
"G$	c #D8D5D2",
"H$	c #C1BEBB",
"I$	c #0E0E0E",
"J$	c #DCD8D5",
"K$	c #A19E9C",
"L$	c #585654",
"M$	c #C9C6C0",
"N$	c #C3C0BA",
"O$	c #D1CECA",
"P$	c #D7D4D1",
"Q$	c #C0BDBA",
"R$	c #C2C0BD",
"S$	c #DDDAD7",
"T$	c #A3A19F",
"U$	c #61605E",
"V$	c #DFDDD9",
"W$	c #D8D6D2",
"X$	c #DCD9D6",
"Y$	c #DEDBD8",
"Z$	c #C6C3C1",
"`$	c #343333",
" %	c #3B3A39",
".%	c #333232",
"+%	c #646462",
"@%	c #E1DFDC",
"#%	c #C9C7C4",
"$%	c #5E5D5C",
"%%	c #CECCC9",
"&%	c #C8C6C3",
"*%	c #B5B3B0",
"=%	c #101010",
"                                                                                        ",
"                                            . . . . .                                   ",
"                                            . . . . .                                   ",
"                                        + @ # # # # #                                   ",
"                                      + + + + + + + +                                   ",
"                                      + + + + + + + +                                   ",
"                                  . $ % & & & & % * *                                   ",
"                                  . $ % = - - = % $ .                                   ",
"                                  . $ ; > , , > ; $ .                                   ",
"                                  . ' ) ! ~ ~ ! ) ' .                                   ",
"                                  ' { ] ! ~ ~ ! ] { '                                   ",
"                                ^ / / ( _ : : _ ( / / ^                                 ",
"                            . ' < [ ! } | | | | } ! [ < ' .                             ",
"                            . ' 1 ! ~ 2 | | | | 2 ~ ! 1 ' .                             ",
"                      . . 3 4 5 6 } } 7 | | | | 7 } } 6 5 4 3 . .                       ",
"                      . . 3 8 ~ 9 | | | | | | | | | | 9 ~ 8 3 . .                       ",
"                      . . 3 8 ~ 9 | | | | | | | | | | 9 ~ 8 3 . .                       ",
"            . . . . . . . 3 8 ~ 9 | | | | | | | | | | 9 ~ 8 3 . . . . . . .             ",
"            . . . ' ' 0 0 a b ! c | | | | | | | | | | c ! b a 0 0 ' ' . . .             ",
"            d e ^ f g f h h i j k l m m m m m m m m l k j i h h f g f ^ e d             ",
"            n d h o p q r s t . u ! ~ ~ ~ ~ ~ ~ ~ ~ ! u . t s r q p o h d n             ",
"            n d f v w x y z t . u ! ~ ~ ~ ~ ~ ~ ~ ~ ! u . t z y x w v f d n             ",
"            A B C D E F G H I J K 1 u L M M M M L u 1 K J I H G F E D C B A             ",
"            N O P Q R S T U V W X Y Z `  . . . .` Z Y X W V U T S R Q P O N             ",
"            N O ..+.@.#.$.%.&.*.=.-.;.>.,.,.,.,.>.;.-.=.*.&.%.$.#.@.+...O N             ",
"            O '.).!.F ~.{.].q ^.v | | /./././././.| | v ^.q ].{.~.F !.).'.O             ",
"            O '.).!.F ~.{.].(._.:.<.<.[.}.}.}.}.[.<.<.:._.(.].{.~.F !.).'.O             ",
"            |.1.2.3.4.4.4.5.6.7.8.9.9.0.a.a.a.a.0.9.9.8.7.6.5.4.4.4.3.2.1.|.            ",
"            n b.c.d.e.f.g.h.i.i.j.k.k.<.l.9 9 l.<.k.k.j.i.i.h.g.f.e.d.c.b.n             ",
"            m.n.o.d.e.f.g.h.p.p.q.r.r.0.9 9 9 9 0.r.r.q.p.p.h.g.f.e.d.o.n.m.            ",
"      . . s.t.u.v.w.x.y.z.z.A.A.A.B.C.D.m 2 2 m D.C.B.A.A.A.z.z.y.x.w.v.u.t.s.. .       ",
"      . . E.F.G.H.I.J.K.L.L.L.L.M.N.O.P.2 Q.Q.2 P.O.N.M.L.L.L.L.K.J.I.H.G.F.E.. .       ",
"      . . R.S.T.U.V.W.X.Y.Z.C.B.`.O. +.+++[.[.++.+ +O.`.B.C.Z.Y.X.W.V.U.T.S.R.. .       ",
"      . ' @+#+#+$+%+&+*+=+-+N ;+>+,+'+)+!+~+~+!+)+'+,+>+;+N -+=+*+&+%+$+#+#+@+' .       ",
"      . ' {+]+]+^+/+(+_+:+<+1.[+}+|+,+1+2+3+3+2+1+,+|+}+[+1.<+:+_+(+/+^+]+]+{+' .       ",
"      . ' {+]+4+5+6+7+8+:+9+0+a+b+c+d+e+f+g+g+f+e+d+c+b+a+0+9+:+8+7+6+5+4+]+{+' .       ",
"      . ' h+i+4+j+k+l+m+n+o+p+q+r+s+t+u+v+w+w+v+u+t+s+r+q+p+o+n+m+l+k+j+4+i+h+' .       ",
"      . ' ,.4+x+y+z+A+B+C+D+E+F+G+H+I+J+K+y.y.K+J+I+H+G+F+E+D+C+B+A+z+y+x+4+,.' .       ",
"      . ' L+M+N+O+l+A+P+Q+R+S+S+T+P+U+V+W+X+X+W+V+U+P+T+S+S+R+Q+P+A+l+O+N+M+L+' .       ",
"      . ' Y+Z+`+ @.@.@+@@@#@$@%@&@*@=@T+-@;@;@-@T+=@*@&@%@$@#@@@+@.@.@ @`+Z+Y+' .       ",
"      . ' >@,@'@)@!@.@~@{@]@$@%@&@^@*@/@(@_@_@(@/@*@^@&@%@$@]@{@~@.@!@)@'@,@>@' .       ",
"          :@<@[@}@|@1@2@3@3@3@3@4@5@6@7@8@9@9@8@7@6@5@4@3@3@3@3@2@1@|@}@[@<@:@          ",
"            ' 0@a@b@c@d@2@2@e@e@^@f@g@h@i@b.b.i@h@g@f@^@e@e@2@2@d@c@b@a@0@'             ",
"            . 0@j@k@l@m@2@n@=@3@o@p@q@r@s@t@t@s@r@q@p@o@3@=@n@2@m@l@k@j@0@.             ",
"            . . * u@* v@w@e@g@*@x@y@z@A@B@C@C@B@A@z@y@x@*@g@e@w@v@* u@* . .             ",
"            . . a D@E@F@G@H@I@J@K@y@z@L@M@N@N@M@L@z@y@K@J@I@H@G@F@E@D@a . .             ",
"            . ' O@[ ~ P@Q@R@S@S@T@U@V@W@X@Y@Y@X@W@V@U@T@S@S@R@Q@P@~ [ O@' .             ",
"            . Z@`@ #.#+#@###$#` %#&#*#=#-#-#-#-#=#*#&#%#` $###@#+#.# #`@Z@.             ",
"            . Z@;#>#,#g '#)#!#~#{#]#^#^#^#^#^#^#^#^#]#{#~#!#)#'#g ,#>#;#Z@.             ",
"            . ' /#(#_#:#. <#[#}#|#:@8@8@8@8@8@8@8@8@:@|#}#[#<#. :#_#(#/#' .             ",
"            . ' O@! ~ 1#2#3#4#5#6#0@7#7#7#7#7#7#7#7#0@6#5#4#3#2#1#~ ! O@' .             ",
"            . ' O@! ~ 8#9#0#a#b#c#d#e#e#e#e#e#e#e#e#d#c#b#a#0#9#8#~ ! O@' .             ",
"            . ' O@! f#g#h#i#j#k#l#m#n#n#n#n#n#n#n#n#m#l#k#j#i#h#g#f#! O@' .             ",
"            . ' o#~ p#q#r#s###0@t#u#m#m#m#m#m#m#m#m#u#t#0@##s#r#q#p#~ o#' .             ",
"            . Z@h v#9.w#x#y#z#A#B#C#D#D#D#D#D#D#D#D#C#B#A#z#y#x#E#F#G#H#Z@.             ",
"            . { I#J#K#L#M#t+N#O#P#0@k#k#k#k#k#k#k#k#0@P#O#N#t+M#Q#R#S#T#{ .             ",
"            . { U#V#q.W#X#Y#Z#l+`#0@. . . . . . . . 0@`#l+Z#Y#X# $.$+$T#{ .             ",
"            . 2#@$#$B.$$%$&$*$=$-$0@. Y         Y . 0@-$=$*$&$%$;$>$y@,$'$.             ",
"            . 2#)$M.`.!$~${$]$^$/$0@. 1.        1.. 0@/$^$]${$~$($_$:$<$'$.             ",
"            . 2#[$ +}$|$1$2$3$4$5$6$d 1.        1.d 6$5$4$3$2$1$|$7$8$9$2#.             ",
"            . 6$0$a$b$c$d$e$f$g$Z                     Z g$f$e$h$i$j$7+k$0@.             ",
"            . 6$l$m$n$c$d$o$1.. t                     t . 1.o$h$p$q$r$s$0@.             ",
"            . 0@t${@u$v$w$x$1.. t                     t . 1.x$y$z$A$B$0+. g$            ",
"            . 0@C$D$E$F$G$H$I$. t                     t . I$H$J$K$0@0@n                 ",
"            . 0@L$M$N$O$P$Q$I$. t                     t . I$R$S$T$2#. Y                 ",
"            . 0@U$V$W$X$Y$Z$I$. t                     t . n `$ %.%j#1.                  ",
"            . 0@+%b@c@c@@%#%I$. t                     t . . 6$6${                       ",
"            d 0@$%%%&%&%#%*%|.d g$                    g$d d d d t                       ",
"                =%I$I$I$I$I$                                                            ",
"                Y . . . . d                                                             ",
"                1.t t t t g$                                                            ",
"                                                                                        ",
"                                                                                        ",
"                                                                                        ",
"                                                                                        ",
"                                                                                        "};
