/* XPM */
static char * dogFront3_xpm[] = {
"44 78 535 2",
"  	c None",
". 	c #050505",
"+ 	c #080807",
"@ 	c #12100D",
"# 	c #040405",
"$ 	c #14110F",
"% 	c #181411",
"& 	c #040505",
"* 	c #15110F",
"= 	c #1D1714",
"- 	c #1C1714",
"; 	c #040404",
"> 	c #1C1A16",
", 	c #28241F",
"' 	c #27231E",
") 	c #1E1B18",
"! 	c #2A2621",
"~ 	c #292520",
"{ 	c #0A0909",
"] 	c #0C0B0A",
"^ 	c #0B0A09",
"/ 	c #211E1B",
"( 	c #2C2823",
"_ 	c #2B2722",
": 	c #12110F",
"< 	c #2F2B26",
"[ 	c #312D29",
"} 	c #030303",
"| 	c #12100E",
"1 	c #080808",
"2 	c #171513",
"3 	c #161413",
"4 	c #1F1C1A",
"5 	c #2E2A26",
"6 	c #2D2925",
"7 	c #302C28",
"8 	c #090908",
"9 	c #282520",
"0 	c #2D2924",
"a 	c #090808",
"b 	c #27241F",
"c 	c #0C0C0B",
"d 	c #0D0C0C",
"e 	c #0F0E0E",
"f 	c #23201B",
"g 	c #24211C",
"h 	c #070707",
"i 	c #060606",
"j 	c #1B1917",
"k 	c #35312D",
"l 	c #34302C",
"m 	c #37332F",
"n 	c #383430",
"o 	c #332F2C",
"p 	c #0A0A0A",
"q 	c #141311",
"r 	c #1A1817",
"s 	c #332F2B",
"t 	c #36322E",
"u 	c #322E2B",
"v 	c #070808",
"w 	c #131210",
"x 	c #0E0E0E",
"y 	c #0C0C0C",
"z 	c #2E2C2A",
"A 	c #5A5651",
"B 	c #58544F",
"C 	c #55514D",
"D 	c #54504C",
"E 	c #4E4A47",
"F 	c #1F1D1B",
"G 	c #1D1B19",
"H 	c #1D1B18",
"I 	c #1C1A17",
"J 	c #181616",
"K 	c #151313",
"L 	c #494642",
"M 	c #8D887F",
"N 	c #89847C",
"O 	c #7C7973",
"P 	c #787570",
"Q 	c #716E69",
"R 	c #3E3834",
"S 	c #3C3632",
"T 	c #292522",
"U 	c #0A0A09",
"V 	c #0B0B0A",
"W 	c #0E0D0C",
"X 	c #0F0E0D",
"Y 	c #171616",
"Z 	c #141313",
"` 	c #474542",
" .	c #8A847D",
"..	c #86817A",
"+.	c #7A7771",
"@.	c #76736E",
"#.	c #6F6C67",
"$.	c #3C3733",
"%.	c #3A3531",
"&.	c #282522",
"*.	c #100F0E",
"=.	c #151414",
"-.	c #121111",
";.	c #3D3A38",
">.	c #736F6A",
",.	c #706C67",
"'.	c #6B6662",
").	c #696460",
"!.	c #645F5B",
"~.	c #3A3631",
"{.	c #38342F",
"].	c #322F2A",
"^.	c #292622",
"/.	c #111011",
"(.	c #393735",
"_.	c #6C6862",
":.	c #696560",
"<.	c #65615C",
"[.	c #5F5A56",
"}.	c #37332D",
"|.	c #34302A",
"1.	c #332F29",
"2.	c #322F29",
"3.	c #131212",
"4.	c #111010",
"5.	c #363432",
"6.	c #67625D",
"7.	c #64605B",
"8.	c #625D59",
"9.	c #615C58",
"0.	c #5D5854",
"a.	c #3C3833",
"b.	c #34312C",
"c.	c #312E29",
"d.	c #302D28",
"e.	c #060607",
"f.	c #201E1C",
"g.	c #403C37",
"h.	c #3E3A36",
"i.	c #44403C",
"j.	c #46423E",
"k.	c #47433F",
"l.	c #4D4945",
"m.	c #484540",
"n.	c #403D38",
"o.	c #1D1B1A",
"p.	c #3D3934",
"q.	c #3B3733",
"r.	c #423E3A",
"s.	c #45413D",
"t.	c #13110F",
"u.	c #110F0D",
"v.	c #2C2926",
"w.	c #4E4A45",
"x.	c #4C4843",
"y.	c #504C47",
"z.	c #514D49",
"A.	c #524E4A",
"B.	c #57534F",
"C.	c #514E49",
"D.	c #524F4A",
"E.	c #383530",
"F.	c #26211D",
"G.	c #25201C",
"H.	c #443F3A",
"I.	c #6B6660",
"J.	c #69645E",
"K.	c #67635E",
"L.	c #66625E",
"M.	c #686561",
"N.	c #6C6965",
"O.	c #6D6A66",
"P.	c #433F3A",
"Q.	c #302C27",
"R.	c #0A0908",
"S.	c #241F1C",
"T.	c #231E1A",
"U.	c #413C37",
"V.	c #68635D",
"W.	c #66615B",
"X.	c #635F5B",
"Y.	c #67635F",
"Z.	c #686460",
"`.	c #6A6763",
" +	c #6B6864",
".+	c #413E39",
"++	c #2E2A25",
"@+	c #11100F",
"#+	c #514B45",
"$+	c #514A44",
"%+	c #746E67",
"&+	c #A09B94",
"*+	c #9E9992",
"=+	c #9E9A95",
"-+	c #9E9A96",
";+	c #918D8A",
">+	c #2B2928",
",+	c #242221",
"'+	c #474543",
")+	c #82807B",
"!+	c #807E7A",
"~+	c #56524E",
"{+	c #433E39",
"]+	c #141312",
"^+	c #665F57",
"/+	c #665E56",
"(+	c #8B857D",
"_+	c #BBB6AF",
":+	c #B8B3AC",
"<+	c #B9B5B0",
"[+	c #BAB7B3",
"}+	c #A6A3A0",
"|+	c #0F0F0E",
"1+	c #030404",
"2+	c #373735",
"3+	c #8D8B87",
"4+	c #8A8884",
"5+	c #605C58",
"6+	c #4D4843",
"7+	c #4E4944",
"8+	c #655E56",
"9+	c #645D55",
"0+	c #BCB7B0",
"a+	c #B9B4AD",
"b+	c #B8B4AF",
"c+	c #B8B5B1",
"d+	c #A6A39F",
"e+	c #1B1A1A",
"f+	c #403F3D",
"g+	c #8D8B86",
"h+	c #8B8984",
"i+	c #615D58",
"j+	c #655D55",
"k+	c #99948E",
"l+	c #DDDBD7",
"m+	c #D9D7D3",
"n+	c #C2C0BB",
"o+	c #BAB8B3",
"p+	c #B6B4AF",
"q+	c #98948F",
"r+	c #96928D",
"s+	c #989590",
"t+	c #9C9A96",
"u+	c #9D9B97",
"v+	c #706D68",
"w+	c #5B5651",
"x+	c #5C5853",
"y+	c #141211",
"z+	c #625B53",
"A+	c #99958E",
"B+	c #E0DEDA",
"C+	c #DCDAD6",
"D+	c #C3C1BC",
"E+	c #B9B7B2",
"F+	c #B7B5B0",
"G+	c #A19C97",
"H+	c #A09B96",
"I+	c #9F9B96",
"J+	c #9D9B96",
"K+	c #9E9D98",
"L+	c #595550",
"M+	c #5B5752",
"N+	c #171615",
"O+	c #7D776E",
"P+	c #7D766D",
"Q+	c #A8A39C",
"R+	c #DEDCD9",
"S+	c #DBD9D7",
"T+	c #BFBCB7",
"U+	c #B4B1AC",
"V+	c #ABA7A2",
"W+	c #ABA8A3",
"X+	c #ACAAA5",
"Y+	c #ADABA6",
"Z+	c #87837E",
"`+	c #75716C",
" @	c #76726D",
".@	c #201E1D",
"+@	c #B2ABA3",
"@@	c #B5AEA5",
"#@	c #C6C1BA",
"$@	c #DBD9D6",
"%@	c #B5B3AE",
"&@	c #A8A5A0",
"*@	c #ACA9A4",
"=@	c #C2BFBA",
"-@	c #C3C0BB",
";@	c #C6C3BE",
">@	c #CCC9C4",
",@	c #CDCAC5",
"'@	c #B7B4AF",
")@	c #ADA9A4",
"!@	c #AEAAA5",
"~@	c #201F1E",
"{@	c #B5AEA6",
"]@	c #B8B1A8",
"^@	c #C7C3BC",
"/@	c #B5B2AD",
"(@	c #A7A49F",
"_@	c #C1BEB9",
":@	c #C5C2BD",
"<@	c #CBC8C3",
"[@	c #B0ACA6",
"}@	c #B1ADA7",
"|@	c #181817",
"1@	c #45433F",
"2@	c #413F3B",
"3@	c #878581",
"4@	c #E0DEDB",
"5@	c #C9C6C2",
"6@	c #C3C0BA",
"7@	c #C4C1BC",
"8@	c #CAC7C2",
"9@	c #C9C6C1",
"0@	c #6E6B69",
"a@	c #43413F",
"b@	c #464442",
"c@	c #000001",
"d@	c #000000",
"e@	c #605F5E",
"f@	c #E3E1DE",
"g@	c #DCDAD7",
"h@	c #D5D3CE",
"i@	c #D3D0CB",
"j@	c #CFCCC7",
"k@	c #C7C4BF",
"l@	c #403F3E",
"m@	c #010101",
"n@	c #5F5E5D",
"o@	c #DAD8D4",
"p@	c #D3D1CE",
"q@	c #D2D0CB",
"r@	c #D2CFCA",
"s@	c #484443",
"t@	c #0E0A0A",
"u@	c #120E0E",
"v@	c #121211",
"w@	c #232322",
"x@	c #20201F",
"y@	c #A4A29E",
"z@	c #696660",
"A@	c #6A6963",
"B@	c #A8706B",
"C@	c #C5736F",
"D@	c #C3736F",
"E@	c #A09E9A",
"F@	c #D7D4CE",
"G@	c #A4A19C",
"H@	c #5E5B55",
"I@	c #5E5D57",
"J@	c #B57671",
"K@	c #DE827D",
"L@	c #DB817C",
"M@	c #1B1916",
"N@	c #181613",
"O@	c #7D7B77",
"P@	c #A19E9A",
"Q@	c #9F9C98",
"R@	c #9D9B98",
"S@	c #888681",
"T@	c #65625C",
"U@	c #65635D",
"V@	c #A4756F",
"W@	c #C27E78",
"X@	c #C07D77",
"Y@	c #030304",
"Z@	c #201D19",
"`@	c #453D33",
" #	c #443C32",
".#	c #191614",
"+#	c #0C0B0B",
"@#	c #141413",
"##	c #111111",
"$#	c #393835",
"%#	c #7A7770",
"&#	c #77746D",
"*#	c #76746D",
"=#	c #393834",
"-#	c #453D34",
";#	c #443C33",
">#	c #1B1816",
",#	c #0E0D0D",
"'#	c #7E7B73",
")#	c #7B7870",
"!#	c #191714",
"~#	c #352F29",
"{#	c #352E28",
"]#	c #101112",
"^#	c #525661",
"/#	c #565A66",
"(#	c #4A4C52",
"_#	c #363431",
":#	c #373532",
"<#	c #141310",
"[#	c #131416",
"}#	c #838B9F",
"|#	c #8D95AA",
"1#	c #575C69",
"2#	c #020202",
"3#	c #151311",
"4#	c #110F0E",
"5#	c #080707",
"6#	c #161618",
"7#	c #7E8499",
"8#	c #868EA3",
"9#	c #545967",
"0#	c #020304",
"a#	c #060708",
"b#	c #7A7670",
"c#	c #98938D",
"d#	c #89847F",
"e#	c #1D1E22",
"f#	c #17171A",
"g#	c #252F49",
"h#	c #3D5796",
"i#	c #3C5593",
"j#	c #8F8983",
"k#	c #B4AEA7",
"l#	c #9E9993",
"m#	c #1B2642",
"n#	c #4968B4",
"o#	c #4765AF",
"p#	c #8A857F",
"q#	c #AEA9A2",
"r#	c #343333",
"s#	c #2F2D2B",
"t#	c #333B51",
"u#	c #39518E",
"v#	c #39508B",
"w#	c #7D7974",
"x#	c #9B9893",
"y#	c #A09D98",
"z#	c #D4D2CE",
"A#	c #898885",
"B#	c #9B9892",
"C#	c #A09D97",
"D#	c #D5D3CF",
"E#	c #DEDCD8",
"F#	c #898886",
"G#	c #827F7A",
"H#	c #A29F9B",
"I#	c #A4A19D",
"J#	c #C5C3BF",
"K#	c #CCCAC6",
"L#	c #7F7E7B",
"M#	c #090909",
"N#	c #878481",
"O#	c #A9A6A4",
"P#	c #A9A6A3",
"Q#	c #B5B2AF",
"R#	c #BBB8B5",
"S#	c #747270",
"T#	c #0D0D0D",
"U#	c #878480",
"V#	c #B6B3B0",
"W#	c #BCB9B6",
"X#	c #757371",
"Y#	c #989592",
"Z#	c #C0BEBB",
"`#	c #ADABA8",
" $	c #2E2E2D",
".$	c #282827",
"+$	c #222222",
"@$	c #ADABA9",
"#$	c #C6C4C1",
"$$	c #AEADAA",
"%$	c #0B0B0B",
"&$	c #312D27",
"*$	c #2E2A24",
"=$	c #C9C7C4",
"-$	c #B1B0AD",
";$	c #9F9D99",
">$	c #161513",
",$	c #282623",
"'$	c #59534C",
")$	c #544F48",
"!$	c #B6B2AE",
"~$	c #D9D6D3",
"{$	c #C0BDBA",
"]$	c #B0ADAA",
"^$	c #3F3B36",
"/$	c #272522",
"($	c #57514A",
"_$	c #524D46",
":$	c #B5B2AE",
"<$	c #B0ACA9",
"[$	c #3D3833",
"}$	c #1E1C1A",
"|$	c #010102",
"1$	c #3B3835",
"2$	c #847F78",
"3$	c #7F7A73",
"4$	c #C3C0BC",
"5$	c #DCD9D6",
"6$	c #C3C1BE",
"7$	c #DDDAD7",
"8$	c #BEBAB6",
"9$	c #6A655E",
"0$	c #6E6962",
"a$	c #312F2C",
"b$	c #53514D",
"c$	c #BEB9B0",
"d$	c #B8B2AA",
"e$	c #D5D2CE",
"f$	c #E0DEDC",
"g$	c #C8C6C3",
"h$	c #E1DFDC",
"i$	c #D0CDC9",
"j$	c #A29C94",
"k$	c #A8A29A",
"l$	c #4A4744",
"m$	c #514F4C",
"n$	c #BAB4AC",
"o$	c #B3AEA6",
"p$	c #D4D1CD",
"q$	c #CFCCC8",
"r$	c #9E9890",
"s$	c #A49E95",
"t$	c #484542",
"u$	c #5F5E5C",
"v$	c #DBD9D3",
"w$	c #D4D2CD",
"x$	c #DBD9D5",
"y$	c #5D5C5A",
"z$	c #646463",
"A$	c #E7E6E3",
"B$	c #E0DFDC",
"C$	c #E8E6E3",
"D$	c #656463",
"E$	c #5E5D5C",
"F$	c #CECCC9",
"G$	c #B4B3B0",
"H$	c #0F0F0F",
"I$	c #B5B3B0",
"J$	c #101010",
"                                      . . . . . .                                       ",
"                                      . . . . . .                                       ",
"                                      + + + + + +                                       ",
"                                      @ @ @ @ @ @                                       ",
"                                      @ @ @ @ @ @                                       ",
"                                  . # $ % % % % $ # .                                   ",
"                                  . & * = - - = * & .                                   ",
"                                  . & * = - - = * & .                                   ",
"                                  . ; > , ' ' , > ; .                                   ",
"                                  . ; ) ! ~ ~ ! ) ; .                                   ",
"                                { ] ^ / ( _ _ ( / ^ ] {                                 ",
"                            . ; : ! ~ < [ [ [ [ < ~ ! : ; .                             ",
"                            ; } | ! ~ < [ [ [ [ < ~ ! | } ;                             ",
"                        . 1 2 3 4 5 6 7 [ [ [ [ 7 6 5 4 3 2 1 .                         ",
"                      . . 8 9 ! 0 [ [ [ [ [ [ [ [ [ [ 0 ! 9 8 . .                       ",
"                      . . a b ~ ( [ [ [ [ [ [ [ [ [ [ ( ~ b a . .                       ",
"            . . . . . . . a b ~ ( [ [ [ [ [ [ [ [ [ [ ( ~ b a . . . . . . .             ",
"            . . . . . . . a b ~ ( [ [ [ [ [ [ [ [ [ [ ( ~ b a . . . . . . .             ",
"            . . 1 c c d d e f g 9 7 7 7 7 7 7 7 7 7 7 9 g f e d d c c 1 . .             ",
"            h i j k l m n o p h q ! ~ ~ ~ ~ ~ ~ ~ ~ ! q h p o n m l k j i h             ",
"            h i r l s t m u v & w _ ! ! ! ! ! ! ! ! _ w & v u m t s l r i h             ",
"            x y z A B C D E F G H I I H ) ) ) ) H I I H G F E D C B A z y x             ",
"            J K L M N O P Q R S T U V W X X X X W V U T S R Q P O N M L K J             ",
"            Y Z `  ...+.@.#.$.%.&.V c X *.*.*.*.X c V &.%.$.#.@.+... .` Z Y             ",
"            =.-.;.>.,.'.).!.~.{.].^.^.^.^.^.^.^.^.^.^.].{.~.!.).'.,.>.;.-.=.            ",
"            Z /.(._.:.<.!.[.~.{.}.|.|.1.2.2.2.2.1.|.|.}.{.~.[.!.<.:._.(./.Z             ",
"            3.4.5.6.7.8.9.0.a.~.{.b.b.c.d.d.d.d.c.b.b.{.~.a.0.9.8.7.6.5.4.3.            ",
"            1 e.f.g.h.i.j.k.l.l.m.n.n.].( ( ( ( ].n.n.m.l.l.k.j.i.h.g.f.e.1             ",
"            i # o.p.q.r.i.s.l.l.m.n.n.].( ( ( ( ].n.n.m.l.l.s.i.r.q.p.o.# i             ",
"            t.u.v.w.x.y.z.A.B.B.C C.D.E.( 0 0 ( E.D.C.C B.B.A.z.y.x.w.v.u.t.            ",
"      . . { F.G.H.I.J.K.L.L.L.L.M.N.O.P.< Q.Q.< P.O.N.M.L.L.L.L.K.J.I.H.G.F.{ . .       ",
"      . . R.S.T.U.V.W.7.X.X.Y.Y.Z.`. +.+++< < ++.+ +`.Z.Y.Y.X.X.7.W.V.U.T.S.R.. .       ",
"      . # @+#+$+%+&+*+=+-+;+>+,+'+)+!+~+{+H.H.{+~+!+)+'+,+>+;+-+=+*+&+%+$+#+@+# .       ",
"      . ; ]+^+/+(+_+:+<+[+}+|+1+2+3+4+5+6+7+7+6+5+4+3+2+1+|+}+[+<+:+_+(+/+^+]+; .       ",
"      . ; q 8+9+(+0+a+b+c+d+e+4.f+g+h+i+6+7+7+6+i+h+g+f+4.e+d+c+b+a+0+(+9+8+q ; .       ",
"      . ; ]+^+j+k+l+m+n+o+p+q+r+s+t+u+v+w+x+x+w+v+u+t+s+r+q+p+o+n+m+l+k+j+^+]+; .       ",
"      . ; y+9+z+A+B+C+D+E+F+G+H+I+J+K+,.L+M+M+L+,.K+J+I+H+G+F+E+D+C+B+A+z+9+y+; .       ",
"      . ; N+O+P+Q+R+S+T+U+U+V+V+W+X+Y+Z+`+ @ @`+Z+Y+X+W+V+V+U+U+T+S+R+Q+P+O+N+; .       ",
"      . ; .@+@@@#@$@$@%@&@*@=@-@;@>@,@'@)@!@!@)@'@,@>@;@-@=@*@&@%@$@$@#@@@+@.@; .       ",
"      . ; ~@{@]@^@$@$@/@(@W+_@=@:@<@>@<+[@}@}@[@<+>@<@:@=@_@W+(@/@$@$@^@]@{@~@; .       ",
"        p |@1@2@3@4@$@5@6@7@8@8@9@;@9@0@a@b@b@a@0@9@;@9@8@8@7@6@5@$@4@3@2@1@|@p         ",
"            c@d@e@f@g@h@i@i@j@j@<@-@k@l@m@. . m@l@k@-@<@j@j@i@i@h@g@f@e@d@c@            ",
"            . d@n@o@p@q@r@r@j@j@9@T+-@s@t@u@u@t@s@-@T+9@j@j@r@r@q@p@o@n@d@.             ",
"            . ; v@w@x@y@i@j@8@,@(@z@A@B@C@D@D@C@B@A@z@(@,@8@j@i@y@x@w@v@; .             ",
"            . . h p 1 E@F@r@>@j@G@H@I@J@K@L@L@K@J@I@H@G@j@>@r@F@E@1 p h . .             ",
"            . # W M@N@O@P@Q@t+R@S@T@U@V@W@X@X@W@V@U@T@S@R@t+Q@P@O@N@M@W # .             ",
"            . Y@Z@`@ #.#{ +#@###$#%#&#*#*#*#*#*#*#&#%#=###@#+#{ .# #`@Z@Y@.             ",
"            . Y@Z@-#;#>#+#,#v@|+=#'#)#)#)#)#)#)#)#)#'#=#|+v@,#+#>#;#-#Z@Y@.             ",
"            . ; !#~#{#w h ]#^#/#(#_#:#:#:#:#:#:#:#:#_#(#/#^#]#h w {#~#!#; .             ",
"            . ; <#~ , W ; [#}#|#1#d@2#2#2#2#2#2#2#2#d@1#|#}#[#; W , ~ <#; .             ",
"            . ; 3#! ~ 4#5#6#7#8#9#0#a#a#a#a#a#a#a#a#0#9#8#7#6#5#4#~ ! 3#; .             ",
"            . ; 3#! , b#c#d#e#f#g#h#i#i#i#i#i#i#i#i#h#g#f#e#d#c#b#, ! 3#; .             ",
"            . ; 3#! ' j#k#l#a d@m#n#o#o#o#o#o#o#o#o#n#m#d@a l#k#j#' ! 3#; .             ",
"            . ; 3#! ' p#q#l#r#s#t#u#v#v#v#v#v#v#v#v#u#t#s#r#l#q#p#' ! 3#; .             ",
"            . ; 3#! , w#x#y#z#l+A#d@. . . . . . . . d@A#l+z#y#x#w#, ! 3#; .             ",
"            . ; 3#! , w#B#C#D#E#F#d@. . . . . . . . d@F#E#D#C#B#w#, ! 3#; .             ",
"            . ; 3#! , G#H#I#J#K#L#d@. h M#M#M#M#h . d@L#K#J#I#H#G#, ! 3#; .             ",
"            . ; 3#! ' N#O#P#Q#R#S#d@. T#        T#. d@S#R#Q#P#O#N#' ! 3#; .             ",
"            . ; 3#! ' U#P#P#V#W#X#d@. y         y . d@X#W#V#P#P#U#' ! 3#; .             ",
"            . ; 3#! ' Y#Z#`# $.$+$                    +$.$ $@$Z#Y#' ! 3#; .             ",
"            . ; 3#! ' t+#$$$%$} i                     i } %$$$#$t+' ! 3#; .             ",
"            . ; N@&$*$E@=$-$T#. 1                     1 . T#-$=$;$_ ++>$; .             ",
"            . } ,$'$)$!$~${$x . 1                     1 . x {$~$]$^$P.F } .             ",
"            . } /$($_$:$~${$x . 1                     1 . x {$~$<$[$U.}$Y@.             ",
"            . |$1$2$3$4$5$6$x . 1                     1 . x 6$7$8$9$0$a$2#.             ",
"            . d@b$c$d$e$f$g$x . 1                     1 . x g$h$i$j$k$l$c@.             ",
"            . d@m$n$o$p$h$g$x . 1                     1 . x g$h$q$r$s$t$c@.             ",
"            . d@u$v$w$g@4@g$x . 1                     1 . x g$4@x$q$e$y$d@.             ",
"            . d@z$A$B$4@h$=$x . 1                     1 . x =$h$4@h$C$D$d@.             ",
"            i d@E$F$g$g$=$G$H$i M#                    M#i H$I$=$g$g$F$E$d@i             ",
"                J$x x x x x                                 x x x x x J$                ",
"                p . . . . i                                 i . . . . p                 ",
"                T#1 1 1 1 M#                                M#1 1 1 1 T#                ",
"                                                                                        ",
"                                                                                        ",
"                                                                                        ",
"                                                                                        ",
"                                                                                        "};
