/* XPM */
static char * mainCharFrontT_xpm[] = {
"36 36 705 2",
"  	c None",
". 	c #000022",
"+ 	c #626269",
"@ 	c #63646B",
"# 	c #64646B",
"$ 	c #87878C",
"% 	c #A5A5A8",
"& 	c #AFAFB1",
"* 	c #B0B0B2",
"= 	c #AFAFB2",
"- 	c #171932",
"; 	c #616269",
"> 	c #A3A4A6",
", 	c #D1D1D2",
"' 	c #E4E4E5",
") 	c #E7E7E7",
"! 	c #E5E5E6",
"~ 	c #7A7A7F",
"{ 	c #96969A",
"] 	c #C0C0C2",
"^ 	c #E7E7E8",
"/ 	c #FAFAFA",
"( 	c #FDFDFD",
"_ 	c #FBFBFB",
": 	c #343543",
"< 	c #7D7E82",
"[ 	c #ADADB0",
"} 	c #CBCBCD",
"| 	c #E1E1E2",
"1 	c #F4F4F4",
"2 	c #FFFFFF",
"3 	c #FEFEFE",
"4 	c #343544",
"5 	c #86868A",
"6 	c #C6C6C7",
"7 	c #ECECEC",
"8 	c #F8F8F8",
"9 	c #FCFCFC",
"0 	c #F5F5F5",
"a 	c #FDFDFC",
"b 	c #FCFDFC",
"c 	c #CBCBCC",
"d 	c #FCFBFC",
"e 	c #2F3341",
"f 	c #86878B",
"g 	c #CACBCC",
"h 	c #F2F2F3",
"i 	c #F8F7FC",
"j 	c #F1F0F9",
"k 	c #F0EDF7",
"l 	c #F6EEF7",
"m 	c #FCF1F8",
"n 	c #FDF5F9",
"o 	c #FDFAFB",
"p 	c #FDFCFC",
"q 	c #212D3B",
"r 	c #848689",
"s 	c #CACBCB",
"t 	c #EFEFF2",
"u 	c #ECEBF8",
"v 	c #DAD6F1",
"w 	c #D9CCED",
"x 	c #EAD1ED",
"y 	c #FBDCF0",
"z 	c #FFE8F4",
"A 	c #FFF5F9",
"B 	c #FEFDFC",
"C 	c #FEFFFE",
"D 	c #FEFDFE",
"E 	c #FFF6FA",
"F 	c #57485A",
"G 	c #948E94",
"H 	c #D0CECF",
"I 	c #EEEDF2",
"J 	c #E0DFF4",
"K 	c #C1BBEA",
"L 	c #BDA7E2",
"M 	c #D8ADDF",
"N 	c #F1BFE0",
"O 	c #F8D4E8",
"P 	c #F8E9F3",
"Q 	c #F7F5F9",
"R 	c #F6F7F8",
"S 	c #F5F5F6",
"T 	c #F5F6F5",
"U 	c #F5F3F4",
"V 	c #F6E8EF",
"W 	c #F7D3E6",
"X 	c #F0BFE0",
"Y 	c #865C78",
"Z 	c #A17891",
"` 	c #BFA6B4",
" .	c #E1D7DB",
"..	c #F0EDF3",
"+.	c #DCDAF3",
"@.	c #B7B0E7",
"#.	c #A891D9",
"$.	c #BA8ECA",
"%.	c #CF9DC3",
"&.	c #D9B5D1",
"*.	c #DDCEE5",
"=.	c #DDDAEC",
"-.	c #D8D8E3",
";.	c #D3D2D6",
">.	c #D0D0D1",
",.	c #D0D1D2",
"'.	c #D0CFD1",
").	c #D2C4CB",
"!.	c #D3AFC3",
"~.	c #CE9CC1",
"{.	c #BA8FCB",
"].	c #634960",
"^.	c #A57594",
"/.	c #D09ABA",
"(.	c #E7BED4",
"_.	c #F4E1EA",
":.	c #F3EFF6",
"<.	c #DCDBF3",
"[.	c #B6B0E6",
"}.	c #9989D1",
"|.	c #8F73B0",
"1.	c #947298",
"2.	c #A189AF",
"3.	c #B1A4D2",
"4.	c #B3ADDA",
"5.	c #A6A3C3",
"6.	c #9594A1",
"7.	c #8D8D91",
"8.	c #8D8D90",
"9.	c #8E8E92",
"0.	c #8E8D91",
"a.	c #8E848C",
"b.	c #8F7686",
"c.	c #906E91",
"d.	c #9074B1",
"e.	c #9989D2",
"f.	c #000C27",
"g.	c #5F4861",
"h.	c #A6799D",
"i.	c #DAA4CC",
"j.	c #F2C7E6",
"k.	c #FAE6F3",
"l.	c #F4F0F8",
"m.	c #DDDBF3",
"n.	c #8F84CC",
"o.	c #695E9C",
"p.	c #544A73",
"q.	c #6B6295",
"r.	c #8B81C5",
"s.	c #9188CE",
"t.	c #7972AB",
"u.	c #504D6E",
"v.	c #363743",
"w.	c #353641",
"x.	c #383946",
"y.	c #383947",
"z.	c #383846",
"A.	c #353440",
"B.	c #352E3D",
"C.	c #4A4063",
"D.	c #6B609F",
"E.	c #8F85CD",
"F.	c #001027",
"G.	c #534361",
"H.	c #92709F",
"I.	c #C39BD0",
"J.	c #E0C2EA",
"K.	c #F1E4F6",
"L.	c #F2F0F8",
"M.	c #DDDBF4",
"N.	c #B5AFE6",
"O.	c #8A80CA",
"P.	c #5B5595",
"Q.	c #383965",
"R.	c #59558D",
"S.	c #8178C2",
"T.	c #887ECB",
"U.	c #6C63A5",
"V.	c #342F5E",
"W.	c #000017",
"X.	c #00000F",
"Y.	c #000021",
"Z.	c #000020",
"`.	c #00000D",
" +	c #000000",
".+	c #252B51",
"++	c #5E5799",
"@+	c #8A81CB",
"#+	c #0A1327",
"$+	c #453D61",
"%+	c #74639C",
"&+	c #9D8ACA",
"*+	c #C2B4E4",
"=+	c #E3DCF1",
"-+	c #F0ECF6",
";+	c #E0DBF3",
">+	c #BBB4E7",
",+	c #948BCE",
"'+	c #6B649F",
")+	c #4E4A76",
"!+	c #655E97",
"~+	c #867DC5",
"{+	c #8C82CC",
"]+	c #7169A7",
"^+	c #403D65",
"/+	c #13172D",
"(+	c #10142A",
"_+	c #181B33",
":+	c #181A32",
"<+	c #191B34",
"[+	c #1F213B",
"}+	c #434067",
"|+	c #6D66A2",
"1+	c #948BCF",
"2+	c #3C395F",
"3+	c #5A5591",
"4+	c #7D75B5",
"5+	c #AB9FCE",
"6+	c #DBCAE3",
"7+	c #F3E1F1",
"8+	c #EBDCF3",
"9+	c #D1C8EC",
"0+	c #B2ADDA",
"a+	c #8D89B9",
"b+	c #6E689E",
"c+	c #746BAF",
"d+	c #8A7FCC",
"e+	c #8A80CD",
"f+	c #6D65A5",
"g+	c #393461",
"h+	c #00001C",
"i+	c #000028",
"j+	c #000023",
"k+	c #02052F",
"l+	c #27244E",
"m+	c #433E70",
"n+	c #676294",
"o+	c #8F8BBB",
"p+	c #B2ADDB",
"q+	c #F2E1F0",
"r+	c #DAC9E3",
"s+	c #AB9ECD",
"t+	c #7D75B4",
"u+	c #3B3F73",
"v+	c #5E5889",
"w+	c #9982A8",
"x+	c #D3AECC",
"y+	c #F4CDE6",
"z+	c #F8DBF1",
"A+	c #EBDFF2",
"B+	c #D5D2EA",
"C+	c #B3B0D8",
"D+	c #918AC8",
"E+	c #8A7FCD",
"F+	c #9287D7",
"G+	c #8C82CE",
"H+	c #6E66A4",
"I+	c #3C3862",
"J+	c #000526",
"K+	c #000122",
"L+	c #070C2C",
"M+	c #181839",
"N+	c #423D6E",
"O+	c #675F9E",
"P+	c #8C85C1",
"Q+	c #B4B1DA",
"R+	c #D5D2EB",
"S+	c #D3AECB",
"T+	c #9881A7",
"U+	c #3C3450",
"V+	c #83627E",
"W+	c #C18FAE",
"X+	c #E8B3D2",
"Y+	c #F6D1E6",
"Z+	c #F7E4F1",
"`+	c #ECE3F2",
" @	c #D1CAEB",
".@	c #B4ACE3",
"+@	c #A9A1E2",
"@@	c #AAA2E3",
"#@	c #A39CD6",
"$@	c #8E89B4",
"%@	c #747387",
"&@	c #67686E",
"*@	c #67686D",
"=@	c #68696F",
"-@	c #66676B",
";@	c #6B6B75",
">@	c #7C7A98",
",@	c #948FC1",
"'@	c #B1A9DD",
")@	c #D2CBEC",
"!@	c #ECE3F3",
"~@	c #F6D1E5",
"{@	c #E9B4D3",
"]@	c #C692B2",
"^@	c #896783",
"/@	c #3F3754",
"(@	c #231E30",
"_@	c #63465C",
":@	c #976B87",
"<@	c #C090AD",
"[@	c #DFB6CC",
"}@	c #F5D3E5",
"|@	c #F8DEF1",
"1@	c #EADAF2",
"2@	c #D9D2F0",
"3@	c #D3CFF0",
"4@	c #D2CFEF",
"5@	c #CECBE7",
"6@	c #C4C3D5",
"7@	c #BABBC1",
"8@	c #B6B8B9",
"9@	c #B6B8B8",
"0@	c #B7B9BB",
"a@	c #BEBFCA",
"b@	c #C9C7DF",
"c@	c #D7D0ED",
"d@	c #EADAF3",
"e@	c #F4D3E4",
"f@	c #DFB5CB",
"g@	c #C492B0",
"h@	c #A77694",
"i@	c #7A556D",
"j@	c #1F1E34",
"k@	c #3B2D43",
"l@	c #584057",
"m@	c #84637B",
"n@	c #BB8FA9",
"o@	c #E6B4D0",
"p@	c #F7CDE6",
"q@	c #F5DEF0",
"r@	c #EFE8F5",
"s@	c #EDECF8",
"t@	c #EDECF7",
"u@	c #ECEBF5",
"v@	c #EBE9F0",
"w@	c #EAE8EB",
"x@	c #E9E7E8",
"y@	c #E9E7E9",
"z@	c #EAE9ED",
"A@	c #EBEBF2",
"B@	c #EEE8F4",
"C@	c #F5DEF1",
"D@	c #E5B3CF",
"E@	c #BA8EA8",
"F@	c #88667E",
"G@	c #674A62",
"H@	c #1B1D34",
"I@	c #04142C",
"J@	c #000B25",
"K@	c #4B394D",
"L@	c #936984",
"M@	c #C791B1",
"N@	c #DFB1CF",
"O@	c #E5CDE3",
"P@	c #E6E0F1",
"Q@	c #E7E6F6",
"R@	c #E7E6F5",
"S@	c #EAE6F5",
"T@	c #F2E9F5",
"U@	c #FAEBF5",
"V@	c #FDECF5",
"W@	c #FCECF5",
"X@	c #F7EBF5",
"Y@	c #EFE8F6",
"Z@	c #E7E0F0",
"`@	c #E4CDE3",
" #	c #DEB1CE",
".#	c #C690B0",
"+#	c #926682",
"@#	c #49334B",
"##	c #000013",
"$#	c #00001A",
"%#	c #2C2337",
"&#	c #66465D",
"*#	c #8F6783",
"=#	c #A987A8",
"-#	c #B9A6CB",
";#	c #C2BBE4",
">#	c #C5C1EC",
",#	c #D0C4EB",
"'#	c #E6CCEC",
")#	c #F9D3EC",
"!#	c #FFD6ED",
"~#	c #FED5EC",
"{#	c #F2D1ED",
"]#	c #DCC9EC",
"^#	c #C6BCE4",
"/#	c #B6A5CB",
"(#	c #A786A6",
"_#	c #8E6581",
":#	c #63425B",
"<#	c #211433",
"[#	c #000010",
"}#	c #00001E",
"|#	c #38365A",
"1#	c #3D385B",
"2#	c #403553",
"3#	c #4B3C56",
"4#	c #665881",
"5#	c #867CB6",
"6#	c #9D93D8",
"7#	c #A79BE3",
"8#	c #AD9DE3",
"9#	c #C0A6E3",
"0#	c #DEB5E4",
"a#	c #F6C2E5",
"b#	c #FFC8E6",
"c#	c #FFC7E6",
"d#	c #FDC6E6",
"e#	c #EDBEE6",
"f#	c #D1AFE5",
"g#	c #B19BDA",
"h#	c #9181BC",
"i#	c #73638F",
"j#	c #5E516E",
"k#	c #5B5565",
"l#	c #5E5D67",
"m#	c #5F6067",
"n#	c #606168",
"o#	c #606067",
"p#	c #4C4773",
"q#	c #615B91",
"r#	c #645D95",
"s#	c #504C7D",
"t#	c #31335A",
"u#	c #434373",
"v#	c #716AAE",
"w#	c #9486D5",
"x#	c #AD93E1",
"y#	c #C29CE1",
"z#	c #D5ACE2",
"A#	c #E9C2E7",
"B#	c #F8D3EB",
"C#	c #FEDAED",
"D#	c #FFDBED",
"E#	c #FCD8ED",
"F#	c #F2CDEA",
"G#	c #E0B8E5",
"H#	c #C8A0DB",
"I#	c #A787C6",
"J#	c #8473AE",
"K#	c #7C7AA3",
"L#	c #9596A9",
"M#	c #A9ABB0",
"N#	c #AFB1B2",
"O#	c #AEAEB0",
"P#	c #A6A6A9",
"Q#	c #8F8F93",
"R#	c #252540",
"S#	c #524D7C",
"T#	c #766DAD",
"U#	c #8279BE",
"V#	c #6E67A4",
"W#	c #494673",
"X#	c #4A4876",
"Y#	c #726CAE",
"Z#	c #998AD6",
"`#	c #BD9BE1",
" $	c #DBA9E1",
".$	c #EEBCE4",
"+$	c #F7D5EC",
"@$	c #FBE8F4",
"#$	c #FDF0F6",
"$$	c #FDF0F7",
"%$	c #FDEFF6",
"&$	c #FCEEF6",
"*$	c #FAE1F1",
"=$	c #F5CBE9",
"-$	c #E8B2E0",
";$	c #C99BD6",
">$	c #A68DCF",
",$	c #A59ED0",
"'$	c #C5C3DA",
")$	c #DEDDE2",
"!$	c #E7E6E6",
"~$	c #E4E4E4",
"{$	c #D3D3D4",
"]$	c #A7A7AA",
"^$	c #62636A",
"/$	c #544F7F",
"($	c #7D74B7",
"_$	c #8E84CF",
":$	c #7B73B5",
"<$	c #534E7E",
"[$	c #4E4A79",
"}$	c #746EAF",
"|$	c #9B8BD7",
"1$	c #BD9CE2",
"2$	c #DBAAE2",
"3$	c #EEBDE5",
"4$	c #F7D5ED",
"5$	c #FCE8F4",
"6$	c #FEF0F7",
"7$	c #FEEFF7",
"8$	c #FEEEF6",
"9$	c #FFE3F1",
"0$	c #FFCFE9",
"a$	c #F6B9E0",
"b$	c #D5A0D5",
"c$	c #AC90CE",
"d$	c #AEA2D4",
"e$	c #D6CBE5",
"f$	c #F5E9F3",
"g$	c #FFF7FB",
"h$	c #FCF9FA",
"i$	c #AFB0B2",
"j$	c #7E75B9",
"k$	c #9086D2",
"l$	c #7D74B8",
"m$	c #554F7F",
"n$	c #4F4B79",
"o$	c #766EB0",
"p$	c #988BD7",
"q$	c #AF97E3",
"r$	c #C29FE3",
"s$	c #D5AEE4",
"t$	c #EAC3E9",
"u$	c #FAD4ED",
"v$	c #FFDAEE",
"w$	c #FFDBEE",
"x$	c #FFDBEF",
"y$	c #FFD9EE",
"z$	c #FFD3EB",
"A$	c #FFC8E7",
"B$	c #F7B7DC",
"C$	c #CF9AC5",
"D$	c #9C7DAE",
"E$	c #A08AB4",
"F$	c #D4B5D2",
"G$	c #F9D7EC",
"H$	c #FFEEF9",
"I$	c #FFF8FC",
"J$	c #E8E7E8",
"K$	c #B0B2B3",
"L$	c #7A72B4",
"M$	c #8980C9",
"N$	c #776EAF",
"O$	c #504B7A",
"P$	c #4C4874",
"Q$	c #726AA8",
"R$	c #8E84CE",
"S$	c #988BDA",
"T$	c #9E8ED9",
"U$	c #B397D9",
"V$	c #D3A8DA",
"W$	c #EDB6DB",
"X$	c #F6BBDC",
"Y$	c #F7BBDC",
"Z$	c #F6BADC",
"`$	c #F8BADE",
" %	c #F9B9E0",
".%	c #EDAFD7",
"+%	c #C28FB4",
"@%	c #856586",
"#%	c #886987",
"$%	c #C494B3",
"%%	c #ECB9D6",
"&%	c #F8D6E8",
"*%	c #F4E7EE",
"=%	c #DFDEDF",
"-%	c #ACAEB0",
";%	c #4F4A78",
">%	c #6C65A0",
",%	c #746CAA",
"'%	c #635C93",
")%	c #444069",
"!%	c #3F3C64",
"~%	c #5C578D",
"{%	c #716CAC",
"]%	c #7471B5",
"^%	c #7571B5",
"/%	c #8877B5",
"(%	c #AB85B6",
"_%	c #C590B6",
":%	c #CF95B7",
"<%	c #CE94B6",
"[%	c #CE94B5",
"}%	c #D39AC3",
"|%	c #DAA3D4",
"1%	c #D29FD3",
"2%	c #A980AE",
"3%	c #6B4F70",
"4%	c #684660",
"5%	c #A1708E",
"6%	c #C694B2",
"7%	c #CFAEC2",
"8%	c #CCC0C7",
"9%	c #BFBEC0",
"0%	c #9D9FA1",
"a%	c #4F4A77",
"b%	c #423F67",
"c%	c #302E4E",
"d%	c #2F2D4C",
"e%	c #423E65",
"f%	c #514B79",
"g%	c #5E517E",
"h%	c #72597D",
"i%	c #83607D",
"j%	c #89627D",
"k%	c #88627D",
"l%	c #87617A",
"m%	c #8A6582",
"n%	c #9976A2",
"o%	c #AC8CC6",
"p%	c #AE91D1",
"q%	c #917AB2",
"r%	c #5F5076",
"s%	c #4B394E",
"t%	c #6A4C62",
"u%	c #83627A",
"v%	c #897384",
"w%	c #888088",
"x%	c #848388",
"y%	c #78797E",
"z%	c #24243F",
"A%	c #1B1F39",
"B%	c #202038",
"C%	c #403248",
"D%	c #634A62",
"E%	c #785973",
"F%	c #805F79",
"G%	c #7F5E79",
"H%	c #765771",
"I%	c #60485F",
"J%	c #423349",
"K%	c #2E273C",
"L%	c #372F49",
"M%	c #40385A",
"N%	c #564D76",
"O%	c #7A72A1",
"P%	c #9D94C9",
"Q%	c #ACA4D9",
"R%	c #A29CC5",
"S%	c #89879C",
"T%	c #706F77",
"U%	c #56545B",
"V%	c #3C3747",
"W%	c #2F2A3E",
"X%	c #323041",
"Y%	c #201E34",
"Z%	c #62495F",
"`%	c #9A708A",
" &	c #BC89A7",
".&	c #C892B1",
"+&	c #C790AF",
"@&	c #B684A2",
"#&	c #8C667F",
"$&	c #4A384D",
"%&	c #00001B",
"&&	c #20294C",
"*&	c #48477C",
"=&	c #6D69A3",
"-&	c #9693C3",
";&	c #BCB9DD",
">&	c #D0CEE9",
",&	c #D2D1E2",
"'&	c #C7C7CF",
")&	c #AEAFB1",
"!&	c #7F8184",
"~&	c #3A404A",
"{&	c #000007",
"]&	c #262239",
"^&	c #785870",
"/&	c #BB88A7",
"(&	c #E6A8CB",
"_&	c #F4B2D8",
":&	c #F3B1D6",
"<&	c #DFA3C6",
"[&	c #AE7F9D",
"}&	c #644A60",
"|&	c #001026",
"1&	c #000D26",
"2&	c #3D3A60",
"3&	c #645D9B",
"4&	c #8B82C6",
"5&	c #B3ADDF",
"6&	c #D8D5EE",
"7&	c #EEEDF6",
"8&	c #F4F4F7",
"9&	c #EEEEEF",
"0&	c #D4D4D5",
"a&	c #9E9EA1",
"b&	c #54555E",
"c&	c #00001D",
"d&	c #28243A",
"e&	c #805E77",
"f&	c #C791B2",
"g&	c #F5B3D8",
"h&	c #FFBEE6",
"i&	c #FFBDE4",
"j&	c #EEADD2",
"k&	c #BA88A6",
"l&	c #6A4F66",
"m&	c #000E24",
"n&	c #000B24",
"o&	c #413D65",
"p&	c #948BD2",
"q&	c #BCB6E9",
"r&	c #E2DFF5",
"s&	c #F9F8FB",
"t&	c #E2E2E3",
"u&	c #A9A9AB",
"v&	c #5B5B63",
"                . . . . . . . . . . . . . . . . . . . .                 ",
"                + @ # @ @ @ @ @ @ @ @ @ @ @ @ @ @ # @ +                 ",
"              $ % & * = = = = = = = = = = = = = = * & % $               ",
"          - ; > , ' ) ! ! ! ! ! ! ! ! ! ! ! ! ! ! ) ' , > ; -           ",
"          ~ { ] ^ / ( _ _ _ _ _ _ _ _ _ _ _ _ _ _ ( / ^ ] { ~           ",
"      : < [ } | 1 ( 2 3 3 3 3 3 3 3 3 3 3 3 3 3 3 2 ( 1 | } [ < :       ",
"      4 5 6 7 8 _ 9 9 9 9 9 9 9 9 9 9 9 9 9 9 9 9 9 9 _ 8 7 6 5 4       ",
"      4 $ } 0 2 3 ( a b b 9 9 9 9 9 9 9 9 9 9 b b a ( 3 2 0 } $ 4       ",
"      4 $ c 1 3 ( d d 9 9 9 9 9 9 9 9 9 9 9 9 9 9 d d ( 3 1 c $ 4       ",
"      e f g h i j k l m n o p ( ( ( ( ( ( p o n m l k j i h g f e       ",
"      q r s t u v w x y z A B 3 3 3 3 3 C D E z y x w v u t s r q       ",
"      F G H I J K L M N O P Q R S 0 0 0 T U V W X M L K J I H G F       ",
"    Y Z `  ...+.@.#.$.%.&.*.=.-.;.>.>.,.,.'.).!.~.{.#.@.+... .` Z Y     ",
"  ].^./.(._.:.<.[.}.|.1.2.3.4.5.6.7.8.9.9.0.a.b.c.d.e.[.<.:._.(./.^.].  ",
"f.g.h.i.j.k.l.m.[.n.o.p.q.r.s.t.u.v.w.x.y.z.A.B.C.D.E.[.m.l.k.j.i.h.g.f.",
"F.G.H.I.J.K.L.M.N.O.P.Q.R.S.T.U.V.W.X.Y.Y.Z.`. +.+++@+N.M.L.K.J.I.H.G.F.",
"#+$+%+&+*+=+-+;+>+,+'+)+!+~+{+]+^+/+(+_+:+<+<+[+}+|+1+>+;+-+=+*+&+%+$+#+",
"  2+3+4+5+6+7+8+9+0+a+b+c+d+e+f+g+Y.h+i+j+k+l+m+n+o+p+9+8+q+r+s+t+3+2+  ",
"    u+v+w+x+y+z+A+B+C+D+E+F+G+H+I+J+K+L+. M+N+O+P+Q+R+A+z+y+S+T+v+u+    ",
"      U+V+W+X+Y+Z+`+ @.@+@@@#@$@%@&@*@=@-@;@>@,@'@)@!@Z+~@{@]@^@/@      ",
"      (@_@:@<@[@}@|@1@2@3@4@5@6@7@8@9@8@9@0@a@b@c@d@|@e@f@g@h@i@        ",
"      j@k@l@m@n@o@p@q@r@s@t@u@v@w@x@x@y@x@y@z@A@B@C@p@D@E@F@G@          ",
"      H@I@J@K@L@M@N@O@P@Q@R@S@T@U@V@V@V@V@W@X@Y@Z@`@ #.#+#@###          ",
"          $#%#&#*#=#-#;#>#>#,#'#)#!#!#!#!#~#{#]#^#/#(#_#:#<#[#W.}#      ",
"          |#1#2#3#4#5#6#7#8#9#0#a#b#b#c#b#d#e#f#g#h#i#j#k#l#m#n#o#      ",
"        p#q#r#s#t#u#v#w#x#y#z#A#B#C#C#C#D#E#F#G#H#I#J#K#L#M#N#O#P#Q#    ",
"      R#S#T#U#V#W#X#Y#Z#`# $.$+$@$#$$$%$$$&$*$=$-$;$>$,$'$)$!$~${$]$^$. ",
"      R#/$($_$:$<$[$}$|$1$2$3$4$5$6$6$7$6$8$9$0$a$b$c$d$e$f$g$h$! i$@ . ",
"      R#/$j$k$l$m$n$o$p$q$r$s$t$u$v$w$v$x$y$z$A$B$C$D$E$F$G$H$I$J$K$# . ",
"      R#<$L$M$N$O$P$Q$R$S$T$U$V$W$X$Y$X$X$Z$`$ %.%+%@%#%$%%%&%*%=%-%@ . ",
"      R#;%>%,%'%)%!%~%{%]%^%/%(%_%:%:%<%[%<%}%|%1%2%3%4%5%6%7%8%9%0%n#  ",
"          a%a%b%c%d%e%f%<$<$g%h%i%j%j%k%l%m%n%o%p%q%r%s%t%u%v%w%x%y%    ",
"          R#z%A%B%C%D%E%F%G%H%I%J%K%K%L%M%N%O%P%Q%R%S%T%U%V%W%X%:       ",
"              $#Y%Z%`% &.&+&@&#&$&%&%&&&*&=&-&;&>&,&'&)&!&~&{& +        ",
"                ]&^&/&(&_&:&<&[&}&|&1&2&3&4&5&6&7&8&9&0&a&b&c&          ",
"                d&e&f&g&h&i&j&k&l&m&n&o&U.p&q&r&s&2 a t&u&v&            "};
