/* XPM */
static char * selected_x_xpm[] = {
"16 16 2 1",
" 	c #FFFFFE",
".	c #08F26E",
"  ...      ...  ",
"  ...      ...  ",
"  ...      ...  ",
"  ...      ...  ",
"  ...      ...  ",
"  ...      ...  ",
"     ......     ",
"     ......     ",
"     ......     ",
"  ...      ...  ",
"  ...      ...  ",
"  ...      ...  ",
"  ...      ...  ",
"  ...      ...  ",
"  ...      ...  ",
"  ...      ...  "};
