/* XPM */
static char * mainCharBack_xpm[] = {
"14 14 5 1",
" 	c None",
".	c #1B1D34",
"+	c #FCFCFC",
"@	c #FFBAE1",
"#	c #9A8FE0",
"   ........   ",
"  .++++++++.  ",
" .++++++++++. ",
" .++++++++++. ",
" .++++++++++. ",
".@++++++++++@.",
".#++++++++++#.",
" .@++++++++@. ",
"  .@++++++@.. ",
" ...#@@@##..  ",
".++#@+++@#.#. ",
".+@.@@@@##.#. ",
" ...#.......  ",
"  .++@..@@.   "};
