/* XPM */
static char * mcRight2_xpm[] = {
"13 14 5 1",
" 	c None",
".	c #1B1D34",
"+	c #FCFCFC",
"@	c #9A8FE0",
"#	c #FFBAE1",
"  ........   ",
" .++++++++.  ",
".++++++++++. ",
".++++++++++. ",
".++++@@#+++. ",
".+@#+@.@.... ",
".+@@+@.@.... ",
".#++++@@@... ",
" .#+++++++#. ",
"  ...##@@..  ",
" ..++.+#@... ",
".@.+#.#@@.++.",
".@@......+##.",
" .@@.   .##. "};
