/* XPM */
static char * two_dots_xpm[] = {
"15 15 2 1",
" 	c #FFFFFE",
".	c #FFFFFF",
"               ",
"    ......     ",
"    ......     ",
"    ......     ",
"    ......     ",
"               ",
"               ",
"               ",
"               ",
"               ",
"    ......     ",
"    ......     ",
"    ......     ",
"    ......     ",
"               "};
