/* XPM */
static char * shootp2_xpm[] = {
"6 16 5 1",
" 	c None",
".	c #A3BF88",
"+	c #FEFEFF",
"@	c #ECFFA8",
"#	c #606957",
" .++. ",
".@++@.",
"@@++@@",
"@@++@@",
"@@@@@@",
"@@@@@@",
".@@@@.",
"..@@..",
"......",
"......",
"#....#",
"##..##",
"######",
" #### ",
" #### ",
"  ##  "};
