/* XPM */
static char * backpack_xpm[] = {
"27 30 511 2",
"  	c #FFFFFE",
". 	c #6E6E6D",
"+ 	c #656564",
"@ 	c #535454",
"# 	c #515254",
"$ 	c #69696A",
"% 	c #686767",
"& 	c #6F6E6E",
"* 	c #433F3E",
"= 	c #3B3837",
"- 	c #656565",
"; 	c #6F7070",
"> 	c #5D5D5D",
", 	c #3F3C3B",
"' 	c #54504F",
") 	c #484848",
"! 	c #2D2A29",
"~ 	c #434140",
"{ 	c #5A5757",
"] 	c #3A3736",
"^ 	c #6C6C6C",
"/ 	c #3B3B3B",
"( 	c #333333",
"_ 	c #707070",
": 	c #3E3E3E",
"< 	c #7A6262",
"[ 	c #704A48",
"} 	c #775B5A",
"| 	c #53514F",
"1 	c #514E4C",
"2 	c #696966",
"3 	c #4C4C47",
"4 	c #6B4240",
"5 	c #714544",
"6 	c #745655",
"7 	c #585153",
"8 	c #743331",
"9 	c #8C1B0A",
"0 	c #862720",
"a 	c #66403F",
"b 	c #516A7B",
"c 	c #305971",
"d 	c #2C5871",
"e 	c #365E78",
"f 	c #345E77",
"g 	c #345B77",
"h 	c #304975",
"i 	c #2D3274",
"j 	c #5C5F84",
"k 	c #693F3D",
"l 	c #892116",
"m 	c #911B08",
"n 	c #782B27",
"o 	c #4F4647",
"p 	c #727778",
"q 	c #394D53",
"r 	c #4E3438",
"s 	c #72190C",
"t 	c #781A0D",
"u 	c #4C1916",
"v 	c #323032",
"w 	c #3E4B57",
"x 	c #337AA0",
"y 	c #1492C5",
"z 	c #0795CA",
"A 	c #0395C9",
"B 	c #0295C9",
"C 	c #0390CB",
"D 	c #016FD0",
"E 	c #1433D0",
"F 	c #3A45AE",
"G 	c #4D4F68",
"H 	c #43413F",
"I 	c #542522",
"J 	c #7E1C0D",
"K 	c #7C190A",
"L 	c #593436",
"M 	c #394D51",
"N 	c #6E7475",
"O 	c #777A7C",
"P 	c #526266",
"Q 	c #254951",
"R 	c #4C565A",
"S 	c #614B49",
"T 	c #55221D",
"U 	c #300E1D",
"V 	c #0C1F7D",
"W 	c #0F40AA",
"X 	c #0C86CE",
"Y 	c #04AEEC",
"Z 	c #02B4F0",
"` 	c #02B3F0",
" .	c #03AFF2",
"..	c #0498F6",
"+.	c #0462F7",
"@.	c #0C37D7",
"#.	c #122593",
"$.	c #111342",
"%.	c #330F11",
"&.	c #582824",
"*.	c #664D4C",
"=.	c #4C5456",
"-.	c #21494E",
";.	c #516164",
">.	c #696D6E",
",.	c #717575",
"'.	c #2E5257",
").	c #30474B",
"!.	c #686969",
"~.	c #433C3B",
"{.	c #2A2B3B",
"].	c #0851B7",
"^.	c #0770ED",
"/.	c #0495EF",
"(.	c #02B2F2",
"_.	c #01B5F2",
":.	c #02B3F3",
"<.	c #03ADF4",
"[.	c #0490F8",
"}.	c #0459F4",
"|.	c #0236D6",
"1.	c #051D89",
"2.	c #292636",
"3.	c #534D4D",
"4.	c #888485",
"5.	c #6F6F70",
"6.	c #2D4349",
"7.	c #294E54",
"8.	c #5C6162",
"9.	c #6D6F6F",
"0.	c #314547",
"a.	c #505859",
"b.	c #414952",
"c.	c #0C7FBE",
"d.	c #06A5F3",
"e.	c #02ADF3",
"f.	c #01B4F2",
"g.	c #01B6F2",
"h.	c #02B6F2",
"i.	c #03B3F3",
"j.	c #04A2F6",
"k.	c #03A5F6",
"l.	c #03ABF4",
"m.	c #0380F9",
"n.	c #0247F7",
"o.	c #042AC0",
"p.	c #22244C",
"q.	c #4C5356",
"r.	c #293E42",
"s.	c #545758",
"t.	c #6D6D6D",
"u.	c #323534",
"v.	c #475157",
"w.	c #0D8DBC",
"x.	c #05B5F1",
"y.	c #01B6F1",
"z.	c #02ACF3",
"A.	c #019FEB",
"B.	c #0095D8",
"C.	c #0279ED",
"D.	c #0382FA",
"E.	c #03A6F5",
"F.	c #038BF8",
"G.	c #024CFF",
"H.	c #032DCE",
"I.	c #0F154F",
"J.	c #2A2B2C",
"K.	c #535353",
"L.	c #747474",
"M.	c #424241",
"N.	c #505050",
"O.	c #414953",
"P.	c #0B7EBA",
"Q.	c #05ACF1",
"R.	c #058AEA",
"S.	c #2061C9",
"T.	c #3B5689",
"U.	c #2546C4",
"V.	c #0350F0",
"W.	c #037EFA",
"X.	c #037BFA",
"Y.	c #0248FE",
"Z.	c #032DCD",
"`.	c #10154F",
" +	c #434343",
".+	c #666666",
"++	c #565656",
"@+	c #373837",
"#+	c #3D404E",
"$+	c #0A58B5",
"%+	c #0596EE",
"&+	c #03AEF3",
"*+	c #0492F1",
"=+	c #135AC7",
"-+	c #424686",
";+	c #726756",
">+	c #4B4884",
",+	c #0833CD",
"'+	c #0252FC",
")+	c #0254FC",
"!+	c #013EFA",
"~+	c #042BC4",
"{+	c #10144B",
"]+	c #454545",
"^+	c #636363",
"/+	c #4B4B4B",
"(+	c #6C6C6D",
"_+	c #3B3B41",
":+	c #073B79",
"<+	c #0484CC",
"[+	c #1090EB",
"}+	c #1F62C4",
"|+	c #807B79",
"1+	c #A89947",
"2+	c #90824B",
"3+	c #615347",
"4+	c #2A237B",
"5+	c #0531CD",
"6+	c #043CF7",
"7+	c #0734DC",
"8+	c #0C1D81",
"9+	c #302E3B",
"0+	c #424242",
"a+	c #4E4E4E",
"b+	c #646465",
"c+	c #3B4346",
"d+	c #0B6893",
"e+	c #087FD6",
"f+	c #0862C9",
"g+	c #7B797C",
"h+	c #A99C41",
"i+	c #AC9E44",
"j+	c #8F844C",
"k+	c #675535",
"l+	c #3F2230",
"m+	c #292481",
"n+	c #1134CF",
"o+	c #0D31CB",
"p+	c #121A63",
"q+	c #49494D",
"r+	c #5F5F5F",
"s+	c #707071",
"t+	c #535253",
"u+	c #313637",
"v+	c #214651",
"w+	c #0E7DAB",
"x+	c #0B76D3",
"y+	c #0035A4",
"z+	c #9E9148",
"A+	c #B8A93B",
"B+	c #9A8F4E",
"C+	c #8B804F",
"D+	c #6E5C3B",
"E+	c #4C3222",
"F+	c #321D47",
"G+	c #0E27A6",
"H+	c #082BBA",
"I+	c #0A1C78",
"J+	c #242A64",
"K+	c #38384A",
"L+	c #393737",
"M+	c #5D5C5D",
"N+	c #7F7574",
"O+	c #4D4856",
"P+	c #326F8F",
"Q+	c #155E89",
"R+	c #10275F",
"S+	c #000F43",
"T+	c #988C2D",
"U+	c #B1A447",
"V+	c #968B55",
"W+	c #8D8251",
"X+	c #7E734D",
"Y+	c #60513E",
"Z+	c #33171F",
"`+	c #0E1353",
" @	c #081869",
".@	c #0A379F",
"+@	c #2648BA",
"@@	c #4A3B72",
"#@	c #6A5D59",
"$@	c #665454",
"%@	c #753F3A",
"&@	c #783359",
"*@	c #4B4D9A",
"=@	c #14408B",
"-@	c #253F81",
";@	c #1F3B77",
">@	c #736D53",
",@	c #928B5D",
"'@	c #8D8561",
")@	c #887D4F",
"!@	c #71623F",
"~@	c #523C2E",
"{@	c #321B49",
"]@	c #112597",
"^@	c #1029A6",
"/@	c #1159A2",
"(@	c #4E74B4",
"_@	c #7F4E6C",
":@	c #7F4D48",
"<@	c #807373",
"[@	c #793533",
"}@	c #872216",
"|@	c #811D3E",
"1@	c #4C1A6E",
"2@	c #0D3A78",
"3@	c #2171AD",
"4@	c #2873BD",
"5@	c #455B8A",
"6@	c #6F6C61",
"7@	c #7E7556",
"8@	c #70613C",
"9@	c #553E28",
"0@	c #3B1F47",
"a@	c #23269A",
"b@	c #0933DA",
"c@	c #0630D0",
"d@	c #0C4A8D",
"e@	c #5B6081",
"f@	c #943D48",
"g@	c #901500",
"h@	c #84514E",
"i@	c #973B36",
"j@	c #962012",
"k@	c #761708",
"l@	c #411B1A",
"m@	c #097095",
"n@	c #09A0D9",
"o@	c #19A2E8",
"p@	c #277DC4",
"q@	c #485A84",
"r@	c #585251",
"s@	c #492F29",
"t@	c #37204B",
"u@	c #232697",
"v@	c #0634E0",
"w@	c #023BFB",
"x@	c #0236E9",
"y@	c #0A22A1",
"z@	c #5D1733",
"A@	c #952111",
"B@	c #991E0A",
"C@	c #955854",
"D@	c #9A3932",
"E@	c #902014",
"F@	c #75160A",
"G@	c #41232E",
"H@	c #078CBB",
"I@	c #03B4F0",
"J@	c #03B4F1",
"K@	c #1DA5E6",
"L@	c #307ABB",
"M@	c #3A4F87",
"N@	c #31244B",
"O@	c #1F269A",
"P@	c #0B33D9",
"Q@	c #013BFE",
"R@	c #003BFD",
"S@	c #1232C9",
"T@	c #5F2348",
"U@	c #942211",
"V@	c #8E1D0B",
"W@	c #925F5A",
"X@	c #6E2D27",
"Y@	c #68180F",
"Z@	c #5A1004",
"`@	c #321C30",
" #	c #0577C0",
".#	c #0398F5",
"+#	c #0197F5",
"@#	c #0695F5",
"##	c #1F7AE6",
"$#	c #2A53D0",
"%#	c #162FB3",
"&#	c #0734DE",
"*#	c #013AFA",
"=#	c #003BFF",
"-#	c #0E32CD",
";#	c #491F49",
">#	c #74190A",
",#	c #6E1406",
"'#	c #7C5B58",
")#	c #5F5947",
"!#	c #514328",
"~#	c #352123",
"{#	c #191B48",
"]#	c #05379E",
"^#	c #0444C7",
"/#	c #0348E1",
"(#	c #024BF9",
"_#	c #0445FC",
":#	c #073EFB",
"<#	c #043AF8",
"[#	c #013BFC",
"}#	c #013BFF",
"|#	c #013AFC",
"1#	c #0235E7",
"2#	c #022ECE",
"3#	c #0427A7",
"4#	c #1B1C52",
"5#	c #311721",
"6#	c #321002",
"7#	c #564D4C",
"8#	c #5B5A53",
"9#	c #706849",
"0#	c #766941",
"a#	c #503D3A",
"b#	c #292A5B",
"c#	c #051B58",
"d#	c #02105F",
"e#	c #0027B6",
"f#	c #0035EE",
"g#	c #0037F6",
"h#	c #0037F5",
"i#	c #0036EF",
"j#	c #002ABF",
"k#	c #01146B",
"l#	c #021A5B",
"m#	c #262A5C",
"n#	c #443037",
"o#	c #482915",
"p#	c #44322D",
"q#	c #585555",
"r#	c #444236",
"s#	c #6F6840",
"t#	c #887C4D",
"u#	c #716546",
"v#	c #423F48",
"w#	c #061446",
"x#	c #08114E",
"y#	c #222D85",
"z#	c #313DAB",
"A#	c #3340AF",
"B#	c #333FAF",
"C#	c #313EAB",
"D#	c #232E8A",
"E#	c #0E1657",
"F#	c #0E184C",
"G#	c #403D49",
"H#	c #6A5D40",
"I#	c #624D2E",
"J#	c #3B2111",
"K#	c #3C3837",
"L#	c #444237",
"M#	c #706840",
"N#	c #8D8351",
"O#	c #807649",
"P#	c #554A32",
"Q#	c #281839",
"R#	c #2B294F",
"S#	c #4E5065",
"T#	c #606171",
"U#	c #626372",
"V#	c #616272",
"W#	c #5E5F6F",
"X#	c #454660",
"Y#	c #3C3B57",
"Z#	c #4C434B",
"`#	c #5A4B35",
" $	c #7C6E44",
".$	c #6C5A37",
"+$	c #3E2514",
"@$	c #3C3939",
"#$	c #444036",
"$$	c #6E663E",
"%$	c #85794B",
"&$	c #6E5F39",
"*$	c #543D25",
"=$	c #40201A",
"-$	c #40363A",
";$	c #656567",
">$	c #434348",
",$	c #58533F",
"'$	c #7B6F47",
")$	c #74633C",
"!$	c #6F5D38",
"~$	c #5E462A",
"{$	c #3A1F0E",
"]$	c #3C3838",
"^$	c #62615C",
"/$	c #69644C",
"($	c #675B3A",
"_$	c #4E3620",
":$	c #3E2213",
"<$	c #3A2319",
"[$	c #554F4D",
"}$	c #6A6758",
"|$	c #716944",
"1$	c #675B38",
"2$	c #543C24",
"3$	c #422413",
"4$	c #4B3F3C",
"5$	c #686666",
"6$	c #777671",
"7$	c #635D57",
"8$	c #3D2922",
"9$	c #2A1915",
"0$	c #53504F",
"a$	c #777575",
"b$	c #63625A",
"c$	c #3E3528",
"d$	c #412F26",
"e$	c #5B5452",
"f$	c #767473",
"g$	c #2B2524",
"h$	c #211F1E",
"i$	c #434242",
"j$	c #404040",
"k$	c #444242",
"l$	c #706E6E",
"                    . + @ # $ % &                     ",
"                    * = - ; > , '                     ",
"                  ) ! ~       { ] ^                   ",
"                    / (       _ :                     ",
"      < [ }         | 1       2 3         4 5 6       ",
"    7 8 9 0 a     b c d e f g h i j     k l m n o     ",
"  p q r s t u v w x y z A B C D E F G H I J K L M N   ",
"O P Q R S T U V W X Y Z ` `  ...+.@.#.$.%.&.*.=.-.;.>.",
",.'.).!.  ~.{.].^./.(._._._.:.<.[.}.|.1.2.3.4.5.6.7.8.",
"9.0.a.      b.c.d.e.f.g.h.i.j.k.l.m.n.o.p.      q.r.s.",
"t.u.        v.w.x._.y.z.A.B.C.D.E.F.G.H.I.        J.K.",
"L.M.N.      O.P.Q.f.e.R.S.T.U.V.W.X.Y.Z.`.         +.+",
"  ++@+      #+$+%+&+*+=+-+;+>+,+'+)+!+~+{+      ]+^+  ",
"    /+ +(+  _+:+<+[+}+|+1+2+3+4+5+6+7+8+9+    K.0+    ",
"      a+b+  c+d+e+f+g+h+i+j+k+l+m+n+o+p+q+  r+a+      ",
"      s+t+u+v+w+x+y+z+A+B+C+D+E+F+G+H+I+J+K+L+M+      ",
"        N+O+P+Q+R+S+T+U+V+W+X+Y+Z+`+ @.@+@@@#@        ",
"      $@%@&@*@=@-@;@>@,@'@)@!@~@{@]@^@/@(@_@:@<@      ",
"      [@}@|@1@2@3@4@5@6@7@8@9@0@a@b@c@d@e@f@g@h@      ",
"      i@j@k@l@m@n@o@p@q@r@s@t@u@v@w@x@y@z@A@B@C@      ",
"      D@E@F@G@H@I@J@K@L@M@N@O@P@w@Q@R@S@T@U@V@W@      ",
"      X@Y@Z@`@ #.#+#@###$#%#&#*#Q@Q@=#-#;#>#,#'#      ",
"      )#!#~#{#]#^#/#(#_#:#<#[#}#|#1#2#3#4#5#6#7#      ",
"    8#9#0#a#b#c#d#e#f#g#h#h#h#h#i#j#k#l#m#n#o#p#q#    ",
"    r#s#t#u#v#w#x#y#z#A#B#B#B#B#C#D#E#F#G#H#I#J#K#    ",
"    L#M#N#O#P#Q#R#S#T#U#V#V#V#V#W#X#Y#Z#`# $.$+$@$    ",
"    #$$$%$&$*$=$-$;$              >$,$'$)$!$~${$]$    ",
"    ^$/$($_$:$<$[$                  }$|$1$2$3$4$5$    ",
"      6$7$8$9$0$a$                    b$c$d$e$f$      ",
"        0$g$h$i$                        j$k$l$        "};
