/* XPM */
static char * bullet32_xpm[] = {
"30 27 50 1",
" 	c #FFFFFE",
".	c #FFBB00",
"+	c #F2B200",
"@	c #DEA300",
"#	c #F9B600",
"$	c #E0A400",
"%	c #D79E00",
"&	c #C89300",
"*	c #C08D00",
"=	c #BA8900",
"-	c #F8B600",
";	c #D59C00",
">	c #C79200",
",	c #BF8D00",
"'	c #F9B700",
")	c #F3B200",
"!	c #DAA000",
"~	c #D19A00",
"{	c #C59000",
"]	c #BC8A00",
"^	c #B58500",
"/	c #FEBB00",
"(	c #D9A000",
"_	c #C28E00",
":	c #AB7E00",
"<	c #A17600",
"[	c #976E00",
"}	c #946C00",
"|	c #E6B400",
"1	c #E2B100",
"2	c #D2A600",
"3	c #CBA000",
"4	c #C09700",
"5	c #B38D00",
"6	c #AA8600",
"7	c #E8BA00",
"8	c #E4B700",
"9	c #D6AC00",
"0	c #CEA600",
"a	c #C29C00",
"b	c #B69200",
"c	c #AD8B00",
"d	c #DFA600",
"e	c #DBA300",
"f	c #C99600",
"g	c #C39200",
"h	c #BB8C00",
"i	c #AD8100",
"j	c #A37900",
"k	c #976F00",
"                              ",
"                              ",
"                              ",
"        .+@                   ",
"        .+@                   ",
"      .#$%&*=                 ",
"      .-@;>,=                 ",
"      .-@;>,=                 ",
"      ')!~{]^                 ",
"    ./@(>_=:<[}               ",
"    ./@(>_=:<[}               ",
"    ./@(>_=:<[}               ",
"    ./@(>_=:<[}               ",
"    ./@(>_=:<[}               ",
"    ./@(>_=:<[}               ",
"    ./@(>_=:<[}               ",
"    ./@(>_=:<[}               ",
"    ./@(>_=:<[}               ",
"    ./@(>_=:<[}               ",
"    ./@(>_=:<[}               ",
"    ./@(>_=:<[}               ",
"    ./@(>_=:<[}               ",
"    ./@(>_=:<[}               ",
"      |123456                 ",
"      7890abc                 ",
"    ./defghijk}               ",
"    ./@(>_=:<[}               ",
"    ./@(>_=:<[}               "};


