/* XPM */
static char * clock32_xpm[] = {
"32 32 40 1",
" 	c #FFFFFE",
".	c #FFFFFE",
"+	c #D3D3D3",
"@	c #E1E1E1",
"#	c #CFCFCF",
"$	c #EBEBEB",
"%	c #FFFFFF",
"&	c #4C4C4C",
"*	c #B1B1B1",
"=	c #F4F4F4",
"-	c #727272",
";	c #F2F2F2",
">	c #9F9F9F",
",	c #505050",
"'	c #7B7B7B",
")	c #959595",
"!	c #E7E7E7",
"~	c #FBFBFB",
"{	c #ACACAC",
"]	c #FEFEFE",
"^	c #D9D9D9",
"/	c #F8F8F8",
"(	c #DDDDDD",
"_	c #C6C6C6",
":	c #E4E4E4",
"<	c #E9E9E9",
"[	c #D2D2D2",
"}	c #F0F0F0",
"|	c #717171",
"1	c #ABABAB",
"2	c #FCFCFC",
"3	c #EAEAEA",
"4	c #C3C3C3",
"5	c #F9F9F9",
"6	c #1A1A1A",
"7	c #353535",
"8	c #7F7F7F",
"9	c #B5B5B5",
"0	c #BDBDBD",
"a	c #AEAEAE",
"         ..............         ",
"         ..............         ",
"     ....+@@@@#..#@@@@+....     ",
"     ....$%%%%$..$%%%%$....     ",
"    ..&**=%%%%$..$%%%%=**&..    ",
"  ....-%%%%%%%;>>;%%%%%%%-....  ",
"  ..,')!!~%%%%%%%%%%%%~!!)',..  ",
"  ..{%$..$%%%%]~~]%%%%$..$%{..  ",
"  ..{%$..$%%%%$..$%%%%$..$%{..  ",
"..^/~%]//]%%%%$..$%%%%]//]%~/^..",
"..(%%%%%%%%%%%$..$%%%%%%%%%%%(..",
"..(%%%%%%%%%%%$..$%%%%%%%%%%%(..",
"..(%%%%%%%%%%%$..$%%%%%%%%%%%(..",
"..(%%%%%%%%%%%$..$%%%%%%%%%%%(..",
".._:::<%%%%%%/[..[::::::::::}(..",
"......-%%%%%%(..............{(..",
"......|%%%%%%(..............1(..",
"..(%%%%%%%%%%%$..$%%%%%%%%%%%(..",
"..(%%%%%%%%%%%2332%%%%%%%%%%%(..",
"..(%%%%%%%%%%%%%%%%%%%%%%%%%%(..",
"..(%%%%%%%%%%%%%%%%%%%%%%%%%%(..",
"..(%%%%%%%%%%%%%%%%%%%%%%%%%%(..",
"..4^<%5^^5%%%%%%%%%%%%5^^5%<^4..",
"  ..{%$..$%%%%%%%%%%%%$..$%{..  ",
"  ..1]366$%%%%%]]%%%%%$663]1..  ",
"  ....|%%%%%%%$..$%%%%%%%|....  ",
"  ....-%%%%%%%$..$%%%%%%%-....  ",
"    ..788}%%%%$..$%%%%}887..    ",
"     ....$%%%%$..$%%%%$....     ",
"     ....90000a..a00009....     ",
"         ..............         ",
"         ..............         "};
