/* XPM */
static char * granadeScifi_xpm[] = {
"22 28 440 2",
"  	c #FFFFFE",
". 	c #8C7691",
"+ 	c #836E89",
"@ 	c #826D88",
"# 	c #806A86",
"$ 	c #654D6C",
"% 	c #4D2E56",
"& 	c #4C2C55",
"* 	c #C589D6",
"= 	c #C68AD7",
"- 	c #C88DD8",
"; 	c #99849E",
"> 	c #9F8DA5",
", 	c #9C87A2",
"' 	c #99829F",
") 	c #957F9B",
"! 	c #6F5975",
"~ 	c #51355A",
"{ 	c #52335B",
"] 	c #4B2D54",
"^ 	c #44264D",
"/ 	c #BE7AD2",
"( 	c #C587D5",
"_ 	c #C180D3",
": 	c #C283D4",
"< 	c #AF80BC",
"[ 	c #9A7FA1",
"} 	c #9C86A2",
"| 	c #98839F",
"1 	c #97819D",
"2 	c #967E9C",
"3 	c #937B99",
"4 	c #6B5672",
"5 	c #482F4F",
"6 	c #462D4E",
"7 	c #42294B",
"8 	c #402648",
"9 	c #3D2345",
"0 	c #C688D6",
"a 	c #C07DD2",
"b 	c #C17ED3",
"c 	c #C285D4",
"d 	c #AB7AB8",
"e 	c #987C9E",
"f 	c #957E9B",
"g 	c #8B7292",
"h 	c #88708F",
"i 	c #6E5775",
"j 	c #48304E",
"k 	c #3D2444",
"l 	c #3D2644",
"m 	c #3E2745",
"n 	c #3D2544",
"o 	c #3C2143",
"p 	c #C485D5",
"q 	c #C486D5",
"r 	c #C384D4",
"s 	c #C487D5",
"t 	c #7D6383",
"u 	c #785D7F",
"v 	c #7A6081",
"w 	c #7E6485",
"x 	c #533B5A",
"y 	c #3C2144",
"z 	c #3C2344",
"A 	c #3D2445",
"B 	c #3E2545",
"C 	c #3D2545",
"D 	c #3C2243",
"E 	c #C689D6",
"F 	c #C68BD7",
"G 	c #5C3D67",
"H 	c #61426A",
"I 	c #5C3C65",
"J 	c #5F4067",
"K 	c #64466C",
"L 	c #61436B",
"M 	c #3B1E43",
"N 	c #3C1F44",
"O 	c #3D2145",
"P 	c #3C1F43",
"Q 	c #58196E",
"R 	c #612479",
"S 	c #622778",
"T 	c #5C2470",
"U 	c #563460",
"V 	c #573A5E",
"W 	c #4F1D63",
"X 	c #4F0B67",
"Y 	c #4E0866",
"Z 	c #3C2244",
"` 	c #3D2344",
" .	c #3B1F43",
"..	c #56196D",
"+.	c #742992",
"@.	c #8C34AF",
"#.	c #8F35B2",
"$.	c #8435A3",
"%.	c #745C6D",
"&.	c #766760",
"*.	c #662783",
"=.	c #6A088F",
"-.	c #6A0C8E",
";.	c #550671",
">.	c #46055E",
",.	c #3C2044",
"'.	c #3A1D42",
").	c #742893",
"!.	c #8C34B0",
"~.	c #8E32B3",
"{.	c #892DAE",
"].	c #872AAC",
"^.	c #813C9C",
"/.	c #9A9363",
"(.	c #A7A45E",
"_.	c #724186",
":.	c #6B0292",
"<.	c #6D0C93",
"[.	c #6D0C92",
"}.	c #680C8D",
"|.	c #560E74",
"1.	c #65217F",
"2.	c #8430A6",
"3.	c #8930AD",
"4.	c #882DAC",
"5.	c #882BAD",
"6.	c #7F379C",
"7.	c #8A7F63",
"8.	c #958E5F",
"9.	c #6E3786",
"0.	c #6B0592",
"a.	c #6C1191",
"b.	c #6C1390",
"c.	c #650E88",
"d.	c #4F056A",
"e.	c #3C1E44",
"f.	c #54136A",
"g.	c #6F228D",
"h.	c #7C349A",
"i.	c #78418C",
"j.	c #7E3B98",
"k.	c #872EAA",
"l.	c #7E349C",
"m.	c #827563",
"n.	c #8B835F",
"o.	c #6C3286",
"p.	c #6C0592",
"q.	c #6D0F92",
"r.	c #67327E",
"s.	c #653878",
"t.	c #672484",
"u.	c #5B057A",
"v.	c #591771",
"w.	c #783492",
"x.	c #867273",
"y.	c #A7AB43",
"z.	c #9C9564",
"A.	c #855393",
"B.	c #862EAA",
"C.	c #803C9C",
"D.	c #999163",
"E.	c #A6A25E",
"F.	c #714086",
"G.	c #6B0192",
"H.	c #6A3E7B",
"I.	c #97974D",
"J.	c #A6AA43",
"K.	c #857868",
"L.	c #601D7D",
"M.	c #4A0064",
"N.	c #5A1971",
"O.	c #78408D",
"P.	c #8E8956",
"Q.	c #C6D10D",
"R.	c #B4BC2A",
"S.	c #826779",
"T.	c #8531A7",
"U.	c #6C3386",
"V.	c #6C0292",
"W.	c #67535D",
"X.	c #AEB621",
"Y.	c #C8D31F",
"Z.	c #9A9B48",
"`.	c #5D2B73",
" +	c #4B0067",
".+	c #4D0F61",
"++	c #732392",
"@+	c #81379E",
"#+	c #836979",
"$+	c #9C9F39",
"%+	c #96915B",
"&+	c #835390",
"*+	c #862EA9",
"=+	c #7E359C",
"-+	c #857963",
";+	c #8F875F",
">+	c #6D3486",
",+	c #6C0392",
"'+	c #693E79",
")+	c #8A8946",
"!+	c #9DA137",
"~+	c #837764",
"{+	c #662084",
"]+	c #5A047A",
"^+	c #45035C",
"/+	c #4E1063",
"(+	c #8128A4",
"_+	c #862BAA",
":+	c #803B9B",
"<+	c #795182",
"[+	c #7F4993",
"}+	c #8632A8",
"|+	c #872BAC",
"1+	c #813B9C",
"2+	c #989063",
"3+	c #A4A15E",
"4+	c #713F86",
"5+	c #6D1790",
"6+	c #6B4278",
"7+	c #6B4B70",
"8+	c #6C3384",
"9+	c #6C0B92",
"0+	c #620884",
"a+	c #490462",
"b+	c #47115B",
"c+	c #753190",
"d+	c #7F4396",
"e+	c #7B3F94",
"f+	c #7C2D9D",
"g+	c #8426A9",
"h+	c #8527AB",
"i+	c #8529AA",
"j+	c #803D99",
"k+	c #877D61",
"l+	c #8E875D",
"m+	c #704084",
"n+	c #6B0A91",
"o+	c #6B0492",
"p+	c #6B0890",
"q+	c #691F89",
"r+	c #6E3885",
"s+	c #713E86",
"t+	c #61267A",
"u+	c #470A5D",
"v+	c #472C4B",
"w+	c #75695B",
"x+	c #9C985C",
"y+	c #949058",
"z+	c #796071",
"A+	c #80518D",
"B+	c #7D4791",
"C+	c #7C4590",
"D+	c #8E757F",
"E+	c #8E8E45",
"F+	c #838146",
"G+	c #8A7A6F",
"H+	c #704481",
"I+	c #724682",
"J+	c #754F7F",
"K+	c #735F69",
"L+	c #948F5B",
"M+	c #9F9A5D",
"N+	c #74675B",
"O+	c #462750",
"P+	c #482B50",
"Q+	c #786667",
"R+	c #9D9468",
"S+	c #948F59",
"T+	c #8C8A4A",
"U+	c #A4A357",
"V+	c #928D5B",
"W+	c #877F5B",
"X+	c #A7A949",
"Y+	c #949D07",
"Z+	c #8D931B",
"`+	c #A5A843",
" @	c #857D5A",
".@	c #99955C",
"+@	c #A4A358",
"@@	c #888749",
"#@	c #928F55",
"$@	c #9C9562",
"%@	c #73645E",
"&@	c #462550",
"*@	c #490F5E",
"=@	c #782D96",
"-@	c #7F3A9B",
";@	c #763B8D",
">@	c #806A72",
",@	c #988E6A",
"'@	c #8A7B6B",
")@	c #81716A",
"!@	c #A19F58",
"~@	c #9CA41C",
"{@	c #949A26",
"]@	c #A1A14F",
"^@	c #7F7065",
"/@	c #8D8167",
"(@	c #968D66",
"_@	c #79656A",
":@	c #683A7A",
"<@	c #692F82",
"[@	c #581C71",
"}@	c #410656",
"|@	c #4E1064",
"1@	c #8329A7",
"2@	c #8829AD",
"3@	c #8328A7",
"4@	c #7F329E",
"5@	c #813B9D",
"6@	c #80369D",
"7@	c #7F379D",
"8@	c #8A648B",
"9@	c #A3A352",
"0@	c #A6A750",
"a@	c #836C75",
"b@	c #6A2E83",
"c@	c #6A2C85",
"d@	c #6B3284",
"e@	c #672384",
"f@	c #661089",
"g@	c #650788",
"h@	c #560474",
"i@	c #400255",
"j@	c #671D83",
"k@	c #832CA5",
"l@	c #824996",
"m@	c #776664",
"n@	c #7C5980",
"o@	c #8437A4",
"p@	c #862BAB",
"q@	c #7D339B",
"r@	c #766663",
"s@	c #7C705E",
"t@	c #683080",
"u@	c #670B8A",
"v@	c #671F86",
"w@	c #6B5961",
"x@	c #6D6354",
"y@	c #6A4477",
"z@	c #610A83",
"A@	c #4B0366",
"B@	c #591872",
"C@	c #7A3D92",
"D@	c #918768",
"E@	c #C0C928",
"F@	c #ADB146",
"G@	c #836084",
"H@	c #8630A8",
"I@	c #80399C",
"J@	c #918763",
"K@	c #9C965D",
"L@	c #6D3B81",
"M@	c #67038B",
"N@	c #664D65",
"O@	c #ABB131",
"P@	c #BFC92C",
"Q@	c #92914E",
"R@	c #542569",
"S@	c #43005B",
"T@	c #58186E",
"U@	c #753E89",
"V@	c #8B835C",
"W@	c #BDC719",
"X@	c #AEB434",
"Y@	c #82647E",
"Z@	c #8631A7",
"`@	c #803B9C",
" #	c #958D63",
".#	c #A19D5E",
"+#	c #6E3E81",
"@#	c #67028B",
"##	c #64505E",
"$#	c #A5AC26",
"%#	c #BFCA1D",
"&#	c #92943D",
"*#	c #4E285E",
"=#	c #410058",
"-#	c #662E7D",
";#	c #7C587F",
">#	c #8C8758",
",#	c #8B7B6E",
"'#	c #84489A",
")#	c #852CA9",
"!#	c #7B3299",
"~#	c #7F7263",
"{#	c #877F5E",
"]#	c #693181",
"^#	c #67078A",
"/#	c #66337C",
"(#	c #7A7253",
"_#	c #888743",
":#	c #6F6358",
"<#	c #48175C",
"[#	c #591D71",
"}#	c #782C97",
"|#	c #7E359B",
"1#	c #8230A2",
"2#	c #852AA9",
"3#	c #7C22A1",
"4#	c #70318C",
"5#	c #908664",
"6#	c #9B965E",
"7#	c #67048B",
"8#	c #680B8C",
"9#	c #61217E",
"0#	c #5C2276",
"a#	c #52116E",
"b#	c #691C86",
"c#	c #782299",
"d#	c #7C249E",
"e#	c #762099",
"f#	c #69148C",
"g#	c #672F7F",
"h#	c #918862",
"i#	c #9C985B",
"j#	c #6A3C7D",
"k#	c #620086",
"l#	c #630785",
"m#	c #59017A",
"n#	c #530072",
"o#	c #4A0065",
"p#	c #531269",
"q#	c #571371",
"r#	c #560F72",
"s#	c #52086D",
"t#	c #521B6A",
"u#	c #675858",
"v#	c #6E6353",
"w#	c #542369",
"x#	c #50026D",
"y#	c #50056C",
"z#	c #46035E",
"A#	c #3F0254",
"B#	c #350346",
"C#	c #340245",
"D#	c #340545",
"E#	c #3C2242",
"F#	c #3F2941",
"G#	c #350845",
"                . + @ # $ % &               ",
"    * = -     ; > , ' ) ! ~ { ] ^           ",
"/ ( _ : * < [ } | 1 2 3 4 5 6 7 8 9         ",
"/ 0 a b c d e f g g g h i j k l m n o       ",
"/ p q r s     t u u v w v x y z A B C D     ",
"  _ E F     G H I J K L       M N O B k P   ",
"          Q R S T U V W X Y       M Z `  .  ",
"        ..+.@.#.$.%.&.*.=.-.;.>.    M ,.,.'.",
"      ).!.~.{.].^./.(._.:.<.[.}.|.    M N '.",
"    1.2.3.4.5.].6.7.8.9.0.<.a.b.c.d.  M e.'.",
"  f.g.h.i.j.k.].l.m.n.o.p.q.r.s.t.u.        ",
"  v.w.x.y.z.A.B.C.D.E.F.G.H.I.J.K.L.M.      ",
"  N.O.P.Q.R.S.T.l.m.n.U.V.W.X.Y.Z.`. +      ",
".+++@+#+$+%+&+*+=+-+;+>+,+'+)+!+~+{+]+^+    ",
"/+(+_+:+<+[+}+|+1+2+3+4+:.5+6+7+8+9+0+a+    ",
"b+c+d+e+f+g+h+i+j+k+l+m+n+o+p+q+r+s+t+u+    ",
"v+w+x+y+z+A+B+C+D+E+F+G+H+I+J+K+L+M+N+O+    ",
"P+Q+R+S+T+U+V+W+X+Y+Z+`+ @.@+@@@#@$@%@&@    ",
"*@=@-@;@>@,@'@)@!@~@{@]@^@/@(@_@:@<@[@}@    ",
"|@1@2@3@4@5@6@7@8@9@0@a@b@c@d@e@f@g@h@i@    ",
"  j@k@l@m@n@o@p@q@r@s@t@u@v@w@x@y@z@A@      ",
"  B@C@D@E@F@G@H@I@J@K@L@M@N@O@P@Q@R@S@      ",
"  T@U@V@W@X@Y@Z@`@ #.#+#@###$#%#&#*#=#      ",
"    -#;#>#,#'#)#!#~#{#]#^#/#(#_#:#<#        ",
"    [#}#|#1#2#3#4#5#6#L@7#8#9#0#a#=#        ",
"      b#c#d#e#f#g#h#i#j#k#l#m#n#o#          ",
"        p#q#r#s#t#u#v#w#x#y#z#A#            ",
"            B#C#D#E#F#G#C#C#                "};
