/* XPM */
static char * small_box_xpm[] = {
"32 28 126 2",
"  	c #FFFFFE",
". 	c #000000",
"+ 	c #1D1006",
"@ 	c #000000",
"# 	c #120801",
"$ 	c #1D1006",
"% 	c #120801",
"& 	c #381E0D",
"* 	c #190D06",
"= 	c #42220C",
"- 	c #381D0A",
"; 	c #44230A",
"> 	c #2A160A",
", 	c #3A1C07",
"' 	c #150C04",
") 	c #2D1403",
"! 	c #241206",
"~ 	c #241307",
"{ 	c #130A03",
"] 	c #1E0F04",
"^ 	c #512A0E",
"/ 	c #593012",
"( 	c #3A1D09",
"_ 	c #1D0E03",
": 	c #3A1E0B",
"< 	c #2E1707",
"[ 	c #0C0601",
"} 	c #090401",
"| 	c #311B0C",
"1 	c #3E210B",
"2 	c #251103",
"3 	c #2D1809",
"4 	c #271407",
"5 	c #0E0702",
"6 	c #281507",
"7 	c #1A0D04",
"8 	c #291507",
"9 	c #381F0E",
"0 	c #3A1C07",
"a 	c #2A160A",
"b 	c #000000",
"c 	c #502A0F",
"d 	c #552C0F",
"e 	c #98501D",
"f 	c #40210B",
"g 	c #642900",
"h 	c #9A5729",
"i 	c #C8804D",
"j 	c #B26A37",
"k 	c #9A5A2C",
"l 	c #7B4016",
"m 	c #230E00",
"n 	c #7A3200",
"o 	c #AA622F",
"p 	c #D48C59",
"q 	c #B9713E",
"r 	c #B06835",
"s 	c #140A03",
"t 	c #240F01",
"u 	c #7F3705",
"v 	c #A8602D",
"w 	c #CC8451",
"x 	c #D38B58",
"y 	c #BB7340",
"z 	c #9D5522",
"A 	c #99511E",
"B 	c #CE8653",
"C 	c #B36B38",
"D 	c #211004",
"E 	c #0E0701",
"F 	c #321E0F",
"G 	c #B66E3B",
"H 	c #A55D2A",
"I 	c #CA824F",
"J 	c #9F5724",
"K 	c #804317",
"L 	c #B16A36",
"M 	c #AE6633",
"N 	c #B76F3C",
"O 	c #BE7643",
"P 	c #B8703D",
"Q 	c #A15926",
"R 	c #C9814E",
"S 	c #B26B37",
"T 	c #9B5A2B",
"U 	c #3A1E0A",
"V 	c #C77F4C",
"W 	c #C27A47",
"X 	c #BF7744",
"Y 	c #B46C38",
"Z 	c #A25A27",
"` 	c #CD8552",
" .	c #D18956",
"..	c #97592D",
"+.	c #663512",
"@.	c #2A1608",
"#.	c #A9612E",
"$.	c #7B3301",
"%.	c #914916",
"&.	c #8C4412",
"*.	c #230F00",
"=.	c #904815",
"-.	c #8B4311",
";.	c #B16937",
">.	c #89410F",
",.	c #A75F2C",
"'.	c #9A521F",
").	c #271204",
"!.	c #CC8450",
"~.	c #523019",
"{.	c #915A32",
"].	c #C47C49",
"^.	c #D28A57",
"/.	c #643B1E",
"(.	c #D08855",
"_.	c #1D1007",
":.	c #A16135",
"<.	c #BB7341",
"[.	c #975A2E",
"}.	c #BA733F",
"|.	c #864E26",
"1.	c #9E5E30",
"2.	c #A56335",
"3.	c #C57D4A",
"4.	c #160B04",
"5.	c #6A3E20",
"          . . . . . . . . . . . . . . .                         ",
"          . . . . . . . . . . . . . . . .                       ",
"        ; / / / / / / / / / / / / / / / ^                       ",
"    } . / e e e e e e e e e e e e e e e +.. }                   ",
"    t t +.Z Z Z Z Z Z z e e e e Z Z Z Z K < <                   ",
". . g n 2.p p p p p p G e e e A x p p p O e =.. .               ",
". . g n 2.p p p p p p G e e e A x p p p O e %.. .               ",
". . ..r o H M p p p p (.w X e e H H i p  .w 3.%.=., [           ",
". . [.G o e H p p p p p p V e e e e V p p p ` e e , .           ",
". . [.G q O <.G G (.p p p B O O A e M G ].p  .O O K +.^ }       ",
". . [.G ].p ` e e ` p p p p p x A e e e G p p p p H e / . }     ",
". . [.G ].p B o o W V B p p p p M o z e M V i p p C o K ; ;     ",
". . [.G ].p p p p H e O p p p p p p M e e e H p p p p G e K . . ",
". . [.G ].p p p p H A O x x x x x p M e e e Z x x x x G e K . . ",
". . [.G ].p p p p x x 2.$.>.A A A A e e e e e A A A A >.$.g . . ",
". . [.G ].p p p p p p 2.n u e e e e e e e e e e e e e >.n g . . ",
". . [.G ].p p p p p p <.#.;.3.3.3.3.3.3.3.3.3.3.3.3.3.G #.|.. . ",
". . [.G ].p p p p p p ].G X p p p p p p p p p p p p p ].G [.. . ",
". . l |.2.i I p p p p ].G X p p p p p p p p p p p p p ].G [.. . ",
"    } . 5.G y p p p p ].G X p p p p p p p p p p p p p ].G [.. . ",
"    [ . 5.2.;.(.(.x p ].G X p p p p p p p p p p p p p ].G [.. . ",
"          . = G G (.p ].G X p p p p p p p p p p p p p ].G [.. . ",
"          . = Y G (.p ].G X p p p p p p p p p p p p p ].G [.. . ",
"              = = ;.<.P G N <.<.<.<.<.<.<.<.<.<.<.<.<.P G [.. . ",
"              . . 2.G G G G G G G G G G G G G G G G G G G [.. . ",
"                  5.5.5.5.5.5.5.5.5.5.5.5.5.5.5.5.5.5.5.5.5.    ",
"                  } . . . . . . . . . . . . . . . . . . . }     ",
"                  } . . . . . . . . . . . . . . . . . . . }     "};
