/* XPM */
static char * uraniumStick_xpm[] = {
"32 31 363 2",
"  	c #FFFFFE",
". 	c #C5DFA6",
"+ 	c #CBE8A0",
"@ 	c #CDE8A0",
"# 	c #C2DA97",
"$ 	c #C7DCA0",
"% 	c #7CA541",
"& 	c #73A71E",
"* 	c #73A81B",
"= 	c #74A327",
"- 	c #ADCA87",
"; 	c #DFF2B8",
"> 	c #C9E396",
", 	c #8DB64E",
"' 	c #85B348",
") 	c #83BC40",
"! 	c #7CB836",
"~ 	c #A6CF71",
"{ 	c #D6EFAB",
"] 	c #A7C084",
"^ 	c #A4C472",
"/ 	c #AED273",
"( 	c #C9E799",
"_ 	c #CBE7AE",
": 	c #B5E99B",
"< 	c #ACEA83",
"[ 	c #A7DE70",
"} 	c #A1CC6A",
"| 	c #9DBF72",
"1 	c #DDF6B9",
"2 	c #99BE6C",
"3 	c #71A415",
"4 	c #A4C770",
"5 	c #E7FDCD",
"6 	c #EAFFF0",
"7 	c #CFFFDD",
"8 	c #BEFFB5",
"9 	c #A8E581",
"0 	c #7DB83B",
"a 	c #75A72D",
"b 	c #C3DD9C",
"c 	c #97B86B",
"d 	c #B8D889",
"e 	c #B5D67B",
"f 	c #B5D181",
"g 	c #C8DDA3",
"h 	c #E4F6D3",
"i 	c #DCF6E4",
"j 	c #AEF5C7",
"k 	c #90F69D",
"l 	c #81DB6E",
"m 	c #5FA830",
"n 	c #5F9426",
"o 	c #BED99C",
"p 	c #C7E098",
"q 	c #75A52F",
"r 	c #8FB752",
"s 	c #D6EAA2",
"t 	c #EDFAC9",
"u 	c #E9F7D4",
"v 	c #DBF7CA",
"w 	c #C5F8B8",
"x 	c #7FF385",
"y 	c #50EE5F",
"z 	c #4FCE50",
"A 	c #328927",
"B 	c #3D712C",
"C 	c #DFF9B2",
"D 	c #C1E293",
"E 	c #75A742",
"F 	c #8DB063",
"G 	c #DDEABB",
"H 	c #EFFCD9",
"I 	c #DEFBD5",
"J 	c #BBFABA",
"K 	c #9CFCA0",
"L 	c #67F272",
"M 	c #4CE758",
"N 	c #50C653",
"O 	c #368331",
"P 	c #3D6833",
"Q 	c #9EBE70",
"R 	c #95BD65",
"S 	c #AAD387",
"T 	c #D2F0BA",
"U 	c #D4EDC5",
"V 	c #D9EECB",
"W 	c #D5F2CC",
"X 	c #B1EEB3",
"Y 	c #76E585",
"Z 	c #56EA6E",
"` 	c #38C64C",
" .	c #229B2A",
"..	c #71B56E",
"+.	c #92C28B",
"@.	c #78A636",
"#.	c #76A937",
"$.	c #A8CA90",
"%.	c #E6FFDF",
"&.	c #E2FEE6",
"*.	c #D0FAD5",
"=.	c #BFFEC4",
"-.	c #95F6A0",
";.	c #52E869",
">.	c #3AE65B",
",.	c #2CAE41",
"'.	c #207021",
").	c #1A6517",
"!.	c #BFD69C",
"~.	c #C7E498",
"{.	c #A7CB6D",
"].	c #A6C47B",
"^.	c #C1DAAD",
"/.	c #E0FAE0",
"(.	c #CDFCDA",
"_.	c #A8F4B6",
":.	c #8EF79B",
"<.	c #6DEB7A",
"[.	c #3FD352",
"}.	c #38CB4F",
"|.	c #34A143",
"1.	c #2E672D",
"2.	c #9FB776",
"3.	c #7EA541",
"4.	c #86B045",
"5.	c #E1F9AC",
"6.	c #EAFCC8",
"7.	c #E4F8D2",
"8.	c #CAF3CB",
"9.	c #ADFAB9",
"0.	c #71E980",
"a.	c #4FEA5C",
"b.	c #41D247",
"c.	c #178B17",
"d.	c #257F22",
"e.	c #EDFFBF",
"f.	c #AFCC7A",
"g.	c #7AA52D",
"h.	c #85AC46",
"i.	c #EAFBC8",
"j.	c #EDFEDD",
"k.	c #DEFCD8",
"l.	c #B9FCBF",
"m.	c #97FEA4",
"n.	c #5DEC6A",
"o.	c #4DEB54",
"p.	c #47CB48",
"q.	c #26751A",
"r.	c #426732",
"s.	c #96B06C",
"t.	c #A1BF6D",
"u.	c #BBDC7E",
"v.	c #CFEA9D",
"w.	c #D2EBB0",
"x.	c #DDF2C8",
"y.	c #D0F7CB",
"z.	c #AAF1B1",
"A.	c #76E787",
"B.	c #62EB74",
"C.	c #38C143",
"D.	c #2EA72E",
"E.	c #6AB262",
"F.	c #C6DEA0",
"G.	c #88AE50",
"H.	c #76A31C",
"I.	c #C9E395",
"J.	c #EAFED4",
"K.	c #ECFEEA",
"L.	c #D6F3C9",
"M.	c #BBFDB9",
"N.	c #82F694",
"O.	c #3FEA62",
"P.	c #40E85D",
"Q.	c #27A634",
"R.	c #28731B",
"S.	c #49723B",
"T.	c #CBE69C",
"U.	c #99BC5D",
"V.	c #8FB158",
"W.	c #CEE4AB",
"X.	c #EDFCE4",
"Y.	c #E4FDF0",
"Z.	c #B3F4B1",
"`.	c #96FC9A",
" +	c #69F380",
".+	c #38E35C",
"++	c #42D55D",
"@+	c #31973C",
"#+	c #3B632E",
"$+	c #536042",
"%+	c #A5C379",
"&+	c #75A42E",
"*+	c #9EC162",
"=+	c #E6F8B0",
"-+	c #F3FDCF",
";+	c #E1F1CA",
">+	c #D8F3C6",
",+	c #BCF7B2",
"'+	c #62EB6B",
")+	c #4CEB5E",
"!+	c #40C850",
"~+	c #157E1F",
"{+	c #2A752F",
"]+	c #DCF8AF",
"^+	c #A2C774",
"/+	c #7FAE4A",
"(+	c #A4C17A",
"_+	c #E8F7C5",
":+	c #F0FEDD",
"<+	c #D4F7CC",
"[+	c #BBFCB8",
"}+	c #98FD9B",
"|+	c #56EC66",
"1+	c #4DE35F",
"2+	c #4FC35A",
"3+	c #2F7631",
"4+	c #376834",
"5+	c #BBD78C",
"6+	c #B4D686",
"7+	c #B3DB91",
"8+	c #B9D8A4",
"9+	c #CAE1BA",
"0+	c #E3F4D3",
"a+	c #DDFAD6",
"b+	c #ACEEAF",
"c+	c #7FF08F",
"d+	c #66F37D",
"e+	c #35B845",
"f+	c #41B24C",
"g+	c #56A75B",
"h+	c #659565",
"i+	c #C1DD98",
"j+	c #80AF40",
"k+	c #72A53C",
"l+	c #CAE8B5",
"m+	c #E6FFE0",
"n+	c #DFFCE2",
"o+	c #CBF6CD",
"p+	c #B9FDBE",
"q+	c #7DE889",
"r+	c #45E661",
"s+	c #3DE85F",
"t+	c #1A8527",
"u+	c #246C25",
"v+	c #477847",
"w+	c #CBE8A8",
"x+	c #C0E08F",
"y+	c #A2C56A",
"z+	c #A0BF78",
"A+	c #CFE8C0",
"B+	c #E0FCE4",
"C+	c #C8F9D6",
"D+	c #A4F4B1",
"E+	c #91F99C",
"F+	c #63E370",
"G+	c #3ED754",
"H+	c #41CE58",
"I+	c #297B30",
"J+	c #366433",
"K+	c #DCF0C0",
"L+	c #A8C783",
"M+	c #88B557",
"N+	c #ADD079",
"O+	c #DCEFAF",
"P+	c #E4F4C5",
"Q+	c #DBF1CE",
"R+	c #CFFCD3",
"S+	c #A6F6B3",
"T+	c #69E578",
"U+	c #59EC63",
"V+	c #3ABF42",
"W+	c #229628",
"X+	c #2F8831",
"Y+	c #E0F5B2",
"Z+	c #A8CC77",
"`+	c #6CA331",
" @	c #A8CB83",
".@	c #E7F8CC",
"+@	c #ECFEDD",
"@@	c #D2F6CE",
"#@	c #B7FEBD",
"$@	c #8BFA98",
"%@	c #55EC61",
"&@	c #4EEA53",
"*@	c #3CB13B",
"=@	c #2F7623",
"-@	c #3F5E2E",
";@	c #B1CB85",
">@	c #AED476",
",@	c #B2DE7E",
"'@	c #BBE09B",
")@	c #CAE7B5",
"!@	c #DEF4CF",
"~@	c #CEF7CB",
"{@	c #A1EBA9",
"]@	c #80EF8F",
"^@	c #5FE56F",
"/@	c #32BE3A",
"(@	c #32B032",
"_@	c #85C37C",
":@	c #CBE6B2",
"<@	c #72A438",
"[@	c #84B64A",
"}@	c #C0E69B",
"|@	c #E2FFD6",
"1@	c #DFFBDC",
"2@	c #D5FBCA",
"3@	c #B0FDB4",
"4@	c #70EE85",
"5@	c #4AF06A",
"6@	c #3EDA56",
"7@	c #1C8D21",
"8@	c #29721D",
"9@	c #C1E2AB",
"0@	c #649F31",
"a@	c #71B044",
"b@	c #A7E094",
"c@	c #C3FACC",
"d@	c #BCF6CA",
"e@	c #ACF8A7",
"f@	c #8BFA94",
"g@	c #51E86B",
"h@	c #34DF57",
"i@	c #37CA51",
"j@	c #28862A",
"k@	c #406632",
"l@	c #38762A",
"m@	c #348E2C",
"n@	c #5ACE5F",
"o@	c #63EC75",
"p@	c #59F26E",
"q@	c #50F15F",
"r@	c #50F063",
"s@	c #2FBA42",
"t@	c #1D902D",
"u@	c #2A8636",
"v@	c #356934",
"w@	c #24822B",
"x@	c #46C953",
"y@	c #4BEB5C",
"z@	c #3EEF54",
"A@	c #3EEC53",
"B@	c #52E960",
"C@	c #2EA338",
"D@	c #256F25",
"E@	c #396835",
"F@	c #6EAB70",
"G@	c #6CBC70",
"H@	c #32AF3D",
"I@	c #30B83D",
"J@	c #30B33C",
"K@	c #43AD48",
"L@	c #85C482",
"M@	c #49834A",
"N@	c #217525",
"O@	c #207822",
"P@	c #277624",
"Q@	c #2F6F28",
"R@	c #3D6339",
"S@	c #366634",
"T@	c #356832",
"U@	c #396532",
"V@	c #3F6036",
"                                                . + @ #         ",
"                                              $ % & * = -       ",
"                                            ; > , ' ) ! ~ {     ",
"                                          ] ^ / ( _ : < [ } |   ",
"                                        1 2 3 4 5 6 7 8 9 0 a b ",
"                                      c d e f g h i j k l m n o ",
"                                    p q r s t u v w x y z A B   ",
"                                  C D E F G H I J K L M N O P   ",
"                                Q R S T U V W X Y Z `  ...+.    ",
"                                @.#.$.%.&.*.=.-.;.>.,.'.).      ",
"                            !.~.{.].^./.(._.:.<.[.}.|.1.        ",
"                          2.3.4.5.6.7.8.9.0.a.b.c.d.            ",
"                        e.f.g.h.i.j.k.l.m.n.o.p.q.r.            ",
"                      s.t.u.v.w.x.y.z.A.B.C.D.E.                ",
"                    F.G.H.I.J.K.L.M.N.O.P.Q.R.S.                ",
"                    T.U.V.W.X.Y.Z.`. +.+++@+#+$+                ",
"                %+&+*+=+-+;+>+,+'+)+!+~+{+                      ",
"              ]+^+/+(+_+:+<+[+}+|+1+2+3+4+                      ",
"            5+6+7+8+9+0+a+b+c+d+e+f+g+h+                        ",
"          i+j+k+l+m+n+o+p+q+r+s+t+u+v+                          ",
"        w+x+y+z+A+B+C+D+E+F+G+H+I+J+                            ",
"    K+L+M+N+O+P+Q+R+S+T+U+V+W+X+                                ",
"    Y+Z+`+ @.@+@@@#@$@%@&@*@=@-@                                ",
"  ;@>@,@'@)@!@~@{@]@^@/@(@_@                                    ",
":@<@[@}@|@1@2@3@4@5@6@7@8@                                      ",
"9@0@a@b@c@d@e@f@g@h@i@j@k@                                      ",
"  l@m@n@o@p@q@r@s@t@u@                                          ",
"  v@w@x@y@z@A@B@C@D@E@                                          ",
"    F@G@H@I@J@K@L@                                              ",
"      M@N@O@P@Q@                                                ",
"      R@S@T@U@V@                                                "};
